<svg width="179" height="72" viewBox="0 0 179 72" fill="none" xmlns="http://www.w3.org/2000/svg">
<g filter="url(#filter0_d_2017_6632)">
<path d="M40.3618 0.0621567C41.9113 -0.198189 43.2142 0.416517 44.0788 1.07243C44.9571 1.7388 45.6451 2.62765 46.161 3.49518C47.1834 5.21419 47.9 7.48043 47.9 9.59605C47.9 10.4985 47.7221 11.6849 47.5095 12.8349C47.3908 13.4767 48.4202 13.9513 48.8787 13.4874C48.9978 13.3669 49.1203 13.2473 49.2463 13.1288C50.8862 11.5862 53.1499 10.2842 55.6237 10.5783C58.4254 10.9114 60.1657 13.0761 60.9192 15.6887C61.4154 17.4092 61.1286 19.1718 60.7353 20.5476C60.3263 21.9779 59.6892 23.3695 59.0958 24.5229C58.8915 24.9202 59.0211 25.4047 59.3651 25.6895C59.9052 26.1366 60.4124 26.712 60.7558 27.4417C61.3223 28.6455 61.5134 30.0786 61.094 31.6733C60.6982 33.1787 59.7974 34.6876 58.448 36.2501C57.4405 37.4168 56.4587 38.2403 55.6472 38.8333C55.3596 39.0435 55.1965 39.3826 55.1942 39.739C55.1934 39.8574 55.1901 39.9756 55.1841 40.0933C55.1186 41.3952 54.7162 43.1122 53.4023 44.5677C52.7815 45.2555 52.0912 45.7306 51.6396 46.0378C51.1183 46.3925 50.8719 46.5545 50.6418 46.7645C50.4176 46.9694 50.0063 47.3513 49.9095 48.8894C49.8302 50.1477 50.1236 51.7295 50.6017 53.3728C51.0897 55.0502 51.6106 56.3127 51.9819 57.3991L52.4813 58.8599C52.6363 59.3132 52.4529 59.8132 52.0418 60.0584L50.7169 60.8487C49.8262 61.38 48.1728 61.9783 46.2075 62.4971C44.1412 63.0426 41.4646 63.5694 38.3791 63.8586C32.1074 64.4465 22.5511 63.0629 19.3017 62.3787L17.7918 62.0608C17.3234 61.9622 16.9881 61.5485 16.9881 61.0693V59.5248C16.9881 59.6499 16.9833 59.2847 16.2758 58.2866C15.6527 57.4075 14.7547 56.4068 13.7171 55.3521C12.6826 54.3005 11.6183 53.3028 10.6431 52.3657C9.77425 51.5309 8.7756 50.5616 8.21659 49.7756C7.59835 48.9063 6.32928 47.2498 5.62381 45.5866C5.25834 44.7249 4.91499 43.5852 5.0188 42.3341C5.13312 40.9566 5.77296 39.6835 6.94936 38.7295C7.39948 38.3645 7.86586 38.0855 8.33439 37.8763C8.68737 37.7186 8.88879 37.3225 8.75632 36.959C8.31302 35.7426 7.45621 33.7095 6.92771 31.7673C6.39204 29.7987 5.99227 27.2945 6.77503 24.8664C7.44315 22.7941 8.88787 21.6478 10.3824 21.1529C10.81 21.0113 11.1424 20.6518 11.2007 20.2048C11.3689 18.9129 11.7103 17.3752 12.458 15.9501C13.5432 13.8813 15.1101 12.4612 16.956 11.806C18.0482 11.4183 19.1601 11.3281 20.2015 11.4777C20.7119 11.551 21.2244 11.271 21.3989 10.7853C22.0165 9.06602 22.8318 6.96113 24.0005 5.37206C24.6028 4.55316 25.4201 3.69883 26.525 3.1425C27.6646 2.56868 28.9462 2.39703 30.2666 2.69234L30.3947 2.72241L30.5382 2.75975C33.5154 3.57925 34.1628 6.53087 34.2796 7.99971C34.2965 8.21125 34.3062 8.42479 34.3094 8.639C34.3136 8.91402 34.4514 9.17053 34.6743 9.33134C34.8226 9.43833 34.9723 9.55355 35.0885 9.64273C35.1354 9.67872 35.2037 9.66062 35.2269 9.60623C35.2961 9.44424 35.3639 9.28564 35.4299 9.13134C35.5312 8.89473 35.6031 8.54072 35.6188 7.9244C35.6266 7.61708 35.6204 7.30275 35.6128 6.91492C35.6057 6.55462 35.5967 6.10885 35.6134 5.6662C35.6449 4.83186 35.7711 3.52691 36.5735 2.33839C37.4603 1.02499 38.8157 0.347834 40.2878 0.0752895L40.3618 0.0621567Z" fill="#F6F6F9"/>
<path d="M38.1075 60.9547C32.2703 61.5018 23.0514 60.1878 19.9012 59.5246C19.9012 56.1426 12.0489 50.1357 10.5896 48.0839C9.13035 46.032 6.55923 42.7988 8.78289 40.9956C10.5618 39.5531 12.8828 40.5604 13.1607 40.9956C12.9523 40.2702 12.3269 38.2474 11.493 35.9592C10.4507 33.0991 8.50495 28.9953 9.54729 25.7621C10.3812 23.1755 13.2174 23.6688 13.8892 24.1455C13.9818 23.047 13.7584 19.7433 15.037 17.3059C16.6352 14.2592 19.2063 13.8861 20.8741 14.6945C22.2083 15.3411 22.1712 21.2646 21.9859 24.1455C22.287 21.1817 23.1394 14.5577 24.1401 11.7721C25.3909 8.29015 26.9197 4.87038 29.6992 5.55433C31.9229 6.10149 31.5523 10.0726 30.8806 11.7721C32.3039 10.9394 32.5124 11.3746 33.7296 12.2695C35.0218 13.2195 35.0962 16.0002 35.1194 17.3059C35.6985 15.938 37.1068 12.6177 38.1075 10.2798C39.3583 7.35748 37.0651 3.63755 40.8175 2.94287C42.8327 2.56981 44.9869 6.54918 44.9869 9.59589C44.9869 12.0333 42.9022 19.9796 41.8599 23.6481C42.4621 22.9226 43.9307 21.3723 44.9869 20.9744C46.0432 20.5765 46.8607 20.7635 47.2441 21.2609C48.4254 19.309 49.0729 17.2935 51.241 15.254C53.9511 12.7048 57.0086 12.6426 58.1204 16.4976C59.2148 20.292 53.9137 27.0379 54.5417 27.0121C54.5534 27.0099 54.565 27.0077 54.5765 27.0056C55.4103 26.7569 57.5645 27.5031 58.1204 28.6844C58.6763 29.8658 58.6069 31.6068 56.2442 34.3426C53.8816 37.0784 51.7274 37.5137 52.0054 38.0733C52.2833 38.6329 52.7002 40.9956 51.241 42.6122C49.7817 44.2289 47.2801 44.291 47.0021 48.7057C46.7797 52.2374 48.6235 56.5815 49.2258 58.3432C48.1834 58.965 43.9446 60.4075 38.1075 60.9547Z" fill="#F06334"/>
<path d="M44.5824 9.59633C44.5824 8.15524 44.0686 6.46953 43.3104 5.19464C42.9319 4.55832 42.5057 4.04662 42.0749 3.71982C41.6442 3.39304 41.2453 3.27615 40.8913 3.34166C40.0274 3.5016 39.5774 3.82059 39.3222 4.19861C39.0553 4.59397 38.9542 5.1205 38.9288 5.79163C38.9163 6.12364 38.9224 6.4751 38.9298 6.84969C38.9371 7.22047 38.9455 7.6129 38.9355 8.00901C38.9154 8.80097 38.8216 9.64065 38.4795 10.4398C37.4964 12.7367 36.1195 15.9825 35.5227 17.392C35.4942 19.4512 35.2508 24.4094 34.4657 27.1189C34.0677 28.4927 33.0888 30.8277 32.1573 32.9297C31.2218 35.0406 30.3202 36.9473 30.0638 37.4792C29.9667 37.6806 29.7248 37.7651 29.5236 37.668C29.3223 37.5707 29.2379 37.3286 29.335 37.1271C29.5882 36.6019 30.4862 34.7031 31.4176 32.6012C32.353 30.4905 33.3084 28.2055 33.6886 26.8933C34.449 24.2688 34.6913 19.3228 34.7148 17.3064C34.7032 16.6529 34.6783 15.6659 34.5029 14.7293C34.3222 13.7646 34.002 12.9727 33.4903 12.5964C33.3343 12.4818 33.1947 12.3746 33.07 12.2789C32.9438 12.1821 32.8353 12.0988 32.7346 12.0262C32.5303 11.8788 32.3898 11.7991 32.2646 11.7609C32.0644 11.6998 31.8031 11.7141 31.1688 12.074C30.6354 12.9344 29.5278 15.1519 29.0548 17.6915C28.7409 19.3767 28.1143 22.3819 27.5405 24.9645C27.2536 26.2559 26.9792 27.445 26.7629 28.3127C26.6551 28.7456 26.5605 29.1036 26.4853 29.3556C26.4482 29.4799 26.413 29.5879 26.3811 29.6687C26.366 29.7068 26.3457 29.7545 26.3199 29.7983C26.3079 29.8187 26.2843 29.8565 26.2476 29.8942C26.2236 29.9187 26.1196 30.0226 25.9469 30.0226C25.7235 30.0226 25.5424 29.8413 25.5423 29.6176C25.5423 29.5221 25.5753 29.4343 25.6305 29.3651C25.6492 29.317 25.6758 29.2377 25.7099 29.1236C25.7796 28.8898 25.8707 28.5464 25.9778 28.1167C26.1915 27.2589 26.4642 26.0775 26.7506 24.7885C27.3234 22.2104 27.9477 19.2153 28.2592 17.5429C28.7638 14.8338 29.9517 12.4834 30.5172 11.59C30.8248 10.7921 31.0674 9.45733 30.9724 8.26375C30.8735 7.0205 30.4384 6.15375 29.6028 5.94812C29.001 5.80006 28.4831 5.8747 28.0158 6.10998C27.5386 6.35027 27.0933 6.76936 26.6724 7.34161C25.8257 8.49292 25.1474 10.1656 24.5209 11.9096C24.0351 13.262 23.5765 15.5792 23.2004 17.9557C22.8259 20.3218 22.5384 22.7113 22.3885 24.187C22.3661 24.4065 22.1723 24.5678 21.9526 24.5496C21.7328 24.5313 21.5681 24.3402 21.5823 24.1199C21.6742 22.6906 21.729 20.5087 21.5964 18.6108C21.5299 17.6598 21.4174 16.7976 21.2455 16.1421C21.1595 15.814 21.0625 15.5533 20.9583 15.364C20.8515 15.1698 20.7578 15.0884 20.6979 15.0594C19.9577 14.7007 19.0101 14.6012 18.0648 14.9368C17.1242 15.2706 16.1547 16.0471 15.3954 17.4946C14.7923 18.6442 14.5351 20.0178 14.4215 21.265C14.3649 21.8855 14.3445 22.4671 14.3325 22.9662C14.3235 23.3407 14.319 23.6834 14.3064 23.9541C15.1473 24.6046 16.3795 25.7394 17.8438 27.4241C19.4371 29.257 20.7675 32.3614 21.2344 33.4478L21.2458 33.4745C21.3341 33.68 21.2394 33.9183 21.0342 34.0068C20.8289 34.0952 20.5908 34.0002 20.5025 33.7947L20.491 33.768C20.0114 32.6522 18.7279 29.6752 17.2334 27.9559C15.6938 26.1846 14.4348 25.0552 13.6532 24.4749C13.549 24.4018 13.3088 24.2979 12.9674 24.2313C12.6331 24.166 12.2373 24.1437 11.8416 24.2056C11.0693 24.3265 10.2949 24.7626 9.93243 25.8869C9.4476 27.3908 9.64931 29.132 10.1289 30.8945C10.6095 32.6606 11.3413 34.3611 11.8733 35.8208C12.6338 37.9077 13.2214 39.7757 13.4809 40.6507C13.9823 40.7668 14.6816 40.9762 15.4055 41.2839C16.2507 41.6431 17.1624 42.1502 17.8269 42.826C19.1007 44.1211 20.4496 46.5998 20.9605 47.6596C21.0576 47.861 20.9734 48.1032 20.7721 48.2004C20.5709 48.2976 20.3289 48.2131 20.2318 48.0116C19.7235 46.9574 18.4226 44.5863 17.2504 43.3943C16.6919 42.8265 15.8897 42.3698 15.0892 42.0296C14.2929 41.6911 13.5311 41.4816 13.083 41.3935C12.9745 41.3722 12.8795 41.3075 12.82 41.2143C12.8267 41.2248 12.8094 41.1974 12.7319 41.1424C12.662 41.0928 12.5634 41.0351 12.4384 40.9766C12.1885 40.8597 11.8541 40.7495 11.4747 40.6924C10.7162 40.5784 9.81568 40.68 9.03772 41.3108C8.56798 41.6917 8.36501 42.1301 8.32524 42.6093C8.28403 43.1061 8.41684 43.6736 8.67769 44.2886C9.20293 45.5269 10.1742 46.8016 10.9193 47.8493C11.2571 48.3243 11.9891 49.0555 12.9406 49.9697C13.8772 50.8697 15.0031 51.9258 16.0811 53.0217C17.1587 54.1171 18.2038 55.2673 18.9816 56.3647C19.6615 57.324 20.1774 58.2977 20.2849 59.19C23.6717 59.8659 32.4675 61.077 38.0698 60.5518C40.9652 60.2804 43.4623 59.7871 45.3615 59.2857C46.9652 58.8624 48.1196 58.4388 48.728 58.1479C48.4074 57.2547 47.8679 55.8541 47.4163 54.3019C46.9037 52.5397 46.4828 50.5169 46.5984 48.6806C46.7433 46.3804 47.4776 45.1588 48.406 44.3109C48.8539 43.9019 49.3415 43.5858 49.7749 43.291C50.2179 42.9896 50.6117 42.7059 50.9409 42.3411C51.5894 41.6227 51.8302 40.7282 51.8706 39.9265C51.9116 39.1112 51.7427 38.4545 51.6432 38.254C51.5451 38.0565 51.5615 37.8513 51.6522 37.6774C51.7284 37.5312 51.8523 37.4151 51.9634 37.3249C52.185 37.1449 52.5363 36.931 52.914 36.6849C53.6973 36.1745 54.7918 35.4057 55.9383 34.0781C57.0962 32.7372 57.6636 31.6721 57.8856 30.8279C58.1043 29.996 57.9924 29.363 57.7546 28.8575C57.5397 28.4009 56.9733 27.9709 56.2945 27.682C55.9652 27.5419 55.6316 27.4447 55.3389 27.397C55.0368 27.3478 54.8158 27.3573 54.6921 27.3942C54.6681 27.4013 54.639 27.4082 54.6061 27.4127C54.0677 27.5164 53.2229 27.7759 52.4257 28.2227C51.6185 28.6749 50.9071 29.2923 50.5713 30.0864C50.1726 31.0293 49.4499 32.3789 48.7928 33.5663C48.1249 34.7731 47.5334 35.7978 47.3651 36.139C47.3298 36.2107 47.2739 36.2702 47.2049 36.3102C46.4668 36.7379 45.2922 37.482 44.1781 38.3175C43.0503 39.1632 42.0361 40.0652 41.5682 40.8057C41.4488 40.9948 41.1989 41.0512 41.01 40.9317C40.8212 40.8121 40.7649 40.5619 40.8844 40.3728C41.4392 39.4947 42.5633 38.5162 43.693 37.6691C44.7859 36.8495 45.9323 36.1178 46.6961 35.6696C46.9266 35.2294 47.4927 34.244 48.085 33.1737C48.7447 31.9818 49.4465 30.668 49.8261 29.7704C50.2607 28.7427 51.146 28.0113 52.0304 27.5157C52.7726 27.0998 53.5476 26.8313 54.1394 26.6863C54.1554 26.6413 54.1731 26.5989 54.1895 26.5615C54.2822 26.3491 54.4446 26.0543 54.6385 25.7137C55.0344 25.0179 55.5966 24.071 56.1464 23.0023C56.6961 21.9339 57.223 20.7627 57.5458 19.6339C57.8707 18.4974 57.9745 17.4517 57.7318 16.6103C57.2033 14.778 56.2579 13.9987 55.2324 13.8768C54.1614 13.7495 52.8336 14.3123 51.5181 15.5497C49.4033 17.5391 48.8211 19.4375 47.5903 21.4712C47.5831 21.4831 47.5752 21.4948 47.5668 21.506C46.6815 22.6757 45.0084 25.4173 43.4782 28.0966C42.7156 29.4319 41.9928 30.7441 41.4268 31.8263C40.8543 32.9208 40.4588 33.7491 40.3321 34.1343C40.2623 34.3468 40.0336 34.4624 39.8213 34.3925C39.6091 34.3226 39.4937 34.0936 39.5636 33.8811C39.7149 33.4207 40.1445 32.5314 40.7099 31.4505C41.2817 30.3571 42.0096 29.0359 42.7757 27.6945C44.1881 25.2216 45.7457 22.6533 46.7008 21.3179C46.3945 21.1394 45.8736 21.0736 45.1295 21.3539C44.6799 21.5233 44.0976 21.9628 43.5269 22.4873C42.9712 22.9981 42.4687 23.5497 42.1767 23.9007L37.0184 30.7869C36.8843 30.9658 36.6307 31.0021 36.4519 30.8679C36.2732 30.7337 36.2369 30.4798 36.371 30.3008L41.491 23.4658C42.0108 21.6324 42.7794 18.7743 43.4207 16.0673C43.7456 14.6958 44.0371 13.3665 44.2472 12.2306C44.4587 11.0863 44.5824 10.165 44.5824 9.59633ZM25.8128 29.2356C25.812 29.2359 25.8112 29.2363 25.8104 29.2366C25.8112 29.2363 25.812 29.2359 25.8128 29.2356ZM25.842 29.2266C25.8394 29.2273 25.8367 29.2279 25.8341 29.2287C25.8367 29.2279 25.8394 29.2273 25.842 29.2266ZM25.8994 29.2154C25.8891 29.2166 25.8791 29.2181 25.8695 29.22C25.8793 29.2181 25.8893 29.2166 25.8994 29.2154ZM25.9469 29.2125C25.9342 29.2125 25.9219 29.2132 25.91 29.2143C25.9221 29.2132 25.9345 29.2125 25.9469 29.2125ZM45.3916 9.59633C45.3916 10.2464 45.2548 11.2324 45.0429 12.3781C44.8295 13.5323 44.5346 14.8759 44.2081 16.2542C43.7219 18.3066 43.1632 20.4435 42.694 22.1602C42.7871 22.07 42.8826 21.9797 42.9796 21.8905C43.5578 21.359 44.238 20.8242 44.8446 20.5957C45.7333 20.2609 46.5641 20.2778 47.142 20.6338C48.1429 18.8672 48.9064 16.8948 50.964 14.9592C52.3586 13.6474 53.9147 12.9044 55.3279 13.0724C56.7866 13.2458 57.9259 14.363 58.5092 16.3856C58.8137 17.4414 58.6653 18.662 58.3237 19.8568C57.9799 21.0592 57.426 22.2842 56.8657 23.3734C56.3055 24.4622 55.7286 25.4343 55.3415 26.1146C55.2456 26.2832 55.1633 26.4306 55.0956 26.5567C55.2187 26.5629 55.3444 26.5772 55.469 26.5975C55.8321 26.6567 56.2281 26.7735 56.6111 26.9364C57.3568 27.2538 58.1455 27.7874 58.4866 28.5122C58.8047 29.1881 58.9359 30.0163 58.6682 31.0342C58.4038 32.0397 57.755 33.2131 56.5504 34.608C55.3343 36.0162 54.1704 36.8329 53.3554 37.364C52.9341 37.6386 52.6511 37.8096 52.4732 37.954C52.4494 37.9734 52.4307 37.9897 52.4162 38.0032C52.5765 38.401 52.7205 39.1404 52.6788 39.9671C52.6323 40.8909 52.352 41.986 51.5412 42.8842C51.1408 43.3277 50.6747 43.6581 50.2296 43.9609C49.7748 44.2703 49.346 44.5489 48.9513 44.9093C48.1946 45.6003 47.5392 46.6172 47.4061 48.7316C47.2993 50.4269 47.6891 52.3421 48.1933 54.0753C48.6989 55.8133 49.2979 57.3031 49.6088 58.2125C49.6707 58.3937 49.5973 58.5935 49.433 58.6916C48.8605 59.0331 47.4939 59.5607 45.568 60.0691C43.6279 60.5812 41.087 61.0826 38.1452 61.3583C32.2478 61.9111 22.982 60.5876 19.818 59.9215C19.6308 59.882 19.4967 59.7165 19.4967 59.5249C19.4967 58.8143 19.0734 57.8942 18.3216 56.8335C17.5815 55.7894 16.5724 54.6755 15.5046 53.5901C14.4371 52.505 13.3262 51.4632 12.3801 50.5542C11.4488 49.6593 10.652 48.8701 10.2602 48.3192C9.54605 47.3151 8.50202 45.9472 7.93281 44.6052C7.64645 43.9301 7.46224 43.223 7.51872 42.5423C7.57667 41.844 7.88627 41.202 8.52833 40.6814C9.52927 39.8697 10.6787 39.7536 11.5949 39.8913C11.9156 39.9396 12.2123 40.0194 12.471 40.1141C12.1647 39.1329 11.6892 37.6794 11.113 36.0985C10.6027 34.6981 9.84039 32.9165 9.34813 31.1074C8.85486 29.2947 8.60492 27.3674 9.16242 25.638C9.63384 24.1758 10.6945 23.5653 11.7166 23.4053C12.2183 23.3268 12.7097 23.3555 13.1222 23.436C13.2569 23.4623 13.3875 23.495 13.5103 23.533C13.5143 23.3604 13.5182 23.1648 13.5234 22.9468C13.5356 22.4414 13.5566 21.8388 13.6156 21.1914C13.733 19.9028 14.0034 18.4059 14.6789 17.1181C15.5178 15.5189 16.6329 14.5854 17.7944 14.1732C18.9511 13.7626 20.1229 13.8807 21.0505 14.3303C21.3241 14.4629 21.5212 14.7082 21.667 14.973C21.8154 15.2426 21.9329 15.5733 22.0281 15.9364C22.1864 16.5399 22.2936 17.2762 22.3643 18.0643C22.3765 17.9858 22.3887 17.9074 22.4011 17.829C22.7767 15.4562 23.2446 13.0685 23.7594 11.6354C24.3837 9.89744 25.0955 8.11931 26.0208 6.86124C26.4859 6.22884 27.022 5.70362 27.6523 5.38626C28.2925 5.06391 29.0079 4.96753 29.7959 5.16142C31.1839 5.50295 31.6753 6.89539 31.7791 8.19935C31.8549 9.15177 31.7391 10.1766 31.5369 11.0148C31.8776 10.9061 32.1866 10.8902 32.5004 10.9859C32.7574 11.0643 32.9862 11.2091 33.2078 11.3689C33.3201 11.4499 33.4386 11.5411 33.5623 11.636C33.6875 11.7321 33.821 11.8344 33.9693 11.9434C34.7497 12.5172 35.1128 13.5906 35.2982 14.5801C35.3577 14.8981 35.401 15.2197 35.4327 15.5317C36.1113 13.932 37.0259 11.7792 37.7357 10.1207C38.0191 9.45873 38.1076 8.73754 38.1266 7.98844C38.1361 7.61399 38.1281 7.24062 38.1207 6.86567C38.1134 6.49455 38.1067 6.1201 38.1203 5.76109C38.1471 5.05016 38.2543 4.33379 38.6518 3.74498C39.061 3.13881 39.7319 2.7324 40.7442 2.545C41.3977 2.42404 42.0237 2.66453 42.5636 3.0741C43.1035 3.48371 43.5937 4.0874 44.0057 4.78009C44.8283 6.1633 45.3916 7.99071 45.3916 9.59633ZM25.8638 29.2211C25.8563 29.2227 25.8491 29.2247 25.842 29.2266C25.8492 29.2247 25.8564 29.2226 25.8638 29.2211Z" fill="#1D1D25"/>
<ellipse cx="29.1953" cy="50.9585" rx="2.83222" ry="2.83541" fill="#F6F6F9"/>
<ellipse cx="40.0385" cy="50.3105" rx="2.83222" ry="2.83541" fill="#F6F6F9"/>
<ellipse cx="40.0385" cy="50.3912" rx="1.53749" ry="1.62023" fill="#1D1D25"/>
<ellipse cx="29.2761" cy="50.9587" rx="1.61841" ry="1.53922" fill="#1D1D25"/>
<ellipse cx="40.6746" cy="50.0686" rx="0.421688" ry="0.422161" fill="#F6F6F9"/>
<ellipse cx="29.7107" cy="50.575" rx="0.421686" ry="0.422163" fill="#F6F6F9"/>
<path d="M37.5673 53.607C37.7597 53.4934 38.0078 53.5574 38.1214 53.7501C38.2349 53.9427 38.1709 54.1911 37.9785 54.3048C37.1255 55.0888 36.1954 55.5885 35.2644 55.6559C34.3231 55.724 33.3223 55.1698 32.3051 54.4654C32.1134 54.3504 32.0511 54.1016 32.166 53.9097C32.2809 53.7178 32.5294 53.6555 32.7211 53.7705C33.6792 54.3454 34.467 54.536 35.2048 54.4826C35.9528 54.4285 36.6982 54.1205 37.5673 53.607Z" fill="#1D1D25"/>
</g>
<path d="M157.296 63.594V39.5112H162.044L164.078 44.5848V63.594H157.296ZM173.913 63.594L159.907 46.0393L162.044 39.5112L176.05 57.0659L173.913 63.594ZM173.913 63.594L172.217 58.2498V39.5112H179V63.594H173.913Z" fill="#F6F6F9"/>
<path d="M136.654 63.594V39.5112H143.437V63.594H136.654ZM142.148 63.594V57.9792H155.103V63.594H142.148ZM142.148 54.0556V48.5761H153.848V54.0556H142.148ZM142.148 45.126V39.5112H154.899V45.126H142.148Z" fill="#F6F6F9"/>
<path d="M122.551 64C120.674 64 118.934 63.6956 117.328 63.0867C115.746 62.4554 114.355 61.5759 113.157 60.4485C111.982 59.321 111.066 58.0019 110.41 56.491C109.755 54.9802 109.427 53.3341 109.427 51.5527C109.427 49.7488 109.766 48.0914 110.444 46.5806C111.145 45.0698 112.106 43.7619 113.327 42.657C114.57 41.5295 116.006 40.6614 117.634 40.0525C119.261 39.4212 121.002 39.1055 122.856 39.1055C125.094 39.1055 127.095 39.4888 128.859 40.2555C130.645 41.0222 132.092 42.0594 133.199 43.3673L128.621 47.9336C127.785 46.9639 126.914 46.2423 126.01 45.7688C125.106 45.2953 124.02 45.0585 122.754 45.0585C121.556 45.0585 120.471 45.3291 119.499 45.8703C118.527 46.3889 117.747 47.133 117.159 48.1027C116.594 49.0723 116.311 50.211 116.311 51.5189C116.311 52.8268 116.571 53.9768 117.091 54.969C117.634 55.9386 118.38 56.694 119.329 57.2352C120.279 57.7764 121.387 58.0469 122.653 58.0469C123.874 58.0469 124.902 57.8102 125.739 57.3366C126.575 56.8631 127.208 56.1866 127.638 55.3072C128.09 54.4278 128.316 53.3905 128.316 52.1954L132.962 55.1381L121.737 54.7998V49.388H135.133V50.4027C135.133 53.289 134.601 55.7469 133.539 57.7764C132.499 59.8058 131.029 61.3504 129.13 62.4103C127.253 63.4701 125.06 64 122.551 64Z" fill="#F6F6F9"/>
<path d="M90.4033 63.594V39.5112H97.1858V63.594H90.4033ZM95.8972 63.594V57.9792H108.852V63.594H95.8972ZM95.8972 54.0556V48.5761H107.597V54.0556H95.8972ZM95.8972 45.126V39.5112H108.648V45.126H95.8972Z" fill="#F6F6F9"/>
<path d="M74.4938 53.9879V49.3202H78.5973C79.5242 49.3202 80.2251 49.0947 80.6999 48.6437C81.1972 48.1927 81.4459 47.5952 81.4459 46.8511C81.4459 46.1069 81.1972 45.5094 80.6999 45.0584C80.2251 44.6074 79.5242 44.3819 78.5973 44.3819H74.4938V39.5112H79.6825C81.3555 39.5112 82.825 39.8156 84.0911 40.4245C85.3572 41.0333 86.352 41.8789 87.0754 42.9613C87.7989 44.0437 88.1606 45.3064 88.1606 46.7496C88.1606 48.1927 87.7876 49.4555 87.0415 50.5379C86.318 51.6202 85.3007 52.4658 83.9894 53.0747C82.6781 53.6835 81.1294 53.9879 79.3433 53.9879H74.4938ZM69 63.594V39.5112H75.7825V63.594H69ZM82.0224 63.594L75.4434 53.3114L81.5477 51.9923L89.7206 63.594H82.0224Z" fill="#F6F6F9"/>
<path d="M155.19 21.4795C154.127 21.4795 153.246 21.1187 152.545 20.3971C151.844 19.6756 151.493 18.7961 151.493 17.7589C151.493 16.699 151.844 15.8083 152.545 15.0868C153.246 14.3652 154.127 14.0044 155.19 14.0044C156.252 14.0044 157.123 14.3652 157.801 15.0868C158.502 15.8083 158.852 16.699 158.852 17.7589C158.852 18.7961 158.502 19.6756 157.801 20.3971C157.123 21.1187 156.252 21.4795 155.19 21.4795Z" fill="#F6F6F9"/>
<path d="M131.687 38.0827V14H138.469V38.0827H131.687ZM137.18 29.5252V23.9105H149.05V29.5252H137.18ZM137.18 19.6148V14H149.558V19.6148H137.18Z" fill="#F6F6F9"/>
<path d="M111.045 38.0827V14H117.827V38.0827H111.045ZM116.539 38.0827V32.4679H129.493V38.0827H116.539ZM116.539 28.5444V23.0648H128.239V28.5444H116.539ZM116.539 19.6148V14H129.29V19.6148H116.539Z" fill="#F6F6F9"/>
<path d="M90.4033 38.0827V14H97.1858V38.0827H90.4033ZM95.8972 38.0827V32.4679H108.852V38.0827H95.8972ZM95.8972 28.5444V23.0648H107.597V28.5444H95.8972ZM95.8972 19.6148V14H108.648V19.6148H95.8972Z" fill="#F6F6F9"/>
<path d="M74.4938 28.4767V23.809H78.5973C79.5242 23.809 80.2251 23.5835 80.6999 23.1325C81.1972 22.6815 81.4459 22.084 81.4459 21.3398C81.4459 20.5957 81.1972 19.9981 80.6999 19.5471C80.2251 19.0962 79.5242 18.8707 78.5973 18.8707H74.4938V14H79.6825C81.3555 14 82.825 14.3044 84.0911 14.9132C85.3572 15.5221 86.352 16.3677 87.0754 17.4501C87.7989 18.5324 88.1606 19.7952 88.1606 21.2384C88.1606 22.6815 87.7876 23.9443 87.0415 25.0266C86.318 26.109 85.3007 26.9546 83.9894 27.5635C82.6781 28.1723 81.1294 28.4767 79.3433 28.4767H74.4938ZM69 38.0827V14H75.7825V38.0827H69ZM82.0224 38.0827L75.4434 27.8002L81.5477 26.4811L89.7206 38.0827H82.0224Z" fill="#F6F6F9"/>
<defs>
<filter id="filter0_d_2017_6632" x="0" y="0" width="64.3208" height="72.0005" filterUnits="userSpaceOnUse" color-interpolation-filters="sRGB">
<feFlood flood-opacity="0" result="BackgroundImageFix"/>
<feColorMatrix in="SourceAlpha" type="matrix" values="0 0 0 0 0 0 0 0 0 0 0 0 0 0 0 0 0 0 127 0" result="hardAlpha"/>
<feOffset dx="-1" dy="4"/>
<feGaussianBlur stdDeviation="2"/>
<feComposite in2="hardAlpha" operator="out"/>
<feColorMatrix type="matrix" values="0 0 0 0 0 0 0 0 0 0 0 0 0 0 0 0 0 0 0.25 0"/>
<feBlend mode="normal" in2="BackgroundImageFix" result="effect1_dropShadow_2017_6632"/>
<feBlend mode="normal" in="SourceGraphic" in2="effect1_dropShadow_2017_6632" result="shape"/>
</filter>
</defs>
</svg>
