<svg width="200" height="64" viewBox="0 0 200 64" fill="none" xmlns="http://www.w3.org/2000/svg">
<path d="M35.7812 0.0362458C36.886 -0.130627 37.854 0.302845 38.5644 0.841816C39.2978 1.39821 39.9083 2.17119 40.3901 2.98132C41.3482 4.59226 42.0128 6.71807 42.0128 8.64867C42.0128 9.45347 41.8494 10.5822 41.6282 11.7784C41.4005 13.0101 41.088 14.4329 40.7451 15.88C40.5125 16.8618 40.264 17.8615 40.0162 18.8292C40.6398 18.6334 41.3125 18.5482 41.9532 18.6288C42.7798 17.0557 43.7808 15.1103 45.6891 13.3152C47.2663 11.8316 49.2449 10.7752 51.2527 11.0139C53.4503 11.2752 54.9408 12.9679 55.6346 15.3734C56.0487 16.809 55.8242 18.3544 55.4421 19.691C55.0509 21.0591 54.4316 22.4199 53.8309 23.5874C53.4739 24.2813 53.1082 24.9349 52.7886 25.4949C52.8379 25.5146 52.887 25.5346 52.9358 25.5554C53.8178 25.9307 54.987 26.6488 55.5399 27.8237C55.9967 28.7944 56.1637 29.9625 55.8082 31.3143C55.4664 32.6144 54.6631 34.0065 53.3346 35.5448C51.9585 37.1383 50.6367 38.0645 49.7378 38.6503C49.6557 38.7038 49.5816 38.7509 49.5152 38.7938C49.5972 39.276 49.6336 39.8175 49.606 40.3657C49.5479 41.5192 49.1943 42.9742 48.0957 44.1914C47.5672 44.7768 46.9683 45.1941 46.5011 45.5119C45.9936 45.8573 45.6385 46.0887 45.3102 46.3886C44.7901 46.8636 44.2302 47.6032 44.1097 49.5162C44.0124 51.0628 44.37 52.8907 44.8823 54.6517C45.4003 56.4325 45.9852 57.8706 46.3397 58.9077L46.7828 60.2038L45.6072 60.905C44.8501 61.3566 43.2811 61.9421 41.2539 62.4772C39.1684 63.0278 36.4518 63.5633 33.3134 63.8575C26.9782 64.4514 17.1746 63.0415 13.8339 62.3382L12.4943 62.0561V60.6857C12.4943 60.3666 12.2642 59.6875 11.503 58.6135C10.7907 57.6085 9.79493 56.5047 8.69726 55.3889C7.60138 54.2749 6.46695 53.2113 5.46625 52.2497C4.52717 51.3474 3.59499 50.434 3.10233 49.7413C2.40639 48.7628 1.20469 47.1915 0.542729 45.6308C0.204391 44.8331 -0.0677838 43.8779 0.0149618 42.8809C0.1038 41.8106 0.592929 40.8232 1.53155 40.0621C2.52712 39.2548 3.62264 38.9516 4.60542 38.9104C4.37699 38.2316 4.11706 37.483 3.8332 36.7041C3.33511 35.3374 2.49297 33.3537 1.96164 31.401C1.42617 29.4332 1.0901 27.1336 1.78473 24.9789C2.44639 22.9265 3.99959 22.0173 5.45538 21.7894C5.7423 21.7445 6.02457 21.7256 6.29612 21.7263C6.31169 21.3808 6.3346 21.0078 6.37008 20.6184C6.49835 19.2107 6.80069 17.4575 7.61817 15.8991C8.61673 13.9957 10.0068 12.7774 11.5624 12.2252C13.0986 11.6799 14.6703 11.8321 15.93 12.4427C16.0856 12.5181 16.2252 12.6069 16.3505 12.7037C16.5568 11.8074 16.7776 10.9972 17.0117 10.3454C17.659 8.54348 18.453 6.5254 19.54 5.04727C20.094 4.29411 20.7946 3.58069 21.6908 3.1294C22.6284 2.65729 23.6829 2.52286 24.7955 2.79662C27.1055 3.36506 27.7057 5.63836 27.8214 7.09228C27.8694 7.69535 27.8541 8.3192 27.7926 8.92242C28.214 9.07026 28.5517 9.29754 28.789 9.46875C28.9242 9.56629 29.0634 9.67348 29.1886 9.76954C29.3199 9.87028 29.4492 9.96924 29.5918 10.0741C29.9946 10.3702 30.313 10.7362 30.5667 11.1317C30.9281 10.2826 31.2867 9.4418 31.6057 8.69649C31.8092 8.22108 31.8932 7.65453 31.9113 6.94073C31.9203 6.58434 31.9128 6.22504 31.905 5.82777C31.8975 5.44643 31.8893 5.0202 31.905 4.60384C31.9353 3.80064 32.0567 2.75726 32.6753 1.84115C33.3426 0.852725 34.3869 0.292637 35.6738 0.0543856L35.7812 0.0362458Z" fill="#F6F6F9"/>
<path d="M33.1561 62.1762C27.0725 62.7465 17.4643 61.377 14.1811 60.6858C14.1811 57.1609 5.99723 50.9005 4.47633 48.762C2.95543 46.6235 0.275744 43.2537 2.5933 41.3744C4.44735 39.871 6.86631 40.9208 7.156 41.3744C6.93873 40.6184 6.28692 38.5101 5.41784 36.1254C4.33148 33.1444 2.30362 28.8674 3.38998 25.4976C4.25906 22.8018 7.21511 23.3159 7.9152 23.8128C8.01177 22.6679 7.77885 19.2247 9.11144 16.6844C10.7772 13.5091 13.4569 13.1202 15.195 13.9627C16.5856 14.6366 16.5469 20.8102 16.3538 23.8128C16.6676 20.7238 17.556 13.8201 18.5989 10.9169C19.9026 7.28797 21.4959 3.72379 24.3928 4.43663C26.7104 5.00689 26.3241 9.14565 25.624 10.9169C27.1075 10.0491 27.3247 10.5027 28.5934 11.4354C29.9401 12.4254 30.0177 15.3236 30.0419 16.6844C30.6454 15.2588 32.1132 11.7983 33.1561 9.36167C34.4597 6.31592 32.0697 2.4389 35.9806 1.7149C38.0809 1.32608 40.326 5.47348 40.326 8.64884C40.326 11.1891 38.1533 19.471 37.067 23.2943C37.6946 22.5383 39.2252 20.9226 40.326 20.5078C41.4269 20.0931 42.279 20.288 42.6785 20.8064C43.9097 18.772 44.5845 16.6715 46.8442 14.5459C49.6687 11.889 52.8553 11.8242 54.0141 15.842C55.1546 19.7966 49.6297 26.8274 50.2843 26.8004C50.2965 26.7981 50.3086 26.7959 50.3205 26.7937C51.1896 26.5345 53.4347 27.3121 54.0141 28.5434C54.5935 29.7747 54.5211 31.5891 52.0587 34.4405C49.5963 37.2918 47.3511 37.7454 47.6408 38.3287C47.9305 38.9119 48.3651 41.3744 46.8442 43.0593C45.3233 44.7442 42.716 44.809 42.4263 49.41C42.1946 53.0908 44.1162 57.6184 44.7439 59.4545C43.6575 60.1025 39.2397 61.606 33.1561 62.1762Z" fill="#F06334"/>
<path d="M39.9043 8.64881C39.9043 7.14688 39.3688 5.38998 38.5786 4.06127C38.1842 3.39807 37.7399 2.86476 37.291 2.52417C36.842 2.18359 36.4263 2.06176 36.0574 2.13004C35.157 2.29673 34.688 2.6292 34.422 3.02318C34.1438 3.43523 34.0384 3.98399 34.012 4.68346C33.999 5.02949 34.0053 5.39579 34.013 5.78619C34.0206 6.17263 34.0294 6.58164 34.0189 6.99446C33.998 7.81986 33.9002 8.695 33.5437 9.52793C32.5191 11.9218 31.0841 15.3046 30.4621 16.7736C30.4324 18.9198 30.1787 24.0874 29.3605 26.9113C28.9456 28.3431 27.9254 30.7767 26.9545 32.9675C25.9796 35.1675 25.0399 37.1547 24.7726 37.709C24.6714 37.919 24.4193 38.007 24.2096 37.9058C23.9999 37.8044 23.9119 37.5521 24.0131 37.3421C24.277 36.7947 25.2129 34.8157 26.1836 32.6251C27.1585 30.4252 28.1542 28.0438 28.5505 26.6761C29.3431 23.9408 29.5955 18.786 29.6201 16.6844C29.6079 16.0034 29.582 14.9747 29.3992 13.9986C29.2108 12.9931 28.8772 12.1677 28.3438 11.7756C28.1812 11.6561 28.0358 11.5444 27.9058 11.4446C27.7743 11.3437 27.6612 11.257 27.5563 11.1813C27.3433 11.0277 27.1969 10.9445 27.0664 10.9047C26.8577 10.8411 26.5854 10.856 25.9244 11.2311C25.3684 12.1279 24.2141 14.439 23.7211 17.0858C23.3939 18.8422 22.7409 21.9742 22.1429 24.6659C21.8438 26.0118 21.5578 27.2512 21.3324 28.1555C21.22 28.6067 21.1214 28.9797 21.043 29.2424C21.0043 29.372 20.9678 29.4845 20.9345 29.5687C20.9188 29.6085 20.8976 29.6581 20.8707 29.7038C20.8582 29.7251 20.8336 29.7644 20.7953 29.8037C20.7703 29.8293 20.6619 29.9376 20.482 29.9376C20.2491 29.9376 20.0603 29.7486 20.0603 29.5155C20.0603 29.4159 20.0947 29.3244 20.1522 29.2523C20.1716 29.2022 20.1994 29.1195 20.2349 29.0006C20.3076 28.757 20.4025 28.3991 20.5141 27.9512C20.7369 27.0572 21.0211 25.8259 21.3196 24.4825C21.9166 21.7955 22.5672 18.6739 22.8918 16.9309C23.4178 14.1074 24.6559 11.6577 25.2452 10.7266C25.5657 9.89506 25.8186 8.50394 25.7196 7.25996C25.6165 5.96422 25.1631 5.06087 24.2921 4.84655C23.665 4.69225 23.1252 4.77004 22.6382 5.01525C22.1408 5.26568 21.6767 5.70247 21.238 6.29889C20.3556 7.49881 19.6486 9.24212 18.9957 11.0597C18.4894 12.4692 18.0114 14.8843 17.6194 17.3612C17.2292 19.8271 16.9295 22.3175 16.7733 23.8555C16.75 24.0844 16.548 24.2525 16.319 24.2335C16.0899 24.2145 15.9183 24.0152 15.933 23.7856C16.0288 22.296 16.086 20.022 15.9477 18.0439C15.8784 17.0528 15.7611 16.1542 15.582 15.471C15.4923 15.129 15.3913 14.8573 15.2827 14.66C15.1713 14.4577 15.0737 14.3728 15.0112 14.3425C14.2398 13.9687 13.2522 13.865 12.267 14.2147C11.2867 14.5627 10.2763 15.372 9.48484 16.8806C8.85634 18.0787 8.58828 19.5103 8.46983 20.8102C8.41089 21.4569 8.38958 22.0631 8.37709 22.5833C8.36772 22.9735 8.36299 23.3308 8.34991 23.6128C9.22631 24.2908 10.5105 25.4736 12.0367 27.2294C13.6972 29.1397 15.0838 32.3751 15.5705 33.5074L15.5823 33.5352C15.6744 33.7494 15.5757 33.9978 15.3618 34.09C15.1478 34.1821 14.8997 34.0832 14.8076 33.869L14.7956 33.8411C14.2958 32.6782 12.9581 29.5755 11.4006 27.7836C9.79587 25.9375 8.48375 24.7604 7.66912 24.1557C7.56049 24.0795 7.31016 23.9711 6.95439 23.9017C6.60597 23.8337 6.19339 23.8105 5.78108 23.875C4.97608 24.001 4.16901 24.4555 3.79125 25.6273C3.28595 27.1947 3.49617 29.0094 3.99599 30.8463C4.49687 32.687 5.25958 34.4592 5.81402 35.9806C6.60667 38.1557 7.21911 40.1025 7.48957 41.0144C8.01208 41.1355 8.741 41.3537 9.49538 41.6744C10.3763 42.0488 11.3265 42.5773 12.0191 43.2816C13.3466 44.6314 14.7525 47.2147 15.285 48.3193C15.3862 48.5293 15.2984 48.7816 15.0887 48.8829C14.8789 48.9843 14.6267 48.8962 14.5255 48.6862C13.9958 47.5875 12.6399 45.1162 11.4182 43.8739C10.8362 43.2821 10.0001 42.8062 9.16578 42.4516C8.33582 42.0988 7.54183 41.8804 7.0748 41.7887C6.96179 41.7664 6.86275 41.6989 6.80071 41.6018C6.80769 41.6127 6.78973 41.5843 6.70896 41.5269C6.63608 41.4752 6.53335 41.4151 6.40307 41.3541C6.14262 41.2323 5.79406 41.1174 5.3986 41.0579C4.6081 40.9391 3.66957 41.0449 2.85876 41.7024C2.36919 42.0994 2.15764 42.5564 2.11619 43.0558C2.07324 43.5735 2.21166 44.165 2.48352 44.806C3.03094 46.0966 4.0432 47.4251 4.81977 48.517C5.17188 49.0121 5.93478 49.7741 6.92639 50.7269C7.9026 51.6649 9.076 52.7657 10.1996 53.9078C11.3227 55.0495 12.4119 56.2482 13.2225 57.392C13.9312 58.3918 14.4688 59.4066 14.5808 60.3365C18.1106 61.041 27.2778 62.3032 33.1168 61.7559C36.1343 61.473 38.7369 60.9588 40.7164 60.4363C42.3878 59.9951 43.5909 59.5536 44.2249 59.2505C43.8908 58.3196 43.3285 56.8598 42.8579 55.2421C42.3236 53.4055 41.885 51.2973 42.0055 49.3834C42.1564 46.986 42.9217 45.7129 43.8894 44.8292C44.3561 44.403 44.8644 44.0735 45.316 43.7662C45.7778 43.4521 46.1882 43.1564 46.5313 42.7763C47.2072 42.0275 47.4582 41.0952 47.5002 40.2596C47.543 39.4099 47.367 38.7255 47.2632 38.5166C47.161 38.3107 47.1781 38.0969 47.2726 37.9156C47.3521 37.7632 47.4811 37.6423 47.5969 37.5482C47.828 37.3606 48.194 37.1377 48.5877 36.8812C49.4041 36.3492 50.5447 35.548 51.7397 34.1643C52.9465 32.7669 53.5378 31.6567 53.7692 30.7768C53.9972 29.9099 53.8806 29.2501 53.6326 28.7232C53.4087 28.2474 52.8184 27.7992 52.111 27.4982C51.7677 27.3521 51.4201 27.2509 51.115 27.2012C50.8002 27.1498 50.5698 27.1597 50.4408 27.1982C50.4159 27.2056 50.3856 27.2128 50.3512 27.2175C49.7901 27.3255 48.9097 27.596 48.0787 28.0616C47.2375 28.533 46.4961 29.1764 46.1461 30.0041C45.7305 30.9868 44.9773 32.3934 44.2925 33.6309C43.5964 34.8886 42.9799 35.9566 42.8045 36.3123C42.7677 36.3869 42.7095 36.449 42.6375 36.4907C41.8683 36.9364 40.644 37.712 39.4829 38.5827C38.3075 39.4641 37.2505 40.4042 36.7629 41.176C36.6384 41.373 36.3779 41.4319 36.1811 41.3073C35.9843 41.1827 35.9256 40.9219 36.0501 40.7248C36.6284 39.8096 37.8 38.7899 38.9774 37.9069C40.1164 37.0528 41.3112 36.2901 42.1073 35.823C42.3475 35.3642 42.9375 34.3372 43.5548 33.2217C44.2423 31.9795 44.9738 30.6102 45.3694 29.6748C45.8224 28.6036 46.7451 27.8413 47.6668 27.3248C48.4404 26.8914 49.2481 26.6115 49.8648 26.4604C49.8815 26.4135 49.9 26.3694 49.917 26.3303C50.0137 26.1089 50.183 25.8017 50.385 25.4467C50.7977 24.7215 51.3836 23.7347 51.9566 22.6209C52.5295 21.5074 53.0787 20.2867 53.4151 19.1102C53.7537 17.9258 53.8618 16.8359 53.6089 15.959C53.0581 14.0493 52.0728 13.2371 51.004 13.11C49.8878 12.9773 48.5039 13.5639 47.1329 14.8536C44.9288 16.9269 44.322 18.9055 43.0393 21.0251C43.0317 21.0375 43.0235 21.0497 43.0147 21.0613C42.092 22.2804 40.3483 25.1378 38.7535 27.9302C37.9587 29.322 37.2054 30.6895 36.6154 31.8174C36.0188 32.9581 35.6066 33.8214 35.4746 34.2229C35.4018 34.4444 35.1634 34.5649 34.9422 34.492C34.721 34.4191 34.6008 34.1805 34.6735 33.959C34.8313 33.4792 35.279 32.5523 35.8683 31.4257C36.4643 30.2862 37.2229 28.9092 38.0213 27.5112C39.4933 24.9338 41.1167 22.2571 42.1122 20.8653C41.7929 20.6792 41.25 20.6107 40.4745 20.9029C40.0059 21.0794 39.399 21.5374 38.8043 22.0841C38.2251 22.6165 37.7014 23.1913 37.397 23.5572L32.0209 30.7341C31.8811 30.9206 31.6168 30.9584 31.4305 30.8186C31.2442 30.6787 31.2064 30.414 31.3462 30.2275L36.6823 23.1039C37.2241 21.1931 38.0252 18.2143 38.6936 15.393C39.0322 13.9636 39.336 12.5782 39.5549 11.3943C39.7754 10.2017 39.9043 9.24145 39.9043 8.64881ZM20.3421 29.1174C20.3413 29.1177 20.3405 29.1181 20.3397 29.1184C20.3405 29.1181 20.3413 29.1177 20.3421 29.1174ZM20.3726 29.108C20.3698 29.1087 20.3671 29.1093 20.3644 29.1101C20.3671 29.1093 20.3699 29.1087 20.3726 29.108ZM20.4324 29.0963C20.4217 29.0975 20.4113 29.0991 20.4013 29.101C20.4115 29.0991 20.4219 29.0975 20.4324 29.0963ZM20.482 29.0933C20.4687 29.0933 20.4558 29.094 20.4434 29.0951C20.4561 29.094 20.469 29.0933 20.482 29.0933ZM40.7476 8.64881C40.7476 9.32632 40.6051 10.3539 40.3843 11.548C40.1618 12.751 39.8545 14.1513 39.5142 15.5878C39.0074 17.7268 38.4252 19.954 37.9362 21.7432C38.0332 21.6491 38.1327 21.555 38.2338 21.4621C38.8365 20.9082 39.5453 20.3508 40.1775 20.1126C41.1038 19.7637 41.9697 19.7813 42.5719 20.1524C43.6152 18.3111 44.4108 16.2555 46.5554 14.2382C48.0089 12.8709 49.6307 12.0965 51.1035 12.2716C52.6238 12.4524 53.8112 13.6168 54.4192 15.7248C54.7366 16.8252 54.5819 18.0973 54.2258 19.3425C53.8675 20.5957 53.2902 21.8725 52.7063 23.0076C52.1224 24.1424 51.5212 25.1555 51.1177 25.8646C51.0177 26.0402 50.9319 26.1939 50.8614 26.3253C50.9898 26.3318 51.1207 26.3467 51.2506 26.3679C51.629 26.4296 52.0418 26.5513 52.4409 26.7211C53.2181 27.0519 54.0402 27.608 54.3956 28.3634C54.7271 29.0678 54.8639 29.931 54.5849 30.9919C54.3093 32.0398 53.6332 33.2628 52.3776 34.7166C51.1102 36.1842 49.8972 37.0355 49.0478 37.589C48.6086 37.8751 48.3137 38.0533 48.1283 38.2039C48.1035 38.2241 48.084 38.2411 48.0689 38.2552C48.236 38.6698 48.386 39.4404 48.3426 40.302C48.2942 41.2647 48.002 42.4061 47.157 43.3422C46.7397 43.8045 46.2538 44.1488 45.7899 44.4644C45.3159 44.7869 44.869 45.0772 44.4577 45.4529C43.669 46.1731 42.9859 47.2329 42.8472 49.4365C42.7359 51.2035 43.1422 53.1995 43.6677 55.0059C44.1946 56.8173 44.8189 58.37 45.1429 59.3178C45.2075 59.5066 45.131 59.7149 44.9597 59.8171C44.3631 60.173 42.9388 60.7229 40.9315 61.2528C38.9095 61.7865 36.2613 62.309 33.1953 62.5964C27.0488 63.1726 17.3918 61.7932 14.0942 61.0989C13.8991 61.0578 13.7594 60.8853 13.7594 60.6857C13.7593 59.945 13.3182 58.9861 12.5347 57.8806C11.7633 56.7924 10.7116 55.6315 9.59866 54.5002C8.48616 53.3693 7.3283 52.2835 6.34229 51.3361C5.3717 50.4035 4.54122 49.5809 4.13288 49.0068C3.38856 47.9602 2.30043 46.5346 1.70719 45.1359C1.40874 44.4323 1.21676 43.6953 1.27562 42.9859C1.33602 42.2581 1.65869 41.5891 2.32786 41.0464C3.37107 40.2005 4.56905 40.0794 5.52395 40.223C5.85816 40.2733 6.16743 40.3565 6.437 40.4552C6.11775 39.4325 5.62217 37.9177 5.02171 36.27C4.48981 34.8105 3.69533 32.9537 3.18227 31.0682C2.66818 29.1789 2.40768 27.1702 2.98872 25.3679C3.48005 23.8439 4.5855 23.2076 5.65079 23.0409C6.17362 22.9591 6.68577 22.989 7.11565 23.0729C7.25614 23.1003 7.39223 23.1344 7.52021 23.174C7.52441 22.994 7.52843 22.7902 7.53388 22.563C7.54652 22.0362 7.56844 21.4082 7.62991 20.7335C7.75229 19.3905 8.03407 17.8303 8.73816 16.4881C9.61245 14.8215 10.7747 13.8486 11.9851 13.4189C13.1907 12.991 14.412 13.1141 15.3787 13.5827C15.6639 13.7209 15.8694 13.9765 16.0213 14.2525C16.176 14.5335 16.2985 14.8782 16.3977 15.2566C16.5626 15.8855 16.6743 16.653 16.7481 17.4743C16.7608 17.3926 16.7735 17.3108 16.7864 17.2291C17.1778 14.7561 17.6655 12.2676 18.2021 10.774C18.8527 8.96263 19.5946 7.10943 20.5589 5.79823C21.0436 5.13913 21.6024 4.59173 22.2593 4.26097C22.9265 3.92501 23.6722 3.82456 24.4934 4.02664C25.94 4.38259 26.4522 5.83383 26.5604 7.19285C26.6393 8.18548 26.5187 9.25356 26.308 10.1272C26.663 10.0139 26.9851 9.99727 27.3121 10.097C27.58 10.1787 27.8185 10.3296 28.0494 10.4963C28.1664 10.5807 28.29 10.6757 28.4189 10.7746C28.5494 10.8748 28.6885 10.9814 28.8431 11.095C29.6564 11.693 30.0349 12.8118 30.228 13.843C30.2901 14.1744 30.3352 14.5097 30.3682 14.8348C31.0755 13.1676 32.0287 10.9239 32.7685 9.19531C33.0638 8.5054 33.1561 7.75376 33.1759 6.97303C33.1858 6.58276 33.1775 6.19363 33.1698 5.80285C33.1622 5.41606 33.1552 5.0258 33.1693 4.65163C33.1973 3.91068 33.309 3.16406 33.7233 2.55039C34.1498 1.91863 34.849 1.49505 35.904 1.29974C36.5851 1.17368 37.2376 1.42432 37.8003 1.85119C38.363 2.27809 38.8738 2.90727 39.3032 3.62921C40.1606 5.07083 40.7476 6.9754 40.7476 8.64881ZM20.3953 29.1022C20.3875 29.1039 20.38 29.1059 20.3726 29.108C20.3801 29.106 20.3876 29.1038 20.3953 29.1022Z" fill="#1D1D25"/>
<path d="M26.8193 51.7579C26.8193 53.3899 25.4977 54.713 23.8675 54.713C22.2372 54.713 20.9156 53.3899 20.9156 51.7579C20.9156 50.1258 22.2372 48.8027 23.8675 48.8027C25.4977 48.8027 26.8193 50.1258 26.8193 51.7579Z" fill="#F6F6F9"/>
<path d="M38.1205 51.0821C38.1205 52.7142 36.799 54.0372 35.1687 54.0372C33.5385 54.0372 32.2169 52.7142 32.2169 51.0821C32.2169 49.45 33.5385 48.127 35.1687 48.127C36.799 48.127 38.1205 49.45 38.1205 51.0821Z" fill="#F6F6F9"/>
<path d="M36.7711 51.1667C36.7711 52.0993 36.0537 52.8553 35.1687 52.8553C34.2837 52.8553 33.5663 52.0993 33.5663 51.1667C33.5663 50.2341 34.2837 49.478 35.1687 49.478C36.0537 49.478 36.7711 50.2341 36.7711 51.1667Z" fill="#1D1D25"/>
<path d="M25.6385 51.7575C25.6385 52.6435 24.8833 53.3617 23.9518 53.3617C23.0202 53.3617 22.265 52.6435 22.265 51.7575C22.265 50.8716 23.0202 50.1533 23.9518 50.1533C24.8833 50.1533 25.6385 50.8716 25.6385 51.7575Z" fill="#1D1D25"/>
<path d="M32.5415 54.6695C32.7518 54.5693 33.0034 54.6586 33.1036 54.8691C33.2037 55.0796 33.1145 55.3315 32.9043 55.4317C31.7246 55.9941 30.8881 56.3171 30.0241 56.3171C29.1601 56.3171 28.3236 55.9941 27.1439 55.4317C26.9337 55.3315 26.8445 55.0796 26.9446 54.8691C27.0448 54.6586 27.2964 54.5693 27.5067 54.6695C28.6884 55.2329 29.37 55.4728 30.0241 55.4728C30.6782 55.4728 31.3598 55.2329 32.5415 54.6695Z" fill="#1D1D25"/>
<path d="M172.377 63.4807V32.6548H178.419L181.009 39.149V63.4807H172.377ZM193.526 63.4807L175.7 41.0107L178.419 32.6548L196.245 55.1248L193.526 63.4807ZM193.526 63.4807L191.368 56.6401V32.6548H200V63.4807H193.526Z" fill="#F6F6F9"/>
<path d="M146.105 63.4807V32.6548H154.738V63.4807H146.105ZM153.098 63.4807V56.2938H169.585V63.4807H153.098ZM153.098 51.2716V44.2578H167.988V51.2716H153.098ZM153.098 39.8417V32.6548H169.326V39.8417H153.098Z" fill="#F6F6F9"/>
<path d="M128.156 64.0002C125.767 64.0002 123.552 63.6106 121.509 62.8313C119.495 62.0231 117.725 60.8974 116.2 59.4543C114.704 58.0111 113.538 56.3226 112.704 54.3888C111.869 52.455 111.452 50.3479 111.452 48.0677C111.452 45.7587 111.884 43.6372 112.747 41.7034C113.639 39.7696 114.862 38.0955 116.416 36.6812C117.998 35.2381 119.825 34.1268 121.897 33.3475C123.969 32.5393 126.185 32.1353 128.544 32.1353C131.393 32.1353 133.939 32.6259 136.184 33.6073C138.457 34.5886 140.298 35.9163 141.708 37.5904L135.882 43.4352C134.817 42.1941 133.709 41.2705 132.558 40.6643C131.407 40.0582 130.026 39.7551 128.415 39.7551C126.89 39.7551 125.508 40.1015 124.271 40.7942C123.034 41.4581 122.041 42.4106 121.293 43.6517C120.574 44.8928 120.214 46.3504 120.214 48.0244C120.214 49.6985 120.545 51.1705 121.207 52.4405C121.897 53.6816 122.847 54.6486 124.055 55.3413C125.264 56.034 126.674 56.3803 128.285 56.3803C129.839 56.3803 131.148 56.0773 132.213 55.4712C133.277 54.865 134.083 53.9991 134.63 52.8735C135.205 51.7478 135.493 50.4201 135.493 48.8903L141.406 52.657L127.12 52.224V45.2969H144.169V46.5957C144.169 50.2902 143.492 53.4363 142.14 56.034C140.816 58.6317 138.946 60.6088 136.529 61.9654C134.141 63.3219 131.35 64.0002 128.156 64.0002Z" fill="#F6F6F9"/>
<path d="M87.2406 63.4807V32.6548H95.8729V63.4807H87.2406ZM94.2328 63.4807V56.2938H110.72V63.4807H94.2328ZM94.2328 51.2716V44.2578H109.123V51.2716H94.2328ZM94.2328 39.8417V32.6548H110.461V39.8417H94.2328Z" fill="#F6F6F9"/>
<path d="M66.9922 51.185V45.2103H72.2147C73.3945 45.2103 74.2865 44.9216 74.8907 44.3444C75.5238 43.7671 75.8403 43.0022 75.8403 42.0498C75.8403 41.0973 75.5238 40.3324 74.8907 39.7551C74.2865 39.1779 73.3945 38.8892 72.2147 38.8892H66.9922V32.6548H73.5959C75.7252 32.6548 77.5955 33.0444 79.2069 33.8237C80.8182 34.603 82.0843 35.6854 83.0051 37.0709C83.9259 38.4563 84.3863 40.0726 84.3863 41.9199C84.3863 43.7671 83.9115 45.3835 82.9619 46.7689C82.0411 48.1543 80.7463 49.2367 79.0774 50.016C77.4085 50.7953 75.4374 51.185 73.1643 51.185H66.9922ZM60 63.4807V32.6548H68.6323V63.4807H60ZM76.574 63.4807L68.2007 50.3191L75.9698 48.6306L86.3717 63.4807H76.574Z" fill="#F6F6F9"/>
<path d="M169.696 9.57401C168.344 9.57401 167.221 9.1122 166.329 8.18858C165.437 7.26496 164.991 6.13929 164.991 4.81158C164.991 3.45501 165.437 2.31492 166.329 1.39129C167.221 0.467671 168.344 0.00585938 169.696 0.00585938C171.048 0.00585938 172.156 0.467671 173.019 1.39129C173.911 2.31492 174.357 3.45501 174.357 4.81158C174.357 6.13929 173.911 7.26496 173.019 8.18858C172.156 9.1122 171.048 9.57401 169.696 9.57401Z" fill="#F6F6F9"/>
<path d="M139.783 30.8259V0H148.415V30.8259H139.783ZM146.775 19.8723V12.6854H161.882V19.8723H146.775ZM146.775 7.18694V0H162.529V7.18694H146.775Z" fill="#F6F6F9"/>
<path d="M113.512 30.8259V0H122.144V30.8259H113.512ZM120.504 30.8259V23.639H136.992V30.8259H120.504ZM120.504 18.6168V11.603H135.395V18.6168H120.504ZM120.504 7.18694V0H136.733V7.18694H120.504Z" fill="#F6F6F9"/>
<path d="M87.2406 30.8259V0H95.8729V30.8259H87.2406ZM94.2328 30.8259V23.639H110.72V30.8259H94.2328ZM94.2328 18.6168V11.603H109.123V18.6168H94.2328ZM94.2328 7.18694V0H110.461V7.18694H94.2328Z" fill="#F6F6F9"/>
<path d="M66.9922 18.5302V12.5555H72.2147C73.3945 12.5555 74.2865 12.2669 74.8907 11.6896C75.5238 11.1123 75.8403 10.3475 75.8403 9.39497C75.8403 8.44249 75.5238 7.67761 74.8907 7.10035C74.2865 6.52308 73.3945 6.23445 72.2147 6.23445H66.9922V0H73.5959C75.7252 0 77.5955 0.389653 79.2069 1.16896C80.8182 1.94826 82.0843 3.03064 83.0051 4.41607C83.9259 5.8015 84.3863 7.41784 84.3863 9.26509C84.3863 11.1123 83.9115 12.7287 82.9619 14.1141C82.0411 15.4995 80.7463 16.5819 79.0774 17.3612C77.4085 18.1405 75.4374 18.5302 73.1643 18.5302H66.9922ZM60 30.8259V0H68.6323V30.8259H60ZM76.574 30.8259L68.2007 17.6643L75.9698 15.9758L86.3717 30.8259H76.574Z" fill="#F6F6F9"/>
</svg>
