<svg width="1440" height="243" viewBox="0 0 1440 243" fill="none" xmlns="http://www.w3.org/2000/svg">
<path d="M-85.166 241.027V123.985H-62.161L-52.3016 148.643V241.027H-85.166ZM-4.64822 241.027L-72.5132 155.712L-62.161 123.985L5.70405 209.301L-4.64822 241.027ZM-4.64822 241.027L-12.8644 215.055V123.985H20V241.027H-4.64822Z" fill="#46475E"/>
<path d="M414.834 241.027V123.985H437.839L447.698 148.643V241.027H414.834ZM495.352 241.027L427.487 155.712L437.839 123.985L505.704 209.301L495.352 241.027ZM495.352 241.027L487.136 215.055V123.985H520V241.027H495.352Z" fill="#46475E"/>
<path d="M314.816 241.027V123.985H347.68V241.027H314.816ZM341.436 241.027V213.74H404.207V241.027H341.436ZM341.436 194.671V168.041H398.127V194.671H341.436ZM341.436 151.273V123.985H403.221V151.273H341.436Z" fill="#46475E"/>
<path d="M246.478 243C237.386 243 228.951 241.521 221.173 238.562C213.504 235.493 206.767 231.219 200.961 225.74C195.265 220.26 190.828 213.849 187.651 206.507C184.474 199.164 182.886 191.164 182.886 182.506C182.886 173.739 184.529 165.684 187.815 158.342C191.211 150.999 195.867 144.643 201.783 139.273C207.808 133.794 214.764 129.574 222.652 126.615C230.539 123.547 238.974 122.013 247.957 122.013C258.802 122.013 268.497 123.876 277.042 127.602C285.697 131.328 292.708 136.369 298.075 142.725L275.892 164.917C271.839 160.205 267.621 156.698 263.239 154.397C258.857 152.095 253.599 150.944 247.464 150.944C241.658 150.944 236.4 152.26 231.689 154.89C226.979 157.41 223.199 161.027 220.351 165.739C217.612 170.451 216.243 175.986 216.243 182.342C216.243 188.698 217.503 194.287 220.023 199.109C222.652 203.822 226.267 207.493 230.868 210.123C235.469 212.753 240.837 214.068 246.971 214.068C252.887 214.068 257.871 212.918 261.925 210.616C265.978 208.315 269.045 205.027 271.127 200.753C273.318 196.479 274.413 191.438 274.413 185.63L296.925 199.931L242.535 198.287V171.986H307.442V176.917C307.442 190.945 304.867 202.89 299.719 212.753C294.679 222.616 287.559 230.123 278.357 235.274C269.264 240.425 258.638 243 246.478 243Z" fill="#46475E"/>
<path d="M90.709 241.027V123.985H123.573V241.027H90.709ZM117.329 241.027V213.74H180.1V241.027H117.329ZM117.329 194.671V168.041H174.02V194.671H117.329ZM117.329 151.273V123.985H179.114V151.273H117.329Z" fill="#46475E"/>
<path d="M13.6202 194.342V171.657H33.5031C37.9946 171.657 41.3906 170.561 43.6911 168.369C46.1011 166.177 47.3062 163.273 47.3062 159.657C47.3062 156.04 46.1011 153.136 43.6911 150.944C41.3906 148.753 37.9946 147.657 33.5031 147.657H13.6202V123.985H38.7614C46.868 123.985 53.9886 125.465 60.1233 128.424C66.258 131.383 71.0781 135.492 74.5836 140.753C78.0892 146.013 79.8419 152.15 79.8419 159.164C79.8419 166.177 78.0344 172.315 74.4193 177.575C70.9138 182.835 65.9841 186.945 59.6303 189.904C53.2765 192.863 45.7725 194.342 37.1182 194.342H13.6202ZM-13 241.027V123.985H19.8644V241.027H-13ZM50.0996 241.027L18.2212 191.054L47.7991 184.643L87.4007 241.027H50.0996Z" fill="#46475E"/>
<path d="M404.629 36.3515C399.48 36.3515 395.207 34.5981 391.811 31.0912C388.416 27.5843 386.718 23.3103 386.718 18.2692C386.718 13.1185 388.416 8.78966 391.811 5.28278C395.207 1.7759 399.48 0.0224609 404.629 0.0224609C409.777 0.0224609 413.995 1.7759 417.281 5.28278C420.677 8.78966 422.375 13.1185 422.375 18.2692C422.375 23.3103 420.677 27.5843 417.281 31.0912C413.995 34.5981 409.777 36.3515 404.629 36.3515Z" fill="#46475E"/>
<path d="M290.745 117.042V0H323.61V117.042H290.745ZM317.365 75.4527V48.1648H374.878V75.4527H317.365ZM317.365 27.2879V0H377.343V27.2879H317.365Z" fill="#46475E"/>
<path d="M190.727 117.042V0H223.591V117.042H190.727ZM217.347 117.042V89.7542H280.118V117.042H217.347ZM217.347 70.6855V44.0552H274.038V70.6855H217.347ZM217.347 27.2879V0H279.132V27.2879H217.347Z" fill="#46475E"/>
<path d="M90.709 117.042V0H123.573V117.042H90.709ZM117.329 117.042V89.7542H180.1V117.042H117.329ZM117.329 70.6855V44.0552H174.02V70.6855H117.329ZM117.329 27.2879V0H179.114V27.2879H117.329Z" fill="#46475E"/>
<path d="M13.6202 70.3568V47.6716H33.5031C37.9946 47.6716 41.3906 46.5757 43.6911 44.3839C46.1011 42.1921 47.3062 39.288 47.3062 35.6715C47.3062 32.0551 46.1011 29.1509 43.6911 26.9591C41.3906 24.7673 37.9946 23.6714 33.5031 23.6714H13.6202V0H38.7614C46.868 0 53.9886 1.47946 60.1233 4.43839C66.258 7.39732 71.0781 11.5069 74.5836 16.7673C78.0892 22.0276 79.8419 28.1646 79.8419 35.1784C79.8419 42.1921 78.0344 48.3292 74.4193 53.5895C70.9138 58.8498 65.9841 62.9594 59.6303 65.9184C53.2765 68.8773 45.7725 70.3568 37.1182 70.3568H13.6202ZM-13 117.042V0H19.8644V117.042H-13ZM50.0996 117.042L18.2212 67.0691L47.7991 60.6581L87.4007 117.042H50.0996Z" fill="#46475E"/>
<path d="M592.166 1.97254V119.015H569.161L559.302 94.3569V1.97254H592.166ZM511.648 1.97254L579.513 87.2884L569.161 119.015L501.296 33.6988L511.648 1.97254ZM511.648 1.97254L519.864 27.9454V119.015H487V1.97254H511.648Z" fill="#46475E"/>
<path d="M692.184 1.97254V119.015H659.32V1.97254H692.184ZM665.564 1.97254V29.2604H602.793V1.97254H665.564ZM665.564 48.3291V74.9595H608.873V48.3291H665.564ZM665.564 91.7267V119.015H603.779V91.7267H665.564Z" fill="#46475E"/>
<path d="M760.522 -5.34058e-05C769.614 -5.34058e-05 778.049 1.47942 785.827 4.43835C793.496 7.50687 800.233 11.7809 806.039 17.2604C811.735 22.7399 816.172 29.1509 819.349 36.4934C822.526 43.8359 824.114 51.836 824.114 60.4936C824.114 69.2608 822.471 77.3157 819.185 84.6582C815.789 92.0008 811.133 98.357 805.217 103.727C799.192 109.206 792.236 113.426 784.348 116.385C776.461 119.453 768.026 120.987 759.043 120.987C748.198 120.987 738.503 119.124 729.958 115.398C721.303 111.672 714.292 106.631 708.925 100.275L731.108 78.0828C735.161 82.7952 739.379 86.3021 743.761 88.6035C748.143 90.9049 753.401 92.0555 759.536 92.0555C765.342 92.0555 770.6 90.7405 775.311 88.1103C780.021 85.5897 783.801 81.9733 786.649 77.2609C789.388 72.5485 790.757 67.0142 790.757 60.658C790.757 54.3018 789.497 48.7127 786.977 43.8907C784.348 39.1784 780.733 35.5071 776.132 32.877C771.531 30.2468 766.163 28.9317 760.029 28.9317C754.113 28.9317 749.129 30.0824 745.075 32.3838C741.022 34.6852 737.955 37.9729 735.873 42.2469C733.682 46.5209 732.587 51.562 732.587 57.3703L710.075 43.0688L764.465 44.7127V71.0143H699.558V66.0827C699.558 52.0552 702.133 40.1099 707.281 30.2468C712.321 20.3837 719.441 12.8768 728.643 7.72604C737.736 2.57532 748.362 -5.34058e-05 760.522 -5.34058e-05Z" fill="#46475E"/>
<path d="M916.291 1.97254V119.015H883.427V1.97254H916.291ZM889.671 1.97254V29.2604H826.9V1.97254H889.671ZM889.671 48.3291V74.9595H832.98V48.3291H889.671ZM889.671 91.7267V119.015H827.886V91.7267H889.671Z" fill="#46475E"/>
<path d="M993.38 48.6579V71.343H973.497C969.005 71.343 965.609 72.4389 963.309 74.6307C960.899 76.8225 959.694 79.7266 959.694 83.3431C959.694 86.9596 960.899 89.8637 963.309 92.0555C965.609 94.2473 969.005 95.3432 973.497 95.3432H993.38V119.015H968.239C960.132 119.015 953.011 117.535 946.877 114.576C940.742 111.617 935.922 107.508 932.416 102.247C928.911 96.9871 927.158 90.85 927.158 83.8363C927.158 76.8225 928.966 70.6855 932.581 65.4252C936.086 60.1648 941.016 56.0552 947.37 53.0963C953.723 50.1373 961.227 48.6579 969.882 48.6579H993.38ZM1020 1.97254V119.015H987.136V1.97254H1020ZM956.9 1.97254L988.779 51.9456L959.201 58.3566L919.599 1.97254H956.9Z" fill="#46475E"/>
<path d="M602.371 206.648C607.52 206.648 611.793 208.402 615.189 211.909C618.584 215.416 620.282 219.69 620.282 224.731C620.282 229.882 618.584 234.21 615.189 237.717C611.793 241.224 607.52 242.978 602.371 242.978C597.223 242.978 593.005 241.224 589.719 237.717C586.323 234.21 584.625 229.882 584.625 224.731C584.625 219.69 586.323 215.416 589.719 211.909C593.005 208.402 597.223 206.648 602.371 206.648Z" fill="#46475E"/>
<path d="M716.255 125.958V243H683.39V125.958H716.255ZM689.635 167.547V194.835H632.122V167.547H689.635ZM689.635 215.712V243H629.657V215.712H689.635Z" fill="#46475E"/>
<path d="M816.273 125.958V243H783.409V125.958H816.273ZM789.653 125.958V153.246H726.882V125.958H789.653ZM789.653 172.314V198.945H732.962V172.314H789.653ZM789.653 215.712V243H727.868V215.712H789.653Z" fill="#46475E"/>
<path d="M916.291 125.958V243H883.427V125.958H916.291ZM889.671 125.958V153.246H826.9V125.958H889.671ZM889.671 172.314V198.945H832.98V172.314H889.671ZM889.671 215.712V243H827.886V215.712H889.671Z" fill="#46475E"/>
<path d="M993.38 172.643V195.328H973.497C969.005 195.328 965.609 196.424 963.309 198.616C960.899 200.808 959.694 203.712 959.694 207.328C959.694 210.945 960.899 213.849 963.309 216.041C965.609 218.233 969.005 219.329 973.497 219.329H993.38V243H968.239C960.132 243 953.011 241.521 946.877 238.562C940.742 235.603 935.922 231.493 932.416 226.233C928.911 220.972 927.158 214.835 927.158 207.822C927.158 200.808 928.966 194.671 932.581 189.41C936.086 184.15 941.016 180.041 947.37 177.082C953.723 174.123 961.227 172.643 969.882 172.643H993.38ZM1020 125.958V243H987.136V125.958H1020ZM956.9 125.958L988.779 175.931L959.201 182.342L919.599 125.958H956.9Z" fill="#46475E"/>
<path d="M1414.83 241.027V123.985H1437.84L1447.7 148.643V241.027H1414.83ZM1495.35 241.027L1427.49 155.712L1437.84 123.985L1505.7 209.301L1495.35 241.027ZM1495.35 241.027L1487.14 215.055V123.985H1520V241.027H1495.35Z" fill="#46475E"/>
<path d="M1314.82 241.027V123.985H1347.68V241.027H1314.82ZM1341.44 241.027V213.74H1404.21V241.027H1341.44ZM1341.44 194.671V168.041H1398.13V194.671H1341.44ZM1341.44 151.273V123.985H1403.22V151.273H1341.44Z" fill="#46475E"/>
<path d="M1246.48 243C1237.39 243 1228.95 241.521 1221.17 238.562C1213.5 235.493 1206.77 231.219 1200.96 225.74C1195.26 220.26 1190.83 213.849 1187.65 206.507C1184.47 199.164 1182.89 191.164 1182.89 182.506C1182.89 173.739 1184.53 165.684 1187.82 158.342C1191.21 150.999 1195.87 144.643 1201.78 139.273C1207.81 133.794 1214.76 129.574 1222.65 126.615C1230.54 123.547 1238.97 122.013 1247.96 122.013C1258.8 122.013 1268.5 123.876 1277.04 127.602C1285.7 131.328 1292.71 136.369 1298.08 142.725L1275.89 164.917C1271.84 160.205 1267.62 156.698 1263.24 154.397C1258.86 152.095 1253.6 150.944 1247.46 150.944C1241.66 150.944 1236.4 152.26 1231.69 154.89C1226.98 157.41 1223.2 161.027 1220.35 165.739C1217.61 170.451 1216.24 175.986 1216.24 182.342C1216.24 188.698 1217.5 194.287 1220.02 199.109C1222.65 203.822 1226.27 207.493 1230.87 210.123C1235.47 212.753 1240.84 214.068 1246.97 214.068C1252.89 214.068 1257.87 212.918 1261.92 210.616C1265.98 208.315 1269.05 205.027 1271.13 200.753C1273.32 196.479 1274.41 191.438 1274.41 185.63L1296.93 199.931L1242.53 198.287V171.986H1307.44V176.917C1307.44 190.945 1304.87 202.89 1299.72 212.753C1294.68 222.616 1287.56 230.123 1278.36 235.274C1269.26 240.425 1258.64 243 1246.48 243Z" fill="#46475E"/>
<path d="M1090.71 241.027V123.985H1123.57V241.027H1090.71ZM1117.33 241.027V213.74H1180.1V241.027H1117.33ZM1117.33 194.671V168.041H1174.02V194.671H1117.33ZM1117.33 151.273V123.985H1179.11V151.273H1117.33Z" fill="#46475E"/>
<path d="M1013.62 194.342V171.657H1033.5C1037.99 171.657 1041.39 170.561 1043.69 168.369C1046.1 166.177 1047.31 163.273 1047.31 159.657C1047.31 156.04 1046.1 153.136 1043.69 150.944C1041.39 148.753 1037.99 147.657 1033.5 147.657H1013.62V123.985H1038.76C1046.87 123.985 1053.99 125.465 1060.12 128.424C1066.26 131.383 1071.08 135.492 1074.58 140.753C1078.09 146.013 1079.84 152.15 1079.84 159.164C1079.84 166.177 1078.03 172.315 1074.42 177.575C1070.91 182.835 1065.98 186.945 1059.63 189.904C1053.28 192.863 1045.77 194.342 1037.12 194.342H1013.62ZM987 241.027V123.985H1019.86V241.027H987ZM1050.1 241.027L1018.22 191.054L1047.8 184.643L1087.4 241.027H1050.1Z" fill="#46475E"/>
<path d="M1404.63 36.3515C1399.48 36.3515 1395.21 34.5981 1391.81 31.0912C1388.42 27.5843 1386.72 23.3103 1386.72 18.2692C1386.72 13.1185 1388.42 8.78966 1391.81 5.28278C1395.21 1.7759 1399.48 0.0224609 1404.63 0.0224609C1409.78 0.0224609 1413.99 1.7759 1417.28 5.28278C1420.68 8.78966 1422.38 13.1185 1422.38 18.2692C1422.38 23.3103 1420.68 27.5843 1417.28 31.0912C1413.99 34.5981 1409.78 36.3515 1404.63 36.3515Z" fill="#46475E"/>
<path d="M1290.75 117.042V0H1323.61V117.042H1290.75ZM1317.37 75.4527V48.1648H1374.88V75.4527H1317.37ZM1317.37 27.2879V0H1377.34V27.2879H1317.37Z" fill="#46475E"/>
<path d="M1190.73 117.042V0H1223.59V117.042H1190.73ZM1217.35 117.042V89.7542H1280.12V117.042H1217.35ZM1217.35 70.6855V44.0552H1274.04V70.6855H1217.35ZM1217.35 27.2879V0H1279.13V27.2879H1217.35Z" fill="#46475E"/>
<path d="M1090.71 117.042V0H1123.57V117.042H1090.71ZM1117.33 117.042V89.7542H1180.1V117.042H1117.33ZM1117.33 70.6855V44.0552H1174.02V70.6855H1117.33ZM1117.33 27.2879V0H1179.11V27.2879H1117.33Z" fill="#46475E"/>
<path d="M1013.62 70.3568V47.6716H1033.5C1037.99 47.6716 1041.39 46.5757 1043.69 44.3839C1046.1 42.1921 1047.31 39.288 1047.31 35.6715C1047.31 32.0551 1046.1 29.1509 1043.69 26.9591C1041.39 24.7673 1037.99 23.6714 1033.5 23.6714H1013.62V0H1038.76C1046.87 0 1053.99 1.47946 1060.12 4.43839C1066.26 7.39732 1071.08 11.5069 1074.58 16.7673C1078.09 22.0276 1079.84 28.1646 1079.84 35.1784C1079.84 42.1921 1078.03 48.3292 1074.42 53.5895C1070.91 58.8498 1065.98 62.9594 1059.63 65.9184C1053.28 68.8773 1045.77 70.3568 1037.12 70.3568H1013.62ZM987 117.042V0H1019.86V117.042H987ZM1050.1 117.042L1018.22 67.0691L1047.8 60.6581L1087.4 117.042H1050.1Z" fill="#46475E"/>
</svg>
