<svg width="533" height="496" viewBox="0 0 533 496" fill="none" xmlns="http://www.w3.org/2000/svg">
<g clip-path="url(#clip0_2204_7131)">
<path d="M427.834 241.027V123.985H450.839L460.698 148.643V241.027H427.834ZM508.352 241.027L440.487 155.712L450.839 123.985L518.704 209.301L508.352 241.027ZM508.352 241.027L500.136 215.055V123.985H533V241.027H508.352Z" fill="#46475E"/>
<path d="M327.816 241.027V123.985H360.68V241.027H327.816ZM354.436 241.027V213.739H417.207V241.027H354.436ZM354.436 194.671V168.04H411.127V194.671H354.436ZM354.436 151.273V123.985H416.221V151.273H354.436Z" fill="#46475E"/>
<path d="M259.478 243C250.386 243 241.951 241.521 234.173 238.562C226.504 235.493 219.767 231.219 213.961 225.74C208.265 220.26 203.828 213.849 200.651 206.507C197.474 199.164 195.886 191.164 195.886 182.506C195.886 173.739 197.529 165.684 200.815 158.342C204.211 150.999 208.867 144.643 214.783 139.273C220.808 133.794 227.764 129.574 235.652 126.615C243.539 123.547 251.974 122.013 260.957 122.013C271.803 122.013 281.498 123.876 290.042 127.602C298.697 131.328 305.708 136.369 311.075 142.725L288.892 164.917C284.839 160.205 280.621 156.698 276.239 154.397C271.857 152.095 266.599 150.944 260.464 150.944C254.658 150.944 249.4 152.26 244.689 154.89C239.979 157.41 236.199 161.027 233.351 165.739C230.612 170.451 229.243 175.986 229.243 182.342C229.243 188.698 230.503 194.287 233.023 199.109C235.652 203.822 239.267 207.493 243.868 210.123C248.469 212.753 253.837 214.068 259.971 214.068C265.887 214.068 270.871 212.918 274.925 210.616C278.978 208.315 282.045 205.027 284.127 200.753C286.318 196.479 287.413 191.438 287.413 185.63L309.925 199.931L255.535 198.287V171.986H320.442V176.917C320.442 190.945 317.867 202.89 312.719 212.753C307.679 222.616 300.559 230.123 291.357 235.274C282.264 240.425 271.638 243 259.478 243Z" fill="#46475E"/>
<path d="M103.709 241.027V123.985H136.573V241.027H103.709ZM130.329 241.027V213.739H193.1V241.027H130.329ZM130.329 194.671V168.04H187.02V194.671H130.329ZM130.329 151.273V123.985H192.114V151.273H130.329Z" fill="#46475E"/>
<path d="M26.6202 194.342V171.657H46.5031C50.9946 171.657 54.3906 170.561 56.6911 168.369C59.1011 166.177 60.3062 163.273 60.3062 159.657C60.3062 156.04 59.1011 153.136 56.6911 150.944C54.3906 148.753 50.9946 147.657 46.5031 147.657H26.6202V123.985H51.7614C59.868 123.985 66.9886 125.465 73.1233 128.424C79.258 131.383 84.0781 135.492 87.5836 140.752C91.0892 146.013 92.8419 152.15 92.8419 159.164C92.8419 166.177 91.0344 172.314 87.4193 177.575C83.9138 182.835 78.9841 186.945 72.6303 189.904C66.2765 192.863 58.7725 194.342 50.1182 194.342H26.6202ZM0 241.027V123.985H32.8644V241.027H0ZM63.0996 241.027L31.2212 191.054L60.7991 184.643L100.401 241.027H63.0996Z" fill="#46475E"/>
<path d="M417.629 36.3513C412.48 36.3513 408.207 34.5979 404.811 31.091C401.416 27.5841 399.718 23.3101 399.718 18.2689C399.718 13.1182 401.416 8.78942 404.811 5.28254C408.207 1.77566 412.48 0.0222168 417.629 0.0222168C422.777 0.0222168 426.995 1.77566 430.281 5.28254C433.677 8.78942 435.375 13.1182 435.375 18.2689C435.375 23.3101 433.677 27.5841 430.281 31.091C426.995 34.5979 422.777 36.3513 417.629 36.3513Z" fill="#46475E"/>
<path d="M303.745 117.042V0H336.609V117.042H303.745ZM330.365 75.4527V48.1648H387.878V75.4527H330.365ZM330.365 27.2879V0H390.343V27.2879H330.365Z" fill="#46475E"/>
<path d="M203.727 117.042V0H236.591V117.042H203.727ZM230.347 117.042V89.7542H293.118V117.042H230.347ZM230.347 70.6855V44.0552H287.038V70.6855H230.347ZM230.347 27.2879V0H292.132V27.2879H230.347Z" fill="#46475E"/>
<path d="M103.709 117.042V0H136.573V117.042H103.709ZM130.329 117.042V89.7542H193.1V117.042H130.329ZM130.329 70.6855V44.0552H187.02V70.6855H130.329ZM130.329 27.2879V0H192.114V27.2879H130.329Z" fill="#46475E"/>
<path d="M26.6202 70.3568V47.6716H46.5031C50.9946 47.6716 54.3906 46.5757 56.6911 44.3839C59.1011 42.1921 60.3062 39.288 60.3062 35.6715C60.3062 32.0551 59.1011 29.1509 56.6911 26.9591C54.3906 24.7673 50.9946 23.6714 46.5031 23.6714H26.6202V0H51.7614C59.868 0 66.9886 1.47946 73.1233 4.43839C79.258 7.39732 84.0781 11.5069 87.5836 16.7673C91.0892 22.0276 92.8419 28.1646 92.8419 35.1784C92.8419 42.1921 91.0344 48.3292 87.4193 53.5895C83.9138 58.8498 78.9841 62.9594 72.6303 65.9184C66.2765 68.8773 58.7725 70.3568 50.1182 70.3568H26.6202ZM0 117.042V0H32.8644V117.042H0ZM63.0996 117.042L31.2212 67.0691L60.7991 60.6581L100.401 117.042H63.0996Z" fill="#46475E"/>
<path d="M105.166 248.973V366.015H82.1609L72.3016 341.357V248.973H105.166ZM24.6482 248.973L92.5132 334.288L82.1609 366.015L14.2959 280.699L24.6482 248.973ZM24.6482 248.973L32.8643 274.945V366.015H-6.46569e-05V248.973H24.6482Z" fill="#46475E"/>
<path d="M205.184 248.973V366.015H172.32V248.973H205.184ZM178.564 248.973V276.261H115.793V248.973H178.564ZM178.564 295.329V321.96H121.873V295.329H178.564ZM178.564 338.727V366.015H116.779V338.727H178.564Z" fill="#46475E"/>
<path d="M273.522 247C282.614 247 291.049 248.479 298.827 251.438C306.496 254.507 313.233 258.781 319.039 264.26C324.735 269.74 329.172 276.151 332.349 283.493C335.526 290.836 337.114 298.836 337.114 307.494C337.114 316.261 335.471 324.316 332.185 331.658C328.789 339.001 324.133 345.357 318.217 350.727C312.192 356.206 305.236 360.426 297.348 363.385C289.461 366.453 281.026 367.987 272.043 367.987C261.197 367.987 251.502 366.124 242.958 362.398C234.303 358.672 227.292 353.631 221.925 347.275L244.108 325.083C248.161 329.795 252.379 333.302 256.761 335.603C261.143 337.905 266.401 339.056 272.536 339.056C278.342 339.056 283.6 337.74 288.311 335.11C293.021 332.59 296.801 328.973 299.649 324.261C302.388 319.549 303.757 314.014 303.757 307.658C303.757 301.302 302.497 295.713 299.977 290.891C297.348 286.178 293.733 282.507 289.132 279.877C284.531 277.247 279.163 275.932 273.029 275.932C267.113 275.932 262.129 277.082 258.075 279.384C254.022 281.685 250.955 284.973 248.873 289.247C246.682 293.521 245.587 298.562 245.587 304.37L223.075 290.069L277.465 291.713V318.014H212.558V313.083C212.558 299.055 215.133 287.11 220.281 277.247C225.321 267.384 232.441 259.877 241.643 254.726C250.736 249.575 261.362 247 273.522 247Z" fill="#46475E"/>
<path d="M429.291 248.973V366.015H396.427V248.973H429.291ZM402.671 248.973V276.261H339.9V248.973H402.671ZM402.671 295.329V321.96H345.98V295.329H402.671ZM402.671 338.727V366.015H340.886V338.727H402.671Z" fill="#46475E"/>
<path d="M506.38 295.658V318.343H486.497C482.005 318.343 478.609 319.439 476.309 321.631C473.899 323.823 472.694 326.727 472.694 330.343C472.694 333.96 473.899 336.864 476.309 339.056C478.609 341.247 482.005 342.343 486.497 342.343H506.38V366.015H481.239C473.132 366.015 466.011 364.535 459.877 361.576C453.742 358.617 448.922 354.508 445.416 349.248C441.911 343.987 440.158 337.85 440.158 330.836C440.158 323.823 441.966 317.686 445.581 312.425C449.086 307.165 454.016 303.055 460.37 300.096C466.723 297.137 474.227 295.658 482.882 295.658H506.38ZM533 248.973V366.015H500.136V248.973H533ZM469.9 248.973L501.779 298.946L472.201 305.357L432.599 248.973H469.9Z" fill="#46475E"/>
<path d="M115.371 453.649C120.52 453.649 124.793 455.402 128.189 458.909C131.584 462.416 133.282 466.69 133.282 471.731C133.282 476.882 131.584 481.211 128.189 484.717C124.793 488.224 120.52 489.978 115.371 489.978C110.223 489.978 106.005 488.224 102.719 484.717C99.3226 481.211 97.6246 476.882 97.6246 471.731C97.6246 466.69 99.3226 462.416 102.719 458.909C106.005 455.402 110.223 453.649 115.371 453.649Z" fill="#46475E"/>
<path d="M229.255 372.958V490H196.391V372.958H229.255ZM202.635 414.547V441.835H145.122V414.547H202.635ZM202.635 462.712V490H142.657V462.712H202.635Z" fill="#46475E"/>
<path d="M329.273 372.958V490H296.409V372.958H329.273ZM302.653 372.958V400.246H239.882V372.958H302.653ZM302.653 419.314V445.945H245.962V419.314H302.653ZM302.653 462.712V490H240.868V462.712H302.653Z" fill="#46475E"/>
<path d="M429.291 372.958V490H396.427V372.958H429.291ZM402.671 372.958V400.246H339.9V372.958H402.671ZM402.671 419.314V445.945H345.98V419.314H402.671ZM402.671 462.712V490H340.886V462.712H402.671Z" fill="#46475E"/>
<path d="M506.38 419.643V442.328H486.497C482.005 442.328 478.609 443.424 476.309 445.616C473.899 447.808 472.694 450.712 472.694 454.328C472.694 457.945 473.899 460.849 476.309 463.041C478.609 465.233 482.005 466.329 486.497 466.329H506.38V490H481.239C473.132 490 466.011 488.521 459.877 485.562C453.742 482.603 448.922 478.493 445.416 473.233C441.911 467.972 440.158 461.835 440.158 454.822C440.158 447.808 441.966 441.671 445.581 436.41C449.086 431.15 454.016 427.041 460.37 424.082C466.723 421.123 474.227 419.643 482.882 419.643H506.38ZM533 372.958V490H500.136V372.958H533ZM469.9 372.958L501.779 422.931L472.201 429.342L432.599 372.958H469.9Z" fill="#46475E"/>
<path d="M105.166 495.973V613.015H82.1609L72.3016 588.357V495.973H105.166ZM24.6482 495.973L92.5132 581.288L82.1609 613.015L14.2959 527.699L24.6482 495.973ZM24.6482 495.973L32.8643 521.945V613.015H-6.46569e-05V495.973H24.6482Z" fill="#46475E"/>
<path d="M205.184 495.973V613.015H172.32V495.973H205.184ZM178.564 495.973V523.261H115.793V495.973H178.564ZM178.564 542.329V568.96H121.873V542.329H178.564ZM178.564 585.727V613.015H116.779V585.727H178.564Z" fill="#46475E"/>
<path d="M273.522 494C282.614 494 291.049 495.479 298.827 498.438C306.496 501.507 313.233 505.781 319.039 511.26C324.735 516.74 329.172 523.151 332.349 530.493C335.526 537.836 337.114 545.836 337.114 554.494C337.114 563.261 335.471 571.316 332.185 578.658C328.789 586.001 324.133 592.357 318.217 597.727C312.192 603.206 305.236 607.426 297.348 610.385C289.461 613.453 281.026 614.987 272.043 614.987C261.197 614.987 251.502 613.124 242.958 609.398C234.303 605.672 227.292 600.631 221.925 594.275L244.108 572.083C248.161 576.795 252.379 580.302 256.761 582.603C261.143 584.905 266.401 586.056 272.536 586.056C278.342 586.056 283.6 584.74 288.311 582.11C293.021 579.59 296.801 575.973 299.649 571.261C302.388 566.549 303.757 561.014 303.757 554.658C303.757 548.302 302.497 542.713 299.977 537.891C297.348 533.178 293.733 529.507 289.132 526.877C284.531 524.247 279.163 522.932 273.029 522.932C267.113 522.932 262.129 524.082 258.075 526.384C254.022 528.685 250.955 531.973 248.873 536.247C246.682 540.521 245.587 545.562 245.587 551.37L223.075 537.069L277.465 538.713V565.014H212.558V560.083C212.558 546.055 215.133 534.11 220.281 524.247C225.321 514.384 232.441 506.877 241.643 501.726C250.736 496.575 261.362 494 273.522 494Z" fill="#46475E"/>
<path d="M429.291 495.973V613.015H396.427V495.973H429.291ZM402.671 495.973V523.261H339.9V495.973H402.671ZM402.671 542.329V568.96H345.98V542.329H402.671ZM402.671 585.727V613.015H340.886V585.727H402.671Z" fill="#46475E"/>
<path d="M506.38 542.658V565.343H486.497C482.005 565.343 478.609 566.439 476.309 568.631C473.899 570.823 472.694 573.727 472.694 577.343C472.694 580.96 473.899 583.864 476.309 586.056C478.609 588.247 482.005 589.343 486.497 589.343H506.38V613.015H481.239C473.132 613.015 466.011 611.535 459.877 608.576C453.742 605.617 448.922 601.508 445.416 596.248C441.911 590.987 440.158 584.85 440.158 577.836C440.158 570.823 441.966 564.686 445.581 559.425C449.086 554.165 454.016 550.055 460.37 547.096C466.723 544.137 474.227 542.658 482.882 542.658H506.38ZM533 495.973V613.015H500.136V495.973H533ZM469.9 495.973L501.779 545.946L472.201 552.357L432.599 495.973H469.9Z" fill="#46475E"/>
</g>
<defs>
<clipPath id="clip0_2204_7131">
<rect width="533" height="496" fill="white"/>
</clipPath>
</defs>
</svg>
