<svg width="720" height="560" viewBox="0 0 720 560" fill="none" xmlns="http://www.w3.org/2000/svg">
<g clip-path="url(#clip0_2195_6811)">
<rect width="720" height="560" rx="40" fill="#1D1D25"/>
<path d="M491.688 32.9893C492.195 28.8579 497.89 28.1523 499.39 32.0349L521.387 88.9696C522.586 92.0747 526.833 92.4414 528.547 89.588L559.979 37.2675C562.123 33.6995 567.612 35.371 567.403 39.5281L564.341 100.488C564.174 103.812 567.904 105.874 570.63 103.965L620.626 68.9523C624.035 66.5647 628.37 70.3242 626.488 74.037L598.897 128.481C597.392 131.45 599.961 134.851 603.228 134.215L663.142 122.565C667.228 121.771 669.659 126.968 666.43 129.595L619.079 168.109C616.497 170.209 617.46 174.361 620.704 175.11L680.176 188.836C684.232 189.772 684.339 195.509 680.321 196.595L621.398 212.52C618.185 213.388 617.376 217.573 620.035 219.576L668.783 256.305C672.108 258.81 669.872 264.094 665.759 263.452L605.454 254.035C602.165 253.521 599.724 257.015 601.338 259.926L630.933 313.308C632.951 316.948 628.759 320.866 625.263 318.607L574.002 285.475C571.206 283.668 567.555 285.867 567.846 289.183L573.17 349.987C573.533 354.134 568.109 356.008 565.835 352.522L532.481 301.405C530.662 298.617 526.433 299.141 525.349 302.289L505.481 360.001C504.127 363.937 498.41 363.443 497.75 359.333L488.071 299.069C487.543 295.783 483.466 294.541 481.196 296.976L439.572 341.618C436.734 344.662 431.712 341.886 432.781 337.863L448.45 278.872C449.305 275.655 446.085 272.863 443.021 274.163L386.838 298.016C383.007 299.643 379.549 295.064 382.161 291.824L420.47 244.306C422.559 241.715 420.753 237.854 417.425 237.796L356.398 236.735C352.236 236.663 350.939 231.074 354.644 229.176L408.967 201.348C411.93 199.83 411.851 195.569 408.834 194.163L353.514 168.371C349.742 166.612 350.831 160.979 354.987 160.752L415.932 157.425C419.256 157.244 420.917 153.319 418.733 150.807L378.686 104.745C375.955 101.604 379.241 96.8996 383.13 98.3829L440.16 120.133C443.27 121.319 446.384 118.409 445.411 115.225L427.561 56.8574C426.344 52.877 431.259 49.9162 434.209 52.853L477.461 95.9185C479.82 98.2672 483.848 96.8751 484.254 93.5712L491.688 32.9893Z" fill="#F06334"/>
<g filter="url(#filter0_d_2195_6811)">
<circle cx="359" cy="437" r="308" fill="#1D1D25"/>
</g>
<mask id="mask0_2195_6811" style="mask-type:alpha" maskUnits="userSpaceOnUse" x="52" y="129" width="616" height="616">
<circle cx="359.876" cy="436.876" r="307.876" fill="#F6F6F9"/>
</mask>
<g mask="url(#mask0_2195_6811)">
<path d="M400.429 125.022C413.694 129.982 424.468 135.21 435.257 141.177L445.451 136.083L450.384 145.949L460.25 141.016L465.388 151.296C482.709 153.705 496.554 156.665 514.093 162.906L508.105 179.719C502.535 177.737 497.385 176.121 492.342 174.751C567.231 224.742 615.747 291.136 637.293 364.662C662.603 451.033 650.462 546.405 601.475 635.266L585.838 626.646C632.796 541.467 643.987 450.986 620.162 369.683C601.077 304.557 559.369 244.789 494.622 198.053C539.088 261.473 563.975 351.609 563.534 441.899C562.967 558.062 520.459 677.502 420.044 743.291L410.265 728.361C503.97 666.967 545.135 554.353 545.684 441.811C546.184 339.388 513.018 239.528 457.993 181.153C463.592 254.866 450.001 361.419 425.23 463.758C411.343 521.131 393.854 577.548 374.032 626.594C354.264 675.504 331.954 717.637 308.21 746.015L294.517 734.562C316.513 708.274 337.993 668.126 357.481 619.908C376.915 571.824 394.156 516.258 407.881 459.557C433.621 353.214 446.693 244.158 439.402 173.513C416.348 191.137 391.287 220.856 366.415 258.668C337.483 302.651 309.415 356.619 285.592 412.713C261.77 468.805 242.291 526.798 230.437 578.795C218.52 631.071 214.553 676.271 220.859 707.273L203.366 710.829C196.284 676.008 200.963 627.772 213.032 574.83C225.164 521.609 245.012 462.598 269.162 405.732C293.311 348.869 321.863 293.92 351.502 248.862C371.811 217.988 392.928 191.291 413.808 171.853C301.845 194.286 215.386 268.878 164.323 356.805C108.038 453.724 95.9531 564.526 137.325 637.719L121.785 646.505C76.1336 565.741 90.8192 447.836 148.887 347.845C198.35 262.671 280.159 188.83 386.283 160.003C231.725 154.571 106.537 248.762 64.3814 374.956L47.4551 369.299C93.0435 232.83 229.833 132.591 396.502 142.628C395.736 142.333 394.964 142.032 394.179 141.739L400.429 125.022Z" fill="#B3B5C6"/>
<path d="M651.67 434.603C651.67 273.172 520.804 142.306 359.372 142.306C197.941 142.306 67.0746 273.172 67.0746 434.603C67.0746 596.035 197.941 726.901 359.372 726.901V744.751C188.082 744.751 49.2244 605.893 49.2244 434.603C49.2244 263.313 188.082 124.456 359.372 124.456C530.662 124.456 669.52 263.313 669.52 434.603C669.52 605.893 530.662 744.751 359.372 744.751V726.901C520.804 726.901 651.67 596.035 651.67 434.603Z" fill="#B3B5C6"/>
<path d="M73.1584 532.945C137.818 593.221 221.324 637.226 305.821 661.998C390.395 686.791 475.216 692.1 542.468 675.83L546.669 693.183C475.582 710.382 387.478 704.535 300.801 679.124C214.048 653.692 127.976 608.445 60.9909 546.002L73.1584 532.945ZM66.2161 363.847C84.6 402.716 125.99 439.649 180.181 471.35C234.129 502.908 299.656 528.634 364.693 545.618C429.786 562.617 493.848 570.718 544.865 567.417C570.379 565.766 592.211 561.29 609.166 553.951C626.087 546.626 637.612 536.705 643.655 524.386L659.684 532.248C651.224 549.493 635.763 561.886 616.261 570.328C596.794 578.755 572.76 583.501 546.015 585.232C492.511 588.694 426.459 580.2 360.187 562.893C293.859 545.572 226.763 519.28 171.169 486.759C115.82 454.381 70.7467 415.17 50.0829 371.483L66.2161 363.847ZM158.126 211.985C153.601 226.014 156.516 240.906 166.733 256.768C177.046 272.78 194.424 289.092 217.255 304.893C262.852 336.45 328.115 364.553 394.741 383.628C461.436 402.723 528.434 412.466 577.449 408.072C602.044 405.867 621.043 400.19 633.283 391.333C644.92 382.913 650.87 371.384 649.469 355.04L667.258 353.515C669.204 376.217 660.371 393.766 643.751 405.793C627.734 417.383 605.001 423.525 579.044 425.853C526.955 430.523 457.565 420.184 389.826 400.79C322.019 381.376 254.798 352.581 207.1 319.57C183.284 303.088 163.81 285.198 151.724 266.434C139.541 247.519 134.507 227.059 141.138 206.503L158.126 211.985ZM293.911 139.199C290.138 147.793 290.763 156.474 295.467 165.682C300.328 175.197 309.518 185.106 322.482 194.863C348.364 214.341 386.992 231.523 427.104 243.062C467.251 254.611 507.73 260.174 537.134 257.26C551.922 255.795 562.859 252.281 569.635 247.28C575.825 242.713 578.895 236.728 578.077 227.922L595.849 226.266C597.261 241.446 591.337 253.452 580.234 261.644C569.718 269.404 555.065 273.421 538.894 275.023C506.38 278.245 463.465 272.094 422.17 260.215C380.841 248.326 339.979 230.364 311.753 209.122C297.663 198.519 286.143 186.672 279.569 173.805C272.838 160.631 271.302 146.301 277.569 132.025L293.911 139.199Z" fill="#B3B5C6"/>
</g>
<circle cx="516" cy="453" r="16" fill="#F06334"/>
<circle cx="614" cy="362" r="16" fill="#F06334"/>
<circle cx="148" cy="437" r="16" fill="#F06334"/>
<circle cx="266" cy="421" r="16" fill="#F06334"/>
<circle cx="115.751" cy="268" r="16" fill="#F06334"/>
<path d="M43.8107 206.973C42.809 207.097 42.2748 205.828 43.0641 205.199L58.2987 193.052C58.5708 192.835 58.7105 192.492 58.6676 192.147L56.2662 172.811C56.1418 171.809 57.4111 171.275 58.0404 172.064L70.1874 187.299C70.4044 187.571 70.7472 187.71 71.0926 187.668L90.4284 185.266C91.4301 185.142 91.9643 186.411 91.1751 187.04L75.9405 199.187C75.6684 199.404 75.5286 199.747 75.5715 200.093L77.973 219.428C78.0974 220.43 76.828 220.964 76.1987 220.175L64.0517 204.94C63.8348 204.668 63.4919 204.529 63.1466 204.572L43.8107 206.973Z" fill="#F6F6F9"/>
<path d="M80.8253 147.867C79.9327 147.396 80.2214 146.049 81.2287 145.985L91.3666 145.339C91.7139 145.317 92.0247 145.116 92.1873 144.808L96.9313 135.825C97.4027 134.933 98.7493 135.221 98.8135 136.229L99.4596 146.367C99.4818 146.714 99.6829 147.025 99.9906 147.187L108.973 151.931C109.866 152.403 109.577 153.749 108.57 153.814L98.432 154.46C98.0847 154.482 97.7738 154.683 97.6113 154.991L92.8673 163.973C92.3959 164.866 91.0493 164.577 90.9851 163.57L90.339 153.432C90.3168 153.085 90.1157 152.774 89.808 152.611L80.8253 147.867Z" fill="#F6F6F9"/>
</g>
<defs>
<filter id="filter0_d_2195_6811" x="43.6086" y="126.536" width="630.783" height="630.783" filterUnits="userSpaceOnUse" color-interpolation-filters="sRGB">
<feFlood flood-opacity="0" result="BackgroundImageFix"/>
<feColorMatrix in="SourceAlpha" type="matrix" values="0 0 0 0 0 0 0 0 0 0 0 0 0 0 0 0 0 0 127 0" result="hardAlpha"/>
<feOffset dy="4.9276"/>
<feGaussianBlur stdDeviation="3.6957"/>
<feComposite in2="hardAlpha" operator="out"/>
<feColorMatrix type="matrix" values="0 0 0 0 0 0 0 0 0 0 0 0 0 0 0 0 0 0 0.15 0"/>
<feBlend mode="normal" in2="BackgroundImageFix" result="effect1_dropShadow_2195_6811"/>
<feBlend mode="normal" in="SourceGraphic" in2="effect1_dropShadow_2195_6811" result="shape"/>
</filter>
<clipPath id="clip0_2195_6811">
<rect width="720" height="560" rx="40" fill="white"/>
</clipPath>
</defs>
</svg>
