<svg width="487" height="474" viewBox="0 0 487 474" fill="none" xmlns="http://www.w3.org/2000/svg">
<g clip-path="url(#clip0_2003_4562)">
<rect width="486.967" height="473.249" rx="35.1508" fill="#F06334"/>
<circle cx="294.479" cy="348.062" r="240.911" transform="rotate(-21.3842 294.479 348.062)" stroke="#1D1D25" stroke-width="5.14402"/>
<g filter="url(#filter0_d_2003_4562)">
<circle cx="295.479" cy="347.062" r="248.821" transform="rotate(-21.3842 295.479 347.062)" fill="#FDE5D7"/>
</g>
<circle cx="294.479" cy="348.062" r="240.911" transform="rotate(-21.3842 294.479 348.062)" stroke="#1D1D25" stroke-width="5.14402"/>
<path d="M206.638 123.736C213.506 121.047 222.783 123.602 234.21 132.178C245.504 140.655 258.217 154.526 271.544 172.843C298.175 209.447 326.91 263.321 351.369 325.785C375.829 388.249 391.317 447.31 396.622 492.265C399.277 514.762 399.363 533.577 396.828 547.469C394.263 561.523 389.188 569.699 382.32 572.388C375.451 575.077 366.175 572.522 354.749 563.946C343.455 555.469 330.742 541.598 317.415 523.281C290.783 486.677 262.049 432.803 237.589 370.339C213.13 307.875 197.641 248.814 192.336 203.859C189.682 181.363 189.595 162.547 192.13 148.656C194.695 134.601 199.769 126.426 206.638 123.736Z" stroke="#1D1D25" stroke-width="5.14402"/>
<path d="M206.638 123.736C250.818 106.436 300.756 115.519 345.909 144.641C391.057 173.761 431.227 222.823 455.568 284.983C479.909 347.144 483.734 410.437 470.364 462.471C456.992 514.51 426.5 555.088 382.32 572.388C338.139 589.688 288.201 580.605 243.049 551.483C197.9 522.363 157.731 473.301 133.39 411.141C109.05 348.98 105.224 285.687 118.594 233.653C131.965 181.614 162.457 141.036 206.638 123.736Z" stroke="#1D1D25" stroke-width="5.14402"/>
<path d="M518.665 259.862C521.553 267.238 519.079 276.97 510.678 288.742C502.352 300.408 488.623 313.46 470.425 327.074C434.059 354.28 380.337 383.37 317.882 407.826C255.426 432.282 196.235 447.407 151.065 452.128C128.462 454.491 109.52 454.233 95.486 451.322C81.3249 448.384 72.9012 442.92 70.0127 435.544C67.1243 428.168 69.5975 418.436 77.9988 406.663C86.3246 394.997 100.054 381.945 118.252 368.331C154.618 341.125 208.34 312.035 270.795 287.579C333.251 263.123 392.442 247.999 437.612 243.277C460.215 240.914 479.157 241.173 493.191 244.084C507.352 247.021 515.776 252.486 518.665 259.862Z" stroke="#1D1D25" stroke-width="5.14402"/>
<path d="M518.805 260.221C536.105 304.401 527.022 354.339 497.9 399.492C468.78 444.64 419.719 484.81 357.558 509.151C295.398 533.492 232.105 537.317 180.07 523.947C128.031 510.575 87.4536 480.083 70.1534 435.903C52.8533 391.722 61.9364 341.784 91.0587 296.632C120.179 251.483 169.24 211.314 231.401 186.973C293.561 162.633 356.854 158.807 408.889 172.177C460.927 185.548 501.505 216.04 518.805 260.221Z" stroke="#1D1D25" stroke-width="5.14402"/>
<g opacity="0.69" filter="url(#filter1_f_2003_4562)">
<path d="M426.684 225.549C426.684 229.042 411.771 237.799 409.743 237.799C407.715 237.799 392.802 229.042 392.802 225.549C392.802 222.055 400.387 219.223 409.743 219.223C419.099 219.223 426.684 222.055 426.684 225.549Z" fill="black" fill-opacity="0.35"/>
</g>
<path d="M435.891 184.159C435.891 198.601 412.873 234.799 409.742 234.799C406.612 234.799 383.594 198.601 383.594 184.159C383.594 169.717 395.301 158.01 409.742 158.01C424.184 158.01 435.891 169.717 435.891 184.159Z" fill="#F06334"/>
<circle cx="409.742" cy="184.159" r="16.9414" fill="#F6F6F9"/>
<path d="M416.128 173.904C416.33 174.074 416.38 174.183 416.403 174.228C416.465 174.345 416.6 174.599 416.656 174.771C416.762 175.096 416.801 175.585 416.733 176.164C416.691 176.523 416.615 177.192 416.565 177.743C416.514 178.294 416.503 178.718 416.45 179.041C416.359 179.588 416.308 179.893 416.273 180.041C416.22 180.261 416.089 180.82 416.225 181.194C416.273 181.325 416.366 181.492 416.52 181.509C416.602 181.518 416.686 181.526 416.756 181.501C416.831 181.474 417.033 181.34 417.287 181.141C417.569 180.92 417.92 180.74 418.35 180.246C418.521 180.051 418.738 179.775 418.904 179.538C419.07 179.301 419.189 179.113 419.273 178.915C419.438 178.528 419.521 178.28 419.589 178.176C419.772 177.899 420.007 177.604 420.223 177.503C420.44 177.402 420.717 177.32 420.951 177.447C421.249 177.608 421.506 177.785 421.606 177.999C421.638 178.068 421.681 178.302 421.616 178.608C421.549 178.929 421.448 179.297 421.169 179.758C421.098 179.875 421.04 179.956 420.489 180.616C419.938 181.277 418.924 182.481 418.22 183.299C417.517 184.118 417.135 184.539 416.842 184.831C416.549 185.124 416.351 185.282 416.041 185.476C415.731 185.669 415.316 185.88 415.076 186.035C414.75 186.246 414.543 186.459 414.386 186.72C414.299 186.866 414.226 186.978 414.121 187.22C413.934 187.649 413.787 188.019 413.835 188.174C413.862 188.26 413.904 188.309 413.968 188.347C414.042 188.391 414.349 188.441 414.939 188.405C415.271 188.385 415.664 188.34 415.988 188.291C416.312 188.242 416.559 188.19 416.973 188.05C417.386 187.91 417.95 187.687 418.263 187.557C418.575 187.427 418.634 187.387 418.71 187.347L418.722 187.341C418.889 187.253 419.226 187.073 419.678 186.727C419.921 186.541 420.164 186.326 420.368 186.123C420.573 185.92 420.729 185.729 420.871 185.592C421.116 185.354 421.288 185.199 421.426 185.14C421.654 185.041 421.981 184.957 422.249 185.066C422.395 185.126 422.589 185.229 422.658 185.411C422.695 185.508 422.742 185.708 422.69 185.934C422.619 186.245 422.482 186.721 422.287 187.085C422.23 187.192 421.969 187.557 421.483 188.05C421.27 188.267 421.1 188.4 420.768 188.604C420.436 188.808 419.957 189.075 419.275 189.377C418.594 189.68 417.736 190.009 416.924 190.288C416.112 190.567 415.368 190.79 414.865 190.917C414.362 191.045 414.108 191.091 413.841 191.089C412.911 191.083 412.571 191.043 412.453 191.145C412.232 191.336 411.975 191.534 411.732 192.283C411.61 192.658 411.451 193.237 411.342 193.683C411.234 194.129 411.177 194.432 411.154 194.766C411.132 195.101 411.13 195.456 411.182 195.817C411.287 196.54 411.326 196.968 411.356 197.074C411.434 197.341 411.602 197.699 411.799 197.966C411.89 198.09 412.198 198.353 412.517 198.843C412.776 199.239 412.896 199.449 412.891 199.511C412.888 199.546 412.88 199.594 412.84 199.629C412.749 199.707 412.548 199.858 411.991 200.027C411.595 200.146 410.974 200.302 410.456 200.408C409.939 200.513 409.538 200.569 409.116 200.586C408.694 200.603 408.263 200.582 407.648 200.478C407.033 200.374 406.257 200.198 405.755 200.066C405.029 199.876 404.767 199.8 404.685 199.753L404.675 199.747C404.568 199.686 404.466 199.628 404.441 199.554C404.428 199.516 404.427 199.468 404.441 199.432C404.467 199.368 404.496 199.313 404.544 199.27C404.652 199.172 404.771 199.095 405.383 198.623C405.678 198.396 406.108 198.052 406.437 197.775C406.765 197.497 406.991 197.296 407.163 197.109C407.47 196.774 407.709 196.453 407.869 196.043C407.96 195.81 408.051 195.522 408.124 195C408.197 194.479 408.251 193.745 408.279 193.147C408.307 192.55 408.309 192.102 408.264 191.501C408.219 190.9 408.13 190.168 408.071 189.749C408.011 189.329 407.981 189.224 407.85 188.941C407.719 188.657 407.494 188.209 407.262 187.829C407.031 187.449 406.8 187.147 406.66 186.966C406.474 186.723 406.235 186.391 405.728 186.025C405.474 185.842 405.197 185.691 405.01 185.624C404.745 185.529 404.293 185.485 403.605 185.543C403.273 185.57 402.977 185.623 402.723 185.653C402.469 185.683 402.262 185.687 402.12 185.699L402.111 185.699C401.771 185.727 401.403 185.758 401.152 185.894C401.048 185.951 400.616 186.236 400.074 186.674C399.822 186.878 399.404 186.94 398.889 187.25C398.653 187.392 398.353 187.671 398.189 187.713C397.782 187.816 397.406 187.855 397.185 187.695C396.97 187.539 396.782 187.357 396.733 187.212C396.668 187.021 396.709 186.796 396.741 186.73C396.832 186.545 397.104 186.214 397.706 185.883C398.18 185.622 398.228 185.542 398.555 185.413C398.788 185.32 399.065 185.149 399.084 185.033C399.096 184.963 399.111 184.886 399.076 184.812C398.984 184.619 398.837 184.427 398.351 184.226C397.801 183.999 397.364 183.847 397.222 183.743L397.216 183.738C397.035 183.605 396.86 183.477 396.818 183.217C396.749 182.786 396.729 182.384 396.902 182.203C397.014 182.086 397.243 181.959 397.689 182.023C398.022 182.072 398.145 182.144 398.847 182.658C399.028 182.791 399.152 182.869 399.539 183.047C399.926 183.225 400.558 183.496 401.059 183.669C401.561 183.843 401.92 183.929 402.188 183.955C402.625 183.996 402.862 184.001 403.053 183.951C403.375 183.867 403.6 183.808 403.748 183.693C404.091 183.429 404.36 183.197 404.464 183.108C404.605 182.987 404.842 182.801 404.812 182.424C404.798 182.237 404.73 181.84 404.479 181.377C404.29 181.029 404.159 180.821 404.009 180.684C403.786 180.481 403.485 180.255 403.031 180.04C402.754 179.908 402.538 179.677 402.336 179.578C402.099 179.463 401.985 179.295 401.839 179.082L401.829 179.067C401.538 178.641 401.251 178.492 401.152 178.417C401.002 178.302 400.727 178.283 400.543 178.125C400.317 177.93 400.038 177.632 399.981 177.425C399.907 177.159 399.836 176.705 399.886 176.239C399.93 175.822 399.982 175.605 400.124 175.51C400.239 175.432 400.332 175.296 400.824 175.304C401.15 175.31 401.284 175.406 401.43 175.573C401.533 175.691 401.671 175.865 401.817 176.104C401.877 176.203 402.181 176.596 402.8 177.078L402.823 177.096C403.324 177.487 403.662 177.75 403.91 177.789C404.343 177.856 404.875 177.885 405.051 177.753C405.124 177.698 405.193 177.642 405.229 177.581C405.261 177.527 405.301 177.457 405.293 177.224C405.275 176.704 405.252 176.261 405.182 175.918C405.133 175.681 405.053 175.326 404.969 175.037C404.885 174.749 404.8 174.533 404.654 174.254C404.508 173.975 404.317 173.637 404.129 173.382C403.799 172.936 403.549 172.654 403.395 172.371C403.183 171.983 403.035 171.709 403.034 171.572C403.033 171.384 403.075 171.166 403.146 170.984C403.257 170.697 403.365 170.283 403.696 170.187C403.926 170.122 404.203 170.116 404.322 170.207C404.582 170.405 405.117 170.772 405.337 171.121C405.531 171.43 405.714 171.732 405.878 172.08C405.989 172.314 406.147 172.662 406.309 173.155C406.471 173.648 406.655 174.264 406.72 174.684C406.816 175.303 406.838 175.764 406.999 175.998C407.119 176.172 407.3 176.404 407.486 176.389C407.55 176.385 407.612 176.375 407.67 176.329C407.826 176.206 408.115 175.991 408.357 175.531C408.478 175.303 408.601 175.025 408.711 174.48C408.788 174.099 408.885 173.511 408.945 173.204C409.012 172.867 409.02 172.523 409.168 172.323C409.281 172.171 409.519 171.881 409.773 171.823C409.977 171.776 410.376 171.753 410.598 171.881C410.744 171.965 410.923 172.064 411.003 172.186C411.043 172.249 411.092 172.437 411.094 172.914C411.095 173.24 411.082 173.727 411.06 174.067C411.037 174.407 411.006 174.593 410.968 174.757C410.929 174.922 410.886 175.059 410.537 175.821C410.187 176.584 409.551 177.93 409.051 178.898C408.551 179.865 408.199 180.437 408.014 180.753C407.828 181.068 407.807 181.125 407.79 181.227C407.751 181.469 407.69 181.829 407.713 182.186C407.727 182.411 407.798 182.73 408.005 183.24C408.122 183.529 408.277 183.87 408.368 184.058C408.535 184.406 408.878 184.874 408.967 185.2C409.001 185.325 409.206 185.571 409.456 186.029C409.737 186.545 409.881 186.923 409.999 187.071C410.139 187.245 410.242 187.38 410.295 187.454C410.376 187.568 410.426 187.721 410.547 187.749C410.612 187.765 410.696 187.78 410.775 187.724C410.998 187.567 411.28 187.43 411.536 187.119C411.685 186.937 411.952 186.608 412.226 186.207C412.501 185.806 412.776 185.346 412.975 184.98C413.174 184.614 413.295 184.35 413.461 183.992C413.626 183.634 413.832 183.196 413.944 182.949C414.057 182.701 414.077 182.645 414.089 182.339C414.101 182.033 414.104 181.494 414.104 180.965C414.103 180.437 414.099 179.934 414.102 179.534C414.105 179.134 414.106 178.845 414.123 178.687C414.141 178.501 414.228 178.278 414.274 177.944C414.303 177.734 414.348 177.51 414.378 177.239C414.402 177.017 414.432 176.842 414.447 176.48C414.459 176.193 414.462 175.709 414.49 175.364C414.534 174.818 414.565 174.537 414.628 174.41C414.738 174.185 414.871 173.986 415.025 173.898C415.174 173.813 415.305 173.715 415.493 173.726C415.827 173.744 415.997 173.792 416.128 173.904Z" fill="#1D1D25"/>
<g opacity="0.69" filter="url(#filter2_f_2003_4562)">
<path d="M369.91 432.318C369.91 435.812 354.997 444.569 352.968 444.569C350.94 444.569 336.027 435.812 336.027 432.318C336.027 428.825 343.612 425.993 352.968 425.993C362.325 425.993 369.91 428.825 369.91 432.318Z" fill="black" fill-opacity="0.35"/>
</g>
<path d="M379.117 390.929C379.117 405.37 356.099 441.569 352.968 441.569C349.838 441.569 326.819 405.37 326.819 390.929C326.819 376.487 338.527 364.78 352.968 364.78C367.41 364.78 379.117 376.487 379.117 390.929Z" fill="#F06334"/>
<circle cx="352.968" cy="390.928" r="16.9414" fill="#F6F6F9"/>
<path d="M359.354 380.673C359.556 380.844 359.605 380.953 359.629 380.998C359.69 381.115 359.826 381.368 359.882 381.541C359.988 381.866 360.027 382.354 359.959 382.934C359.917 383.293 359.841 383.961 359.79 384.513C359.739 385.064 359.728 385.487 359.675 385.81C359.585 386.357 359.534 386.663 359.499 386.81C359.446 387.031 359.315 387.589 359.451 387.964C359.498 388.094 359.591 388.261 359.746 388.278C359.828 388.287 359.911 388.295 359.982 388.27C360.057 388.243 360.258 388.11 360.513 387.911C360.794 387.69 361.145 387.51 361.576 387.015C361.746 386.82 361.964 386.544 362.13 386.308C362.296 386.071 362.414 385.883 362.499 385.685C362.664 385.298 362.746 385.049 362.815 384.946C362.997 384.669 363.232 384.373 363.449 384.272C363.665 384.171 363.942 384.09 364.177 384.217C364.475 384.378 364.732 384.554 364.831 384.769C364.863 384.837 364.906 385.072 364.842 385.377C364.774 385.698 364.674 386.067 364.395 386.527C364.324 386.644 364.266 386.725 363.715 387.386C363.163 388.046 362.149 389.25 361.446 390.069C360.742 390.888 360.36 391.309 360.068 391.601C359.775 391.893 359.577 392.052 359.267 392.245C358.957 392.439 358.541 392.649 358.302 392.805C357.976 393.016 357.768 393.228 357.612 393.49C357.524 393.635 357.452 393.747 357.346 393.99C357.159 394.418 357.012 394.789 357.061 394.944C357.087 395.029 357.13 395.078 357.194 395.116C357.267 395.16 357.575 395.21 358.164 395.174C358.496 395.154 358.89 395.109 359.214 395.06C359.537 395.011 359.784 394.96 360.198 394.819C360.612 394.679 361.176 394.457 361.488 394.327C361.801 394.196 361.86 394.157 361.935 394.117L361.948 394.11C362.114 394.022 362.452 393.843 362.904 393.497C363.147 393.311 363.39 393.096 363.594 392.892C363.798 392.689 363.955 392.499 364.096 392.362C364.342 392.124 364.513 391.969 364.652 391.909C364.88 391.811 365.206 391.726 365.475 391.836C365.621 391.895 365.814 391.999 365.884 392.18C365.921 392.278 365.968 392.477 365.916 392.704C365.844 393.015 365.707 393.49 365.513 393.855C365.456 393.961 365.195 394.326 364.709 394.82C364.496 395.037 364.326 395.17 363.994 395.373C363.662 395.577 363.183 395.844 362.501 396.147C361.819 396.45 360.961 396.778 360.149 397.057C359.337 397.336 358.594 397.559 358.091 397.687C357.588 397.815 357.333 397.86 357.067 397.859C356.137 397.853 355.796 397.813 355.678 397.915C355.458 398.106 355.201 398.304 354.957 399.053C354.836 399.428 354.677 400.007 354.568 400.452C354.459 400.898 354.402 401.202 354.38 401.536C354.357 401.87 354.355 402.226 354.408 402.587C354.513 403.31 354.551 403.738 354.582 403.843C354.659 404.111 354.828 404.469 355.024 404.735C355.115 404.859 355.424 405.123 355.743 405.612C356.001 406.008 356.121 406.218 356.117 406.28C356.114 406.315 356.106 406.363 356.065 406.398C355.974 406.476 355.773 406.627 355.217 406.796C354.821 406.916 354.199 407.071 353.682 407.177C353.165 407.283 352.764 407.338 352.342 407.355C351.919 407.372 351.488 407.352 350.874 407.248C350.259 407.143 349.482 406.967 348.981 406.836C348.255 406.645 347.992 406.569 347.911 406.523L347.9 406.517C347.794 406.456 347.692 406.398 347.667 406.324C347.654 406.285 347.652 406.238 347.667 406.202C347.692 406.138 347.722 406.082 347.769 406.039C347.878 405.942 347.997 405.865 348.609 405.393C348.903 405.165 349.334 404.822 349.662 404.544C349.991 404.266 350.217 404.065 350.388 403.878C350.696 403.543 350.935 403.223 351.095 402.812C351.185 402.579 351.276 402.292 351.35 401.77C351.423 401.248 351.477 400.514 351.505 399.917C351.532 399.319 351.534 398.871 351.489 398.271C351.444 397.67 351.356 396.938 351.296 396.518C351.237 396.098 351.207 395.994 351.076 395.71C350.945 395.427 350.719 394.978 350.488 394.598C350.256 394.219 350.026 393.917 349.886 393.735C349.699 393.493 349.46 393.16 348.954 392.795C348.7 392.611 348.422 392.461 348.235 392.394C347.971 392.299 347.519 392.255 346.831 392.312C346.499 392.34 346.203 392.392 345.948 392.423C345.694 392.453 345.488 392.456 345.346 392.468L345.336 392.469C344.996 392.497 344.628 392.527 344.377 392.664C344.273 392.721 343.841 393.005 343.3 393.444C343.048 393.647 342.629 393.71 342.115 394.02C341.879 394.162 341.578 394.44 341.415 394.482C341.007 394.586 340.632 394.624 340.411 394.464C340.196 394.308 340.008 394.127 339.958 393.981C339.894 393.79 339.935 393.565 339.967 393.499C340.057 393.314 340.33 392.984 340.932 392.653C341.406 392.392 341.453 392.312 341.781 392.182C342.014 392.09 342.29 391.918 342.31 391.802C342.321 391.733 342.336 391.656 342.301 391.582C342.21 391.388 342.063 391.196 341.577 390.995C341.027 390.768 340.589 390.616 340.448 390.512L340.441 390.508C340.26 390.375 340.086 390.247 340.044 389.986C339.974 389.556 339.955 389.154 340.128 388.973C340.24 388.855 340.469 388.728 340.914 388.793C341.247 388.841 341.371 388.914 342.072 389.427C342.254 389.561 342.377 389.638 342.764 389.817C343.152 389.995 343.783 390.266 344.285 390.439C344.786 390.612 345.145 390.699 345.414 390.724C345.85 390.765 346.087 390.77 346.279 390.72C346.6 390.637 346.825 390.577 346.974 390.463C347.317 390.198 347.585 389.967 347.69 389.877C347.831 389.757 348.067 389.571 348.038 389.193C348.024 389.007 347.955 388.61 347.704 388.147C347.515 387.798 347.384 387.59 347.235 387.454C347.012 387.25 346.71 387.025 346.257 386.809C345.98 386.677 345.764 386.446 345.561 386.347C345.325 386.232 345.211 386.065 345.065 385.851L345.055 385.836C344.764 385.411 344.476 385.262 344.378 385.187C344.227 385.072 343.952 385.052 343.769 384.894C343.543 384.7 343.264 384.402 343.206 384.195C343.133 383.929 343.061 383.474 343.111 383.009C343.156 382.591 343.207 382.375 343.35 382.279C343.465 382.202 343.558 382.065 344.05 382.074C344.375 382.08 344.509 382.175 344.656 382.343C344.758 382.46 344.897 382.635 345.043 382.874C345.103 382.972 345.407 383.365 346.026 383.848L346.049 383.866C346.549 384.256 346.887 384.52 347.136 384.558C347.569 384.626 348.101 384.654 348.277 384.522C348.35 384.467 348.419 384.411 348.454 384.351C348.486 384.297 348.526 384.227 348.518 383.994C348.5 383.473 348.478 383.031 348.408 382.687C348.359 382.45 348.279 382.096 348.195 381.807C348.111 381.518 348.026 381.302 347.88 381.024C347.734 380.745 347.543 380.406 347.355 380.152C347.024 379.705 346.775 379.423 346.62 379.141C346.409 378.753 346.26 378.478 346.259 378.342C346.258 378.153 346.301 377.935 346.371 377.753C346.482 377.466 346.59 377.053 346.922 376.957C347.151 376.891 347.428 376.885 347.547 376.976C347.808 377.174 348.343 377.541 348.562 377.891C348.756 378.2 348.94 378.502 349.104 378.85C349.215 379.084 349.372 379.431 349.535 379.924C349.697 380.417 349.881 381.034 349.946 381.453C350.042 382.073 350.063 382.533 350.225 382.768C350.345 382.941 350.525 383.173 350.711 383.159C350.775 383.154 350.837 383.144 350.896 383.098C351.052 382.976 351.34 382.761 351.583 382.301C351.703 382.072 351.827 381.795 351.937 381.25C352.013 380.868 352.11 380.281 352.171 379.974C352.237 379.637 352.246 379.293 352.394 379.093C352.506 378.941 352.745 378.65 352.999 378.592C353.203 378.546 353.602 378.523 353.824 378.651C353.969 378.734 354.149 378.833 354.228 378.956C354.269 379.019 354.318 379.206 354.32 379.684C354.321 380.01 354.308 380.497 354.285 380.836C354.263 381.176 354.231 381.363 354.193 381.527C354.155 381.691 354.112 381.829 353.762 382.591C353.413 383.353 352.776 384.7 352.277 385.667C351.777 386.635 351.425 387.207 351.239 387.522C351.054 387.837 351.032 387.894 351.016 387.996C350.977 388.239 350.916 388.599 350.939 388.956C350.953 389.18 351.024 389.5 351.231 390.01C351.348 390.299 351.503 390.639 351.593 390.827C351.76 391.175 352.103 391.644 352.192 391.97C352.226 392.094 352.432 392.34 352.681 392.798C352.962 393.315 353.107 393.692 353.225 393.841C353.364 394.015 353.467 394.149 353.52 394.224C353.601 394.338 353.651 394.49 353.772 394.519C353.838 394.534 353.921 394.55 354.001 394.493C354.223 394.336 354.505 394.2 354.761 393.888C354.911 393.706 355.177 393.377 355.452 392.976C355.727 392.575 356.001 392.116 356.201 391.75C356.4 391.384 356.52 391.119 356.686 390.762C356.852 390.404 357.057 389.966 357.17 389.718C357.283 389.47 357.303 389.414 357.315 389.108C357.326 388.802 357.329 388.263 357.329 387.735C357.329 387.206 357.325 386.704 357.328 386.304C357.33 385.904 357.332 385.615 357.348 385.457C357.367 385.271 357.453 385.048 357.5 384.714C357.529 384.503 357.573 384.28 357.603 384.008C357.628 383.787 357.657 383.611 357.673 383.249C357.685 382.962 357.687 382.479 357.715 382.134C357.759 381.587 357.791 381.306 357.853 381.18C357.964 380.955 358.097 380.755 358.25 380.668C358.4 380.583 358.531 380.485 358.719 380.495C359.053 380.513 359.222 380.562 359.354 380.673Z" fill="#1D1D25"/>
<g opacity="0.69" filter="url(#filter3_f_2003_4562)">
<path d="M182.51 355.529C182.51 359.023 167.597 367.78 165.569 367.78C163.541 367.78 148.628 359.023 148.628 355.529C148.628 352.036 156.213 349.204 165.569 349.204C174.925 349.204 182.51 352.036 182.51 355.529Z" fill="black" fill-opacity="0.35"/>
</g>
<path d="M191.717 314.139C191.717 328.581 168.699 364.78 165.569 364.78C162.438 364.78 139.42 328.581 139.42 314.139C139.42 299.698 151.127 287.991 165.569 287.991C180.01 287.991 191.717 299.698 191.717 314.139Z" fill="#F06334"/>
<circle cx="165.568" cy="314.139" r="16.9414" fill="#F6F6F9"/>
<path d="M171.955 303.884C172.156 304.055 172.206 304.164 172.229 304.209C172.291 304.326 172.426 304.579 172.482 304.752C172.588 305.077 172.627 305.565 172.56 306.144C172.518 306.503 172.442 307.172 172.391 307.723C172.34 308.275 172.329 308.698 172.276 309.021C172.186 309.568 172.134 309.874 172.099 310.021C172.047 310.242 171.915 310.8 172.051 311.175C172.099 311.305 172.192 311.472 172.346 311.489C172.429 311.498 172.512 311.506 172.582 311.481C172.657 311.454 172.859 311.321 173.113 311.121C173.395 310.901 173.746 310.721 174.177 310.226C174.347 310.031 174.565 309.755 174.73 309.519C174.896 309.282 175.015 309.094 175.099 308.896C175.264 308.509 175.347 308.26 175.415 308.157C175.598 307.879 175.833 307.584 176.049 307.483C176.266 307.382 176.543 307.301 176.777 307.428C177.075 307.589 177.333 307.765 177.432 307.98C177.464 308.048 177.507 308.283 177.442 308.588C177.375 308.909 177.274 309.278 176.995 309.738C176.924 309.855 176.866 309.936 176.315 310.597C175.764 311.257 174.75 312.461 174.046 313.28C173.343 314.099 172.961 314.519 172.668 314.812C172.375 315.104 172.177 315.263 171.867 315.456C171.557 315.65 171.142 315.86 170.902 316.016C170.576 316.227 170.369 316.439 170.212 316.701C170.125 316.846 170.052 316.958 169.947 317.201C169.76 317.629 169.613 318 169.661 318.155C169.688 318.24 169.73 318.289 169.794 318.327C169.868 318.371 170.175 318.421 170.765 318.385C171.097 318.365 171.49 318.32 171.814 318.271C172.138 318.222 172.385 318.171 172.799 318.03C173.213 317.89 173.776 317.668 174.089 317.537C174.402 317.407 174.461 317.368 174.536 317.328L174.549 317.321C174.715 317.233 175.052 317.054 175.505 316.708C175.747 316.522 175.99 316.307 176.195 316.103C176.399 315.9 176.555 315.71 176.697 315.572C176.942 315.335 177.114 315.18 177.253 315.12C177.481 315.022 177.807 314.937 178.075 315.047C178.221 315.106 178.415 315.21 178.484 315.391C178.522 315.488 178.568 315.688 178.516 315.915C178.445 316.226 178.308 316.701 178.113 317.066C178.056 317.172 177.795 317.537 177.31 318.031C177.096 318.248 176.926 318.381 176.594 318.584C176.262 318.788 175.783 319.055 175.102 319.358C174.42 319.66 173.562 319.989 172.75 320.268C171.938 320.547 171.195 320.77 170.692 320.898C170.188 321.025 169.934 321.071 169.667 321.07C168.737 321.064 168.397 321.024 168.279 321.126C168.058 321.317 167.801 321.514 167.558 322.264C167.436 322.639 167.277 323.217 167.169 323.663C167.06 324.109 167.003 324.413 166.98 324.747C166.958 325.081 166.956 325.437 167.008 325.798C167.113 326.521 167.152 326.949 167.182 327.054C167.26 327.322 167.429 327.68 167.625 327.946C167.716 328.07 168.025 328.334 168.344 328.823C168.602 329.219 168.722 329.429 168.717 329.491C168.715 329.526 168.707 329.574 168.666 329.609C168.575 329.687 168.374 329.838 167.817 330.007C167.421 330.127 166.8 330.282 166.283 330.388C165.765 330.494 165.365 330.549 164.942 330.566C164.52 330.583 164.089 330.563 163.474 330.459C162.859 330.354 162.083 330.178 161.582 330.047C160.855 329.856 160.593 329.78 160.511 329.734L160.501 329.727C160.394 329.667 160.292 329.609 160.267 329.535C160.254 329.496 160.253 329.448 160.267 329.413C160.293 329.349 160.322 329.293 160.37 329.25C160.478 329.153 160.597 329.076 161.209 328.604C161.504 328.376 161.934 328.033 162.263 327.755C162.592 327.477 162.817 327.276 162.989 327.089C163.296 326.754 163.535 326.434 163.695 326.023C163.786 325.79 163.877 325.503 163.95 324.981C164.024 324.459 164.078 323.725 164.105 323.128C164.133 322.53 164.135 322.082 164.09 321.482C164.045 320.881 163.957 320.149 163.897 319.729C163.837 319.309 163.807 319.205 163.676 318.921C163.545 318.638 163.32 318.189 163.088 317.809C162.857 317.43 162.626 317.128 162.486 316.946C162.3 316.704 162.061 316.371 161.555 316.006C161.3 315.822 161.023 315.672 160.836 315.605C160.572 315.51 160.119 315.466 159.431 315.523C159.1 315.551 158.803 315.603 158.549 315.634C158.295 315.664 158.089 315.667 157.947 315.679L157.937 315.68C157.597 315.708 157.229 315.738 156.978 315.875C156.874 315.931 156.442 316.216 155.9 316.655C155.648 316.858 155.23 316.921 154.715 317.231C154.479 317.373 154.179 317.651 154.015 317.693C153.608 317.797 153.233 317.835 153.012 317.675C152.796 317.519 152.608 317.338 152.559 317.192C152.494 317.001 152.535 316.776 152.568 316.71C152.658 316.525 152.931 316.195 153.532 315.864C154.007 315.603 154.054 315.523 154.382 315.393C154.615 315.301 154.891 315.129 154.91 315.013C154.922 314.944 154.937 314.867 154.902 314.793C154.811 314.599 154.663 314.407 154.177 314.206C153.627 313.979 153.19 313.827 153.048 313.723L153.042 313.718C152.861 313.586 152.686 313.457 152.644 313.197C152.575 312.767 152.555 312.365 152.728 312.184C152.84 312.066 153.07 311.939 153.515 312.004C153.848 312.052 153.971 312.125 154.673 312.638C154.855 312.772 154.978 312.849 155.365 313.028C155.752 313.206 156.384 313.477 156.885 313.65C157.387 313.823 157.746 313.91 158.015 313.935C158.451 313.976 158.688 313.981 158.879 313.931C159.201 313.848 159.426 313.788 159.574 313.674C159.917 313.409 160.186 313.178 160.29 313.088C160.431 312.968 160.668 312.782 160.639 312.404C160.624 312.218 160.556 311.821 160.305 311.358C160.116 311.009 159.985 310.801 159.835 310.665C159.612 310.461 159.311 310.236 158.857 310.02C158.58 309.888 158.364 309.657 158.162 309.558C157.926 309.443 157.812 309.276 157.665 309.062L157.655 309.047C157.364 308.622 157.077 308.473 156.979 308.398C156.828 308.283 156.553 308.263 156.369 308.105C156.144 307.911 155.864 307.613 155.807 307.405C155.733 307.14 155.662 306.685 155.712 306.22C155.756 305.802 155.808 305.586 155.95 305.49C156.066 305.413 156.158 305.276 156.65 305.285C156.976 305.291 157.11 305.386 157.256 305.553C157.359 305.671 157.498 305.846 157.643 306.085C157.703 306.183 158.007 306.576 158.626 307.059L158.649 307.077C159.15 307.467 159.488 307.731 159.736 307.769C160.169 307.836 160.701 307.865 160.877 307.733C160.95 307.678 161.019 307.622 161.055 307.562C161.087 307.508 161.127 307.438 161.119 307.204C161.101 306.684 161.079 306.242 161.008 305.898C160.96 305.661 160.879 305.307 160.795 305.018C160.711 304.729 160.626 304.513 160.48 304.235C160.334 303.956 160.143 303.617 159.955 303.363C159.625 302.916 159.375 302.634 159.221 302.352C159.009 301.964 158.861 301.689 158.86 301.553C158.859 301.364 158.901 301.146 158.972 300.964C159.083 300.677 159.191 300.263 159.523 300.168C159.752 300.102 160.029 300.096 160.148 300.187C160.409 300.385 160.943 300.752 161.163 301.102C161.357 301.411 161.54 301.713 161.705 302.061C161.815 302.295 161.973 302.642 162.135 303.135C162.297 303.628 162.481 304.245 162.546 304.664C162.642 305.284 162.664 305.744 162.826 305.978C162.945 306.152 163.126 306.384 163.312 306.37C163.376 306.365 163.438 306.355 163.496 306.309C163.653 306.187 163.941 305.972 164.183 305.512C164.304 305.283 164.427 305.006 164.537 304.461C164.614 304.079 164.711 303.492 164.771 303.185C164.838 302.848 164.846 302.504 164.994 302.304C165.107 302.152 165.345 301.861 165.599 301.803C165.803 301.757 166.202 301.734 166.425 301.861C166.57 301.945 166.749 302.044 166.829 302.167C166.87 302.23 166.919 302.417 166.92 302.895C166.921 303.221 166.909 303.708 166.886 304.047C166.863 304.387 166.832 304.574 166.794 304.738C166.756 304.902 166.712 305.039 166.363 305.802C166.013 306.564 165.377 307.91 164.877 308.878C164.378 309.846 164.026 310.418 163.84 310.733C163.654 311.048 163.633 311.105 163.616 311.207C163.578 311.45 163.517 311.81 163.539 312.167C163.553 312.391 163.624 312.711 163.831 313.221C163.948 313.51 164.104 313.85 164.194 314.038C164.361 314.386 164.704 314.855 164.793 315.181C164.827 315.305 165.032 315.551 165.282 316.009C165.563 316.526 165.707 316.903 165.826 317.052C165.965 317.226 166.068 317.36 166.121 317.435C166.202 317.549 166.252 317.701 166.373 317.73C166.439 317.745 166.522 317.76 166.601 317.704C166.824 317.547 167.106 317.411 167.362 317.099C167.511 316.917 167.778 316.588 168.053 316.187C168.327 315.786 168.602 315.327 168.801 314.961C169.001 314.595 169.121 314.33 169.287 313.973C169.453 313.615 169.658 313.177 169.771 312.929C169.883 312.681 169.903 312.625 169.915 312.319C169.927 312.013 169.93 311.474 169.93 310.946C169.929 310.417 169.926 309.915 169.928 309.515C169.931 309.115 169.933 308.826 169.949 308.668C169.968 308.482 170.054 308.259 170.1 307.925C170.129 307.714 170.174 307.491 170.204 307.219C170.228 306.998 170.258 306.822 170.273 306.46C170.286 306.173 170.288 305.69 170.316 305.345C170.36 304.798 170.391 304.517 170.454 304.391C170.564 304.166 170.697 303.966 170.851 303.879C171 303.794 171.132 303.696 171.32 303.706C171.653 303.724 171.823 303.773 171.955 303.884Z" fill="#1D1D25"/>
</g>
<defs>
<filter id="filter0_d_2003_4562" x="27.0913" y="98.1743" width="517.275" height="540.275" filterUnits="userSpaceOnUse" color-interpolation-filters="sRGB">
<feFlood flood-opacity="0" result="BackgroundImageFix"/>
<feColorMatrix in="SourceAlpha" type="matrix" values="0 0 0 0 0 0 0 0 0 0 0 0 0 0 0 0 0 0 127 0" result="hardAlpha"/>
<feOffset dx="-10" dy="33"/>
<feGaussianBlur stdDeviation="4.75"/>
<feComposite in2="hardAlpha" operator="out"/>
<feColorMatrix type="matrix" values="0 0 0 0 0 0 0 0 0 0 0 0 0 0 0 0 0 0 0.13 0"/>
<feBlend mode="normal" in2="BackgroundImageFix" result="effect1_dropShadow_2003_4562"/>
<feBlend mode="normal" in="SourceGraphic" in2="effect1_dropShadow_2003_4562" result="shape"/>
</filter>
<filter id="filter1_f_2003_4562" x="384.102" y="210.523" width="51.2823" height="35.9762" filterUnits="userSpaceOnUse" color-interpolation-filters="sRGB">
<feFlood flood-opacity="0" result="BackgroundImageFix"/>
<feBlend mode="normal" in="SourceGraphic" in2="BackgroundImageFix" result="shape"/>
<feGaussianBlur stdDeviation="4.35" result="effect1_foregroundBlur_2003_4562"/>
</filter>
<filter id="filter2_f_2003_4562" x="327.327" y="417.293" width="51.2823" height="35.9759" filterUnits="userSpaceOnUse" color-interpolation-filters="sRGB">
<feFlood flood-opacity="0" result="BackgroundImageFix"/>
<feBlend mode="normal" in="SourceGraphic" in2="BackgroundImageFix" result="shape"/>
<feGaussianBlur stdDeviation="4.35" result="effect1_foregroundBlur_2003_4562"/>
</filter>
<filter id="filter3_f_2003_4562" x="139.928" y="340.504" width="51.2823" height="35.9762" filterUnits="userSpaceOnUse" color-interpolation-filters="sRGB">
<feFlood flood-opacity="0" result="BackgroundImageFix"/>
<feBlend mode="normal" in="SourceGraphic" in2="BackgroundImageFix" result="shape"/>
<feGaussianBlur stdDeviation="4.35" result="effect1_foregroundBlur_2003_4562"/>
</filter>
<clipPath id="clip0_2003_4562">
<rect width="486.967" height="473.249" rx="35.1508" fill="white"/>
</clipPath>
</defs>
</svg>
