<svg width="375" height="393" viewBox="0 0 375 393" fill="none" xmlns="http://www.w3.org/2000/svg">
<g clip-path="url(#clip0_134_1945)">
<rect x="136.676" width="246.739" height="328.679" rx="22.0961" transform="rotate(15.009 136.676 0)" fill="#1D1D25"/>
<path d="M194.28 354.026C172.231 349.814 139.72 335.181 128.837 329.396C132.426 317.004 109.919 286.632 106.73 277.56C103.54 268.487 97.5139 253.902 107.605 249.663C115.679 246.273 123.146 252.435 123.707 254.326C123.709 251.446 123.556 243.368 122.917 234.096C122.118 222.506 119.316 205.397 126.58 194.661C132.391 186.071 142.299 190.9 144.264 193.362C145.77 189.435 148.454 177.092 155.742 169.523C164.853 160.062 174.705 161.434 179.981 166.171C184.202 169.962 177.781 191.626 174.043 201.985C178.295 191.446 188.458 168.083 195.094 158.942C203.388 147.516 212.639 136.614 222.137 142.08C229.734 146.453 224.158 160.609 219.884 166.121C226.003 164.585 226.307 166.402 229.835 170.978C233.579 175.835 230.903 186.103 229.603 190.911C233.184 186.516 241.886 175.85 248.047 168.35C255.748 158.974 251.261 142.902 265.799 144.353C273.606 145.132 277.307 162.007 274.074 173.17C271.488 182.101 255.39 208.997 247.664 221.328C250.649 219.312 257.695 215.195 262.001 214.862C266.308 214.529 269.117 216.085 269.999 218.316C276.415 212.422 280.935 205.727 291.072 200.563C303.745 194.109 315.056 197.137 315.055 212.446C315.053 227.514 288.399 246.586 290.737 247.161C290.782 247.165 290.827 247.169 290.871 247.174C294.202 247.151 301.333 252.179 302.124 257.1C302.915 262.02 300.812 268.325 289.22 275.833C277.628 283.341 269.243 282.642 269.672 284.988C270.101 287.335 269.127 296.436 262.045 300.805C254.962 305.175 245.696 302.738 239.99 318.618C235.425 331.321 237.596 349.202 237.942 356.298C233.449 357.467 216.328 358.238 194.28 354.026Z" fill="#F06334"/>
<path d="M290.871 247.174C294.202 247.151 301.333 252.179 302.124 257.1C302.915 262.02 300.812 268.325 289.22 275.833C277.628 283.341 269.243 282.642 269.672 284.988C270.101 287.335 269.127 296.436 262.045 300.805C254.962 305.175 245.696 302.738 239.99 318.618C235.425 331.321 237.596 349.202 237.942 356.298C233.449 357.467 216.328 358.238 194.28 354.026C172.231 349.814 139.72 335.181 128.837 329.396C132.426 317.004 109.919 286.632 106.73 277.56C103.54 268.487 97.5139 253.902 107.605 249.663C115.679 246.273 123.146 252.435 123.707 254.326M290.871 247.174C287.54 247.197 315.053 227.755 315.055 212.446C315.056 197.137 303.745 194.109 291.072 200.563C280.935 205.727 276.415 212.422 269.999 218.316M290.871 247.174C286.477 246.725 276.485 247.305 271.669 253.219C266.854 259.134 255.539 269.702 253.514 271.914C247.078 273.5 232.837 277.884 227.358 282.725M269.999 218.316C269.117 216.085 266.308 214.529 262.001 214.862C257.695 215.195 250.649 219.312 247.664 221.328M269.999 218.316C260.821 225.138 233.479 251.644 229.64 257.249M247.664 221.328C255.39 208.997 271.488 182.101 274.074 173.17C277.307 162.007 273.606 145.132 265.799 144.353C251.261 142.902 255.748 158.974 248.047 168.35C241.886 175.85 233.184 186.516 229.603 190.911M247.664 221.328L221.35 241.092M229.603 190.911C230.903 186.103 233.579 175.835 229.835 170.978C226.307 166.402 226.003 164.585 219.884 166.121M229.603 190.911C227.384 198.253 221.19 216.329 215.477 225.342C209.765 234.355 191.447 255.078 188.451 258.409M219.884 166.121C224.158 160.609 229.734 146.453 222.137 142.08C212.639 136.614 203.388 147.516 195.094 158.942C188.458 168.083 178.295 191.446 174.043 201.985C177.781 191.626 184.202 169.962 179.981 166.171C174.705 161.434 164.853 160.062 155.742 169.523C148.454 177.092 145.77 189.435 144.264 193.362M219.884 166.121C217.045 168.591 210.195 175.859 205.504 185.168C199.642 196.804 183.571 226.474 182.805 226.252M144.264 193.362C142.299 190.9 132.391 186.071 126.58 194.661C119.316 205.397 122.118 222.506 122.917 234.096C123.556 243.368 123.709 251.446 123.707 254.326M144.264 193.362C146.608 196.427 150.101 202.015 153.925 210.234C157.75 218.453 159.325 231.126 159.886 235.568M123.707 254.326C127.001 256.021 134.386 260.875 137.564 266.734C140.743 272.593 143.043 282.89 143.796 287.305" stroke="#EDEDF1" stroke-width="4.60335" stroke-linecap="round" stroke-linejoin="round"/>
</g>
<rect x="139.279" y="4.51075" width="239.374" height="321.314" rx="18.4134" transform="rotate(15.009 139.279 4.51075)" stroke="#F6F6F9" stroke-width="7.36535" stroke-linejoin="round"/>
<g clip-path="url(#clip1_134_1945)">
<rect y="63.5264" width="246.739" height="328.679" rx="22.0961" fill="#1D1D25"/>
<path d="M97.9825 398.153C120.332 400.241 155.631 395.228 167.693 392.698C167.693 379.797 197.759 356.884 203.347 349.057C208.934 341.23 218.779 328.896 210.265 322.018C203.453 316.515 194.566 320.357 193.502 322.018C194.3 319.251 196.695 311.534 199.888 302.806C203.879 291.895 211.329 276.241 207.338 263.908C204.145 254.041 193.285 255.923 190.713 257.741C190.358 253.551 191.214 240.949 186.318 231.651C180.199 220.029 170.354 218.606 163.968 221.689C158.86 224.156 159.002 246.752 159.711 257.741C158.558 246.435 155.294 221.167 151.463 210.542C146.674 197.259 140.82 184.214 130.177 186.823C121.663 188.911 123.082 204.059 125.654 210.542C120.204 207.365 119.406 209.025 114.745 212.439C109.797 216.063 109.512 226.67 109.424 231.651C107.206 226.433 101.814 213.767 97.9825 204.849C93.1932 193.702 101.974 179.512 87.6057 176.862C79.8896 175.439 71.6414 190.618 71.6414 202.24C71.6414 211.538 79.6235 241.85 83.6146 255.844C81.3086 253.077 75.6857 247.163 71.6414 245.645C67.5971 244.127 64.4666 244.84 62.9986 246.738C58.4755 239.292 55.9963 231.604 47.6949 223.824C37.3181 214.099 25.6109 213.862 21.3538 228.568C17.1636 243.042 37.4612 268.775 35.0564 268.676C35.0116 268.668 34.9673 268.659 34.9235 268.651C31.7306 267.703 23.4824 270.549 21.3538 275.055C19.2252 279.562 19.4913 286.203 28.5377 296.639C37.5842 307.075 45.8324 308.735 44.7681 310.87C43.7038 313.005 42.1074 322.018 47.6949 328.184C53.2824 334.351 62.861 334.588 63.9253 351.428C64.7767 364.9 57.717 381.472 55.411 388.192C59.4021 390.564 75.6324 396.066 97.9825 398.153Z" fill="#898CA7"/>
<path d="M34.9235 268.652C31.7306 267.703 23.4824 270.549 21.3538 275.055C19.2252 279.562 19.4913 286.203 28.5377 296.639C37.5842 307.075 45.8324 308.735 44.7681 310.87C43.7038 313.005 42.1074 322.018 47.6949 328.184C53.2824 334.351 62.861 334.588 63.9253 351.428C64.7767 364.9 57.717 381.472 55.411 388.192C59.4021 390.564 75.6324 396.066 97.9825 398.153C120.332 400.241 155.631 395.228 167.693 392.698C167.693 379.797 197.759 356.884 203.347 349.057C208.934 341.23 218.779 328.896 210.265 322.018C203.453 316.515 194.566 320.357 193.502 322.018M34.9235 268.652C38.1163 269.6 17.0967 243.273 21.3538 228.568C25.611 213.862 37.3181 214.099 47.6949 223.824C55.9963 231.604 58.4755 239.292 62.9986 246.738M34.9235 268.652C39.2693 269.442 48.706 272.779 51.686 279.799C54.666 286.82 62.5949 300.118 63.9253 302.806C69.6657 306.12 82.1254 314.291 86.0413 320.466M62.9986 246.738C64.4666 244.84 67.5971 244.127 71.6414 245.645C75.6857 247.163 81.3086 253.077 83.6146 255.844M62.9986 246.738C69.9165 255.844 88.8075 288.909 90.9362 295.36M83.6146 255.844C79.6235 241.85 71.6414 211.538 71.6414 202.24C71.6414 190.618 79.8896 175.439 87.6057 176.862C101.974 179.512 93.1932 193.702 97.9825 204.849C101.814 213.767 107.206 226.433 109.424 231.651M83.6146 255.844L103.392 282.147M109.424 231.651C109.512 226.67 109.797 216.063 114.745 212.439C119.406 209.025 120.204 207.365 125.654 210.542M109.424 231.651C109.512 239.32 110.435 258.405 113.415 268.652C116.395 278.898 128.226 303.899 130.177 307.931M125.654 210.542C123.082 204.059 121.663 188.911 130.177 186.823C140.82 184.214 146.674 197.259 151.463 210.542C155.294 221.167 158.558 246.435 159.711 257.741C159.002 246.752 158.86 224.156 163.968 221.689C170.354 218.606 180.199 220.029 186.318 231.651C191.214 240.949 190.358 253.551 190.713 257.741M125.654 210.542C127.694 213.704 132.253 222.591 134.168 232.837C136.563 245.645 143.747 278.613 144.545 278.613M190.713 257.741C193.285 255.923 204.145 254.041 207.338 263.908C211.329 276.241 203.879 291.895 199.888 302.806C196.695 311.534 194.3 319.251 193.502 322.018M190.713 257.741C187.609 260.034 182.7 264.43 176.74 271.261C170.78 278.091 165.742 289.826 163.968 293.937M193.502 322.018C189.866 322.729 181.423 325.338 176.74 330.082C172.057 334.826 166.984 344.076 165.033 348.108" stroke="#EDEDF1" stroke-width="4.60335" stroke-linecap="round" stroke-linejoin="round"/>
<rect x="27.7622" y="92.0669" width="83.7809" height="16.572" fill="#F6F6F9"/>
<rect x="27.7622" y="115.083" width="34.9854" height="16.572" fill="#F6F6F9"/>
</g>
<rect x="3.68268" y="67.209" width="239.374" height="321.314" rx="18.4134" stroke="#F6F6F9" stroke-width="7.36535" stroke-linejoin="round"/>
<defs>
<clipPath id="clip0_134_1945">
<rect x="136.676" width="246.739" height="328.679" rx="22.0961" transform="rotate(15.009 136.676 0)" fill="white"/>
</clipPath>
<clipPath id="clip1_134_1945">
<rect y="63.5264" width="246.739" height="328.679" rx="22.0961" fill="white"/>
</clipPath>
</defs>
</svg>
