<svg width="436" height="436" viewBox="0 0 436 436" fill="none" xmlns="http://www.w3.org/2000/svg">
<g filter="url(#filter0_d_2194_9996)">
<path d="M172.103 9.36688C176.787 8.54429 181.116 9.19358 184.772 10.4354C191.06 12.5708 196.317 16.814 200.159 20.3236L200.908 21.0148L201.251 21.3395C204.774 24.7404 207.788 29.5088 209.971 33.2161C212.489 37.4911 215.03 42.3663 217.309 46.8601C219.73 51.6334 221.642 55.5443 223.463 59.0744C224.332 60.7601 225.026 62.0526 225.56 62.9766C225.77 63.3408 225.912 63.5714 225.991 63.6961C228.026 66.1816 229.181 68.8704 229.76 70.3115C230.532 72.2291 231.189 74.3082 231.75 76.2929C232.878 80.2791 233.944 85.0499 234.926 89.7822C237.017 99.8606 238.714 109.528 240.437 116.788C242.862 127.009 242.158 134.97 240.604 141.876C239.933 144.86 238.998 148.025 238.457 150.01C237.841 152.275 237.417 154.079 237.173 155.911C236.93 157.736 237.604 163.216 240.247 170.15C241.442 173.285 242.805 176.083 244.106 178.212C245.385 180.303 246.132 180.972 246.045 180.918L245.956 180.853C250.249 184.038 254.599 188.8 258.046 192.924C259.295 187.8 261.179 181.131 264.887 174.012C268.12 167.804 270.969 163.298 272.009 161.453C273.045 159.616 273.959 157.777 275.458 152.853C276.776 148.519 277.73 142.46 278.224 136.47C278.464 133.563 278.579 130.879 278.595 128.692C278.604 127.601 278.587 126.685 278.556 125.966C278.54 125.609 278.522 125.325 278.505 125.11C278.496 125.004 278.489 124.923 278.483 124.865C278.477 124.813 278.473 124.786 278.473 124.782L278.382 124.058C278.168 122.201 278.081 120.209 278.089 118.18C275.251 114.062 271.896 108.988 268.825 103.933C266.671 100.386 264.543 96.6633 262.809 93.1791C261.251 90.0475 259.358 85.8454 258.578 81.7247C256.587 71.2005 260.543 62.052 267.596 56.2674C273.833 51.1519 281.599 49.2739 288.108 49.2739L288.703 49.2823C289.229 49.297 289.744 49.3319 290.249 49.3836C290.428 47.1695 290.646 44.886 290.94 42.7339C291.391 39.4263 292.253 34.3149 294.627 29.884L294.902 29.3825C300.767 18.9785 311.241 16.8939 318.018 16.8939C324.635 16.8939 331.368 18.7164 335.739 19.9654C341.974 21.747 348.773 25.0575 353.76 27.7904C357.786 27.4824 361.943 28.0934 366.295 29.5441C376.757 33.0314 381.642 41.8319 383.323 48.6146C384.188 52.1095 384.425 55.7418 384.034 59.191C383.668 62.4167 382.609 66.7022 379.776 70.5646C378.388 72.4582 376.798 74.1293 375.659 75.2937C375.05 75.916 374.416 76.5487 373.864 77.0993C373.286 77.6761 372.765 78.1979 372.256 78.7204C371.722 79.2686 371.262 79.7594 370.866 80.1989C373.822 80.6415 377.078 81.2516 379.481 82.0997L379.83 82.2262C387.117 84.9371 391.836 91.0865 394.225 96.6218C396.885 102.785 397.756 110.491 395.224 118.34C391.497 129.896 384.576 137.126 378.862 141.082C376.333 142.833 373.581 143.836 372.053 144.353C370.2 144.98 368.254 145.501 366.505 145.919C365.724 146.106 364.938 146.281 364.164 146.447L363.697 147.158C361.85 151.287 359.264 157.189 356.979 162.669C355.728 165.67 354.605 168.45 353.753 170.702C353.02 172.642 352.685 173.677 352.575 174.023L352.533 174.146C352.558 174.032 352.466 174.492 352.309 175.898C352.17 177.146 352.02 178.758 351.865 180.68C351.554 184.515 351.245 189.279 350.963 194.242C350.398 204.186 349.964 214.538 349.843 219.146C349.664 225.923 346.295 232.183 344.129 235.87C341.543 240.272 338.235 244.882 335.11 249.059C333.519 251.186 331.891 253.312 330.348 255.325C329.315 256.673 328.324 257.965 327.376 259.212C330.725 261.663 332.808 265.053 333.734 268.517C334.035 269.643 334.197 270.716 334.272 271.706C336.227 273.279 338.134 275.031 339.886 276.876C342.534 279.665 345.375 283.238 347.381 287.316C349.17 290.951 351.707 297.892 348.931 305.555C346.724 311.649 342.044 315.076 337.866 316.631C335.701 317.437 333.619 317.774 331.938 317.912C330.933 319.055 329.652 320.28 328.05 321.389V335.254C329.081 335.667 330.075 336.098 331.026 336.545C334.013 337.949 337.427 339.907 340.314 342.711C343.222 345.537 346.806 350.479 346.806 357.38C346.806 357.93 346.78 358.468 346.737 358.994C346.782 359.555 346.806 360.122 346.806 360.695V388.602C346.806 395.824 342.971 403.546 335.163 407.28C325.02 412.131 310.847 415.438 295.889 417.631C280.584 419.876 263.161 421.133 245.758 421.313C228.364 421.494 210.681 420.603 194.883 418.442C179.416 416.326 164.455 412.828 153.339 407.105C145.847 403.247 142.22 395.716 142.22 388.673V360.695C142.22 360.121 142.243 359.553 142.288 358.992C142.261 358.672 142.24 358.349 142.23 358.021L142.22 357.38L142.23 356.739C142.443 350.172 145.895 345.449 148.712 342.711C151.598 339.907 155.013 337.949 158 336.545C160.288 335.469 162.821 334.492 165.538 333.604V303.678C162.443 301.479 160.402 298.617 159.189 296.175C157.372 292.515 156.844 288.865 156.66 286.53C156.46 284.002 156.567 281.651 156.762 279.847C156.859 278.955 157.005 277.945 157.225 276.939C157.323 276.492 157.519 275.657 157.862 274.691C158.019 274.249 158.372 273.305 158.986 272.205C159.128 271.951 161.121 268.014 165.839 265.723C165.043 266.109 166.816 265.208 167.947 264.753C168.264 264.626 168.586 264.506 168.914 264.39C169.758 262.123 171.01 260.234 172.377 258.74C172.863 258.209 173.366 257.718 173.877 257.264C173.03 256.533 172.136 255.79 171.195 255.043C163.113 248.634 154.169 239.217 149.585 234.842C146.6 231.992 144.611 228.848 143.304 226.559C142.634 225.387 142.035 224.239 141.561 223.328C141.07 222.381 140.721 221.705 140.368 221.058C139.377 221.193 137.918 221.476 135.905 222.073C131.66 223.331 126.718 225.44 121.589 227.945C118.939 229.239 116.194 231.743 111.941 236.128C110.12 238.006 107.708 240.545 105.298 242.689C102.936 244.79 99.4224 247.593 94.9291 249.297C83.0688 253.796 69.2403 251.778 58.8062 250.118C50.4843 248.794 42.0643 245.015 35.2915 239.935C28.7618 235.038 21.658 227.307 19.5927 216.981C18.6561 212.298 18.6123 206.772 21.0751 201.367C23.5855 195.859 27.7875 192.471 31.5936 190.458C38.007 187.066 46.1951 186.264 50.5422 185.747C50.5421 185.747 50.6961 185.727 51.0292 185.65C51.3626 185.573 51.806 185.455 52.3675 185.282C53.5061 184.931 54.9182 184.42 56.5982 183.735C59.9753 182.358 63.8938 180.505 68.0396 178.424C73.1522 175.858 79.5334 172.44 84.5699 169.847C83.1316 168.763 81.2846 167.502 79.1297 166.149C73.9764 162.914 68.0914 159.784 64.0094 157.958C55.4564 154.132 49.6211 147.871 47.0584 139.258C45.0279 132.433 45.4398 124.878 45.6644 119.713C46.1994 107.41 53.3451 99.3941 60.7779 95.1295C66.4548 91.8723 72.5689 90.5313 77.3737 90.1808C77.3702 90.1599 77.3673 90.139 77.3638 90.1183C76.9967 87.9195 76.715 86.4681 76.3951 85.3305C70.954 65.9842 85.4727 51.084 101.445 46.3647L102.044 46.1948C114.576 42.764 124.569 48.5681 130.086 53.529C132.955 56.1081 135.185 58.899 136.789 61.309C138.142 63.3409 139.853 66.2984 140.697 69.3931C140.507 68.696 140.751 69.4801 142.238 72.8762C143.423 75.5833 144.984 79.0383 146.617 82.5669C148.249 86.0956 149.919 89.626 151.318 92.4878C152.019 93.9222 152.627 95.138 153.113 96.0776C153.664 97.1404 153.875 97.4907 153.829 97.4174C155.733 100.463 156.939 104.352 157.592 106.521C158.428 109.3 159.247 112.483 159.986 115.452C161.648 122.14 162.743 126.93 163.446 128.951C163.351 128.678 163.603 129.395 164.602 130.869C165.497 132.189 166.675 133.644 168.006 134.951C168.011 134.838 168.018 134.724 168.022 134.61C168.116 132.297 168.073 130.377 168.073 128.249C168.073 128.395 168.079 128.126 167.954 127.232C167.838 126.403 167.654 125.343 167.394 124.007C166.816 121.038 166.211 118.386 165.408 114.445C164.688 110.909 163.932 106.89 163.474 102.974C163.037 99.2441 162.736 94.5847 163.448 90.0756C163.345 90.7275 163.553 90.052 162.889 87.3167C162.302 84.8953 161.299 81.9187 159.976 78.5672C157.261 71.6919 154.056 65.2781 151.744 60.2199C148.296 52.6782 147.519 44.2433 148.633 36.7868C149.715 29.5399 152.945 21.0531 159.955 15.1646L160.594 14.6433C163.829 12.0767 167.681 10.1435 172.103 9.36688ZM225.778 63.4438C225.774 63.4388 225.77 63.4336 225.766 63.4285L225.548 63.1732C225.627 63.2624 225.702 63.3539 225.778 63.4438Z" fill="#F6F6F9"/>
<path d="M236.657 193.389C242.943 198.052 252.118 210.371 255.92 215.947C260.99 217.974 265.551 215.947 269.1 210.117C272.648 204.288 272.395 193.389 278.732 181.222C285.068 169.056 286.842 169.056 290.391 157.397C293.939 145.738 294.7 128.249 293.939 122.672C293.63 120.406 293.614 117.178 293.908 113.548C287.836 105.099 275.335 86.3256 273.916 78.8231C272.141 69.445 280.506 64.8826 288.11 64.8826C294.193 64.8826 298.662 75.6971 300.136 81.1043C300.587 78.5844 301.264 76.0863 302.557 73.5002C306.359 65.8961 304.585 44.3521 308.387 37.2551C312.189 30.1581 322.581 32.4391 331.452 34.9739C338.549 37.0018 347.569 42.071 351.192 44.3521C353.849 43.1386 356.775 42.8236 361.361 44.3521C368.965 46.8867 369.978 57.5322 367.19 61.3341C364.402 65.1361 357.812 69.9519 354.771 76.035C352.337 80.9015 353.081 90.06 353.757 94.0309C359.164 94.4534 370.84 95.6024 374.287 96.819C378.596 98.3398 382.905 105.69 380.37 113.548C377.836 121.405 373.273 125.967 369.978 128.249C367.342 130.073 358.742 131.713 354.771 132.304L349.955 139.654C346.153 148.103 338.296 166.167 337.282 170.83C336.014 176.66 334.494 209.103 334.24 218.735C333.987 228.367 312.696 250.671 306.613 261.824C301.746 270.746 304.585 285.649 306.613 291.986C296.39 293.929 271.533 297.562 253.892 296.548C236.251 295.535 211.902 288.86 201.932 285.649C201.51 279.735 200.107 266.69 197.877 261.824C195.089 255.741 188.245 248.644 180.895 242.814C173.544 236.984 165.94 228.874 160.364 223.551C154.788 218.228 153.774 207.836 145.917 205.808C138.059 203.781 125.639 208.597 114.741 213.919C103.842 219.242 96.7448 231.915 89.3942 234.703C82.0436 237.491 72.4121 236.478 61.2596 234.703C50.1071 232.929 36.9273 224.058 34.8996 213.919C32.8719 203.781 41.7432 202.513 52.3886 201.246C63.0341 199.979 87.3666 185.531 96.7448 181.222C106.123 176.914 102.574 167.789 99.5326 162.72C96.4908 157.65 80.0159 148.019 70.3843 143.71C60.7527 139.401 60.7527 132.05 61.2596 120.391C61.7665 108.731 73.9328 105.69 80.0159 105.69C86.0991 105.69 88.8872 109.492 91.4217 115.829C93.4494 120.898 101.898 126.221 105.869 128.249C105.869 122.672 104.602 110.354 99.5326 105.69C93.1961 99.8606 93.7029 89.2151 91.4217 81.1043C89.1406 72.9935 94.7168 64.6292 105.869 61.3341C117.022 58.0391 124.879 70.7123 125.639 73.5002C126.4 76.2881 138.059 101.635 140.594 105.69C143.128 109.746 146.677 128.249 148.705 134.078C150.732 139.908 161.124 153.848 172.784 153.848C184.443 153.848 183.683 135.346 183.683 128.249C183.683 121.152 177.346 102.142 178.867 92.5102C180.388 82.8785 169.996 62.6015 165.94 53.7302C161.885 44.859 163.659 32.4391 169.996 27.1164C176.332 21.7936 182.922 25.5956 190.273 32.4391C197.623 39.2826 210.043 69.1913 213.845 73.5002C217.647 77.8091 221.703 105.437 225.251 120.391C228.799 135.345 223.223 142.442 221.703 153.848C220.182 165.254 228.8 187.559 236.657 193.389Z" fill="#34F0C1"/>
<path d="M353.757 94.0309C359.164 94.4534 370.84 95.6024 374.287 96.819C378.596 98.3398 382.905 105.69 380.37 113.548C377.836 121.405 373.273 125.967 369.978 128.249C367.342 130.073 358.742 131.713 354.771 132.304L349.955 139.654C346.153 148.103 338.296 166.167 337.282 170.83C336.014 176.66 334.494 209.103 334.24 218.735C333.987 228.367 312.696 250.671 306.613 261.824C301.746 270.746 304.585 285.649 306.613 291.986C296.39 293.929 271.533 297.562 253.892 296.548C236.251 295.535 211.902 288.86 201.932 285.649C201.51 279.735 200.107 266.69 197.877 261.824C195.089 255.741 188.245 248.644 180.895 242.814C173.544 236.984 165.94 228.874 160.364 223.551C154.788 218.228 153.774 207.836 145.917 205.808C138.059 203.781 125.639 208.597 114.741 213.919C103.842 219.242 96.7448 231.915 89.3942 234.703C82.0436 237.491 72.4121 236.478 61.2596 234.703C50.1071 232.929 36.9273 224.058 34.8996 213.919C32.8719 203.781 41.7432 202.513 52.3886 201.246C63.0341 199.979 87.3666 185.531 96.7448 181.222C106.123 176.914 102.574 167.789 99.5326 162.72C96.4908 157.65 80.0159 148.019 70.3843 143.71C60.7527 139.401 60.7527 132.05 61.2596 120.391C61.7665 108.731 73.9328 105.69 80.0159 105.69C86.0991 105.69 88.8872 109.492 91.4217 115.829C93.4494 120.898 101.898 126.221 105.869 128.249C105.869 122.672 104.602 110.354 99.5326 105.69C93.1961 99.8606 93.7029 89.2151 91.4217 81.1043C89.1406 72.9935 94.7168 64.6292 105.869 61.3341C117.022 58.0391 124.879 70.7123 125.639 73.5002C126.4 76.2881 138.059 101.635 140.594 105.69C143.128 109.746 146.677 128.249 148.705 134.078C150.732 139.908 161.124 153.848 172.784 153.848C184.443 153.848 183.683 135.346 183.683 128.249C183.683 121.152 177.346 102.142 178.867 92.5102C180.388 82.8785 169.996 62.6015 165.94 53.7302C161.885 44.859 163.659 32.4391 169.996 27.1164C176.332 21.7936 182.922 25.5956 190.273 32.4391C197.623 39.2826 210.043 69.1913 213.845 73.5002C217.647 77.8091 221.703 105.437 225.251 120.391C228.799 135.345 223.223 142.442 221.703 153.848C220.182 165.254 228.8 187.559 236.657 193.389C242.943 198.052 252.118 210.371 255.92 215.947C260.99 217.974 265.551 215.947 269.1 210.117C272.648 204.288 272.395 193.389 278.732 181.222C285.068 169.056 286.842 169.056 290.391 157.397C293.939 145.738 294.7 128.249 293.939 122.672C293.63 120.406 293.614 117.178 293.908 113.548M353.757 94.0309C353.081 90.06 352.337 80.9015 354.771 76.035C357.812 69.9519 364.402 65.1361 367.19 61.3341C369.978 57.5322 368.965 46.8867 361.361 44.3521C356.775 42.8236 353.849 43.1386 351.192 44.3521M353.757 94.0309C350.8 93.693 343.365 94.2844 337.282 99.3537C329.678 105.69 325.369 115.322 326.129 120.391M312.696 122.672C315.737 117.096 311.682 105.69 312.696 99.3537C313.71 93.0171 313.963 89.4686 319.032 83.6389C324.102 77.8093 325.876 73.5002 331.452 64.8826C337.028 56.265 341.084 50.9421 345.899 47.6471C347.811 46.3391 349.443 45.1509 351.192 44.3521M351.192 44.3521C347.569 42.071 338.549 37.0018 331.452 34.9739C322.581 32.4391 312.189 30.1581 308.387 37.2551C304.585 44.3521 306.359 65.8961 302.557 73.5002C301.264 76.0863 300.587 78.5845 300.136 81.1043M300.136 81.1043C299.262 85.9937 299.242 90.9649 297.234 96.819C295.429 102.085 294.338 108.245 293.908 113.548M300.136 81.1043C298.662 75.6971 294.193 64.8826 288.11 64.8826C280.506 64.8826 272.141 69.445 273.916 78.8231C275.335 86.3256 287.836 105.099 293.908 113.548" stroke="#1D1D25" stroke-width="3.90221"/>
<path d="M163.292 357.183H325.736C327.675 357.183 329.247 358.755 329.247 360.694V388.602C329.247 389.886 328.585 390.962 327.588 391.438C319.866 395.132 307.794 398.138 293.342 400.257C278.933 402.37 262.31 403.58 245.577 403.754C228.844 403.928 212.038 403.065 197.264 401.044C182.448 399.017 169.834 395.846 161.378 391.492C160.409 390.993 159.781 389.937 159.781 388.674V360.694C159.781 358.755 161.353 357.183 163.292 357.183Z" fill="#B3B5C6" stroke="#1D1D25" stroke-width="3.90221"/>
<path d="M244.514 342.095C268.363 342.095 289.901 344.018 305.429 347.106C313.208 348.653 319.378 350.472 323.556 352.436C325.65 353.42 327.139 354.393 328.077 355.305C329.013 356.214 329.247 356.903 329.247 357.379C329.247 357.855 329.013 358.544 328.077 359.453C327.139 360.365 325.65 361.338 323.556 362.323C319.378 364.286 313.208 366.106 305.429 367.653C289.901 370.74 268.363 372.663 244.514 372.663C220.664 372.663 199.127 370.74 183.599 367.653C175.819 366.106 169.65 364.286 165.472 362.323C163.378 361.338 161.889 360.365 160.95 359.453C160.015 358.544 159.781 357.855 159.781 357.379C159.781 356.903 160.015 356.214 160.95 355.305C161.889 354.393 163.378 353.42 165.472 352.436C169.65 350.472 175.819 348.653 183.599 347.106C199.127 344.018 220.664 342.095 244.514 342.095Z" fill="#B3B5C6" stroke="#1D1D25" stroke-width="3.90221"/>
<path d="M310.491 290.896V352.333C309.048 353.272 306.719 354.249 303.501 355.183C299.759 356.269 295.037 357.238 289.604 358.061C278.742 359.704 265.183 360.737 251.229 360.974C237.275 361.21 222.978 360.649 210.635 359.122C198.864 357.666 189.113 355.356 183.099 352.175V290.896H310.491Z" fill="#EDEDF1" stroke="#1D1D25" stroke-width="3.90221"/>
<path d="M172.656 279.765C173.836 279.193 175.552 277.877 186.007 278.315C198.505 278.837 180.485 273.002 183.893 269.278C187.705 265.112 197.101 270.987 199.763 274.066C206.776 282.179 198.875 267.769 201.446 267.927C208.023 268.332 210.042 278.315 213.18 281.796C220.503 287.559 238.678 286.012 245.424 285.916C246.285 285.904 246.995 283.505 248.946 283.297C252.36 282.934 256.57 281.779 259.894 281.703C261.708 281.661 265.538 286.157 269.587 286.423C272.97 286.645 283.551 279.569 285.079 281.038C295.868 291.409 292.847 283.827 302.101 274.705C303.975 272.857 300.679 282.537 303.784 280.816C305.997 279.588 316.47 270.662 318.11 271.772C320.42 273.337 315.31 279.352 316.715 279.561C322.425 280.412 336.764 293.314 334.256 300.239C332.948 303.85 326.334 301.73 323.497 302.16C322.709 302.279 321.743 306.869 319.074 308.62C311.217 313.777 288.832 299.027 278.56 301.974C276.877 302.457 274.571 304.66 272.74 304.013C270.567 303.246 267.573 301.149 265.638 301.564C263.34 302.057 256.212 311.386 252.401 308.52C249.961 306.685 246.613 302.727 244.829 303.27C243.274 303.744 240.494 308.719 237.679 308.013C236.984 307.839 235.814 305.761 231.888 304.263C220.517 299.925 203.021 304.49 194.84 293.382C191.295 288.568 182.077 292.793 175.825 291.479C170.839 290.43 172.256 279.959 172.656 279.765Z" fill="#345DF0"/>
<path d="M185.947 279.739C185.987 278.789 186.027 277.84 186.066 276.89C181.567 276.859 177.04 276.2 172.23 278.384C172.156 278.422 172.09 278.455 172.033 278.482C171.634 278.692 171.531 278.883 171.441 279.003C171.348 279.147 171.345 279.166 171.317 279.22C171.273 279.312 171.24 279.4 171.22 279.457C171.185 279.555 171.153 279.668 171.132 279.743C171.089 279.903 171.056 280.052 171.026 280.197C170.968 280.48 170.922 280.748 170.88 281.022C170.798 281.558 170.736 282.089 170.689 282.617C170.596 283.678 170.562 284.748 170.634 285.841C170.663 286.264 170.596 286.709 170.667 287.143C170.723 287.481 170.792 287.82 170.877 288.163C171.305 290.025 172.618 292.717 175.44 293.311C176.169 293.475 176.889 293.569 177.596 293.623C179.168 293.74 180.684 293.792 182.139 293.693C185.937 293.425 190.054 292.841 192.03 294.018C192.39 294.231 192.66 294.48 192.898 294.812C193.764 296.009 194.774 297.103 195.9 298.058C199.331 300.983 203.582 302.393 207.585 303.177C209.361 303.527 211.113 303.866 212.86 304.049C217.318 304.515 221.674 304.67 225.749 305.347C227.582 305.654 229.347 306.087 230.954 306.712C231.713 307.007 232.422 307.354 233.077 307.76C233.542 308.049 233.973 308.365 234.399 308.729C234.614 308.912 234.824 309.106 235.083 309.345C235.216 309.467 235.355 309.598 235.571 309.777C235.827 309.947 235.96 310.228 237.039 310.564C240.26 311.184 241.934 309.358 243.088 308.416C243.78 307.781 244.362 307.151 244.895 306.597C245.158 306.322 245.411 306.065 245.616 305.878C245.719 305.785 245.807 305.713 245.848 305.685C245.878 305.655 245.894 305.687 245.596 305.788C245.048 305.931 244.913 305.792 244.994 305.837C245.069 305.865 245.272 305.969 245.488 306.113C245.933 306.405 246.455 306.831 246.98 307.289C248.145 308.294 249.268 309.446 250.809 310.637C252.088 311.66 253.981 311.883 255.238 311.611C256.539 311.362 257.502 310.879 258.377 310.386C260.103 309.382 261.456 308.245 262.761 307.136C263.528 306.48 264.262 305.827 264.968 305.232C265.314 304.941 265.667 304.654 265.97 304.433C266.118 304.325 266.262 304.23 266.355 304.176C266.431 304.123 266.529 304.124 266.205 304.209C265.983 304.198 266.787 304.284 267.515 304.628C268.284 304.951 269.14 305.401 270.104 305.866C270.618 306.111 271.162 306.366 271.825 306.606C274.424 307.386 275.965 306.321 277.035 305.844C278.084 305.285 279.097 304.684 279.327 304.648C280.121 304.424 281.091 304.344 282.128 304.377C284.05 304.44 286.135 304.853 288.224 305.385C291.003 306.099 293.81 307.016 296.643 307.976C299.557 308.963 302.492 309.995 305.576 310.882C309.906 311.854 314.593 314.048 320.573 310.904C321.953 309.984 322.799 308.837 323.466 307.775C323.982 306.941 324.386 306.116 324.744 305.353C324.923 304.974 325.089 304.608 325.235 304.317C325.303 304.179 325.376 304.048 325.393 304.023C325.397 304.014 325.398 304.027 325.299 304.141C325.161 304.229 325.093 304.599 323.907 304.866C324.22 304.813 325.059 304.844 325.848 304.909C327.88 305.01 330.043 305.538 333.14 304.661C334.505 304.285 336.309 302.891 336.85 301.179C337.836 298.354 337.106 295.86 336.309 293.891C333.936 288.639 330.289 284.993 326.311 281.657C324.417 280.138 322.458 278.72 320.001 277.597C319.171 277.236 318.317 276.895 317.14 276.709C317.41 276.751 317.742 276.835 318.143 277.088C318.561 277.346 318.927 277.792 319.097 278.16C319.187 278.346 319.247 278.529 319.282 278.674C319.314 278.805 319.331 278.921 319.34 279.02C319.358 279.228 319.348 279.336 319.341 279.423C319.301 279.74 319.29 279.668 319.315 279.618C319.363 279.481 319.491 279.193 319.629 278.904C319.911 278.314 320.254 277.642 320.583 276.903C320.909 276.151 321.251 275.368 321.474 274.241C321.573 273.672 321.667 272.995 321.488 272.071C321.34 271.162 320.616 269.961 319.716 269.401C319.525 269.271 319.328 269.167 319.135 269.086C318.112 268.696 317.562 268.819 317.149 268.856C316.703 268.922 316.438 269.005 316.164 269.093C315.648 269.267 315.239 269.461 314.884 269.639C314.151 270.011 313.531 270.391 312.923 270.78C311.724 271.552 310.617 272.347 309.519 273.141C307.064 274.902 304.334 277.101 302.415 278.347C302.416 278.347 302.418 278.345 302.422 278.344C302.446 278.334 302.532 278.273 302.829 278.22C303.132 278.153 303.896 278.196 304.462 278.622C305.011 279.034 305.127 279.39 305.189 279.526C305.242 279.667 305.236 279.686 305.234 279.661C305.191 279.425 305.243 278.516 305.338 277.709C305.384 277.286 305.438 276.844 305.487 276.352C305.511 276.109 305.535 275.845 305.55 275.545C305.555 275.207 305.602 274.97 305.482 274.217C305.461 274.107 305.421 273.925 305.359 273.742C305.328 273.649 305.29 273.548 305.241 273.438C305.182 273.306 305.097 273.141 304.984 272.972C304.87 272.802 304.724 272.618 304.533 272.439C304.335 272.249 304.029 272.029 303.702 271.886C303.379 271.738 302.98 271.651 302.693 271.634C302.41 271.614 302.148 271.637 301.92 271.679C301.696 271.721 301.488 271.789 301.341 271.848C301.222 271.895 301.117 271.945 301.023 271.995C300.836 272.093 300.678 272.2 300.562 272.286C300.377 272.424 300.234 272.554 300.106 272.68C298.321 274.434 296.74 276.375 295.367 278.4C294.269 279.991 293.276 281.793 292.444 282.86C292.249 283.109 292.058 283.266 292.034 283.264C291.992 283.264 292.243 283.147 292.354 283.162C292.558 283.204 292.02 283.076 291.506 282.726C290.976 282.393 290.364 281.92 289.775 281.427C288.879 280.675 287.973 279.86 287.048 278.99C286.271 278.259 285.467 278.1 284.982 278.035C284.468 277.976 284.131 278.005 283.799 278.041C283.209 278.114 282.741 278.243 282.342 278.36C279.296 279.365 277.113 280.598 274.733 281.679C274.309 281.877 273.885 282.059 273.465 282.248C272.693 282.595 271.928 282.925 271.217 283.186C270.856 283.318 270.521 283.428 270.226 283.504C269.949 283.581 269.673 283.598 269.773 283.599C269.251 283.575 268.585 283.384 267.872 283.044C266.949 282.608 265.973 281.963 264.923 281.23C264.391 280.862 263.848 280.473 263.189 280.055C262.44 279.684 262.044 279.036 259.829 278.888C259.741 278.89 259.653 278.893 259.566 278.896C258.865 278.922 258.195 278.973 257.543 279.049C255.508 279.293 253.628 279.688 251.812 280.018C251.379 280.097 250.951 280.178 250.528 280.247C249.884 280.353 249.253 280.444 248.649 280.509C246.989 280.66 245.652 281.722 244.971 282.488C244.61 282.88 244.331 283.245 244.147 283.465C244.061 283.571 243.987 283.642 244.046 283.586C244.081 283.557 244.147 283.49 244.343 283.381C244.53 283.277 244.898 283.119 245.384 283.113C242.829 283.162 240.4 283.284 237.964 283.333C237.145 283.351 236.34 283.344 235.529 283.349C232.73 283.366 229.948 283.299 227.222 283.066C224.792 282.855 222.391 282.538 220.158 281.945C218.143 281.41 216.257 280.616 214.943 279.556L215.297 279.888C215.046 279.602 214.741 279.154 214.446 278.655C212.829 275.924 211.586 272.259 208.786 268.897C207.258 267.041 204.619 265.161 201.624 265.035C201.008 264.998 200.16 265.103 199.353 265.724C198.587 266.329 198.316 267.035 198.187 267.45C198.059 267.881 198.031 268.228 198.018 268.472C198.006 268.74 198.015 268.956 198.028 269.143C198.259 271.203 198.73 272.275 199.113 273.582C199.347 274.324 199.58 275.052 199.738 275.665C199.778 275.821 199.809 275.955 199.83 276.064C199.85 276.154 199.855 276.266 199.848 276.13C199.855 276.063 199.821 275.911 199.967 275.444C200.038 275.225 200.261 274.715 200.737 274.307C201.208 273.877 201.951 273.642 202.441 273.647C203.215 273.654 203.465 273.858 203.544 273.881C203.65 273.936 203.671 273.956 203.667 273.952C203.388 273.755 202.571 272.906 201.94 272.185C200.95 271.081 200.006 270.336 199.015 269.586C198.576 269.259 198.136 268.942 197.683 268.639C196.82 268.061 195.931 267.523 194.995 267.044C193.28 266.177 191.455 265.426 189.293 265.078C187.157 264.705 183.866 264.949 181.752 267.319C181.252 267.861 180.772 268.647 180.613 269.6C180.446 270.557 180.653 271.458 180.898 272.059C181.426 273.303 182.048 273.922 182.605 274.509C183.575 275.475 184.498 276.16 185.381 276.821C186.356 277.545 187.465 278.338 187.89 278.769C187.94 278.816 187.953 278.846 187.866 278.692C187.829 278.621 187.731 278.445 187.662 278.15C187.577 277.832 187.547 277.213 187.779 276.665C187.889 276.394 188.046 276.155 188.203 275.979C188.341 275.826 188.458 275.733 188.567 275.657C188.795 275.503 188.896 275.484 188.961 275.468C189.091 275.446 189.048 275.499 188.974 275.542C188.63 275.733 187.908 275.917 187.198 276.028C186.849 276.085 186.495 276.424 186.078 276.612C186.03 277.747 185.983 278.882 185.936 280.017C186.365 280.24 186.742 280.599 187.153 280.664C188.023 280.783 188.799 280.953 189.972 280.878C190.309 280.841 190.576 280.822 191.098 280.644C191.218 280.601 191.341 280.551 191.468 280.491C191.612 280.423 191.81 280.311 191.99 280.181C192.176 280.046 192.354 279.896 192.552 279.674C192.776 279.418 192.984 279.097 193.128 278.738C193.428 278.017 193.398 277.2 193.262 276.69C193.152 276.232 192.954 275.849 192.823 275.629C192.689 275.401 192.542 275.203 192.417 275.049C192.302 274.908 192.188 274.782 192.072 274.664C190.751 273.399 189.802 272.857 188.84 272.129C188.026 271.534 187.253 270.941 186.728 270.413C186.427 270.126 186.23 269.798 186.29 269.904C186.312 269.953 186.398 270.216 186.337 270.569C186.281 270.918 186.098 271.172 186.034 271.237C186.239 271.019 186.427 270.901 186.823 270.805C187.211 270.714 187.783 270.706 188.415 270.804C189.637 270.99 191.036 271.516 192.368 272.194C193.1 272.566 193.83 272.976 194.53 273.428C194.897 273.665 195.258 273.907 195.603 274.164C196.37 274.734 197.124 275.398 197.586 275.948C198.381 276.842 198.871 277.557 200.304 278.674C200.422 278.759 200.661 278.92 200.922 279.051C201.131 279.144 201.631 279.446 202.563 279.443C203.162 279.446 203.994 279.177 204.535 278.686C205.079 278.223 205.359 277.61 205.457 277.305C205.561 276.993 205.602 276.739 205.625 276.52C205.645 276.302 205.645 276.194 205.644 276.052C205.602 275.074 205.459 274.697 205.349 274.218C205.115 273.326 204.868 272.582 204.636 271.839C204.26 270.662 203.848 269.277 203.81 268.731C203.794 268.696 203.856 268.651 203.738 269.119C203.669 269.331 203.504 269.828 202.912 270.298C202.289 270.78 201.635 270.844 201.268 270.82C202.369 270.883 203.349 271.458 204.394 272.667C206.279 274.853 207.513 278.116 209.534 281.598C209.944 282.272 210.401 282.972 211.062 283.704L211.417 284.036C213.76 285.826 216.276 286.697 218.715 287.363C221.416 288.077 224.087 288.465 226.739 288.697C229.708 288.95 232.65 289.015 235.565 288.995C236.41 288.989 237.244 288.957 238.088 288.939C240.581 288.888 243.114 288.764 245.464 288.72C246.877 288.65 247.459 288.02 247.793 287.758C248.13 287.45 248.304 287.233 248.459 287.05C248.755 286.69 248.936 286.458 249.087 286.296C249.234 286.136 249.332 286.065 249.349 286.056C249.369 286.047 249.291 286.083 249.243 286.085C249.998 286.005 250.724 285.898 251.432 285.782C251.897 285.706 252.357 285.632 252.809 285.552C254.694 285.218 256.503 284.862 258.204 284.661C258.745 284.597 259.272 284.542 259.773 284.523C259.836 284.521 259.898 284.519 259.959 284.517C259.443 284.501 259.53 284.437 259.636 284.506C259.759 284.563 259.967 284.68 260.189 284.82C260.641 285.105 261.161 285.474 261.708 285.854C262.805 286.615 264.012 287.444 265.459 288.134C266.582 288.664 267.884 289.136 269.401 289.247C272.789 289.139 273.978 288.172 275.811 287.467C276.271 287.26 276.712 287.042 277.154 286.833C279.544 285.713 281.999 284.412 283.962 283.783C284.178 283.717 284.4 283.671 284.449 283.67C284.47 283.667 284.451 283.682 284.272 283.664C284.113 283.639 283.649 283.586 283.11 283.087C284.072 284.028 285.022 284.939 286.085 285.832C287.644 286.937 288.63 288.503 292.323 288.909C293.38 288.937 294.553 288.497 295.277 287.958C296.024 287.422 296.482 286.871 296.867 286.397C298.3 284.51 299.056 283.048 300.068 281.601C301.276 279.822 302.588 278.214 304.096 276.729C304.081 276.743 304.043 276.782 303.954 276.848C303.898 276.89 303.807 276.953 303.677 277.022C303.612 277.056 303.535 277.093 303.444 277.129C303.33 277.175 303.162 277.23 302.971 277.266C302.778 277.302 302.549 277.323 302.296 277.305C302.041 277.29 301.679 277.212 301.388 277.078C301.091 276.948 300.817 276.749 300.642 276.583C300.474 276.425 300.349 276.267 300.255 276.126C300.161 275.985 300.095 275.855 300.051 275.756C300.014 275.675 299.988 275.604 299.967 275.542C299.926 275.42 299.906 275.323 299.897 275.274C299.853 274.971 299.886 275.156 299.872 275.276C299.866 275.414 299.85 275.603 299.832 275.796C299.793 276.19 299.74 276.632 299.69 277.094C299.606 278.049 299.441 278.934 299.614 280.46C299.778 281.024 299.59 281.879 301.152 283.216C301.983 283.834 303.07 283.922 303.706 283.803C304.001 283.755 304.249 283.682 304.48 283.596C304.681 283.521 304.844 283.446 305.009 283.361C305.057 283.336 305.105 283.31 305.152 283.284C308.331 281.217 310.306 279.467 312.813 277.687C313.855 276.933 314.909 276.209 315.938 275.576C316.453 275.261 316.967 274.966 317.417 274.75C317.627 274.648 317.85 274.556 317.953 274.526C318 274.51 318.029 274.511 317.933 274.527C317.836 274.522 317.628 274.632 316.919 274.369C316.785 274.313 316.643 274.238 316.503 274.144C316.205 273.979 315.883 273.429 315.869 273.219C315.83 272.996 315.864 273.045 315.832 273.176C315.781 273.458 315.584 274.002 315.332 274.554C315.078 275.118 314.77 275.717 314.434 276.412C314.264 276.769 314.088 277.129 313.891 277.661C313.796 277.949 313.675 278.217 313.599 278.892C313.584 279.067 313.571 279.259 313.598 279.561C313.611 279.706 313.635 279.864 313.677 280.034C313.722 280.224 313.797 280.452 313.907 280.678C314.114 281.123 314.538 281.639 315.034 281.947C315.51 282.246 315.92 282.356 316.29 282.414C316.588 282.456 317.123 282.63 317.655 282.869C319.314 283.618 321.09 284.821 322.718 286.118C326.187 288.922 329.521 292.445 331.156 296.075C331.746 297.404 331.91 298.666 331.662 299.3C331.639 299.361 331.665 299.315 331.665 299.323C331.666 299.326 331.592 299.387 331.405 299.449C330.465 299.786 328.368 299.622 326.267 299.442C325.358 299.388 324.465 299.272 323.087 299.453C321.697 299.756 321.479 300.27 321.205 300.508C320.972 300.773 320.856 300.959 320.756 301.114C320.56 301.43 320.443 301.667 320.335 301.883C320.12 302.32 319.958 302.682 319.792 303.036C319.467 303.736 319.155 304.36 318.822 304.899C318.4 305.589 317.93 306.111 317.575 306.336C315.691 307.636 310.96 306.755 307.089 305.613C304.224 304.786 301.344 303.778 298.412 302.779C295.555 301.807 292.666 300.806 289.615 300.005C287.308 299.412 284.932 298.895 282.301 298.801C280.876 298.76 279.37 298.848 277.793 299.3C276.007 299.897 275.277 300.544 274.459 300.947C274.081 301.151 273.745 301.297 273.562 301.348C273.364 301.406 273.44 301.344 273.656 301.421C273.322 301.306 272.898 301.121 272.456 300.913C271.608 300.517 270.681 300.036 269.595 299.591C268.481 299.199 267.295 298.548 265.07 298.919C263.608 299.33 263.304 299.746 262.764 300.098C262.286 300.456 261.872 300.806 261.483 301.139C260.7 301.815 259.985 302.463 259.268 303.084C258.066 304.127 256.861 305.111 255.721 305.776C255.161 306.105 254.61 306.332 254.279 306.39C254.115 306.422 254.026 306.413 254.01 306.41C253.991 306.405 254.025 306.423 253.993 306.404C252.937 305.606 251.749 304.435 250.44 303.302C249.825 302.774 249.187 302.237 248.37 301.7C247.503 301.277 246.697 300.233 244.063 300.752C242.781 301.219 242.506 301.642 242.073 301.989C241.69 302.34 241.388 302.656 241.098 302.957C240.527 303.556 240.022 304.095 239.537 304.539C239.126 304.918 238.721 305.221 238.451 305.358C238.158 305.505 238.185 305.428 238.319 305.462C238.719 305.572 238.828 305.67 238.893 305.705C238.951 305.744 238.944 305.742 238.923 305.724C238.876 305.686 238.766 305.587 238.649 305.478C238.408 305.255 238.116 304.985 237.816 304.729C237.209 304.209 236.54 303.716 235.85 303.289C234.874 302.684 233.855 302.202 232.823 301.814C230.751 301.037 228.657 300.576 226.604 300.231C222.051 299.483 217.636 299.334 213.4 298.885C211.746 298.711 210.104 298.607 208.521 298.311C204.932 297.647 201.574 296.462 199.041 294.332C198.201 293.632 197.45 292.839 196.783 291.951C196.148 291.092 195.281 290.345 194.351 289.846C189.298 287.584 185.411 289.167 181.736 289.442C180.381 289.607 179.062 289.851 177.813 289.812C177.254 289.794 176.716 289.742 176.211 289.646C175.442 289.559 174.743 288.683 174.343 287.247C174.275 287.008 174.215 286.761 174.163 286.506C174.096 286.181 173.924 285.858 173.875 285.512C173.748 284.624 173.685 283.695 173.691 282.768C173.694 282.308 173.715 281.841 173.759 281.39C173.781 281.161 173.809 280.94 173.844 280.737C173.861 280.634 173.881 280.534 173.898 280.464C173.906 280.43 173.917 280.393 173.916 280.395C173.916 280.394 173.912 280.407 173.891 280.452C173.876 280.48 173.88 280.482 173.812 280.588C173.742 280.677 173.66 280.848 173.279 281.048C173.371 281.003 173.453 280.961 173.531 280.921C176.867 279.288 181.648 279.645 185.947 279.739ZM186.066 276.89L185.947 279.739L185.936 280.017L186.078 276.612L186.066 276.89Z" fill="#1D1D25"/>
<path d="M240.646 239.231L253.133 242.311L243.632 250.937" stroke="#1D1D25" stroke-width="5.4631" stroke-linecap="round" stroke-linejoin="round"/>
<path d="M283.828 231.426L274.014 239.739L286.36 243.239" stroke="#1D1D25" stroke-width="5.4631" stroke-linecap="round" stroke-linejoin="round"/>
<path d="M257.035 263.815C268.068 266.609 275.766 263.815 280.448 257.571" stroke="#1D1D25" stroke-width="6.24354" stroke-linecap="round"/>
</g>
<defs>
<filter id="filter0_d_2194_9996" x="13.1983" y="7.06609" width="389.337" height="423.94" filterUnits="userSpaceOnUse" color-interpolation-filters="sRGB">
<feFlood flood-opacity="0" result="BackgroundImageFix"/>
<feColorMatrix in="SourceAlpha" type="matrix" values="0 0 0 0 0 0 0 0 0 0 0 0 0 0 0 0 0 0 127 0" result="hardAlpha"/>
<feOffset dy="3.86782"/>
<feGaussianBlur stdDeviation="2.90086"/>
<feComposite in2="hardAlpha" operator="out"/>
<feColorMatrix type="matrix" values="0 0 0 0 0 0 0 0 0 0 0 0 0 0 0 0 0 0 0.15 0"/>
<feBlend mode="normal" in2="BackgroundImageFix" result="effect1_dropShadow_2194_9996"/>
<feBlend mode="normal" in="SourceGraphic" in2="effect1_dropShadow_2194_9996" result="shape"/>
</filter>
</defs>
</svg>
