<svg width="649" height="649" viewBox="0 0 649 649" fill="none" xmlns="http://www.w3.org/2000/svg">
<g clip-path="url(#clip0_2228_7647)">
<path d="M190.655 16.9855C202.735 14.6164 214.536 14.3174 222.381 14.811L225.077 14.9811L227.697 15.6364C232.59 16.8621 236.595 17.4263 241.682 18.2265C245.64 18.8491 253.708 20.0111 261.252 23.6122C270.792 28.1663 278.053 35.6555 282.52 45.6813C286.302 54.1689 287.672 63.5949 288.321 72.3871C288.606 76.2392 288.91 79.7056 289.229 82.8447C291.419 80.4969 293.529 78.692 295.1 77.4218C299.204 74.1028 303.718 71.2418 307.683 68.9247C315.374 64.4301 324.753 59.8814 330.184 57.0971C341.937 51.0716 356.574 48.9211 366.643 48.1495C372.209 47.7228 377.753 47.6196 382.701 47.86C386.351 48.0374 393.099 48.5051 399.346 50.8138L399.95 51.042L400.601 51.3066C407.266 54.0852 411.645 58.5625 413.217 60.1984C415.546 62.6227 417.577 65.2242 419.213 67.4837C422.534 72.069 425.795 77.4296 428.605 82.4831C431.456 87.6084 434.189 93.0396 436.376 97.983C438.11 101.902 440.913 108.568 441.885 114.911C441.899 114.99 441.946 115.253 442.046 115.765C442.178 116.436 442.358 117.316 442.591 118.418C443.057 120.626 443.672 123.439 444.403 126.76C445.849 133.317 447.715 141.695 449.526 150.165C451.332 158.613 453.152 167.476 454.513 175.115C455.669 181.603 457.129 190.446 456.961 196.982C456.961 196.99 456.959 197.109 456.96 197.366C456.962 197.63 456.966 197.98 456.977 198.425C456.998 199.323 457.039 200.468 457.101 201.863C457.226 204.654 457.426 208.159 457.686 212.188C458.203 220.233 458.931 229.977 459.69 239.528C459.962 242.951 460.234 246.27 460.494 249.421C460.541 249.396 460.589 249.369 460.636 249.344C469.494 244.657 477.972 243.361 484.545 242.893L485.834 242.809C495.209 242.26 509.411 244.564 520.555 247.248C526.659 248.718 533.287 250.643 539.377 253.062C544.31 255.021 552.514 258.66 559.024 265.086L559.649 265.716L560.242 266.342C566.278 272.834 569.397 280.228 571.128 285.902C572.969 291.934 573.829 297.983 574.269 303.126C575.131 313.195 574.646 323.767 574.456 329.721C574.023 343.257 568.174 356.238 564.185 364.255C560.209 372.248 554.159 382.506 552.355 385.838C550.097 390.005 542.811 406.242 534.969 424.008C529.67 436.013 523.896 449.233 520.576 456.538C520.572 458.963 520.707 462.331 520.98 466.49C521.43 473.348 522.134 480.721 522.764 487.34L523.357 493.66C524.787 509.355 518.859 524.457 514.22 534.134C509.076 544.864 502.655 554.637 497.745 561.323C492.988 567.801 486.756 572.897 481.867 576.469C476.598 580.32 470.838 583.857 465.502 586.894C454.829 592.967 444.033 598.051 438.76 600.54L438.758 600.539L438.722 600.557C433.422 603.059 425.847 605.289 419.71 606.98C412.743 608.9 404.572 610.924 396.498 612.81C380.629 616.517 363.585 620.049 355.511 621.285C353.232 621.634 348.622 622.614 341.315 624.217C334.535 625.705 326.199 627.55 317.833 629.211C309.539 630.859 300.591 632.453 292.511 633.37C285.925 634.117 274.97 635.108 265.449 632.533C256.621 630.146 249.781 627.34 244.959 625.166C244.315 624.876 243.487 624.49 242.693 624.12L242.689 624.121C240.076 623.922 236.551 623.634 232.734 623.22C228.968 622.812 224.602 622.25 220.346 621.462C216.493 620.75 211.022 619.558 205.892 617.39C192.571 611.763 184.686 600.166 180.747 594.016C176.441 587.292 171.449 577.811 167.94 571.635C162.515 562.088 158.003 551.66 155.07 541.704C152.669 533.551 150.306 522.38 151.776 511.384C151.571 511.049 151.336 510.669 151.057 510.222C150.605 509.498 149.925 508.42 149.3 507.405C143.778 498.443 141.694 487.628 140.699 481.883C139.82 476.805 138.535 466.536 138.432 465.858C137.807 461.777 136.646 452.598 135.668 445.541C135.134 441.686 134.611 438.117 134.135 435.252C133.818 433.346 133.601 432.267 133.509 431.802C133.249 431.239 132.267 428.894 130.078 424.055C127.641 418.67 124.492 411.869 121.229 404.848C115.051 391.553 107.748 375.963 105.62 370.655C105.95 371.478 104.894 369.286 100.708 362.611C97.2127 357.036 92.6954 350.133 87.9756 343.07C78.355 328.675 68.7952 314.974 65.9668 311.264C61.578 305.507 55.1479 295.985 49.7296 284.599C44.4995 273.608 38.9675 258.315 39.226 241.815C39.7576 207.891 60.9778 191.239 69.7619 182.014C81.1592 170.045 98.0551 163.395 110.509 160.156C117.344 158.378 124.626 157.157 131.613 156.889C135.147 156.753 140.005 156.788 145.28 157.772C142.719 144.801 140.284 132.202 137.784 122.377C132.062 99.8959 123.513 64.9489 150.672 36.7518L151.247 36.1654C163.369 23.9562 179.66 19.1419 190.655 16.9855Z" fill="#F6F6F9"/>
<path d="M258.898 74.5595C256.615 43.6343 246.356 50.7246 220.529 44.2552C209.177 43.541 183.563 45.1337 171.922 57.2188C157.372 72.3252 160.217 90.9002 166.376 115.099C172.536 139.298 178.247 178.591 183.102 188.272C187.958 197.953 198.673 231.88 200.233 242.066C201.481 250.215 199.287 255.907 198.034 257.734C191.312 247.214 177.004 224.528 173.543 217.945C169.216 209.716 153.443 192.815 143.492 187.9C133.54 182.985 102.75 190.154 91.1283 202.359C79.5064 214.563 69.0397 222.299 68.7267 242.277C68.4137 262.255 82.5242 284.317 89.431 293.377C96.3378 302.438 129.533 351.012 133.007 359.678C136.481 368.345 159.906 417.189 161.722 423.043C163.538 428.897 166.402 453.601 167.595 461.39C168.788 469.18 169.93 484.642 174.418 491.927C178.907 499.212 183.12 504.699 181.201 514.191C179.282 523.683 184.778 541.545 193.592 557.059C202.407 572.573 208.85 586.611 217.374 590.211C225.897 593.812 247.511 594.794 249.7 595.072C251.889 595.35 259.397 600.332 273.151 604.051C286.906 607.771 337.264 594.232 351.045 592.121C364.826 590.011 415.551 578.869 426.131 573.876L426.168 573.858C436.779 568.851 465.603 555.247 473.966 543.86C482.338 532.459 495.325 511.153 493.976 496.336C492.626 481.518 489.466 452.874 492.073 447.875C494.68 442.876 520.436 382.821 526.412 371.787C532.388 360.753 544.544 342.028 544.967 328.778C545.391 315.529 546.465 294.514 538.452 286.236C530.438 277.959 497.284 271.692 487.559 272.261C477.835 272.831 470.828 275.13 461.948 287.222C454.692 297.103 449.75 320.759 445.391 332.684C443.667 328.962 440.206 320.233 440.154 315.089C440.089 308.66 434.046 283.217 433.633 280.52C433.22 277.824 427.161 208.23 427.468 196.225C427.776 184.22 413.96 127.465 412.722 119.376C411.483 111.287 395.401 80.9423 389.204 78.5186C383.007 76.0949 356.438 76.7914 343.645 83.35C330.851 89.9087 311.95 98.6293 308.512 106.208C305.073 113.787 307.138 127.268 307.178 135.541C307.219 143.813 311.265 158.218 314.323 168.175C317.381 178.131 323.057 201.178 324.709 211.963C326.361 222.749 325.289 239.776 326.253 246.068C327.216 252.359 329.47 259.066 327.368 267.361C325.686 273.996 326.077 279.619 326.482 281.6C320.636 282.802 307.289 286.011 300.669 289.233L294.796 250.886C292.41 235.307 287.713 194.633 284.426 183.178C281.138 171.724 267.57 131.182 266.607 124.891C265.643 118.599 261.182 105.485 258.898 74.5595Z" fill="#FDAAFD"/>
<path d="M264.419 125.225C263.514 119.319 258.979 105.71 256.691 74.7226C256.126 67.0709 255.079 62.0206 253.55 58.5881C252.072 55.2711 250.141 53.4511 247.589 52.2329C244.888 50.9433 241.434 50.2928 236.755 49.5566C232.21 48.8416 226.687 48.063 220.206 46.4526C214.676 46.1219 205.726 46.3495 196.759 48.1082C187.624 49.8999 178.86 53.2064 173.516 58.7538C159.912 72.8784 162.328 90.2253 168.52 114.553C171.619 126.726 174.604 142.689 177.399 156.696C178.8 163.723 180.154 170.261 181.456 175.636C182.776 181.078 183.995 185.115 185.08 187.279C187.598 192.298 191.537 203.363 195.012 214.31C198.487 225.256 201.611 236.443 202.421 241.731C203.521 248.914 202.127 254.462 200.702 257.475C205.884 263.666 215.498 275.362 218.834 280.258C221.141 283.644 224.898 291.749 228.457 299.442C230.265 303.351 232.048 307.213 233.625 310.463C235.224 313.756 236.543 316.275 237.429 317.58C239.198 320.186 241.087 324.904 242.691 329.491C244.325 334.163 245.762 338.994 246.589 342.026L242.319 343.192C241.514 340.24 240.107 335.51 238.514 330.953C236.89 326.309 235.166 322.125 233.768 320.065C232.674 318.454 231.222 315.648 229.644 312.396C228.044 309.1 226.242 305.194 224.441 301.3C220.781 293.388 217.219 285.749 215.176 282.75C211.773 277.756 201.241 264.985 196.34 259.157L196.247 259.048L196.169 258.926C189.477 248.452 175.1 225.664 171.583 218.975C169.571 215.147 164.725 209.047 159.042 203.225C153.352 197.395 147.136 192.169 142.511 189.884C140.525 188.903 137.185 188.413 132.831 188.581C128.553 188.745 123.567 189.531 118.493 190.851C108.253 193.514 98.122 198.223 92.7301 203.885C80.8955 216.313 71.2363 223.38 70.9397 242.312C70.7909 251.812 74.0831 261.964 78.369 270.97C82.6409 279.947 87.8077 287.598 91.1909 292.036C94.6915 296.629 104.752 311.09 114.346 325.446C119.15 332.635 123.855 339.822 127.579 345.761C131.251 351.618 134.103 356.463 135.061 358.854C136.769 363.114 143.449 377.401 149.992 391.482C153.25 398.495 156.463 405.43 158.974 410.979C161.447 416.445 163.329 420.756 163.835 422.386C164.811 425.531 166.004 433.399 167.084 441.188C168.184 449.131 169.188 457.175 169.783 461.055C170.416 465.191 170.947 470.67 171.951 476.47C172.947 482.22 174.304 487.522 176.302 490.765C180.668 497.851 185.493 504.125 183.37 514.629C182.52 518.835 183.287 525.249 185.494 532.741C187.678 540.155 191.185 548.343 195.516 555.966C199.991 563.841 203.717 571.072 207.455 576.909C211.221 582.789 214.652 586.659 218.235 588.172C222.15 589.826 229.361 590.952 236.149 591.688C239.487 592.049 242.636 592.309 245.092 592.495C247.473 592.676 249.358 592.798 249.979 592.876C250.527 592.946 251.087 593.135 251.566 593.32C252.076 593.516 252.656 593.772 253.278 594.059C254.586 594.66 256.048 595.374 257.998 596.253C261.797 597.966 266.998 600.095 273.728 601.915C276.71 602.722 282.045 602.637 288.937 601.855C295.717 601.086 303.662 599.689 311.657 598.101C319.646 596.515 327.639 594.747 334.52 593.237C341.361 591.736 347.178 590.475 350.71 589.934C357.512 588.892 373.569 585.595 389.285 581.925C397.132 580.092 404.865 578.172 411.285 576.402C417.767 574.616 422.74 573.029 425.186 571.875L425.224 571.857C430.532 569.352 440.32 564.732 449.815 559.329C454.563 556.627 459.204 553.748 463.156 550.86C467.136 547.952 470.291 545.125 472.181 542.551C476.313 536.924 481.573 528.867 485.621 520.423C489.707 511.9 492.39 503.324 491.772 496.537C491.101 489.17 489.968 478.244 489.332 468.569C489.014 463.73 488.818 459.149 488.868 455.442C488.893 453.59 488.98 451.914 489.155 450.511C489.321 449.173 489.591 447.846 490.11 446.851C491.369 444.437 498.406 428.304 505.955 411.2C513.442 394.239 521.424 376.352 524.466 370.734C527.543 365.053 531.962 357.824 535.791 350.128C539.619 342.433 542.56 334.813 542.756 328.707C542.969 322.032 543.335 313.617 542.668 305.832C542.336 301.948 541.751 298.298 540.793 295.158C539.831 292.006 538.533 289.502 536.861 287.775C535.203 286.062 532.004 284.259 527.67 282.537C523.411 280.845 518.318 279.332 513.129 278.082C502.671 275.563 492.212 274.205 487.688 274.47C482.967 274.747 479.146 275.432 475.472 277.376C471.787 279.326 468.052 282.649 463.732 288.532C460.356 293.129 457.397 301.16 454.695 309.844C452.062 318.312 449.669 327.428 447.47 333.444L447.468 333.443C446.492 336.113 445.45 338.488 444.283 339.995C442.194 342.692 440.074 345.149 438.124 347.405C436.156 349.68 434.384 351.725 432.907 353.678L429.378 351.009C430.96 348.917 432.836 346.753 434.776 344.51C436.732 342.248 438.779 339.876 440.786 337.285C441.414 336.474 442.154 334.967 442.997 332.762C442.134 330.816 441.009 328.036 440.044 325.114C438.947 321.794 437.971 318.048 437.942 315.111C437.928 313.711 437.571 311.087 436.986 307.736C436.41 304.44 435.641 300.601 434.858 296.859C433.315 289.49 431.665 282.281 431.446 280.856C431.224 279.404 429.598 261.213 428.075 242.039C426.553 222.875 425.098 202.319 425.256 196.168C425.326 193.431 424.57 187.861 423.29 180.678C422.025 173.58 420.295 165.137 418.511 156.794C414.967 140.218 411.167 123.84 410.535 119.712C410.275 118.013 409.154 114.844 407.372 110.816C405.624 106.865 403.335 102.298 400.888 97.8985C398.438 93.4937 395.855 89.3024 393.526 86.0859C392.359 84.4751 391.285 83.1479 390.347 82.1714C389.356 81.1402 388.703 80.6993 388.398 80.5797C387.213 80.1164 384.709 79.7105 381.163 79.5382C377.705 79.3702 373.496 79.4322 369.067 79.7715C360.13 80.4565 350.649 82.246 344.654 85.3192C338.185 88.6356 330.371 92.4009 323.687 96.3072C320.354 98.2551 317.376 100.196 315.044 102.082C312.667 104.004 311.17 105.706 310.527 107.122C309.031 110.419 308.661 115.238 308.752 120.576C308.797 123.201 308.95 125.854 309.096 128.407C309.24 130.936 309.381 133.393 309.391 135.53C309.41 139.397 310.379 144.858 311.772 150.715C313.155 156.527 314.915 162.566 316.438 167.525C319.517 177.552 325.223 200.708 326.896 211.629C327.75 217.202 327.892 224.312 327.951 230.68C328.012 237.205 327.989 242.792 328.439 245.733C329.34 251.614 331.76 259.038 329.512 267.904C328.359 272.455 328.245 276.47 328.398 278.976C330.451 278.588 332.955 278.135 335.411 277.733C338.861 277.169 342.396 276.675 344.415 276.635C345.836 276.608 347.696 276.903 349.629 277.335C351.605 277.777 353.815 278.398 356 279.102C360.31 280.491 364.767 282.28 367.201 283.773C368.078 284.311 369.226 284.77 370.686 285.269C372.057 285.738 373.816 286.275 375.485 286.894C378.929 288.171 382.766 290.05 385.779 293.774C388.258 296.84 390.754 299.445 392.717 302.403C394.785 305.519 396.394 309.159 397.569 314.742C399.827 325.467 401.837 336.46 400.954 349.18C400.539 355.16 401.139 362.557 401.938 369.271C402.336 372.613 402.777 375.751 403.158 378.428C403.535 381.076 403.862 383.331 404.011 384.825C404.207 386.789 405.415 390.638 406.991 394.901C408.53 399.064 410.307 403.331 411.471 405.982L407.419 407.761C406.228 405.048 404.415 400.698 402.84 396.436C401.301 392.274 399.869 387.89 399.607 385.265C399.47 383.889 399.164 381.758 398.778 379.052C398.397 376.374 397.947 373.191 397.543 369.794C396.738 363.033 396.093 355.29 396.539 348.873C397.377 336.801 395.484 326.314 393.239 315.653C392.164 310.543 390.747 307.44 389.028 304.85C387.205 302.103 385.152 300.038 382.337 296.556C380.054 293.734 377.084 292.208 373.946 291.044C372.323 290.442 370.846 290.001 369.255 289.457C367.753 288.944 366.21 288.357 364.888 287.546C362.922 286.34 358.879 284.678 354.642 283.313C352.553 282.64 350.477 282.059 348.664 281.654C346.807 281.239 345.372 281.043 344.501 281.06C342.851 281.092 339.629 281.528 336.124 282.101C332.677 282.664 329.126 283.331 326.914 283.771L326.913 283.77C321.056 284.975 308.066 288.119 301.709 291.189C299.432 292.517 295.951 294.908 292.915 297.755C289.76 300.714 287.483 303.801 287.03 306.441C286.3 310.702 285.451 315.819 285.353 320.973C285.255 326.142 285.922 331.131 288.057 335.203C290.605 340.06 292.75 348.547 294.377 356.425C296.023 364.4 297.2 372.091 297.728 375.537C298.286 379.182 298.307 385.059 298.359 390.82C298.413 396.73 298.5 402.596 299.113 406.599L294.739 407.269C294.067 402.885 293.988 396.663 293.935 390.861C293.881 384.912 293.851 379.453 293.354 376.207C292.826 372.763 291.664 365.173 290.043 357.321C288.402 349.372 286.353 341.485 284.137 337.259C281.509 332.249 280.824 326.406 280.929 320.889C281.034 315.358 281.942 309.934 282.669 305.693C283.382 301.531 286.623 297.589 289.888 294.527C292.704 291.886 295.839 289.628 298.259 288.109L292.609 251.22C291.414 243.416 289.632 229.282 287.757 215.79C285.864 202.175 283.889 189.33 282.299 183.789C280.667 178.102 276.472 165.161 272.536 152.769C270.574 146.59 268.68 140.559 267.216 135.676C265.775 130.873 264.689 126.987 264.419 125.225ZM203.25 452.557C202.907 450.32 202.201 447.707 201.334 444.708C200.479 441.754 199.476 438.448 198.617 434.998C196.898 428.1 195.669 420.298 197.259 412.531C198.625 405.865 203.85 400.59 209.331 396.784C214.804 392.984 220.932 390.369 225.011 389.085C232.052 385.666 240.7 383.107 248.465 381.879C252.38 381.259 256.13 380.968 259.378 381.095C262.565 381.219 265.527 381.754 267.674 382.991C271.156 384.997 275.211 387.839 278.64 390.699C280.356 392.13 281.945 393.59 283.24 394.975C284.503 396.327 285.611 397.737 286.222 399.067C287.054 400.881 289.694 405.142 292.735 409.647C295.756 414.124 298.989 418.569 300.921 420.743C303.942 424.145 307.009 425.659 307.891 425.943L306.533 430.155C304.835 429.608 301.11 427.622 297.611 423.683C295.467 421.269 292.093 416.607 289.066 412.123C286.058 407.665 283.208 403.11 282.199 400.913C281.89 400.238 281.173 399.245 280.007 397.998C278.873 396.785 277.428 395.452 275.805 394.098C272.556 391.388 268.709 388.695 265.465 386.826C264.249 386.125 262.149 385.632 259.205 385.517C256.323 385.404 252.874 385.662 249.156 386.25C241.711 387.428 233.421 389.896 226.798 393.135L226.644 393.211L226.482 393.261C222.754 394.418 216.963 396.873 211.856 400.42C206.686 404.009 202.615 408.436 201.594 413.419C200.203 420.212 201.245 427.241 202.911 433.928C203.744 437.272 204.71 440.449 205.586 443.477C206.449 446.46 207.233 449.33 207.624 451.887C208.307 456.344 210.851 462.549 213.758 469.363C216.595 476.014 219.742 483.168 221.289 489.119C222.015 491.916 222.742 494.117 223.407 496.071C224.064 498.002 224.695 499.787 225.157 501.61C226.119 505.401 226.342 509.284 225.275 515.798L220.909 515.082C221.902 509.017 221.646 505.767 220.867 502.697C220.459 501.088 219.903 499.51 219.218 497.497C218.541 495.508 217.772 493.185 217.005 490.231C215.563 484.682 212.589 477.903 209.687 471.099C206.854 464.459 204.036 457.686 203.25 452.557ZM268.793 124.555C269.005 125.94 269.978 129.481 271.455 134.406C272.908 139.252 274.793 145.254 276.754 151.429C280.665 163.743 284.897 176.801 286.552 182.568C288.25 188.482 290.267 201.701 292.141 215.181C294.032 228.784 295.793 242.776 296.983 250.55L302.421 286.053C308.883 283.476 318.37 281.108 324.026 279.864C323.782 276.897 323.871 272.149 325.223 266.817C327.18 259.095 325.091 253.105 324.065 246.403C323.552 243.052 323.583 236.978 323.526 230.721C323.466 224.306 323.32 217.51 322.521 212.299C320.89 201.649 315.244 178.711 312.208 168.824C310.673 163.828 308.881 157.685 307.466 151.738C306.062 145.836 304.987 139.958 304.965 135.552C304.956 133.554 304.823 131.222 304.676 128.66C304.531 126.121 304.374 123.38 304.327 120.652C304.236 115.287 304.553 109.576 306.496 105.294C307.572 102.922 309.727 100.691 312.261 98.6415C314.84 96.5557 318.032 94.4849 321.453 92.4855C328.277 88.4971 336.31 84.6224 342.635 81.3802C349.433 77.895 359.633 76.0566 368.728 75.3595C373.315 75.0079 377.712 74.9404 381.378 75.1185C384.955 75.2923 388.096 75.7092 390.009 76.4577C391.253 76.9441 392.459 77.9814 393.538 79.1046C394.67 80.2829 395.878 81.7883 397.11 83.4893C399.577 86.8968 402.255 91.2515 404.755 95.7467C407.259 100.247 409.61 104.935 411.419 109.025C413.195 113.037 414.55 116.695 414.909 119.042C415.516 123.003 419.241 139.047 422.838 155.869C424.624 164.227 426.368 172.728 427.646 179.901C428.909 186.988 429.764 193.015 429.68 196.281C429.53 202.135 430.951 222.38 432.485 241.688C434.018 260.986 435.63 278.941 435.821 280.186C436.016 281.46 437.592 288.319 439.19 295.952C439.977 299.711 440.758 303.606 441.346 306.973C441.924 310.284 442.349 313.252 442.367 315.067C442.389 317.273 443.169 320.464 444.247 323.725C444.541 324.615 444.852 325.493 445.164 326.334C446.777 321.12 448.501 314.861 450.47 308.53C453.143 299.935 456.284 291.195 460.165 285.911C464.724 279.703 468.932 275.83 473.402 273.465C477.882 271.094 482.427 270.345 487.43 270.052C492.631 269.747 503.612 271.238 514.166 273.78C519.482 275.061 524.789 276.63 529.303 278.424C533.743 280.187 537.694 282.271 540.042 284.697C542.377 287.109 543.949 290.337 545.026 293.867C546.107 297.41 546.731 301.394 547.079 305.454C547.772 313.558 547.389 322.274 547.179 328.849C546.95 335.992 543.602 344.36 539.752 352.099C535.903 359.836 531.257 367.488 528.358 372.841C525.425 378.257 517.54 395.914 510.004 412.988C502.53 429.919 495.383 446.313 494.035 448.898C493.902 449.153 493.701 449.814 493.547 451.057C493.4 452.235 493.317 453.733 493.293 455.501C493.245 459.034 493.434 463.479 493.749 468.278C494.379 477.879 495.5 488.684 496.179 496.134C496.91 504.165 493.774 513.651 489.611 522.336C485.41 531.099 479.99 539.395 475.749 545.17C473.459 548.289 469.874 551.432 465.767 554.433C461.631 557.455 456.834 560.426 452.004 563.175C442.345 568.672 432.415 573.357 427.112 575.86L427.076 575.877C424.231 577.219 418.895 578.896 412.46 580.669C405.964 582.459 398.17 584.394 390.292 586.234C374.555 589.91 358.36 593.24 351.38 594.309C348.022 594.823 342.374 596.045 335.468 597.56C328.601 599.067 320.56 600.845 312.518 602.442C304.482 604.038 296.397 605.462 289.435 606.252C282.586 607.028 276.468 607.241 272.574 606.187C265.55 604.288 260.12 602.065 256.178 600.288C254.259 599.422 252.574 598.606 251.428 598.079C250.825 597.801 250.35 597.594 249.977 597.45C249.586 597.299 249.429 597.269 249.421 597.267C248.947 597.207 247.309 597.101 244.756 596.907C242.278 596.719 239.078 596.456 235.673 596.088C228.978 595.362 221.121 594.196 216.513 592.25C211.571 590.162 207.519 585.213 203.729 579.296C199.912 573.335 196.008 565.791 191.668 558.152C187.184 550.261 183.537 541.76 181.249 533.992C178.984 526.302 177.964 519.039 179.033 513.753C180.747 505.272 177.145 500.57 172.534 493.087C170.045 489.046 168.587 482.975 167.591 477.225C166.604 471.526 165.968 465.379 165.408 461.725C164.809 457.817 163.784 449.614 162.701 441.795C161.596 433.82 160.449 426.408 159.609 423.698C159.206 422.401 157.478 418.412 154.941 412.804C152.44 407.277 149.237 400.361 145.978 393.347C139.487 379.377 132.72 364.909 130.953 360.502C130.174 358.56 127.573 354.083 123.829 348.112C120.137 342.224 115.459 335.075 110.667 327.905C101.069 313.543 91.078 299.188 87.6712 294.719C84.1477 290.097 78.8045 282.186 74.3727 272.872C69.9549 263.589 66.3504 252.719 66.5145 242.242C66.844 221.218 78.1167 212.814 89.5257 200.833C95.7556 194.29 106.83 189.311 117.379 186.568C122.699 185.184 128.005 184.337 132.661 184.159C137.242 183.983 141.482 184.44 144.471 185.916C149.798 188.547 156.444 194.227 162.209 200.134C167.983 206.049 173.188 212.513 175.502 216.915C178.561 222.734 190.365 241.552 197.627 252.978C198.289 250.492 198.733 246.884 198.047 242.401C197.296 237.504 194.281 226.633 190.794 215.65C187.308 204.667 183.463 193.926 181.124 189.264C179.782 186.588 178.466 182.082 177.157 176.679C175.831 171.208 174.461 164.593 173.058 157.562C170.244 143.453 167.293 127.671 164.232 115.645C158.106 91.5752 154.832 71.7714 170.328 55.6832C176.625 49.1456 186.488 45.6133 195.908 43.7659C204.802 42.0214 213.65 41.7143 219.532 41.9854L220.668 42.0461L220.869 42.0589L221.066 42.1089C227.405 43.6968 232.778 44.4505 237.442 45.1841C242.021 45.9045 246.119 46.627 249.496 48.2392C253.023 49.9228 255.697 52.534 257.592 56.787C259.436 60.9249 260.529 66.5855 261.105 74.3963C263.384 105.259 267.771 117.878 268.793 124.555Z" fill="#1D1D25"/>
<path d="M340.97 91.4224C348.062 88.2989 348.066 88.1928 353.104 86.7367C356.555 85.7393 362.776 85.6484 368.802 85.4413C372.681 85.7073 375.559 86.0708 376.628 88.0104C376.861 88.4337 377.055 88.9878 376.96 89.4443C376.606 91.1343 375.582 93.4186 369.127 98.3672C366.182 100.625 361.793 103.763 358.229 106.124C354.664 108.485 352.005 110.023 348.166 111.733C344.327 113.443 339.456 115.27 335.645 116.357C331.834 117.443 329.155 118.03 326.868 117.827C320.3 117.245 318.305 116.871 317.175 115.471C316.462 114.589 315.862 113.341 315.87 112.017C315.875 111.031 315.978 110.092 317.706 108.197C321.64 103.881 325.645 99.3804 329.27 97.443C332.588 95.6699 336.409 93.431 340.97 91.4224Z" fill="#F034ED"/>
<path d="M352.489 84.6109C354.466 84.0395 357.095 83.7586 359.846 83.5846C361.237 83.4967 362.713 83.4333 364.212 83.3795L368.726 83.2303L368.839 83.2261L368.952 83.2349C370.87 83.3664 372.772 83.5311 374.353 83.9643C375.949 84.4015 377.614 85.2182 378.565 86.9437C378.862 87.4834 379.389 88.6362 379.125 89.898C378.604 92.3882 377.042 95.0874 370.472 100.124C367.486 102.413 363.055 105.581 359.449 107.969C355.808 110.381 353.041 111.983 349.065 113.754C345.15 115.498 340.181 117.366 336.251 118.486C332.472 119.563 329.421 120.275 326.672 120.031C323.42 119.743 321.119 119.493 319.479 119.11C317.763 118.71 316.447 118.092 315.453 116.862C314.52 115.707 313.645 113.979 313.655 112.006C313.659 111.405 313.693 110.594 314.092 109.614C314.47 108.688 315.111 107.759 316.069 106.707C318.017 104.57 320.053 102.31 322.054 100.348C324.041 98.4019 326.13 96.6119 328.227 95.4913C331.455 93.7665 335.414 91.4512 340.077 89.3976C347.168 86.2746 347.293 86.1125 352.489 84.6109ZM360.126 88.0014C357.398 88.1739 355.191 88.4375 353.718 88.8634C348.837 90.2741 348.953 90.3246 341.86 93.4485C337.402 95.412 333.72 97.5744 330.312 99.3956C328.783 100.212 327.057 101.642 325.151 103.509C323.261 105.361 321.327 107.51 319.34 109.689C318.572 110.532 318.297 111.02 318.19 111.283C318.104 111.493 318.083 111.645 318.081 112.03C318.077 112.704 318.403 113.472 318.895 114.081C319.032 114.25 319.279 114.52 320.484 114.801C321.766 115.101 323.747 115.329 327.062 115.623C328.888 115.785 331.194 115.325 335.038 114.229C338.73 113.177 343.503 111.388 347.266 109.711C350.968 108.062 353.519 106.59 357.006 104.28C360.528 101.947 364.876 98.8374 367.78 96.6111C373.68 92.0883 374.505 90.1542 374.742 89.1906C374.727 89.1551 374.71 89.1169 374.689 89.0793C374.571 88.8652 374.264 88.5287 373.184 88.2328C372.109 87.9383 370.665 87.79 368.757 87.6575C365.751 87.76 362.788 87.833 360.126 88.0014Z" fill="#1D1D25"/>
<path d="M325.03 293.223C331.585 291.863 331.397 292.248 338.674 291.134C341.536 290.696 345.877 290.589 348.885 291.072C351.892 291.555 355.843 292.391 358.614 293.106C364.979 295.262 368.728 296.976 369.675 299.233C370.287 300.688 371.01 302.534 369.997 304.614C368.99 306.68 367.649 308.672 362.219 311.034C358.822 312.511 356.536 313.401 351.346 313.987C346.709 314.511 338.237 315.416 331.486 315.705C324.736 315.993 319.854 315.676 317.035 315.403C314.215 315.129 313.431 315.001 312.244 314.328C306.777 311.227 303.643 308.949 303.467 306.538C303.395 305.559 303.57 304.64 304.142 303.86C304.711 303.083 306.327 301.105 309.43 299.231C312.069 297.637 317.273 294.833 325.03 293.223Z" fill="#F034ED"/>
<path d="M324.579 291.057C331.173 289.689 331.327 290.02 338.338 288.947C341.381 288.481 345.957 288.361 349.235 288.887C351.929 289.319 355.342 290.025 358.052 290.684L359.166 290.963L359.246 290.982L359.323 291.01C362.517 292.092 365.19 293.107 367.21 294.176C369.16 295.208 370.93 296.506 371.715 298.375C372.319 299.813 373.474 302.527 371.985 305.583C371.418 306.747 370.685 308.029 369.265 309.338C367.882 310.614 365.951 311.822 363.101 313.062C359.569 314.598 357.065 315.567 351.594 316.185C346.957 316.709 338.417 317.623 331.581 317.915C324.714 318.209 319.728 317.887 316.821 317.605C314.036 317.335 312.8 317.187 311.151 316.252C308.409 314.697 306.101 313.267 304.441 311.864C302.835 310.507 301.414 308.827 301.259 306.699C301.161 305.356 301.391 303.87 302.356 302.552C303.056 301.597 304.877 299.394 308.285 297.336C311.065 295.656 316.505 292.732 324.579 291.057ZM339.008 293.321C331.466 294.476 331.994 294.037 325.478 295.389C318.039 296.932 313.071 299.615 310.573 301.124C307.775 302.815 306.363 304.57 305.925 305.168C305.748 305.411 305.629 305.763 305.673 306.377C305.694 306.659 305.928 307.325 307.299 308.484C308.618 309.599 310.611 310.857 313.335 312.403C314.06 312.814 314.394 312.923 317.248 313.2C319.98 313.465 324.757 313.777 331.39 313.494C338.055 313.209 346.459 312.313 351.097 311.789C356.006 311.234 358.074 310.423 361.335 309.004C363.915 307.882 365.368 306.913 366.265 306.086C367.125 305.292 367.568 304.546 368.007 303.645C368.545 302.54 368.254 301.563 367.635 300.089C367.472 299.701 366.893 299.014 365.14 298.086C363.469 297.201 361.105 296.289 357.967 295.224C355.264 294.531 351.436 293.722 348.532 293.256C345.794 292.816 341.69 292.91 339.008 293.321Z" fill="#1D1D25"/>
<path d="M491.807 281.635C488.656 279.959 487.042 278.922 487.037 278.531C487.828 277.266 490.235 277.182 491.382 277.195C497.316 276.835 499.129 277.507 504.501 278.115C507.966 278.701 514.318 279.825 517.853 280.556C521.369 281.283 522.087 281.587 523.332 282.114L523.353 282.123C529.289 284.636 532.796 286.213 533.744 288.744C534.082 289.649 534.274 290.552 533.987 291.36C533.854 291.736 533.624 292.079 532.954 292.234C531.282 292.621 524.032 294.279 519.108 292.856C515.984 291.953 512.305 290.331 507.442 288.446C500.331 285.689 494.804 283.229 491.807 281.635Z" fill="#F034ED"/>
<path d="M488.621 275.218C489.657 275 490.691 274.978 491.323 274.983C496.684 274.664 499.01 275.172 502.942 275.693L504.75 275.916L504.81 275.923L504.869 275.933C508.337 276.52 514.724 277.65 518.301 278.389C521.927 279.139 522.788 279.481 524.194 280.076L524.215 280.085C527.147 281.326 529.654 282.407 531.543 283.521C533.416 284.626 535.071 285.981 535.815 287.968C536.191 288.972 536.633 290.517 536.072 292.099C535.942 292.465 535.703 292.995 535.207 293.474C534.704 293.958 534.092 294.241 533.453 294.389C532.596 294.588 530.261 295.124 527.489 295.424C524.769 295.718 521.377 295.815 518.493 294.981C515.244 294.042 511.357 292.337 506.643 290.509C499.501 287.74 493.878 285.243 490.767 283.588C489.177 282.743 487.918 282.029 487.038 281.458C486.606 281.178 486.198 280.889 485.873 280.601C485.714 280.46 485.511 280.264 485.331 280.018C485.19 279.826 484.834 279.304 484.825 278.56L484.815 277.91L485.161 277.357C486.059 275.92 487.648 275.422 488.621 275.218ZM492.846 279.68C495.728 281.214 501.161 283.638 508.242 286.383C513.252 288.325 516.723 289.863 519.722 290.73C521.762 291.32 524.458 291.3 527.013 291.024C529.054 290.803 530.845 290.436 531.878 290.207C531.842 290.027 531.776 289.801 531.671 289.521C531.467 288.976 530.896 288.278 529.294 287.333C527.708 286.397 525.495 285.432 522.49 284.16L522.468 284.152C521.384 283.692 520.809 283.426 517.405 282.722C513.924 282.002 507.635 280.889 504.166 280.302C498.897 279.701 497.308 279.117 492.259 279.364C492.448 279.465 492.642 279.572 492.846 279.68Z" fill="#1D1D25"/>
<path d="M245.228 390.916C247.334 390.556 248.706 390.379 249.125 390.381C249.95 390.357 253.939 390.522 260.176 391.968C263.724 392.79 266.365 392.624 268.149 394.263C268.938 394.988 269.536 396.006 269.503 397.171C269.476 398.107 269.325 399.074 268.756 400.007C268.151 401 267.232 402.212 263.64 404.806C260.753 406.891 255.821 410.433 252.787 412.322C248.859 414.768 245.411 416.253 239.591 417.418C236.303 418.077 232.334 418.8 228.806 418.826C222.301 418.876 218.099 418.651 216.305 417.942C214.339 417.165 211.805 416.103 211.714 414.108C211.668 413.116 211.794 412.122 212.213 411.253L212.22 411.238C212.624 410.401 213.212 409.18 217.276 406.341C220.75 403.914 226.914 399.592 231.787 397.024C239.692 392.859 243.553 391.201 245.228 390.916Z" fill="#F034ED"/>
<path d="M244.855 388.734C246.824 388.398 248.37 388.183 249.061 388.17L249.062 388.169C249.068 388.168 249.075 388.17 249.081 388.17C249.098 388.17 249.115 388.167 249.13 388.167L249.129 388.17C250.29 388.15 254.431 388.365 260.676 389.812C261.49 390 262.262 390.135 263.022 390.258C263.756 390.377 264.543 390.495 265.259 390.639C266.706 390.929 268.302 391.397 269.646 392.632C270.751 393.647 271.772 395.241 271.715 397.234C271.683 398.365 271.495 399.765 270.646 401.158C269.83 402.497 268.657 403.913 264.936 406.6C262.071 408.669 257.07 412.262 253.957 414.2C249.802 416.786 246.105 418.371 240.026 419.588C236.745 420.245 232.586 421.01 228.822 421.038C225.552 421.063 222.812 421.02 220.643 420.876C218.549 420.737 216.74 420.493 215.491 419.999C214.536 419.622 213.181 419.08 212.053 418.305C210.938 417.538 209.597 416.232 209.504 414.209C209.447 412.985 209.592 411.594 210.22 410.292L210.227 410.276C210.478 409.755 210.838 409.027 211.749 408.039C212.605 407.111 213.91 405.992 216.008 404.526C219.447 402.124 225.734 397.712 230.756 395.066C234.726 392.974 237.715 391.494 239.938 390.496C242.103 389.524 243.714 388.929 244.855 388.734ZM245.601 393.096C245.068 393.187 243.91 393.564 241.75 394.534C239.649 395.477 236.753 396.908 232.818 398.981C228.093 401.471 222.053 405.702 218.543 408.154C216.578 409.527 215.557 410.438 215.002 411.04C214.503 411.581 214.366 411.881 214.213 412.197L214.213 412.198L214.207 412.212C213.997 412.649 213.89 413.248 213.925 414.006C213.925 414.018 213.923 414.053 213.992 414.15C214.077 414.268 214.247 414.443 214.56 414.658C215.213 415.107 216.108 415.485 217.118 415.884C217.665 416.099 218.856 416.322 220.936 416.46C222.943 416.594 225.556 416.638 228.789 416.613C232.082 416.588 235.862 415.908 239.156 415.248C244.718 414.135 247.918 412.748 251.618 410.444C254.574 408.604 259.438 405.112 262.345 403.012C265.808 400.511 266.473 399.502 266.867 398.855C267.156 398.381 267.271 397.848 267.292 397.107C267.301 396.769 267.126 396.327 266.652 395.892C266.214 395.489 265.595 395.22 264.389 394.978C263.779 394.856 263.128 394.759 262.314 394.627C261.525 394.499 260.637 394.345 259.677 394.123C253.574 392.708 249.779 392.575 249.187 392.591L249.152 392.592L249.119 392.593C249.108 392.594 249.031 392.597 248.856 392.615C248.669 392.633 248.419 392.662 248.106 392.705C247.48 392.789 246.637 392.919 245.601 393.096Z" fill="#1D1D25"/>
<path d="M101.4 202.61C102.927 201.974 104.021 201.161 107.49 201.079C109.63 201.028 112.284 200.345 115.933 200.504C117.877 200.59 121.829 200.25 127.123 201.642C132.505 203.057 135.824 204.151 136.388 206.207C136.646 207.15 136.791 208.024 136.58 208.868C136.309 209.95 135.451 212.165 131.964 216.568C129.506 219.672 125.554 224.299 121.836 228.277C118.117 232.254 114.735 235.484 111.613 237.896C108.492 240.307 105.795 242.127 102.832 242.836C97.0423 244.222 93.7414 244.72 92.9257 244.483C90.705 243.837 86.8157 243.08 85.3589 238.695C84.1155 234.953 82.8573 227.115 86.1387 221.744C87.9391 218.797 91.1586 213.542 93.5041 210.501C96.762 206.277 98.8764 203.659 101.4 202.61Z" fill="#F034ED"/>
<path d="M103.03 199.534C104.165 199.164 105.524 198.912 107.437 198.866C108.376 198.844 109.379 198.686 110.896 198.514C112.336 198.351 114.041 198.206 116.03 198.293C117.709 198.367 122.087 198.03 127.685 199.502C130.354 200.204 132.704 200.872 134.469 201.666C136.145 202.42 137.959 203.572 138.521 205.623C138.801 206.647 139.08 207.985 138.725 209.404C138.348 210.915 137.282 213.417 133.698 217.942C131.201 221.095 127.21 225.768 123.452 229.788C119.694 233.808 116.22 237.133 112.966 239.647C109.843 242.06 106.815 244.158 103.346 244.988C100.426 245.687 98.0945 246.172 96.3681 246.452C95.5078 246.591 94.7628 246.687 94.153 246.728C93.6386 246.763 92.926 246.787 92.3083 246.607C90.3576 246.04 85.1416 245.058 83.259 239.392C82.5746 237.332 81.9038 234.217 81.8392 230.874C81.7751 227.55 82.3057 223.772 84.2501 220.59C86.0278 217.68 89.316 212.308 91.7511 209.15C93.3672 207.055 94.78 205.25 96.1244 203.839C97.4769 202.419 98.8855 201.259 100.549 200.567C101.027 200.368 102.05 199.854 103.03 199.534ZM93.4261 242.325C93.4655 242.325 93.5955 242.329 93.8526 242.312C94.272 242.283 94.8679 242.212 95.6583 242.083C97.2335 241.828 99.4476 241.372 102.316 240.685C104.773 240.097 107.14 238.554 110.26 236.144C113.249 233.834 116.54 230.701 120.219 226.766C123.897 222.832 127.809 218.25 130.228 215.195C133.617 210.915 134.268 208.985 134.432 208.331C134.499 208.064 134.489 207.653 134.253 206.793C134.252 206.788 134.124 206.364 132.654 205.703C131.273 205.082 129.271 204.496 126.559 203.783C121.57 202.471 118.043 202.812 115.836 202.716C114.175 202.643 112.728 202.76 111.394 202.911C110.137 203.053 108.744 203.262 107.542 203.291C105.986 203.328 105.063 203.525 104.402 203.741C103.587 204.007 103.299 204.216 102.249 204.652C101.39 205.01 100.479 205.683 99.3288 206.891C98.1708 208.106 96.8975 209.723 95.256 211.852C93.0005 214.776 89.8501 219.913 88.0269 222.897C86.69 225.085 86.2083 227.914 86.2638 230.788C86.3189 233.641 86.8995 236.315 87.4583 237.997C88.4733 241.051 90.9723 241.617 93.4261 242.325Z" fill="#1D1D25"/>
<path d="M204.363 60.474C195.989 58.5576 190.033 59.3512 189.614 56.6557C189.289 54.5593 194.422 54.2219 196.156 53.7424C198.402 53.2172 204.7 52.0214 212.592 51.4767C216.415 51.2129 219.071 50.7236 223.401 50.9219C233.961 51.4054 237.752 52.3599 238.579 54.1289C238.768 54.5334 238.884 55.0222 238.8 55.443C238.641 56.2341 238.267 56.9557 237.621 57.4288C236.357 58.3543 233.201 60.3935 223.751 61.1423C220.382 61.4093 216.12 61.5785 212.975 61.5273C209.83 61.4761 207.847 61.2714 204.363 60.474Z" fill="#F034ED"/>
<path d="M195.653 51.5878C198.01 51.0367 204.424 49.8222 212.439 49.269C216.042 49.0204 219.004 48.5056 223.502 48.7115C228.797 48.9539 232.546 49.3179 235.114 49.8812C236.398 50.163 237.505 50.5191 238.399 51.0046C239.197 51.4382 239.914 52.0257 240.393 52.8328L240.583 53.1913L240.694 53.4455C240.947 54.0731 241.155 54.9487 240.969 55.878C240.733 57.0533 240.135 58.3311 238.928 59.2147C237.263 60.4338 233.687 62.5753 223.925 63.3488C220.503 63.62 216.17 63.7927 212.939 63.7401C209.647 63.6866 207.51 63.4646 203.869 62.6313C199.794 61.6986 196.45 61.4499 193.685 61.046C192.391 60.857 191.07 60.6118 190.014 60.1393C188.873 59.6287 187.689 58.6787 187.428 56.9953C187.172 55.3505 188.109 54.2038 188.96 53.5894C189.749 53.0197 190.724 52.6828 191.519 52.4614C192.355 52.2287 193.237 52.061 193.958 51.9291C194.75 51.7841 195.255 51.6958 195.566 51.6099L195.609 51.5975L195.653 51.5878ZM212.744 53.6848C204.976 54.221 198.796 55.3982 196.66 55.8976L196.658 55.8964C196.109 56.0404 195.37 56.1687 194.755 56.2811C194.323 56.3602 193.895 56.4422 193.488 56.532C193.739 56.5765 194.017 56.6227 194.325 56.6677C196.736 57.0198 200.558 57.3326 204.856 58.3163C208.183 59.0777 210.012 59.266 213.01 59.3148C216.07 59.3646 220.26 59.1996 223.575 58.9369C232.712 58.2129 235.451 56.2755 236.314 55.6436C236.391 55.5872 236.513 55.4455 236.598 55.1236C236.594 55.1142 236.59 55.1047 236.586 55.0948C236.553 55.0624 236.467 54.9922 236.287 54.8943C235.908 54.6883 235.252 54.4431 234.166 54.2048C231.991 53.7277 228.564 53.373 223.3 53.132C219.137 52.9414 216.788 53.4057 212.744 53.6848Z" fill="#1D1D25"/>
<path d="M441.952 459.145C444.982 468.868 439.557 479.206 429.834 482.236C420.112 485.266 409.774 479.841 406.743 470.119C403.713 460.396 409.138 450.058 418.861 447.028C428.583 443.997 438.922 449.422 441.952 459.145Z" fill="#1D1D25"/>
<path d="M435.795 455.914C436.805 459.155 434.996 462.601 431.756 463.611C428.515 464.621 425.069 462.813 424.058 459.572C423.048 456.331 424.857 452.885 428.098 451.875C431.338 450.865 434.785 452.673 435.795 455.914Z" fill="#F6F6F9"/>
<path d="M352.714 477.322C352.969 474.483 355.479 472.387 358.319 472.642L382.531 474.825C384.431 474.996 386.083 476.202 386.825 477.959C387.567 479.717 387.279 481.74 386.077 483.221L370.794 502.057C368.998 504.271 365.745 504.609 363.531 502.812C361.317 501.015 360.979 497.763 362.776 495.549L371.952 484.239L357.393 482.928C354.554 482.672 352.458 480.162 352.714 477.322Z" fill="#1D1D25"/>
<path d="M424.275 496.051C426.363 495.752 427.816 495.941 429.172 496.193C431.065 496.544 432.513 497.216 433.523 497.785C434.465 498.317 435.364 498.916 436.074 499.748C436.828 500.632 437.147 501.54 437.295 501.924C437.983 503.709 437.746 505.361 437.608 506.114C437.423 507.126 436.857 508.114 436.516 508.688C436.473 508.762 436.426 508.835 436.38 508.911C436.809 508.983 437.184 509.059 437.5 509.135C438.97 509.49 440.317 510.325 441.086 510.797C442.153 511.451 443.285 512.642 444.102 513.492C445.283 514.721 445.769 516.171 446.157 517.358C446.929 519.72 446.963 521.824 446.828 523.082C446.663 524.626 445.87 526.228 445.253 527.404C444.322 529.178 442.987 530.405 442.124 531.184C440.71 532.462 438.988 533.238 437.524 533.83C435.253 534.747 433.142 535.046 431.632 535.119L431.347 535.132L431.064 535.102C429.344 534.919 427.599 534.451 426.255 533.96L426.242 533.955L426.23 533.951C426.203 533.941 426.177 533.93 426.152 533.921C424.758 533.629 423.6 532.54 423.294 531.056C422.883 529.061 424.166 527.11 426.161 526.699C427.191 526.487 428.012 526.76 428.226 526.829C428.41 526.889 428.683 526.993 428.794 527.035C429.617 527.334 430.638 527.605 431.567 527.732C432.438 527.666 433.572 527.471 434.761 526.991C436.122 526.441 436.795 526.059 437.181 525.711C438.013 524.96 438.455 524.487 438.722 523.977C439.024 523.402 439.233 522.962 439.368 522.626C439.449 522.426 439.482 522.311 439.494 522.269C439.532 521.871 439.54 520.854 439.147 519.649C438.951 519.049 438.841 518.766 438.763 518.603C438.754 518.583 438.746 518.569 438.741 518.558C438.287 518.087 437.928 517.72 437.629 517.439C437.292 517.121 437.181 517.055 437.229 517.085C436.813 516.829 436.492 516.64 436.21 516.496C436.074 516.427 435.969 516.38 435.89 516.348C435.851 516.333 435.822 516.322 435.801 516.315C435.784 516.31 435.774 516.307 435.772 516.307C435.217 516.173 434.018 515.959 432.355 516.004C431.675 516.022 431.104 516.102 430.487 516.242C429.715 516.416 429.234 516.551 428.765 516.778C428.743 516.789 428.72 516.799 428.698 516.81C428.175 517.138 427.71 517.403 427.324 517.614C426.704 517.953 426.263 518.113 426.004 518.206C425.957 518.223 425.712 518.313 425.397 518.372C425.322 518.386 424.771 518.5 424.084 518.382C423.735 518.322 422.884 518.127 422.12 517.376C421.192 516.462 420.936 515.28 421.042 514.335C421.129 513.56 421.438 513.017 421.57 512.804C421.729 512.547 421.887 512.362 421.977 512.263C422.157 512.065 422.32 511.929 422.387 511.874C422.536 511.752 422.669 511.664 422.722 511.629C422.938 511.486 423.201 511.339 423.404 511.229C423.791 511.018 424.346 510.733 425.054 510.384C425.618 510.015 426.25 509.555 426.913 508.969C427.722 508.253 428.323 507.676 428.739 507.086C429.4 506.148 429.87 505.433 430.173 504.924C430.269 504.762 430.336 504.637 430.383 504.547C430.384 504.532 430.384 504.518 430.384 504.506L430.384 504.505C430.282 504.437 430.128 504.339 429.9 504.21C429.38 503.917 428.706 503.609 427.826 503.445C426.92 503.277 426.332 503.208 425.32 503.353C424.357 503.49 422.898 503.759 421.742 504.052C421.089 504.218 420.606 504.347 420.222 504.471C419.826 504.6 419.703 504.67 419.715 504.663C419.02 505.082 418.616 505.399 418.404 505.589C418.305 505.678 418.257 505.73 418.246 505.743C417.172 507.377 414.998 507.898 413.296 506.895C411.542 505.86 410.958 503.599 411.993 501.845L412.129 501.626C412.848 500.528 414.095 499.438 415.91 498.345C417.149 497.598 418.779 497.195 419.927 496.903C421.385 496.533 423.108 496.218 424.275 496.051ZM427.309 533.976C427.42 533.965 427.533 533.948 427.65 533.924C427.536 533.948 427.422 533.964 427.309 533.976ZM427.01 533.995C427.023 533.994 427.035 533.992 427.048 533.992C427.035 533.992 427.023 533.994 427.01 533.995Z" fill="#1D1D25"/>
<g clip-path="url(#clip1_2228_7647)">
<path d="M514.581 205.289C515.099 205.451 515.946 205.337 516.564 205.178C533.293 200.751 545.273 193.078 548.558 182.577C551.288 173.852 547.226 165.815 539.24 163.317C534.655 161.883 530.109 163.437 526.587 166.909C525.664 162.074 522.798 158.174 518.238 156.747C510.252 154.249 502.334 158.537 499.604 167.263C496.319 177.764 501.679 190.996 512.99 204.06C513.432 204.55 514.064 205.127 514.581 205.289Z" fill="#F06334"/>
</g>
<g clip-path="url(#clip2_2228_7647)">
<path d="M565.875 109.825C566.233 109.741 566.688 109.381 566.994 109.075C575.221 100.705 579.555 92.0858 577.839 84.8242C576.413 78.79 571.263 75.5074 565.74 76.8127C562.57 77.562 560.456 80.0413 559.603 83.2847C557.392 80.7836 554.371 79.4998 551.217 80.2451C545.694 81.5503 542.559 86.7908 543.986 92.825C545.702 100.087 553.405 105.951 564.522 109.659C564.95 109.792 565.517 109.91 565.875 109.825Z" fill="#F06334"/>
</g>
</g>
<defs>
<clipPath id="clip0_2228_7647">
<rect width="649" height="649" fill="white"/>
</clipPath>
<clipPath id="clip1_2228_7647">
<rect width="61.7108" height="61.7108" fill="white" transform="translate(501.424 144) rotate(17.3713)"/>
</clipPath>
<clipPath id="clip2_2228_7647">
<rect width="41.8506" height="41.8506" fill="white" transform="translate(537 78.6257) rotate(-13.2971)"/>
</clipPath>
</defs>
</svg>
