<svg width="1643" height="243" viewBox="0 0 1643 243" fill="none" xmlns="http://www.w3.org/2000/svg">
<path d="M427.834 241.027V123.985H450.839L460.698 148.643V241.027H427.834ZM508.352 241.027L440.487 155.712L450.839 123.985L518.704 209.301L508.352 241.027ZM508.352 241.027L500.136 215.055V123.985H533V241.027H508.352Z" fill="#46475E"/>
<path d="M327.816 241.027V123.985H360.68V241.027H327.816ZM354.436 241.027V213.74H417.207V241.027H354.436ZM354.436 194.671V168.041H411.127V194.671H354.436ZM354.436 151.273V123.985H416.221V151.273H354.436Z" fill="#46475E"/>
<path d="M259.478 243C250.386 243 241.951 241.521 234.173 238.562C226.504 235.493 219.767 231.219 213.961 225.74C208.265 220.26 203.828 213.849 200.651 206.507C197.474 199.164 195.886 191.164 195.886 182.506C195.886 173.739 197.529 165.684 200.815 158.342C204.211 150.999 208.867 144.643 214.783 139.273C220.808 133.794 227.764 129.574 235.652 126.615C243.539 123.547 251.974 122.013 260.957 122.013C271.803 122.013 281.498 123.876 290.042 127.602C298.697 131.328 305.708 136.369 311.075 142.725L288.892 164.917C284.839 160.205 280.621 156.698 276.239 154.397C271.857 152.095 266.599 150.944 260.464 150.944C254.658 150.944 249.4 152.26 244.689 154.89C239.979 157.41 236.199 161.027 233.351 165.739C230.612 170.451 229.243 175.986 229.243 182.342C229.243 188.698 230.503 194.287 233.023 199.109C235.652 203.822 239.267 207.493 243.868 210.123C248.469 212.753 253.837 214.068 259.971 214.068C265.887 214.068 270.871 212.918 274.925 210.616C278.978 208.315 282.045 205.027 284.127 200.753C286.318 196.479 287.413 191.438 287.413 185.63L309.925 199.931L255.535 198.287V171.986H320.442V176.917C320.442 190.945 317.867 202.89 312.719 212.753C307.679 222.616 300.559 230.123 291.357 235.274C282.264 240.425 271.638 243 259.478 243Z" fill="#46475E"/>
<path d="M103.709 241.027V123.985H136.573V241.027H103.709ZM130.329 241.027V213.74H193.1V241.027H130.329ZM130.329 194.671V168.041H187.02V194.671H130.329ZM130.329 151.273V123.985H192.114V151.273H130.329Z" fill="#46475E"/>
<path d="M26.6202 194.342V171.657H46.5031C50.9946 171.657 54.3906 170.561 56.6911 168.369C59.1011 166.177 60.3062 163.273 60.3062 159.657C60.3062 156.04 59.1011 153.136 56.6911 150.944C54.3906 148.753 50.9946 147.657 46.5031 147.657H26.6202V123.985H51.7614C59.868 123.985 66.9886 125.465 73.1233 128.424C79.258 131.383 84.0781 135.492 87.5836 140.753C91.0892 146.013 92.8419 152.15 92.8419 159.164C92.8419 166.177 91.0344 172.315 87.4193 177.575C83.9138 182.835 78.9841 186.945 72.6303 189.904C66.2765 192.863 58.7725 194.342 50.1182 194.342H26.6202ZM0 241.027V123.985H32.8644V241.027H0ZM63.0996 241.027L31.2212 191.054L60.7991 184.643L100.401 241.027H63.0996Z" fill="#46475E"/>
<path d="M417.629 36.3515C412.48 36.3515 408.207 34.5981 404.811 31.0912C401.416 27.5843 399.718 23.3103 399.718 18.2692C399.718 13.1185 401.416 8.78966 404.811 5.28278C408.207 1.7759 412.48 0.0224609 417.629 0.0224609C422.777 0.0224609 426.995 1.7759 430.281 5.28278C433.677 8.78966 435.375 13.1185 435.375 18.2692C435.375 23.3103 433.677 27.5843 430.281 31.0912C426.995 34.5981 422.777 36.3515 417.629 36.3515Z" fill="#46475E"/>
<path d="M303.745 117.042V0H336.61V117.042H303.745ZM330.365 75.4527V48.1648H387.878V75.4527H330.365ZM330.365 27.2879V0H390.343V27.2879H330.365Z" fill="#46475E"/>
<path d="M203.727 117.042V0H236.591V117.042H203.727ZM230.347 117.042V89.7542H293.118V117.042H230.347ZM230.347 70.6855V44.0552H287.038V70.6855H230.347ZM230.347 27.2879V0H292.132V27.2879H230.347Z" fill="#46475E"/>
<path d="M103.709 117.042V0H136.573V117.042H103.709ZM130.329 117.042V89.7542H193.1V117.042H130.329ZM130.329 70.6855V44.0552H187.02V70.6855H130.329ZM130.329 27.2879V0H192.114V27.2879H130.329Z" fill="#46475E"/>
<path d="M26.6202 70.3568V47.6716H46.5031C50.9946 47.6716 54.3906 46.5757 56.6911 44.3839C59.1011 42.1921 60.3062 39.288 60.3062 35.6715C60.3062 32.0551 59.1011 29.1509 56.6911 26.9591C54.3906 24.7673 50.9946 23.6714 46.5031 23.6714H26.6202V0H51.7614C59.868 0 66.9886 1.47946 73.1233 4.43839C79.258 7.39732 84.0781 11.5069 87.5836 16.7673C91.0892 22.0276 92.8419 28.1646 92.8419 35.1784C92.8419 42.1921 91.0344 48.3292 87.4193 53.5895C83.9138 58.8498 78.9841 62.9594 72.6303 65.9184C66.2765 68.8773 58.7725 70.3568 50.1182 70.3568H26.6202ZM0 117.042V0H32.8644V117.042H0ZM63.0996 117.042L31.2212 67.0691L60.7991 60.6581L100.401 117.042H63.0996Z" fill="#46475E"/>
<path d="M660.166 1.97254V119.015H637.161L627.302 94.3569V1.97254H660.166ZM579.648 1.97254L647.513 87.2884L637.161 119.015L569.296 33.6988L579.648 1.97254ZM579.648 1.97254L587.864 27.9454V119.015H555V1.97254H579.648Z" fill="#46475E"/>
<path d="M760.184 1.97254V119.015H727.32V1.97254H760.184ZM733.564 1.97254V29.2604H670.793V1.97254H733.564ZM733.564 48.3291V74.9595H676.873V48.3291H733.564ZM733.564 91.7267V119.015H671.779V91.7267H733.564Z" fill="#46475E"/>
<path d="M828.522 -5.56876e-05C837.614 -5.56876e-05 846.049 1.47942 853.827 4.43835C861.496 7.50687 868.233 11.7809 874.039 17.2604C879.735 22.7399 884.172 29.1509 887.349 36.4934C890.526 43.8359 892.114 51.836 892.114 60.4936C892.114 69.2608 890.471 77.3157 887.185 84.6582C883.789 92.0008 879.133 98.357 873.217 103.727C867.192 109.206 860.236 113.426 852.348 116.385C844.461 119.453 836.026 120.987 827.043 120.987C816.197 120.987 806.502 119.124 797.958 115.398C789.303 111.672 782.292 106.631 776.925 100.275L799.108 78.0828C803.161 82.7952 807.379 86.3021 811.761 88.6035C816.143 90.9049 821.401 92.0555 827.536 92.0555C833.342 92.0555 838.6 90.7405 843.311 88.1103C848.021 85.5897 851.801 81.9733 854.649 77.2609C857.388 72.5485 858.757 67.0142 858.757 60.658C858.757 54.3018 857.497 48.7127 854.977 43.8907C852.348 39.1784 848.733 35.5071 844.132 32.877C839.531 30.2468 834.163 28.9317 828.029 28.9317C822.113 28.9317 817.129 30.0824 813.075 32.3838C809.022 34.6852 805.955 37.9729 803.873 42.2469C801.682 46.5209 800.587 51.562 800.587 57.3703L778.075 43.0688L832.465 44.7127V71.0143H767.558V66.0827C767.558 52.0552 770.133 40.1099 775.281 30.2468C780.321 20.3837 787.441 12.8768 796.643 7.72605C805.736 2.57532 816.362 -5.56876e-05 828.522 -5.56876e-05Z" fill="#46475E"/>
<path d="M984.291 1.97254V119.015H951.427V1.97254H984.291ZM957.671 1.97254V29.2604H894.9V1.97254H957.671ZM957.671 48.3291V74.9595H900.98V48.3291H957.671ZM957.671 91.7267V119.015H895.886V91.7267H957.671Z" fill="#46475E"/>
<path d="M1061.38 48.6579V71.343H1041.5C1037.01 71.343 1033.61 72.4389 1031.31 74.6307C1028.9 76.8225 1027.69 79.7266 1027.69 83.3431C1027.69 86.9596 1028.9 89.8637 1031.31 92.0555C1033.61 94.2473 1037.01 95.3432 1041.5 95.3432H1061.38V119.015H1036.24C1028.13 119.015 1021.01 117.535 1014.88 114.576C1008.74 111.617 1003.92 107.508 1000.42 102.247C996.911 96.9871 995.158 90.85 995.158 83.8363C995.158 76.8225 996.966 70.6855 1000.58 65.4252C1004.09 60.1648 1009.02 56.0552 1015.37 53.0963C1021.72 50.1373 1029.23 48.6579 1037.88 48.6579H1061.38ZM1088 1.97254V119.015H1055.14V1.97254H1088ZM1024.9 1.97254L1056.78 51.9456L1027.2 58.3566L987.599 1.97254H1024.9Z" fill="#46475E"/>
<path d="M670.371 206.648C675.52 206.648 679.793 208.402 683.189 211.909C686.584 215.416 688.282 219.69 688.282 224.731C688.282 229.882 686.584 234.21 683.189 237.717C679.793 241.224 675.52 242.978 670.371 242.978C665.223 242.978 661.005 241.224 657.719 237.717C654.323 234.21 652.625 229.882 652.625 224.731C652.625 219.69 654.323 215.416 657.719 211.909C661.005 208.402 665.223 206.648 670.371 206.648Z" fill="#46475E"/>
<path d="M784.255 125.958V243H751.39V125.958H784.255ZM757.635 167.547V194.835H700.122V167.547H757.635ZM757.635 215.712V243H697.657V215.712H757.635Z" fill="#46475E"/>
<path d="M884.273 125.958V243H851.409V125.958H884.273ZM857.653 125.958V153.246H794.882V125.958H857.653ZM857.653 172.314V198.945H800.962V172.314H857.653ZM857.653 215.712V243H795.868V215.712H857.653Z" fill="#46475E"/>
<path d="M984.291 125.958V243H951.427V125.958H984.291ZM957.671 125.958V153.246H894.9V125.958H957.671ZM957.671 172.314V198.945H900.98V172.314H957.671ZM957.671 215.712V243H895.886V215.712H957.671Z" fill="#46475E"/>
<path d="M1061.38 172.643V195.328H1041.5C1037.01 195.328 1033.61 196.424 1031.31 198.616C1028.9 200.808 1027.69 203.712 1027.69 207.328C1027.69 210.945 1028.9 213.849 1031.31 216.041C1033.61 218.233 1037.01 219.329 1041.5 219.329H1061.38V243H1036.24C1028.13 243 1021.01 241.521 1014.88 238.562C1008.74 235.603 1003.92 231.493 1000.42 226.233C996.911 220.972 995.158 214.835 995.158 207.822C995.158 200.808 996.966 194.671 1000.58 189.41C1004.09 184.15 1009.02 180.041 1015.37 177.082C1021.72 174.123 1029.23 172.643 1037.88 172.643H1061.38ZM1088 125.958V243H1055.14V125.958H1088ZM1024.9 125.958L1056.78 175.931L1027.2 182.342L987.599 125.958H1024.9Z" fill="#46475E"/>
<path d="M1537.83 241.027V123.985H1560.84L1570.7 148.643V241.027H1537.83ZM1618.35 241.027L1550.49 155.712L1560.84 123.985L1628.7 209.301L1618.35 241.027ZM1618.35 241.027L1610.14 215.055V123.985H1643V241.027H1618.35Z" fill="#46475E"/>
<path d="M1437.82 241.027V123.985H1470.68V241.027H1437.82ZM1464.44 241.027V213.74H1527.21V241.027H1464.44ZM1464.44 194.671V168.041H1521.13V194.671H1464.44ZM1464.44 151.273V123.985H1526.22V151.273H1464.44Z" fill="#46475E"/>
<path d="M1369.48 243C1360.39 243 1351.95 241.521 1344.17 238.562C1336.5 235.493 1329.77 231.219 1323.96 225.74C1318.26 220.26 1313.83 213.849 1310.65 206.507C1307.47 199.164 1305.89 191.164 1305.89 182.506C1305.89 173.739 1307.53 165.684 1310.82 158.342C1314.21 150.999 1318.87 144.643 1324.78 139.273C1330.81 133.794 1337.76 129.574 1345.65 126.615C1353.54 123.547 1361.97 122.013 1370.96 122.013C1381.8 122.013 1391.5 123.876 1400.04 127.602C1408.7 131.328 1415.71 136.369 1421.08 142.725L1398.89 164.917C1394.84 160.205 1390.62 156.698 1386.24 154.397C1381.86 152.095 1376.6 150.944 1370.46 150.944C1364.66 150.944 1359.4 152.26 1354.69 154.89C1349.98 157.41 1346.2 161.027 1343.35 165.739C1340.61 170.451 1339.24 175.986 1339.24 182.342C1339.24 188.698 1340.5 194.287 1343.02 199.109C1345.65 203.822 1349.27 207.493 1353.87 210.123C1358.47 212.753 1363.84 214.068 1369.97 214.068C1375.89 214.068 1380.87 212.918 1384.92 210.616C1388.98 208.315 1392.05 205.027 1394.13 200.753C1396.32 196.479 1397.41 191.438 1397.41 185.63L1419.93 199.931L1365.53 198.287V171.986H1430.44V176.917C1430.44 190.945 1427.87 202.89 1422.72 212.753C1417.68 222.616 1410.56 230.123 1401.36 235.274C1392.26 240.425 1381.64 243 1369.48 243Z" fill="#46475E"/>
<path d="M1213.71 241.027V123.985H1246.57V241.027H1213.71ZM1240.33 241.027V213.74H1303.1V241.027H1240.33ZM1240.33 194.671V168.041H1297.02V194.671H1240.33ZM1240.33 151.273V123.985H1302.11V151.273H1240.33Z" fill="#46475E"/>
<path d="M1136.62 194.342V171.657H1156.5C1160.99 171.657 1164.39 170.561 1166.69 168.369C1169.1 166.177 1170.31 163.273 1170.31 159.657C1170.31 156.04 1169.1 153.136 1166.69 150.944C1164.39 148.753 1160.99 147.657 1156.5 147.657H1136.62V123.985H1161.76C1169.87 123.985 1176.99 125.465 1183.12 128.424C1189.26 131.383 1194.08 135.492 1197.58 140.753C1201.09 146.013 1202.84 152.15 1202.84 159.164C1202.84 166.177 1201.03 172.315 1197.42 177.575C1193.91 182.835 1188.98 186.945 1182.63 189.904C1176.28 192.863 1168.77 194.342 1160.12 194.342H1136.62ZM1110 241.027V123.985H1142.86V241.027H1110ZM1173.1 241.027L1141.22 191.054L1170.8 184.643L1210.4 241.027H1173.1Z" fill="#46475E"/>
<path d="M1527.63 36.3515C1522.48 36.3515 1518.21 34.5981 1514.81 31.0912C1511.42 27.5843 1509.72 23.3103 1509.72 18.2692C1509.72 13.1185 1511.42 8.78966 1514.81 5.28278C1518.21 1.7759 1522.48 0.0224609 1527.63 0.0224609C1532.78 0.0224609 1537 1.7759 1540.28 5.28278C1543.68 8.78966 1545.38 13.1185 1545.38 18.2692C1545.38 23.3103 1543.68 27.5843 1540.28 31.0912C1537 34.5981 1532.78 36.3515 1527.63 36.3515Z" fill="#46475E"/>
<path d="M1413.75 117.042V0H1446.61V117.042H1413.75ZM1440.37 75.4527V48.1648H1497.88V75.4527H1440.37ZM1440.37 27.2879V0H1500.34V27.2879H1440.37Z" fill="#46475E"/>
<path d="M1313.73 117.042V0H1346.59V117.042H1313.73ZM1340.35 117.042V89.7542H1403.12V117.042H1340.35ZM1340.35 70.6855V44.0552H1397.04V70.6855H1340.35ZM1340.35 27.2879V0H1402.13V27.2879H1340.35Z" fill="#46475E"/>
<path d="M1213.71 117.042V0H1246.57V117.042H1213.71ZM1240.33 117.042V89.7542H1303.1V117.042H1240.33ZM1240.33 70.6855V44.0552H1297.02V70.6855H1240.33ZM1240.33 27.2879V0H1302.11V27.2879H1240.33Z" fill="#46475E"/>
<path d="M1136.62 70.3568V47.6716H1156.5C1160.99 47.6716 1164.39 46.5757 1166.69 44.3839C1169.1 42.1921 1170.31 39.288 1170.31 35.6715C1170.31 32.0551 1169.1 29.1509 1166.69 26.9591C1164.39 24.7673 1160.99 23.6714 1156.5 23.6714H1136.62V0H1161.76C1169.87 0 1176.99 1.47946 1183.12 4.43839C1189.26 7.39732 1194.08 11.5069 1197.58 16.7673C1201.09 22.0276 1202.84 28.1646 1202.84 35.1784C1202.84 42.1921 1201.03 48.3292 1197.42 53.5895C1193.91 58.8498 1188.98 62.9594 1182.63 65.9184C1176.28 68.8773 1168.77 70.3568 1160.12 70.3568H1136.62ZM1110 117.042V0H1142.86V117.042H1110ZM1173.1 117.042L1141.22 67.0691L1170.8 60.6581L1210.4 117.042H1173.1Z" fill="#46475E"/>
</svg>
