<svg width="436" height="436" viewBox="0 0 436 436" fill="none" xmlns="http://www.w3.org/2000/svg">
<g filter="url(#filter0_d_2194_10050)">
<path d="M277.355 11.5446C284.111 7.91789 294.866 4.41936 305.933 9.67731L306.46 9.93456L307.107 10.2635C320.661 17.2791 331.944 30.6687 336.422 46.7497C341.203 63.9202 338.037 83.5285 323.353 100.635C312.678 113.07 298.351 127.209 289.828 136.569C285.049 141.816 281.444 146.18 279.029 149.819C276.42 153.752 276.367 155.136 276.41 154.618C276.183 157.314 276.242 162.377 276.501 169.922C276.742 176.948 277.132 185.704 277.313 194.265C277.495 202.863 277.487 211.953 276.872 220.127C276.303 227.688 275.088 236.824 271.586 244.072C269.43 248.536 267.096 252.829 264.994 256.653C262.813 260.621 260.96 263.95 259.369 267.101C257.776 270.257 256.794 272.569 256.262 274.278C256.033 275.014 255.945 275.462 255.912 275.666C256.075 277.109 256.119 278.535 256.069 279.934C258.516 283.026 260.708 286.323 262.623 289.435C267.521 297.39 273.116 308.58 275.752 313.275C277.457 316.312 280.655 319.448 286.694 324.313C291.8 328.427 300.08 334.573 306.233 342.044C310.942 347.763 313.748 354.776 313.388 362.504C313.046 369.822 309.96 375.74 306.828 379.949C300.857 387.972 291.939 393.542 285.808 396.735C278.614 400.482 267.734 403.741 259.437 406.194C249.663 409.083 242.753 411.061 239.534 412.517C234.305 414.883 227.512 415.854 222.415 416.382C216.577 416.988 209.94 417.27 203.497 417.27C197.058 417.27 190.46 416.988 184.705 416.378C179.878 415.867 172.842 414.89 167.503 412.22C167.735 412.337 166.705 411.867 163.228 411.209C160.104 410.618 156.273 410.092 151.697 409.504C143.194 408.412 131.703 407.095 122.359 404.595C111.254 401.623 102.016 395.912 95.8647 386.764C89.9943 378.034 88.3096 368.179 88.0337 359.487C87.7237 349.723 89.5495 341.684 93.7206 334.41C97.212 328.322 102.446 323.034 105.241 319.91C112.615 311.669 132.082 290.459 145.274 280.005C147.306 278.395 149.422 276.949 151.576 275.652C150.717 271.135 149.91 266.163 149.148 261.122C146.984 246.826 145.163 232.147 143.14 220.362C141.609 216.285 139.613 210.693 137.947 205.407C137.004 202.411 136.082 199.248 135.417 196.394C135.086 194.975 134.76 193.387 134.544 191.793C134.461 191.177 134.347 190.253 134.296 189.135C133.994 188.837 133.636 188.492 133.205 188.085C130.708 185.727 128.136 182.997 126.172 179.412C125.202 177.641 124.598 176.059 124.196 174.898C124.009 174.358 123.842 173.839 123.732 173.494C123.606 173.101 123.521 172.835 123.424 172.542C120.307 163.19 124.907 155.945 127.523 152.922C128.831 151.41 130.304 150.139 131.481 149.219C131.319 148.385 131.146 147.541 130.956 146.614C130.757 145.638 130.53 144.525 130.333 143.461C130.142 142.425 129.923 141.141 129.778 139.828C129.662 138.782 129.437 136.474 129.786 133.857C130.745 126.663 135.204 122.239 137.144 120.515C138.808 119.036 140.546 117.869 142.041 116.983C140.734 109.208 143.479 102.73 146.845 98.2656C149.653 94.5422 153.341 91.6251 155.652 89.8362C155.732 89.7537 156.048 89.4348 156.618 88.7655C157.479 87.7534 158.518 86.417 159.656 84.8597C161.795 81.9327 163.881 78.775 165.198 76.6819C171.22 65.6934 178.765 53.244 187.087 43.7387C191.292 38.9346 196.411 34.0432 202.394 30.6239C208.509 27.129 216.864 24.4699 226.167 26.8586C234.626 29.0304 242.034 33.2771 248.173 38.9777C251.464 34.7164 254.987 30.5113 258.627 26.6669C263.906 21.0902 270.301 15.3308 277.355 11.5446Z" fill="#F6F6F9"/>
<path d="M157.417 292.009C166.851 284.533 179.74 281.626 185.006 281.107C197.614 280.217 224.921 278.971 233.286 281.107C243.743 283.777 254.2 307.361 261.32 320.043C268.44 332.725 284.236 340.067 293.581 351.414C302.926 362.761 289.354 373.44 278.674 379.003C267.995 384.565 242.631 390.127 233.286 394.354C223.942 398.582 185.006 398.582 176.551 394.354C168.097 390.127 143.845 389.682 128.049 385.455C112.252 381.227 107.357 370.993 106.912 356.976C106.467 342.959 112.029 338.287 119.594 329.832C127.159 321.378 145.625 301.354 157.417 292.009Z" fill="#CCDDC6"/>
<path d="M210.696 277.473C215.446 277.394 220.092 277.411 224.094 277.583C228.041 277.753 231.542 278.081 233.905 278.685C237.22 279.531 240.239 281.931 242.916 284.841C245.635 287.795 248.241 291.544 250.683 295.51C255.506 303.344 260.069 312.71 263.499 318.819C266.799 324.696 272.172 329.44 278.184 334.282C284.064 339.019 290.631 343.898 295.511 349.824C298.18 353.066 299.351 356.453 299.193 359.846C299.037 363.18 297.612 366.223 295.642 368.87C291.743 374.109 285.279 378.381 279.828 381.22C274.228 384.137 264.955 386.985 256.188 389.576C247.213 392.229 238.785 394.611 234.317 396.632C231.574 397.873 227.022 398.69 221.926 399.219C216.726 399.758 210.63 400.024 204.585 400.025C198.541 400.025 192.499 399.759 187.406 399.219C182.443 398.693 178 397.874 175.433 396.591C173.649 395.699 170.839 394.928 167.162 394.232C163.535 393.545 159.286 392.968 154.735 392.384C145.723 391.226 135.503 390.038 127.402 387.87C119.053 385.636 113.309 381.726 109.649 376.281C106.027 370.896 104.643 364.3 104.413 357.056C104.179 349.661 105.534 344.515 108.08 340.075C110.531 335.802 114.087 332.238 117.731 328.165C125.269 319.74 143.876 299.55 155.865 290.05C165.811 282.168 179.228 279.165 184.761 278.619L184.829 278.613C191.167 278.166 201.192 277.629 210.696 277.473ZM223.878 282.578C220.013 282.412 215.475 282.394 210.778 282.472C201.404 282.626 191.494 283.156 185.222 283.598C180.205 284.099 167.874 286.913 158.97 293.969C147.375 303.157 129.049 323.014 121.457 331.499C117.537 335.881 114.529 338.881 112.418 342.562C110.403 346.075 109.2 350.275 109.41 356.897C109.625 363.669 110.912 369.199 113.798 373.491C116.645 377.725 121.247 381.047 128.695 383.04C136.39 385.099 146.194 386.246 155.371 387.425C159.914 388.008 164.301 388.601 168.092 389.318C171.834 390.027 175.226 390.897 177.669 392.118C179.33 392.949 182.925 393.715 187.932 394.246C192.809 394.763 198.67 395.025 204.585 395.025C210.499 395.024 216.418 394.763 221.41 394.245C226.506 393.717 230.325 392.949 232.255 392.076C237.132 389.87 246.058 387.357 254.771 384.781C263.691 382.144 272.44 379.431 277.519 376.785C282.747 374.062 288.41 370.213 291.631 365.885C293.221 363.749 294.104 361.646 294.199 359.613C294.291 357.638 293.653 355.435 291.651 353.003C287.186 347.582 281.181 343.117 275.047 338.176C269.045 333.34 262.96 328.072 259.14 321.267C255.45 314.695 251.224 305.926 246.425 298.131C244.056 294.283 241.642 290.841 239.237 288.227C236.789 285.567 234.58 284.018 232.667 283.529C230.847 283.065 227.797 282.747 223.878 282.578Z" fill="#1D1D25"/>
<path d="M248 65.5857C237.091 52.5857 234.755 45.2151 222.829 42.153C209.216 38.6578 193.474 62.0838 181.639 83.7588C178.682 88.5052 171.79 98.7546 167.874 101.78C162.979 105.563 159.864 108.455 160.754 112.46C161.644 116.465 160.977 126.699 158.974 127.367C156.972 128.034 148.962 130.927 148.517 134.264C148.072 137.601 152.522 150.505 150.52 154.955C148.517 159.405 140.285 161.63 141.398 164.968C142.51 168.305 142.51 169.417 146.515 173.2C150.52 176.982 153.857 180.542 153.19 185.437C152.656 189.352 158.489 205.906 161.472 213.693C165.824 238.218 169.654 279.327 174.771 285.779C179.888 292.231 192.526 302.243 207.477 304.023C226.166 306.248 240.628 285.779 239.293 275.545C237.958 265.31 248.909 250.403 256.647 234.384C264.386 218.365 258.427 166.97 259.762 151.173C261.097 135.376 289.353 112.237 310.935 87.0959C332.516 61.9546 318.277 33.2534 299.588 23.9088C284.637 16.4331 258.853 46.0857 248 65.5857Z" fill="#DDC54C"/>
<path d="M223.667 241.253C223.667 244.474 221.055 247.086 217.833 247.086C214.612 247.086 212 244.474 212 241.253C212 238.031 214.612 235.419 217.833 235.419C221.055 235.419 223.667 238.031 223.667 241.253Z" fill="#1D1D25"/>
<path d="M221.333 239.503C221.333 240.469 220.55 241.253 219.583 241.253C218.617 241.253 217.833 240.469 217.833 239.503C217.833 238.536 218.617 237.753 219.583 237.753C220.55 237.753 221.333 238.536 221.333 239.503Z" fill="#F6F6F9"/>
<path d="M243.667 238.919C243.667 242.141 241.055 244.753 237.833 244.753C234.612 244.753 232 242.141 232 238.919C232 235.698 234.612 233.086 237.833 233.086C241.055 233.086 243.667 235.698 243.667 238.919Z" fill="#1D1D25"/>
<path d="M241.333 237.169C241.333 238.136 240.55 238.919 239.583 238.919C238.617 238.919 237.833 238.136 237.833 237.169C237.833 236.203 238.617 235.419 239.583 235.419C240.55 235.419 241.333 236.203 241.333 237.169Z" fill="#F6F6F9"/>
<path d="M234.074 253.811C229.326 256.395 225.479 256.732 219.893 255.78C218.5 255.543 217.316 256.719 217.841 258.031C219.103 261.187 222.064 265.779 228.5 265.086C234.857 264.402 236.487 259.011 236.857 255.39C237.01 253.893 235.395 253.092 234.074 253.811Z" fill="#1D1D25"/>
<path d="M229 264.586C232.473 264.119 234.363 262.1 235.377 260.274C236.117 258.941 234.797 257.867 233.461 258.603C232.181 259.308 231.016 259.945 230 260.086C228.874 260.243 225.632 260.179 222.589 260.128C221.022 260.101 220.225 261.72 221.481 262.656C223.148 263.899 225.655 265.036 229 264.586Z" fill="#F6A17B"/>
<path d="M248 65.5857C258.853 46.0858 284.636 16.4336 299.588 23.909C318.277 33.2535 332.516 61.9543 310.935 87.0955L309.919 88.2732C288.477 112.959 261.077 135.623 259.763 151.173L259.705 151.939C258.61 168.567 264.265 218.616 256.647 234.385L255.913 235.883C248.236 251.33 238 265.63 239.293 275.545C240.617 285.699 226.392 305.928 207.915 304.071L207.477 304.023C192.994 302.299 180.681 292.849 175.273 286.394L174.771 285.779C169.654 279.327 165.824 238.218 161.472 213.693C158.489 205.906 152.655 189.352 153.189 185.436C153.815 180.848 150.921 177.432 147.258 173.907L146.515 173.2C143.011 169.891 142.572 168.625 141.772 166.125L141.397 164.968C140.285 161.63 148.517 159.405 150.519 154.955C152.521 150.505 148.073 137.602 148.517 134.264C148.907 131.344 155.088 128.764 157.969 127.718L158.974 127.367C160.914 126.72 161.601 117.095 160.833 112.853L160.755 112.46C159.865 108.455 162.979 105.562 167.874 101.78C171.79 98.7541 178.682 88.505 181.639 83.7586C193.474 62.0836 209.216 38.658 222.829 42.1531C234.755 45.2153 237.091 52.5857 248 65.5857ZM249.03 87.0955C249.03 82.3515 247.96 75.625 246.72 70.4178C245.736 70.1572 244.842 69.6002 244.17 68.7996C241.352 65.4413 239.091 62.4511 237.152 59.8846C235.179 57.2727 233.622 55.2152 232.066 53.4734C229.175 50.236 226.436 48.2413 221.586 46.9959C219.84 46.5477 217.657 46.8369 214.796 48.4725C211.897 50.1293 208.705 52.9536 205.329 56.8104C198.586 64.5127 191.903 75.3935 186.027 86.1551C185.981 86.2388 185.933 86.3211 185.883 86.4021C184.352 88.8588 181.821 92.7134 179.153 96.365C176.621 99.83 173.534 103.726 170.931 105.737C168.439 107.663 166.957 108.959 166.137 110.048C165.495 110.898 165.587 111.156 165.636 111.376C166.246 114.125 166.253 118.288 165.926 121.649C165.757 123.377 165.473 125.195 165.016 126.738C164.792 127.495 164.466 128.399 163.965 129.246C163.542 129.96 162.518 131.456 160.555 132.11C159.651 132.412 157.451 133.2 155.504 134.232C154.633 134.694 153.973 135.121 153.539 135.473C153.597 135.964 153.697 136.591 153.841 137.37C154.184 139.229 154.55 140.839 155.013 143.249C155.424 145.392 155.827 147.772 155.977 149.974C156.114 151.979 156.12 154.693 155.079 157.007C154.139 159.096 152.612 160.641 151.344 161.726C150.079 162.808 148.633 163.787 147.672 164.465C147.281 164.74 146.969 164.97 146.719 165.159C146.932 165.818 147.039 166.118 147.257 166.515C147.525 167.005 148.085 167.805 149.948 169.564C153.637 173.048 159.205 178.324 158.143 186.112C158.17 185.917 158.127 186.064 158.224 186.784C158.31 187.415 158.47 188.248 158.709 189.273C159.186 191.321 159.916 193.864 160.781 196.61C162.291 201.403 164.139 206.586 165.56 210.372L166.141 211.904L166.222 212.128C166.296 212.354 166.354 212.585 166.395 212.819C168.582 225.143 170.671 241.842 172.778 255.765C173.845 262.818 174.919 269.187 176.026 274.155C176.581 276.642 177.123 278.684 177.647 280.239C177.908 281.014 178.146 281.611 178.353 282.053C178.57 282.515 178.694 282.68 178.688 282.673C183.213 288.377 194.75 297.473 208.068 299.058C215.349 299.925 222.169 296.407 227.261 291.021C229.778 288.359 231.717 285.387 232.935 282.614C234.192 279.754 234.507 277.514 234.335 276.191C233.872 272.644 234.506 269.016 235.579 265.564C236.659 262.09 238.286 258.483 240.104 254.881C241.923 251.277 244.032 247.492 246.101 243.726C248.193 239.92 250.273 236.085 252.145 232.209C253.64 229.115 254.68 223.72 255.225 216.471C255.758 209.393 255.784 201.161 255.607 192.801C255.43 184.429 255.056 176.122 254.804 168.758C254.556 161.539 254.417 155.053 254.78 150.752C255.22 145.548 257.788 140.29 261.12 135.267C264.507 130.162 269.043 124.781 274.059 119.272C284.383 107.937 296.318 96.4484 307.141 83.8396C316.838 72.5432 318.299 60.8089 315.546 50.9197C312.727 40.7964 305.434 32.4214 297.352 28.3807C295.466 27.4374 292.726 27.3818 288.735 29.1121C284.767 30.833 280.276 34.0393 275.646 38.3074C266.409 46.8233 257.568 58.6769 252.369 68.0174C252.144 68.4221 251.864 68.7864 251.546 69.1072C252.879 74.6575 254.03 81.8442 254.03 87.0955C254.03 94.2676 253.002 101.726 252.179 107.898C251.762 111.019 251.402 113.782 251.227 116.091C251.047 118.472 251.096 120.057 251.329 120.955C251.424 121.321 251.434 121.704 251.36 122.074C250.547 126.125 248.345 129.445 245.92 132.213C243.544 134.924 240.673 137.392 238.577 139.404C230.867 146.806 223.922 152.755 220.3 155.72C222.109 160.082 224.562 166.381 226.803 172.942C229.347 180.393 231.682 188.367 232.429 194.244C233.341 201.427 233.674 211.64 233.253 221.64C232.833 231.592 231.656 241.615 229.428 248.302C228.991 249.611 227.575 250.319 226.265 249.883C224.956 249.446 224.248 248.03 224.684 246.721C226.683 240.725 227.843 231.28 228.258 221.43C228.671 211.63 228.336 201.708 227.469 194.874C226.791 189.537 224.602 181.974 222.07 174.558C219.554 167.19 216.762 160.15 214.967 155.935C214.524 154.898 214.832 153.692 215.718 152.993C218.471 150.82 226.271 144.287 235.114 135.798C237.499 133.508 239.97 131.415 242.159 128.917C244.177 126.614 245.702 124.225 246.348 121.573C246.039 119.9 246.081 117.842 246.242 115.715C246.429 113.237 246.81 110.326 247.222 107.237C248.056 100.988 249.03 93.8733 249.03 87.0955Z" fill="#1D1D25"/>
</g>
<defs>
<filter id="filter0_d_2194_10050" x="82.1983" y="5.06609" width="262.094" height="421.873" filterUnits="userSpaceOnUse" color-interpolation-filters="sRGB">
<feFlood flood-opacity="0" result="BackgroundImageFix"/>
<feColorMatrix in="SourceAlpha" type="matrix" values="0 0 0 0 0 0 0 0 0 0 0 0 0 0 0 0 0 0 127 0" result="hardAlpha"/>
<feOffset dy="3.86782"/>
<feGaussianBlur stdDeviation="2.90086"/>
<feComposite in2="hardAlpha" operator="out"/>
<feColorMatrix type="matrix" values="0 0 0 0 0 0 0 0 0 0 0 0 0 0 0 0 0 0 0.15 0"/>
<feBlend mode="normal" in2="BackgroundImageFix" result="effect1_dropShadow_2194_10050"/>
<feBlend mode="normal" in="SourceGraphic" in2="effect1_dropShadow_2194_10050" result="shape"/>
</filter>
</defs>
</svg>
