<svg width="634" height="634" viewBox="0 0 634 634" fill="none" xmlns="http://www.w3.org/2000/svg">
<g clip-path="url(#clip0_2215_9653)">
<g filter="url(#filter0_d_2215_9653)">
<path d="M510.826 221.079C523.397 222.01 529.051 231.809 530.55 234.613C531.156 235.747 531.725 236.996 532.089 237.812C532.576 238.037 533.259 238.319 534.195 238.641C545.732 242.618 551.723 251.458 553.627 253.836C553.844 254.108 554.252 254.564 555.093 255.407C555.538 255.853 555.896 256.203 556.47 256.772C556.971 257.269 557.605 257.901 558.242 258.573C563.043 263.639 564.385 269.494 564.596 273.625C564.722 276.084 564.458 278.37 564.232 279.842C564.451 280.183 564.678 280.545 564.892 280.908C565.666 282.222 567.059 284.785 567.798 288.233L567.937 288.934L568.072 289.737C568.16 290.303 568.23 290.86 568.287 291.404C572.13 292.691 575.196 293.865 577.828 295.026C583.257 297.422 586.624 299.659 590.091 302.446C593.029 304.807 596.394 307.815 599.891 311.681L600.531 312.398C603.731 316.014 606.814 320.081 609.654 324.387C612.617 328.878 615.481 333.863 617.581 338.447C619.799 343.289 621.149 347.62 621.934 352.029C622.717 356.435 622.879 360.537 622.549 365.075C622.438 366.604 622.273 368.179 622.046 369.817C622.507 371.336 623.213 374.042 623.208 377.292C623.204 380.171 622.934 384.539 622.063 388.867C621.574 391.296 620.845 393.122 620.458 394.068C620.088 394.976 620.02 395.113 619.806 395.702C619.393 396.84 618.766 398.785 618.389 400.304C618.249 400.866 618.127 401.474 617.976 402.309C617.926 402.581 617.796 403.319 617.722 403.722C617.629 404.222 617.494 404.937 617.319 405.698C617.164 406.371 616.742 408.531 615.763 411.104C616.101 413.519 616.259 416.392 615.853 419.465C615.428 422.67 614.242 427.106 611.065 431.231C611.059 431.283 611.052 431.336 611.047 431.39C610.954 432.261 610.775 434.065 610.499 435.576C610.37 436.281 610.011 438.176 609.114 440.324C608.631 441.481 607.22 444.637 604.087 447.516C603.943 447.847 603.83 448.119 603.754 448.314C603.688 448.536 603.465 449.292 603.215 450.004C602.95 450.761 602.23 452.755 600.812 454.927C600.176 455.902 599.227 457.172 597.902 458.466C596.565 461.741 593.807 467.709 588.455 472.048C587.08 473.162 585.111 474.717 582.903 476.029C581.591 476.808 579.675 477.82 577.255 478.579C576.915 479.037 576.559 479.515 576.197 479.988C575.855 480.434 574.853 481.759 573.668 482.983C572.785 483.896 570.21 486.487 565.986 488.103C565.901 488.198 565.802 488.312 565.672 488.459C565.452 488.709 565.147 489.055 564.807 489.433C563.223 491.191 558.503 496.783 551.976 499.669C550.734 500.219 547.458 501.667 544.988 502.5C543.556 502.983 541.464 503.67 538.876 504.014C538.208 504.311 537.425 504.651 536.513 505.015C533.802 506.097 531.412 506.429 530.137 506.564C529.816 506.598 529.496 506.624 529.194 506.646C528.347 507.029 527.286 507.501 526.002 508.027C525.826 508.099 525.581 508.207 524.895 508.51C524.332 508.76 523.471 509.141 522.549 509.514C521.638 509.882 520.384 510.361 518.959 510.779C517.63 511.169 515.473 511.713 512.886 511.85C511.001 511.95 509.222 511.886 507.538 511.694C505.115 512.853 501.184 514.741 498.453 515.884C494.031 517.735 490.925 518.501 487.776 518.945C484.93 519.346 481.864 519.53 477.677 519.017C476.181 518.834 474.391 518.532 472.813 518.246L469.215 517.571C469.19 517.567 469.165 517.562 469.141 517.557C469.102 517.568 469.062 517.579 469.022 517.59C466.369 518.315 460.362 520.007 456.964 520.824C455.457 521.186 453.029 521.754 450.434 521.902C447.129 522.09 444.547 521.572 442.83 521.108L442.148 520.915C439.399 520.102 434.557 518.549 430.02 515.8C429.844 515.837 429.654 515.879 429.454 515.92C424.433 516.936 419.885 516.366 415.433 515.152C414.709 514.954 414.007 514.743 413.454 514.574C413.041 514.447 412.182 514.18 411.898 514.093C411.767 514.052 411.645 514.017 411.532 513.983C407.94 514.833 402.602 515.501 396.691 513.827L395.869 513.58C394.69 513.205 393.242 512.685 392.474 512.416C391.45 512.057 390.833 511.853 390.432 511.737C390.129 511.65 389.932 511.611 389.815 511.591C389.699 511.571 389.565 511.553 389.347 511.535C389.035 511.509 388.797 511.497 387.927 511.452C387.119 511.409 386.067 511.349 384.723 511.228C382.741 511.05 379.113 510.693 376.278 510.169C374.439 509.829 372.265 509.347 370.098 508.618C368.476 508.073 365.026 506.811 361.731 504.071L361.074 503.503C358.468 501.156 356.144 498.056 352.938 492.777C350.617 488.956 346.587 482.037 344.177 477.992C342.96 475.948 342.015 474.435 341.14 473.017C340.395 471.81 339.326 470.083 338.45 468.346C337.227 465.92 336.378 463.562 335.782 461.541C335.262 461.155 334.672 460.709 334.005 460.189C330.889 457.758 328.936 456.074 326.75 454.418C326.39 454.146 319.685 450.14 315.458 442.525C314.503 440.805 313.443 438.832 312.542 436.906C311.999 435.746 310.934 433.426 310.221 430.641C309.82 430.142 309.369 429.578 308.864 428.939C306.601 426.08 305.026 423.341 303.56 419.544C302.422 416.593 301.172 412.584 300.329 408.513C299.436 404.197 299.06 400.147 298.994 395.974C298.963 394.011 299.001 392.047 299.029 390.536C299.06 388.864 299.079 387.753 299.061 386.849C299.028 385.231 298.885 384.348 298.701 382.658C298.432 380.177 298.635 378.062 298.72 377.216C298.813 376.297 298.967 375.188 299.016 374.815C299.162 373.711 299.215 373.107 299.212 372.505C299.208 371.673 299.186 370.892 299.16 370.169C298.744 365.137 298.619 360.9 298.729 357.277C298.861 352.915 299.327 349.553 300.307 345.405C301.135 341.897 302.399 337.51 303.597 334.165C305.251 329.551 307.041 326.321 310.234 322.245C312.702 319.096 316.283 315.043 319.783 311.517C323.595 307.677 327.355 304.41 332.888 300.51C334.661 299.26 336.651 297.92 338.79 296.556L339.864 294.853L339.842 295.892C343.689 293.484 347.965 291.04 352.307 288.941C359.259 285.582 365.784 283.369 371.951 281.623C371.923 278.699 371.948 274.927 372.469 270.589C373.296 263.715 376.913 258.961 379.352 256.384C381.873 253.719 384.664 251.762 386.762 250.432C390.814 247.865 395.884 245.471 398.829 244.012C399.344 243.757 407.092 239.01 414.828 237.335C415.885 237.107 418.27 236.157 421.779 233.994C425.017 231.998 428.096 229.672 430.417 227.825C430.798 227.522 430.766 227.509 432.328 226.041C432.918 225.487 433.952 224.53 435.219 223.567C436.503 222.59 438.47 221.259 441.057 220.212L441.799 219.925C449.446 217.09 456.496 218.415 459.587 219.057C461.189 219.39 463.273 219.918 463.962 220.081C464.318 220.165 464.599 220.228 464.83 220.277C464.837 220.277 464.843 220.275 464.85 220.275C465.454 220.231 466.87 220.13 468.531 220.206C470.182 220.281 472.362 220.537 474.796 221.31L475.285 221.472L475.866 221.68C476.92 222.072 477.877 222.52 478.74 222.984C478.814 222.959 478.889 222.932 478.964 222.907C481.02 222.228 483.977 221.364 487.468 220.979L488.615 220.859C500.345 219.697 508.248 220.942 510.222 221.041L510.826 221.079Z" fill="#F6F6F9"/>
<path d="M319.609 365.917C319.616 362.205 319.403 359.448 319.426 358.587C319.322 358.759 322.295 358.363 322.406 358.378C323.495 358.527 324.917 358.968 325.115 359.052C326.355 359.574 327.673 358.063 329.668 358.776C330.201 358.966 332.596 358.951 335.84 359.025C337.691 359.067 341.875 361.054 348.186 359.523C354.496 357.992 359.172 366.282 365.753 364.612C372.335 362.942 375.34 362.508 413.061 362.266C450.782 362.023 521.089 361.974 558.109 362.228C595.129 362.481 598.753 363.022 600.639 363.348C602.525 363.673 602.699 363.765 602.97 364.45C603.71 366.323 604.218 367.839 604.209 368.929C604.192 370.931 603.973 374.128 603.393 377.059C603.146 378.306 602.694 379.022 601.899 381.29C601.306 382.984 600.435 385.748 599.834 388.226C599.233 390.704 598.962 392.841 598.64 394.273C598.149 396.453 597.837 397.583 597.352 398.344C596.055 400.378 594.876 401.718 595.091 402.781C595.206 403.347 596.223 404.629 596.576 406.762C597.061 409.701 596.817 412.129 595.609 413.461C594.826 414.324 593.848 414.712 593.259 415.666C592.772 416.454 592.235 419.552 591.77 423.83C591.488 426.434 591.36 427.598 590.975 427.779C590.451 428.025 589.374 428.295 588.327 430.33C586.953 433.004 585.942 435.451 585.427 436.896C584.943 438.254 584.769 439.663 584.094 439.927C582.964 440.367 581.657 440.317 581.489 440.683C581.288 441.123 581.287 442.962 580.328 445.462C579.008 448.901 577.852 451.401 576.157 452.852C573.602 455.04 571.983 456.177 570.545 456.274C568.303 456.425 566.744 456.692 565.15 458.486C564.101 459.668 562.513 462.185 560.581 464.829C559.66 466.088 559.261 466.569 558.852 466.661C558.022 466.85 555.754 467.593 553.098 470.236C551.857 471.472 551.168 472.374 550.125 473.59C547.787 476.319 545.87 478.409 543.928 479.326C542.457 480.019 540.049 481.137 538.598 481.662C536.737 482.335 536.077 482.446 535.417 482.411C533.525 482.313 532.849 483.169 529.088 484.773C527.728 485.353 525.653 484.892 523.759 485.591C522.778 485.953 521.336 486.805 518.387 488.096C516.417 488.957 513.567 490.531 511.685 490.65C508.115 490.875 506.804 489.585 505.744 489.771C504.96 489.908 503.748 490.13 500.511 491.746C497.924 493.038 493.572 495.326 490.635 496.639C487.697 497.952 486.218 498.278 484.801 498.499C483.384 498.72 482.069 498.831 479.852 498.562C477.634 498.292 474.606 497.66 472.552 497.279C470.497 496.897 469.45 496.743 468.784 496.715C467.85 496.676 467.093 496.732 463.607 497.759C460.57 498.654 455.122 500.308 452.11 501.092C449.098 501.875 448.533 501.817 447.491 501.5C444.95 500.725 441.997 499.652 439.73 498.144C438.007 496.997 437.1 496.237 436.508 496.058C435.783 495.839 433.401 495.257 430.266 495.146C428.691 495.09 427.176 495.555 425.327 495.962C424.256 496.198 422.973 496.228 420.409 495.509C418.704 495.031 416.272 494.146 414.574 493.771C412.016 493.205 410.363 493.025 408.78 493.58C406.414 494.41 404.023 495.019 401.631 494.235C400.014 493.705 397.672 492.761 395.692 492.174C393.711 491.587 392.139 491.364 390.776 491.256C389.414 491.148 388.294 491.155 386.299 490.981C384.304 490.807 381.508 490.519 379.679 490.176C376.977 489.67 374.985 489.026 374.099 488.187C373.672 487.783 372.551 486.616 369.664 481.571C367.392 477.601 363.702 470.856 361.099 466.214C358.495 461.571 356.944 459.15 356.098 457.365C354.807 454.638 354.326 451.962 353.996 450.079C353.835 449.161 353.412 447.654 350.752 445.3C349.773 444.434 348.792 443.876 346.285 441.822C344.255 440.16 340.855 437.212 338.85 435.618C336.362 433.641 334.552 432.716 332.93 429.607C331.189 426.274 329.768 423.273 329.518 421.598C329.371 420.613 329.44 419.781 329.206 418.979C328.872 417.838 328.223 417.288 324.677 412.55C323.705 411.252 323.105 410.21 322.337 408.08C321.57 405.951 320.662 402.828 320.078 399.748C319.494 396.668 319.241 393.721 319.215 390.425C319.188 387.129 319.383 383.59 319.348 380.721C319.314 377.852 319.041 375.719 318.922 374.487C318.774 372.944 319.6 370.067 319.609 365.917Z" fill="#3C3B2A"/>
<path d="M558.127 359.599C595.046 359.852 598.934 360.386 601.086 360.757C601.885 360.895 602.825 361.049 603.542 361.391C604.026 361.622 604.479 361.957 604.848 362.442C605.166 362.859 605.336 363.283 605.416 363.483C606.116 365.256 606.852 367.258 606.838 368.951C606.82 371.076 606.591 374.442 605.972 377.57C605.803 378.426 605.559 379.089 605.298 379.754C605.038 380.413 604.756 381.086 604.38 382.158C603.808 383.793 602.964 386.472 602.389 388.845C602.107 390.006 601.9 391.099 601.72 392.105C601.547 393.07 601.382 394.059 601.204 394.849C600.743 396.903 600.351 398.532 599.569 399.758C599.222 400.302 598.882 400.801 598.6 401.218C598.305 401.654 598.084 401.985 597.914 402.271C597.875 402.337 597.843 402.397 597.815 402.448C597.904 402.624 598.018 402.842 598.119 403.055C598.494 403.844 598.94 404.943 599.169 406.334C599.439 407.968 599.529 409.583 599.334 411.059C599.14 412.523 598.637 414.036 597.556 415.227C596.969 415.874 596.277 416.369 595.976 416.603C595.704 416.816 595.59 416.924 595.536 416.989C595.519 417.038 595.48 417.153 595.425 417.356C595.326 417.725 595.214 418.24 595.094 418.904C594.856 420.228 594.613 422.006 594.384 424.114C594.248 425.369 594.134 426.426 593.998 427.179C593.931 427.549 593.833 428.005 593.661 428.433C593.52 428.782 593.115 429.678 592.094 430.158C591.551 430.413 591.609 430.348 591.435 430.48C591.328 430.56 591.036 430.811 590.665 431.531C589.343 434.103 588.379 436.445 587.903 437.779C587.811 438.037 587.728 438.314 587.634 438.637C587.549 438.932 587.441 439.318 587.322 439.666C587.207 440.005 587.03 440.476 586.75 440.925C586.469 441.375 585.946 442.026 585.05 442.375C584.598 442.551 584.164 442.665 583.803 442.745C583.797 442.746 583.79 442.747 583.783 442.749C583.783 442.751 583.783 442.753 583.783 442.755C583.618 443.69 583.34 444.949 582.782 446.404C581.499 449.748 580.145 452.897 577.867 454.848C576.576 455.953 575.411 456.892 574.334 457.57C573.262 458.247 572.063 458.806 570.722 458.896C569.618 458.971 568.986 459.062 568.487 459.24C568.07 459.388 567.644 459.636 567.116 460.231C566.715 460.682 566.147 461.47 565.356 462.608C564.603 463.692 563.694 465.025 562.704 466.38C562.258 466.989 561.843 467.546 561.46 467.962C561.099 468.354 560.442 468.996 559.433 469.224C559.05 469.311 557.234 469.828 554.952 472.099C553.81 473.236 553.245 473.989 552.121 475.3C550.951 476.666 549.817 477.956 548.704 479.029C547.598 480.096 546.393 481.07 545.05 481.703C543.61 482.383 541.083 483.559 539.492 484.134C537.591 484.822 536.505 485.1 535.281 485.036C534.898 485.016 534.69 485.049 534.051 485.342C533.446 485.62 531.973 486.4 530.12 487.191C528.907 487.708 527.492 487.727 526.751 487.762C525.796 487.808 525.188 487.866 524.67 488.057C524.343 488.178 523.896 488.399 522.973 488.853C522.108 489.279 520.969 489.835 519.441 490.504C518.991 490.7 518.485 490.941 517.896 491.219C517.323 491.489 516.688 491.787 516.047 492.064C514.851 492.581 513.294 493.182 511.851 493.273C509.689 493.409 508.153 493.083 507.021 492.744C506.756 492.665 506.516 492.586 506.331 492.525C506.158 492.469 506.044 492.433 505.953 492.406C505.383 492.515 504.297 492.794 501.685 494.097C499.194 495.341 494.711 497.697 491.707 499.039C488.568 500.442 486.865 500.837 485.207 501.096C483.591 501.348 482.028 501.474 479.534 501.171C477.208 500.888 474.021 500.225 472.072 499.864C469.987 499.476 469.122 499.36 468.674 499.342C468.205 499.322 467.805 499.263 464.351 500.28C461.366 501.16 455.838 502.838 452.772 503.636C451.267 504.028 450.158 504.269 449.238 504.332C448.151 504.405 447.408 504.222 446.725 504.014C444.136 503.224 440.875 502.063 438.274 500.332C437.396 499.748 436.649 499.21 436.202 498.902C435.956 498.732 435.798 498.63 435.69 498.566C435.679 498.56 435.67 498.554 435.661 498.55C435.006 498.363 432.918 497.87 430.172 497.773C429.035 497.732 428.039 498.056 425.893 498.529C424.27 498.887 422.528 498.833 419.699 498.04C418.79 497.784 417.679 497.419 416.693 497.106C415.653 496.776 414.725 496.496 414.006 496.337C411.461 495.775 410.467 495.774 409.65 496.061C407.237 496.907 404.103 497.812 400.811 496.733C399.951 496.451 398.898 496.059 397.901 495.697C396.868 495.322 395.853 494.963 394.945 494.694C393.171 494.168 391.783 493.973 390.568 493.876C389.939 493.826 389.372 493.802 388.649 493.768C387.934 493.733 387.116 493.69 386.07 493.599C384.077 493.425 381.164 493.129 379.194 492.759C377.775 492.493 376.461 492.178 375.344 491.789C374.284 491.421 373.141 490.9 372.29 490.094C371.578 489.419 370.302 487.98 367.382 482.876C365.108 478.901 361.381 472.091 358.806 467.499C356.321 463.068 354.614 460.373 353.722 458.49C352.264 455.412 351.737 452.422 351.406 450.532C351.363 450.287 351.3 449.998 351.04 449.553C350.756 449.067 350.188 448.311 349.01 447.269C348.626 446.93 348.245 446.651 347.527 446.119C346.827 445.601 345.917 444.92 344.618 443.856C342.445 442.076 339.242 439.288 337.214 437.676C335.003 435.919 332.552 434.564 330.599 430.824C329.72 429.14 328.897 427.494 328.258 426.037C327.645 424.64 327.098 423.195 326.918 421.985C326.825 421.361 326.797 420.75 326.772 420.405C326.744 420.001 326.716 419.83 326.683 419.716C326.651 419.608 326.636 419.491 326.034 418.679C325.318 417.714 324.475 416.667 322.572 414.126C321.436 412.607 320.714 411.332 319.864 408.972C319.053 406.722 318.108 403.463 317.496 400.237C316.878 396.98 316.614 393.873 316.587 390.445C316.573 388.747 316.616 386.995 316.657 385.347C316.698 383.679 316.736 382.129 316.719 380.753C316.686 378.024 316.43 376.035 316.305 374.738C316.194 373.581 316.439 372.057 316.601 370.834C316.786 369.435 316.975 367.813 316.979 365.911C316.983 364.106 316.934 362.529 316.885 361.286C316.845 360.275 316.799 359.328 316.798 358.743C316.768 358.148 316.946 357.609 317.174 357.23L322.318 348.694L322.13 355.759C322.141 355.758 322.152 355.758 322.163 355.757C322.192 355.755 322.242 355.752 322.299 355.75C322.327 355.749 322.375 355.748 322.432 355.749C322.472 355.749 322.601 355.751 322.762 355.773L323.297 355.859C323.832 355.958 324.36 356.087 324.78 356.201C325.119 356.292 325.485 356.4 325.775 356.497C325.878 356.468 326.036 356.42 326.343 356.326C327.171 356.074 328.62 355.677 330.366 356.239C330.404 356.244 330.479 356.254 330.599 356.263C330.884 356.285 331.283 356.302 331.809 356.316C332.895 356.346 334.208 356.358 335.899 356.397C336.681 356.414 337.578 356.622 338.237 356.77C339.002 356.941 339.806 357.125 340.731 357.264C342.546 357.537 344.816 357.635 347.566 356.968C351.959 355.902 355.686 358.341 358.223 359.867C361.177 361.643 363.04 362.588 365.106 362.064C372.067 360.298 375.441 359.879 413.044 359.637C450.775 359.394 521.094 359.345 558.127 359.599ZM600.193 365.938C598.572 365.658 595.213 365.11 558.091 364.855C521.084 364.602 450.79 364.651 413.078 364.894C375.239 365.137 372.602 365.587 366.4 367.16C361.885 368.306 358.12 365.939 355.513 364.371C352.489 362.552 350.723 361.613 348.806 362.078C345.246 362.942 342.268 362.812 339.95 362.463C338.809 362.292 337.825 362.066 337.087 361.901C336.245 361.712 335.924 361.657 335.78 361.653C334.228 361.618 332.721 361.6 331.666 361.571C331.121 361.556 330.618 361.537 330.202 361.505C329.898 361.482 329.3 361.435 328.783 361.25C328.617 361.191 328.483 361.171 327.874 361.357C327.643 361.427 327.058 361.624 326.518 361.718C325.889 361.827 325.023 361.865 324.095 361.474L324.09 361.472C324.178 361.51 324.173 361.502 323.979 361.442C323.833 361.396 323.635 361.338 323.41 361.277C323.04 361.177 322.65 361.085 322.314 361.025C322.271 361.03 322.222 361.035 322.168 361.041C322.158 361.042 322.147 361.042 322.137 361.043C322.137 361.055 322.138 361.068 322.138 361.08C322.188 362.358 322.241 364.015 322.238 365.922C322.233 368.17 322.007 370.061 321.813 371.523C321.597 373.162 321.502 373.848 321.539 374.235C321.651 375.4 321.94 377.68 321.977 380.69C321.995 382.182 321.953 383.835 321.912 385.477C321.871 387.14 321.83 388.806 321.843 390.404C321.868 393.568 322.11 396.356 322.661 399.258C323.217 402.191 324.087 405.179 324.811 407.188C325.495 409.087 325.975 409.897 326.781 410.974C328.425 413.169 329.68 414.768 330.258 415.547C330.95 416.48 331.427 417.209 331.729 418.242C331.93 418.93 331.985 419.576 332.017 420.034C332.054 420.552 332.064 420.849 332.118 421.21C332.187 421.675 332.477 422.568 333.072 423.924C333.64 425.219 334.399 426.741 335.259 428.39C336.553 430.866 337.722 431.362 340.486 433.559C342.469 435.135 346.065 438.245 347.95 439.789C349.158 440.778 349.994 441.403 350.656 441.894C351.3 442.371 351.899 442.804 352.493 443.331C353.975 444.642 354.948 445.817 355.582 446.903C356.239 448.028 356.467 448.951 356.585 449.625C356.914 451.501 357.349 453.864 358.474 456.239C359.273 457.927 360.67 460.074 363.392 464.928C366.024 469.621 369.677 476.3 371.946 480.265C374.796 485.247 375.766 486.144 375.907 486.277C375.907 486.277 375.981 486.345 376.189 486.455C376.397 486.564 376.686 486.689 377.072 486.823C377.848 487.092 378.881 487.351 380.163 487.592C381.85 487.908 384.53 488.187 386.528 488.361C387.476 488.444 388.216 488.483 388.901 488.516C389.576 488.549 390.251 488.577 390.984 488.636C392.495 488.755 394.252 489.005 396.438 489.653C397.511 489.97 398.657 490.377 399.694 490.754C400.766 491.143 401.693 491.489 402.45 491.737C403.943 492.226 405.59 491.912 407.91 491.099C410.259 490.275 412.57 490.636 415.14 491.203C416.12 491.42 417.258 491.769 418.284 492.095C419.365 492.438 420.323 492.754 421.119 492.978C423.416 493.622 424.242 493.509 424.762 493.394C426.314 493.052 428.346 492.447 430.36 492.519C433.745 492.639 436.352 493.264 437.268 493.54C438.03 493.77 438.747 494.27 439.188 494.574C439.773 494.978 440.342 495.393 441.187 495.955C443.119 497.241 445.765 498.224 448.258 498.984C448.616 499.093 448.677 499.099 448.884 499.085C449.261 499.06 449.942 498.939 451.448 498.547C454.406 497.778 459.775 496.146 462.864 495.237C466.381 494.201 467.495 494.03 468.893 494.088C469.777 494.125 471.008 494.318 473.031 494.693C475.192 495.094 478.06 495.696 480.169 495.952C482.109 496.188 483.179 496.091 484.397 495.901C485.572 495.718 486.827 495.46 489.562 494.238C492.432 492.955 496.654 490.733 499.338 489.393C502.768 487.681 504.221 487.368 505.29 487.181C506.147 487.031 506.892 487.208 507.324 487.329C507.552 487.392 507.782 487.468 507.965 487.528C508.163 487.593 508.339 487.649 508.527 487.706C509.208 487.909 510.113 488.115 511.52 488.026C511.96 487.998 512.769 487.753 513.96 487.238C514.513 486.999 515.077 486.735 515.652 486.464C516.21 486.201 516.799 485.921 517.334 485.687C518.755 485.065 519.812 484.55 520.65 484.137C521.431 483.752 522.195 483.366 522.848 483.125C524.224 482.617 525.602 482.555 526.498 482.512C527.608 482.458 527.91 482.417 528.057 482.354C529.965 481.541 530.711 481.091 531.857 480.564C532.969 480.054 534.045 479.708 535.554 479.786C535.651 479.791 535.886 479.847 537.704 479.189C539.017 478.714 541.305 477.655 542.806 476.947C543.405 476.665 544.131 476.135 545.054 475.245C545.969 474.362 546.962 473.242 548.13 471.879C549.091 470.758 549.904 469.706 551.244 468.373C553.891 465.738 556.302 464.663 557.722 464.241C557.77 464.182 557.833 464.112 557.902 464.023C558.052 463.829 558.233 463.587 558.459 463.278C559.4 461.989 560.252 460.74 561.038 459.609C561.785 458.533 562.536 457.471 563.184 456.74C564.249 455.541 565.401 454.758 566.723 454.287C567.962 453.846 569.23 453.728 570.367 453.651C570.465 453.645 570.795 453.587 571.53 453.124C572.261 452.663 573.183 451.938 574.447 450.855C575.559 449.904 576.517 448.053 577.873 444.519C578.274 443.474 578.478 442.564 578.604 441.844C578.673 441.456 578.708 441.186 578.761 440.851C578.785 440.698 578.867 440.095 579.1 439.588L579.22 439.354C579.516 438.839 579.913 438.524 580.188 438.348C580.501 438.148 580.801 438.035 580.991 437.973C581.355 437.854 581.748 437.784 581.964 437.745C582.145 437.712 582.301 437.681 582.439 437.654C582.479 437.519 582.529 437.364 582.585 437.173C582.681 436.843 582.801 436.433 582.951 436.013L583.182 435.384C583.776 433.815 584.741 431.556 585.989 429.128C586.665 427.814 587.436 426.912 588.26 426.288C588.466 426.132 588.68 425.994 588.881 425.877C588.957 425.354 589.042 424.614 589.157 423.546C589.393 421.375 589.65 419.464 589.919 417.973C590.052 417.23 590.196 416.555 590.348 415.988C590.481 415.495 590.684 414.831 591.022 414.284C591.576 413.386 592.287 412.813 592.747 412.455C593.278 412.041 593.467 411.91 593.663 411.694C593.79 411.554 594.013 411.185 594.122 410.368C594.228 409.562 594.198 408.495 593.983 407.19C593.86 406.448 593.62 405.838 593.37 405.312C593.228 405.012 593.127 404.828 592.973 404.521C592.886 404.346 592.626 403.847 592.515 403.302C592.19 401.693 592.97 400.299 593.396 399.581C593.656 399.146 593.96 398.694 594.244 398.274C594.541 397.835 594.835 397.403 595.136 396.93C595.325 396.635 595.556 396.003 596.075 393.696C596.219 393.054 596.352 392.258 596.545 391.178C596.732 390.138 596.96 388.923 597.279 387.606C597.905 385.024 598.804 382.173 599.418 380.42C599.837 379.224 600.179 378.406 600.406 377.829C600.631 377.258 600.737 376.94 600.814 376.549C601.355 373.813 601.564 370.784 601.58 368.906C601.584 368.473 601.363 367.611 600.766 366.039C600.609 366.01 600.421 365.977 600.193 365.938Z" fill="#1D1D25"/>
<path d="M476.929 289.788C480.719 290.344 483.335 290.824 484.115 290.977C484.554 291.435 488.203 291.953 488.651 292.104C489.763 292.49 490.073 292.904 491.861 293.41C493.73 294.208 493.27 293.482 497.246 294.147C500.607 294.71 506.546 295.627 516.777 297.953C527.009 300.279 541.106 303.904 550.94 306.707C560.774 309.51 566.183 311.433 569.869 313.06C573.555 314.687 575.462 315.978 577.741 317.81C580.019 319.641 582.592 321.942 585.269 324.902C587.947 327.862 590.648 331.375 593.197 335.24C595.747 339.104 598.074 343.196 599.657 346.652C601.241 350.109 602.055 352.846 602.523 355.477C602.991 358.109 603.11 360.56 602.886 363.643C602.662 366.726 602.113 370.331 600.97 374.911C599.828 379.49 598.144 384.881 596.871 388.528C595.598 392.175 594.762 394.021 593.495 396.199C592.228 398.377 590.581 400.812 588.112 403.853C585.643 406.894 582.448 410.433 580.371 412.764C578.294 415.095 577.362 416.185 575.93 417.694C574.497 419.203 572.589 421.045 571.414 422.336C569.689 424.231 568.797 425.339 566.976 426.763C565.606 427.835 563.339 429.521 561.694 430.929C560.049 432.337 559.056 433.434 557.957 434.321C556.857 435.209 555.687 435.865 553.531 436.785C551.375 437.704 548.326 438.85 541.184 442.026C534.042 445.202 523.136 450.253 515.991 453.188C508.846 456.124 505.56 456.919 495.772 457.609C485.983 458.299 470.172 458.867 456.763 458.47C443.355 458.073 432.673 456.751 422.544 454.872C412.416 452.993 403.121 450.629 393.763 447.489C384.405 444.349 375.26 440.55 366.835 435.965C358.41 431.379 350.932 426.167 345.328 421.616C339.724 417.064 336.104 413.289 333.426 410.043C330.749 406.796 329.066 404.158 327.615 401.769C326.165 399.381 324.983 397.305 323.915 394.891C322.847 392.478 321.92 389.807 321.044 385.334C320.168 380.862 319.367 374.773 318.911 369.741C318.455 364.709 318.348 360.85 318.438 357.869C318.528 354.887 318.808 352.844 319.496 349.934C320.183 347.023 321.247 343.356 322.159 340.811C323.071 338.266 323.809 336.885 325.755 334.402C327.7 331.919 330.761 328.44 333.776 325.402C336.792 322.365 339.674 319.845 344.25 316.62C348.825 313.394 354.911 309.578 360.889 306.688C366.867 303.799 372.565 301.894 378.367 300.294C384.168 298.693 389.899 297.435 404.992 295.502C420.085 293.57 443.82 291.041 457.452 290.013C471.084 288.986 474.512 289.434 476.929 289.788Z" fill="#B0AA87"/>
<path d="M477.31 287.186C480.18 287.607 482.394 287.987 483.67 288.218L484.622 288.397L485.437 288.557L485.665 288.796C485.977 288.883 486.408 288.979 486.898 289.077C487.387 289.176 487.87 289.264 488.298 289.344C488.503 289.382 488.706 289.421 488.876 289.455C488.99 289.479 489.256 289.533 489.49 289.612L489.501 289.616L489.513 289.619C490.264 289.88 490.832 290.19 491.157 290.349C491.397 290.467 491.669 290.591 492.095 290.733L492.578 290.881L492.739 290.926L492.893 290.991C493.273 291.153 493.404 291.181 493.431 291.187C493.449 291.19 493.477 291.198 493.769 291.199C494.473 291.201 495.505 291.189 497.681 291.553C501.045 292.116 507.049 293.045 517.361 295.39C527.64 297.727 541.783 301.363 551.661 304.178C561.539 306.993 567.081 308.954 570.93 310.653C574.849 312.383 576.951 313.801 579.388 315.759C581.754 317.661 584.432 320.057 587.219 323.138C589.997 326.209 592.778 329.83 595.392 333.791C597.996 337.739 600.396 341.95 602.048 345.556C603.715 349.197 604.601 352.148 605.112 355.016C605.622 357.884 605.746 360.556 605.508 363.832C605.272 367.085 604.696 370.841 603.522 375.546C602.356 380.22 600.646 385.689 599.353 389.393C598.044 393.145 597.142 395.155 595.767 397.519C594.425 399.827 592.698 402.374 590.152 405.509C587.635 408.609 584.388 412.206 582.334 414.511C580.29 416.805 579.307 417.954 577.837 419.503C576.224 421.201 574.558 422.786 573.358 424.105C571.711 425.914 570.637 427.236 568.596 428.833C567.139 429.973 564.991 431.566 563.403 432.925C562.638 433.58 562.023 434.165 561.431 434.727C560.856 435.273 560.255 435.845 559.608 436.366C558.242 437.469 556.823 438.238 554.562 439.202C552.299 440.167 549.389 441.254 542.252 444.427C535.181 447.571 524.18 452.665 516.99 455.619C513.365 457.108 510.596 458.107 507.442 458.807C504.308 459.502 500.883 459.884 495.957 460.231C486.102 460.926 470.2 461.497 456.685 461.097C443.133 460.696 432.317 459.358 422.065 457.456C411.826 455.557 402.411 453.163 392.927 449.981C383.456 446.803 374.165 442.945 365.578 438.272C357.001 433.604 349.39 428.299 343.671 423.655C337.937 418.998 334.191 415.101 331.399 411.715C328.61 408.332 326.852 405.576 325.368 403.133C323.896 400.709 322.647 398.521 321.511 395.954C320.359 393.349 319.375 390.489 318.464 385.839C317.566 381.255 316.755 375.072 316.293 369.977C315.83 364.865 315.716 360.898 315.81 357.788C315.906 354.623 316.21 352.404 316.937 349.328C317.643 346.338 318.733 342.575 319.684 339.924C320.694 337.103 321.573 335.475 323.685 332.779C325.7 330.208 328.831 326.652 331.91 323.549C335.032 320.405 338.031 317.785 342.735 314.47C347.391 311.187 353.603 307.29 359.745 304.321C365.912 301.34 371.771 299.385 377.667 297.758C383.63 296.113 389.493 294.835 404.658 292.894C419.782 290.958 443.565 288.423 457.254 287.391C470.979 286.357 474.622 286.792 477.31 287.186ZM476.547 292.389C474.401 292.074 471.189 291.614 457.65 292.634C444.075 293.657 420.387 296.181 405.326 298.109C390.306 300.033 384.707 301.27 379.066 302.826C373.359 304.401 367.822 306.256 362.032 309.054C356.219 311.864 350.259 315.598 345.764 318.767C341.316 321.903 338.551 324.323 335.643 327.253C332.692 330.226 329.7 333.628 327.824 336.022C326.044 338.293 325.447 339.428 324.634 341.697C323.76 344.135 322.722 347.706 322.053 350.537C321.405 353.283 321.15 355.15 321.065 357.948C320.979 360.801 321.08 364.551 321.529 369.503C321.979 374.472 322.769 380.467 323.623 384.827C324.464 389.121 325.336 391.604 326.319 393.826C327.319 396.087 328.434 398.051 329.863 400.404C331.28 402.737 332.889 405.259 335.454 408.37C338.016 411.477 341.512 415.128 346.986 419.574C352.474 424.031 359.819 429.152 368.092 433.654C376.355 438.151 385.353 441.894 394.599 444.996C403.831 448.093 413.006 450.429 423.024 452.287C433.029 454.143 443.576 455.449 456.84 455.841C470.142 456.235 485.865 455.671 495.587 454.986C500.448 454.643 503.56 454.282 506.303 453.673C509.025 453.069 511.472 452.202 514.993 450.755C522.093 447.838 532.903 442.83 540.116 439.623C547.263 436.445 550.451 435.238 552.5 434.365C554.55 433.491 555.474 432.945 556.306 432.274C556.758 431.909 557.204 431.489 557.811 430.913C558.401 430.353 559.105 429.683 559.984 428.931C561.687 427.473 564.072 425.696 565.356 424.692C566.957 423.44 567.667 422.546 569.47 420.566C570.619 419.303 572.77 417.202 574.023 415.882C575.418 414.413 576.298 413.382 578.409 411.014C580.509 408.657 583.65 405.176 586.071 402.195C588.464 399.248 590.031 396.924 591.222 394.876C592.381 392.884 593.153 391.201 594.389 387.66C595.642 384.071 597.301 378.759 598.42 374.274C599.531 369.82 600.052 366.364 600.264 363.452C600.473 360.563 600.36 358.331 599.934 355.936C599.508 353.542 598.766 351.017 597.268 347.746C595.754 344.44 593.497 340.467 591.002 336.686C588.517 332.919 585.897 329.514 583.32 326.665C580.752 323.825 578.284 321.618 576.093 319.857C573.973 318.154 572.262 316.988 568.808 315.464C565.285 313.909 560.01 312.025 550.219 309.234C540.429 306.444 526.378 302.831 516.194 300.516C506.043 298.208 500.17 297.301 496.812 296.739C495.012 296.438 494.286 296.457 493.758 296.456C493.437 296.456 492.978 296.454 492.432 296.349C491.939 296.253 491.468 296.091 490.964 295.882C490.003 295.599 489.376 295.331 488.848 295.073C488.328 294.819 488.169 294.725 487.854 294.611C487.822 294.606 487.675 294.576 487.333 294.512C486.936 294.438 486.396 294.339 485.862 294.232C485.334 294.126 484.744 293.998 484.235 293.855C483.985 293.785 483.698 293.695 483.424 293.584C483.374 293.563 483.289 293.527 483.181 293.475C482.112 293.275 479.762 292.86 476.547 292.389Z" fill="#1D1D25"/>
<path d="M391.509 349.883C394.086 348.933 395.366 348.495 395.559 348.5C400.554 350.168 409.832 351.023 414.311 350.885C416.944 350.803 424.23 350.936 432.982 353.209C440.196 355.082 444.441 353.206 454.613 352.79C460.959 352.531 469.459 353.227 471.859 355.177C474.894 357.643 476.63 360.004 488.719 362.056C497.362 363.524 502.577 364.481 503.635 364.048C505.758 363.178 506.848 359.05 509.3 358.496L509.328 358.49C510.26 358.28 512.006 357.886 513.816 358.815C518.814 361.382 525.296 365.227 531.148 367.463C535.365 369.075 540.865 371.668 542.166 374.26C542.634 375.191 542.901 376.659 542.346 378.157C541.918 379.312 539.934 380.368 540.243 381.864C540.437 382.804 540.418 386.79 537.531 388.681C536.479 389.37 533.992 391.255 530.249 391.27C525.507 391.29 518.762 398.251 510.314 397.707C505.248 397.381 501.208 396.886 499.013 397.118C496.96 397.334 488.593 400.198 477.139 402.578C472.511 403.54 470.404 403.855 468.622 402.799C467.422 402.087 467.579 399.316 465.572 398.346C464.185 397.676 454.859 400.006 441.711 402.148L441.439 402.193C435.957 403.087 430.753 403.936 428.303 400.623C427.543 399.596 427.54 397.638 426.389 395.925C424.864 393.657 422.368 390.598 419.685 390.084C417.986 389.758 415.679 389.138 414.19 390.589C410.434 394.25 408.285 396.645 404.89 397.718C399.842 399.313 391.201 400.705 388.706 397.327C387.123 395.186 386.945 391.813 385.361 389.223C384.981 388.601 384.478 387.907 382.781 387.686C375.047 386.677 361.9 394.975 361.077 389.001C360.83 387.208 361.083 385.174 361.985 384.098C362.719 383.222 377.484 380.736 375.126 376.104C374.103 374.095 363.681 370.479 361.812 363.947C361.42 362.575 361.203 361.096 362.015 360.203C362.759 359.384 364.549 357.787 370.168 356.186C380.548 353.227 388.546 350.974 391.509 349.883Z" fill="#FD89FB"/>
<path d="M508.75 355.925C509.692 355.712 512.291 355.076 515.017 356.475C520.242 359.159 526.413 362.839 532.087 365.008C534.26 365.838 536.824 366.943 539.05 368.208C540.162 368.84 541.244 369.542 542.165 370.304C543.06 371.045 543.958 371.968 544.516 373.08C545.261 374.564 545.656 376.791 544.811 379.071C544.538 379.807 544.084 380.377 543.8 380.713C543.644 380.897 543.482 381.073 543.354 381.213C543.216 381.364 543.111 381.48 543.013 381.594C542.96 381.656 542.917 381.709 542.883 381.753C542.997 382.698 542.957 384.111 542.591 385.56C542.153 387.291 541.154 389.45 538.972 390.879C538.012 391.508 534.896 393.879 530.26 393.898C529.654 393.9 528.764 394.141 527.405 394.755C526.032 395.376 524.655 396.143 522.851 397.048C519.46 398.751 515.118 400.65 510.145 400.33C507.637 400.169 505.216 399.953 503.402 399.825C501.456 399.687 500.122 399.643 499.289 399.731C499.024 399.759 498.331 399.914 497.022 400.265C495.777 400.6 494.222 401.041 492.299 401.57C488.497 402.617 483.481 403.946 477.675 405.152C475.401 405.625 473.513 405.992 471.946 406.071C470.279 406.155 468.748 405.929 467.281 405.059C466.323 404.491 465.826 403.631 465.565 403.104C465.319 402.607 465.078 401.94 464.96 401.645C464.789 401.217 464.663 400.988 464.578 400.864C464.312 400.873 463.935 400.902 463.43 400.964C462.243 401.111 460.607 401.392 458.531 401.776C454.937 402.44 450.14 403.389 444.569 404.337L442.135 404.742L441.863 404.787C439.2 405.221 436.243 405.714 433.631 405.612C430.976 405.507 428.099 404.765 426.19 402.185C425.775 401.625 425.529 401.03 425.367 400.57C425.209 400.12 425.07 399.616 424.967 399.258C424.733 398.446 424.534 397.878 424.207 397.391C423.498 396.336 422.61 395.17 421.645 394.235C420.635 393.259 419.79 392.78 419.191 392.665C418.177 392.471 417.498 392.308 416.821 392.298C416.225 392.289 416.08 392.419 416.026 392.472C412.502 395.906 409.825 398.915 405.682 400.224C403.002 401.071 399.343 401.876 395.948 402.013C394.252 402.081 392.499 401.99 390.921 401.583C389.359 401.18 387.708 400.399 386.592 398.889C385.489 397.396 384.938 395.57 384.521 394.214C384.055 392.694 383.703 391.55 383.119 390.594C383.061 390.5 383.026 390.45 383.008 390.426C382.948 390.398 382.783 390.337 382.442 390.293C380.993 390.104 379.098 390.34 376.839 390.866C374.569 391.394 372.351 392.1 370.037 392.739C367.909 393.325 365.547 393.902 363.589 393.799C362.569 393.744 361.365 393.496 360.332 392.705C359.226 391.859 358.652 390.654 358.473 389.36C358.317 388.228 358.315 387.001 358.508 385.846C358.695 384.73 359.105 383.442 359.971 382.409L360.187 382.178C360.401 381.973 360.603 381.842 360.712 381.775C360.888 381.666 361.058 381.583 361.19 381.523C361.453 381.403 361.741 381.296 362.005 381.205C362.539 381.022 363.226 380.819 363.936 380.609C365.407 380.174 367.152 379.663 368.791 379.048C370.491 378.41 371.777 377.765 372.476 377.174C372.479 377.172 372.481 377.169 372.483 377.166C372.228 376.983 371.897 376.764 371.477 376.5C370.452 375.855 368.835 374.909 367.332 373.911C364.365 371.939 360.508 368.943 359.285 364.669C359.066 363.903 358.836 362.916 358.833 361.902C358.83 360.878 359.062 359.542 360.069 358.434L360.303 358.187C361.537 356.924 363.884 355.243 369.447 353.657C379.915 350.674 387.76 348.462 390.601 347.415C391.892 346.939 392.881 346.584 393.578 346.345C393.923 346.227 394.224 346.128 394.465 346.057C394.583 346.023 394.717 345.987 394.85 345.956C394.901 345.944 395.235 345.862 395.626 345.872L396.019 345.881L396.393 346.006C398.63 346.754 401.985 347.359 405.431 347.757C408.856 348.153 412.16 348.32 414.231 348.257C417.049 348.17 424.594 348.314 433.644 350.664C436.861 351.5 439.401 351.51 442.456 351.239C445.47 350.972 449.357 350.373 454.506 350.163C457.802 350.028 461.655 350.14 465.028 350.544C466.714 350.746 468.337 351.027 469.735 351.407C471.059 351.767 472.479 352.292 473.518 353.136C475.206 354.508 476.079 355.43 478.064 356.417C480.061 357.408 483.232 358.457 489.16 359.463C493.51 360.202 496.926 360.8 499.404 361.163C500.644 361.345 501.583 361.457 502.25 361.502C502.463 361.516 502.627 361.52 502.749 361.521C502.821 361.457 502.928 361.355 503.066 361.191C503.402 360.794 503.719 360.323 504.189 359.649C504.609 359.047 505.16 358.274 505.824 357.612C506.5 356.939 507.449 356.219 508.722 355.932L508.75 355.925ZM512.615 361.153C511.721 360.694 510.83 360.845 509.908 361.053L509.879 361.06C509.926 361.049 509.819 361.054 509.535 361.336C509.239 361.631 508.924 362.05 508.5 362.658C508.126 363.193 507.619 363.951 507.077 364.59C506.535 365.23 505.74 366.027 504.633 366.48C504.076 366.709 503.515 366.756 503.171 366.773C502.771 366.792 502.337 366.778 501.899 366.749C501.021 366.69 499.917 366.552 498.641 366.365C496.086 365.991 492.573 365.376 488.28 364.647C482.119 363.601 478.377 362.444 475.724 361.126C473.061 359.802 471.548 358.311 470.202 357.217C470.041 357.086 469.498 356.792 468.356 356.481C467.287 356.19 465.936 355.949 464.404 355.765C461.341 355.399 457.771 355.291 454.72 355.416C449.697 355.621 446.377 356.169 442.921 356.476C439.508 356.778 436.318 356.79 432.322 355.752C423.867 353.557 416.841 353.436 414.393 353.512C411.985 353.586 408.41 353.394 404.828 352.98C401.597 352.607 398.184 352.031 395.52 351.24C395.447 351.265 395.366 351.29 395.278 351.32C394.643 351.537 393.703 351.875 392.418 352.349C389.333 353.485 381.181 355.78 370.889 358.713C366.13 360.07 364.591 361.331 364.094 361.831C364.093 361.847 364.091 361.866 364.091 361.887C364.092 362.179 364.167 362.618 364.34 363.223C364.986 365.481 367.275 367.56 370.242 369.532C371.706 370.504 373.002 371.247 374.277 372.049C374.868 372.421 375.463 372.814 375.962 373.206C376.338 373.502 376.9 373.977 377.306 374.624L377.469 374.911L377.576 375.133C378.082 376.254 378.153 377.459 377.751 378.61C377.357 379.733 376.593 380.579 375.867 381.192C374.438 382.398 372.429 383.298 370.64 383.97C368.791 384.664 366.855 385.229 365.425 385.652C364.759 385.849 364.232 386.006 363.837 386.137C363.788 386.28 363.735 386.469 363.694 386.714C363.602 387.26 363.594 387.902 363.67 388.528C363.724 388.535 363.789 388.544 363.868 388.548C364.847 388.6 366.41 388.286 368.639 387.671C370.681 387.108 373.252 386.302 375.647 385.745C378.054 385.185 380.704 384.764 383.122 385.079C384.29 385.232 385.284 385.579 386.106 386.174C386.926 386.767 387.368 387.464 387.605 387.851C388.604 389.485 389.133 391.323 389.547 392.672C390.011 394.184 390.341 395.115 390.82 395.764C390.952 395.942 391.316 396.255 392.233 396.491C393.135 396.723 394.327 396.817 395.735 396.76C398.545 396.647 401.731 395.959 404.099 395.211C406.745 394.375 408.367 392.593 412.355 388.706C413.79 387.308 415.542 387.021 416.897 387.041C418.171 387.059 419.495 387.37 420.181 387.501C422.264 387.901 424.009 389.208 425.3 390.456C426.634 391.747 427.756 393.244 428.571 394.458C429.395 395.683 429.774 396.95 430.02 397.803C430.156 398.276 430.233 398.561 430.325 398.821C430.4 399.035 430.44 399.092 430.427 399.074C430.971 399.799 431.92 400.282 433.838 400.358C435.811 400.435 438.197 400.057 441.016 399.597L441.289 399.553L443.694 399.153C449.194 398.217 453.908 397.284 457.574 396.607C459.645 396.224 461.423 395.915 462.785 395.747C463.462 395.663 464.105 395.605 464.664 395.6C465.037 395.596 465.735 395.603 466.422 395.855L466.716 395.978L467.073 396.166C468.787 397.156 469.485 398.804 469.84 399.691C470.05 400.215 470.133 400.451 470.231 400.668C470.526 400.784 470.943 400.857 471.681 400.82C472.769 400.765 474.25 400.493 476.604 400.003C482.252 398.83 487.147 397.536 490.905 396.502C492.762 395.99 494.4 395.526 495.659 395.188C496.853 394.868 497.977 394.583 498.738 394.503C500.1 394.359 501.885 394.447 503.773 394.58C505.794 394.723 507.925 394.918 510.483 395.083C513.958 395.306 517.213 393.997 520.492 392.35C522.024 391.581 523.751 390.637 525.239 389.964C526.742 389.285 528.474 388.649 530.238 388.641C533.089 388.63 534.947 387.231 536.091 386.482C536.795 386.021 537.249 385.241 537.494 384.272C537.613 383.8 537.666 383.34 537.68 382.963C537.695 382.554 537.66 382.355 537.668 382.394C537.237 380.303 538.504 378.776 539.024 378.17C539.181 377.986 539.342 377.81 539.467 377.673C539.603 377.523 539.703 377.414 539.789 377.314C539.848 377.244 539.883 377.193 539.905 377.164C540.133 376.474 540.001 375.804 539.817 375.438C539.725 375.253 539.447 374.88 538.813 374.356C538.206 373.853 537.404 373.32 536.452 372.779C534.548 371.696 532.254 370.7 530.209 369.919C524.181 367.615 517.386 363.603 512.615 361.153Z" fill="#1D1D25"/>
<path d="M406.175 348.055C406.607 351.935 406.162 352.672 408.478 357.366C408.959 358.34 410.386 359.431 411.132 359.985C412.432 361.114 413.863 362.448 415.373 363.721C418.344 365.902 420.658 368.925 424.637 371.05C429.397 373.591 436.186 375.551 439.382 377.156C443.207 379.078 447.623 383.386 451.52 384.289C456.403 385.419 463.408 385.507 469.112 385.811C474.414 386.093 479.595 382.93 487.087 382.505C493.837 382.122 500.622 384.026 502.721 381.646C503.804 380.419 504.614 378.651 506.054 377.251C508.925 374.458 512.044 372.921 515.472 370.439C520.932 366.486 523.781 363.683 526.958 358.321C530.369 352.565 535.317 350.876 543.74 339.538C546.998 335.153 548.723 332.081 549.968 328.159C551.24 324.155 551.774 319.36 549.287 314.224C545.261 305.905 549.77 299.241 548.537 292.446C548.173 290.436 545.602 288.426 544.429 284.858C542.873 280.124 546.576 274.919 543.932 272.13C542.273 270.379 540.025 268.389 538.234 266.15C535.414 262.627 532.903 259.046 527.771 257.277C521.792 255.216 518.039 252.763 515.821 249.321C513.77 246.139 512.977 240.916 509.229 240.727C505.118 240.519 499.894 239.439 489.631 240.572C483.419 241.257 478.218 245.67 473.231 243.448C471.486 242.67 470.643 240.717 468.901 240.121C467.253 239.557 465.429 240.231 463.284 239.988C458.149 239.406 452.812 236.72 448.453 238.484C446.692 239.196 445.142 241.3 442.694 243.248C437.51 247.373 427.588 254.74 419.001 256.599C414.445 257.586 411.296 259.835 407.581 261.675C400.42 265.222 392.543 268.793 392.045 272.936C391.253 279.529 391.996 284.647 391.564 290.15C390.894 298.677 387.451 308.573 390.71 312.807C392.878 315.623 396.786 318.427 397.257 322.855C397.623 326.3 394.057 337.138 398.537 339.862C401.695 341.782 405.76 344.337 406.175 348.055Z" fill="#F3C34B"/>
<path d="M509.362 238.102C512.719 238.271 514.477 240.786 515.48 242.663C515.998 243.631 516.461 244.713 516.852 245.588C517.273 246.525 517.636 247.286 518.03 247.897C519.788 250.624 522.894 252.815 528.628 254.791C534.614 256.855 537.589 261.138 540.287 264.508C542.003 266.653 543.94 268.317 545.841 270.322C547.054 271.602 547.461 273.118 547.532 274.496C547.598 275.792 547.373 277.132 547.177 278.228C546.736 280.691 546.4 282.435 546.927 284.038C547.384 285.428 548.122 286.553 548.945 287.736C549.331 288.29 549.797 288.945 550.171 289.58C550.55 290.224 550.953 291.035 551.124 291.978C551.837 295.909 550.889 299.945 550.471 303.108C550.028 306.456 549.968 309.596 551.654 313.079C554.529 319.02 553.87 324.559 552.474 328.956C551.111 333.247 549.213 336.581 545.851 341.106C541.512 346.946 538.048 350.322 535.272 352.937C532.475 355.572 530.698 357.168 529.22 359.661C525.815 365.407 522.685 368.462 517.013 372.569C515.248 373.847 513.473 374.943 512.011 375.916C510.497 376.925 509.153 377.904 507.888 379.135C507.376 379.633 506.938 380.233 506.435 380.981C505.986 381.649 505.382 382.606 504.693 383.387C503.576 384.652 502.037 385.126 500.748 385.328C499.433 385.533 497.955 385.517 496.526 385.45C493.489 385.308 490.432 384.949 487.236 385.13C483.813 385.324 480.902 386.141 477.986 386.956C475.173 387.741 472.129 388.605 468.972 388.437C463.492 388.145 456.105 388.049 450.927 386.85C448.424 386.27 445.963 384.673 443.93 383.268C441.703 381.729 439.898 380.357 438.202 379.505C436.769 378.785 434.474 377.965 431.674 376.916C428.99 375.911 425.951 374.732 423.399 373.369C421.136 372.161 419.381 370.713 417.876 369.367C416.302 367.959 415.167 366.831 413.818 365.841L413.746 365.788L413.679 365.731C412.207 364.49 410.621 363.026 409.456 362.013C409.069 361.723 408.494 361.285 407.937 360.779C407.382 360.274 406.591 359.483 406.121 358.53C404.912 356.08 404.33 354.476 404.036 352.884C403.894 352.115 403.828 351.399 403.771 350.698C403.714 349.981 403.664 349.264 403.562 348.346C403.455 347.393 402.856 346.368 401.607 345.221C400.362 344.078 398.773 343.082 397.172 342.108C395.186 340.901 394.304 338.904 393.924 337.075C393.546 335.252 393.584 333.237 393.734 331.415C393.884 329.58 394.172 327.71 394.376 326.224C394.603 324.582 394.693 323.608 394.643 323.133C394.485 321.652 393.749 320.322 392.581 318.887C391.994 318.165 391.353 317.479 390.658 316.735C389.993 316.021 389.257 315.229 388.627 314.411C387.375 312.784 386.898 310.792 386.753 308.878C386.608 306.95 386.781 304.838 387.057 302.745C387.334 300.651 387.738 298.403 388.096 296.26C388.461 294.077 388.785 291.955 388.943 289.944C389.148 287.343 389.075 284.84 389.041 281.984C389.008 279.165 389.019 276.096 389.436 272.623C389.654 270.809 390.643 269.308 391.766 268.122C392.9 266.923 394.36 265.842 395.908 264.861C398.985 262.912 402.919 261.051 406.414 259.32C409.703 257.691 413.465 255.109 418.445 254.03C422.307 253.194 426.636 251.069 430.745 248.536C434.819 246.025 438.502 243.225 441.058 241.191C442.169 240.307 443.032 239.427 444.032 238.488C444.927 237.646 446.076 236.611 447.467 236.048C450.413 234.856 453.502 235.241 456.112 235.783C457.418 236.055 458.81 236.415 460.02 236.702C461.285 237.002 462.458 237.25 463.581 237.377C464.349 237.464 465.039 237.389 466.089 237.313C467.016 237.246 468.371 237.161 469.753 237.634C471.296 238.163 472.346 239.267 472.943 239.877C473.679 240.628 473.973 240.901 474.301 241.047C475.812 241.721 477.5 241.498 480.131 240.61C482.514 239.806 485.861 238.343 489.343 237.959C499.885 236.796 505.527 237.909 509.362 238.102ZM509.097 243.353C504.71 243.132 499.902 242.084 489.92 243.185C487.19 243.487 484.83 244.573 481.813 245.591C479.044 246.526 475.637 247.398 472.161 245.849C470.744 245.217 469.744 244.125 469.187 243.557C468.492 242.847 468.248 242.677 468.05 242.609C467.784 242.518 467.403 242.489 466.47 242.557C465.66 242.615 464.364 242.757 462.988 242.601C461.543 242.437 460.123 242.13 458.807 241.818C457.436 241.493 456.258 241.183 455.043 240.931C452.611 240.426 450.852 240.349 449.439 240.921C449.069 241.071 448.563 241.443 447.631 242.319C446.804 243.096 445.667 244.242 444.331 245.306C441.703 247.397 437.833 250.344 433.503 253.012C429.208 255.659 424.282 258.146 419.557 259.169C415.426 260.064 412.89 261.979 408.748 264.031C405.083 265.847 401.497 267.544 398.721 269.303C397.343 270.176 396.293 270.987 395.586 271.734C394.868 272.493 394.687 272.993 394.656 273.25C394.281 276.37 394.266 279.158 394.298 281.922C394.33 284.647 394.413 287.456 394.184 290.357C394.007 292.61 393.651 294.923 393.283 297.126C392.909 299.369 392.53 301.458 392.27 303.433C392.009 305.408 391.891 307.097 391.996 308.482C392.102 309.88 392.416 310.715 392.794 311.204C393.247 311.794 393.813 312.408 394.504 313.15C395.167 313.861 395.94 314.683 396.66 315.568C398.105 317.346 399.558 319.631 399.871 322.578C400.004 323.825 399.784 325.499 399.585 326.942C399.364 328.542 399.109 330.198 398.974 331.844C398.838 333.502 398.848 334.923 399.073 336.006C399.296 337.082 399.649 337.461 399.903 337.616C401.461 338.563 403.482 339.805 405.163 341.349C406.839 342.888 408.479 345 408.787 347.765C408.901 348.786 408.96 349.617 409.013 350.276C409.067 350.951 409.115 351.441 409.205 351.927C409.375 352.847 409.729 353.959 410.836 356.203C410.824 356.18 410.854 356.244 410.984 356.396C411.106 356.538 411.271 356.704 411.474 356.888C411.678 357.073 411.894 357.254 412.104 357.421L412.7 357.877L412.78 357.936L412.856 358C414.275 359.233 415.518 360.401 417.028 361.677C418.612 362.854 420.086 364.29 421.379 365.446C422.768 366.688 424.159 367.815 425.876 368.732C428.083 369.911 430.819 370.982 433.518 371.993C436.102 372.961 438.799 373.923 440.562 374.808C442.691 375.878 445.006 377.621 446.918 378.942C449.023 380.397 450.719 381.405 452.113 381.727C456.701 382.79 463.325 382.871 469.252 383.186C471.397 383.3 473.595 382.723 476.571 381.892C479.443 381.089 482.869 380.112 486.937 379.881C490.491 379.679 494.202 380.079 496.77 380.199C498.143 380.263 499.177 380.252 499.936 380.133C500.72 380.011 500.818 379.832 500.751 379.908C501.145 379.462 501.485 378.92 502.072 378.048C502.605 377.255 503.294 376.269 504.221 375.367C505.826 373.806 507.477 372.618 509.097 371.54C510.769 370.426 512.268 369.514 513.93 368.311C519.179 364.512 521.746 361.958 524.696 356.981C526.629 353.719 529.031 351.593 531.667 349.11C534.323 346.608 537.545 343.468 541.63 337.97C544.783 333.727 546.335 330.916 547.463 327.363C548.609 323.753 549.018 319.701 546.921 315.37C544.58 310.534 544.761 306.182 545.258 302.42C545.78 298.473 546.47 295.779 545.951 292.917L545.951 292.915C545.939 292.852 545.883 292.659 545.642 292.25C545.395 291.831 545.079 291.383 544.629 290.738C543.783 289.522 542.648 287.858 541.932 285.68C540.903 282.549 541.64 279.322 542.001 277.302C542.205 276.157 542.313 275.377 542.282 274.765C542.255 274.234 542.133 274.053 542.024 273.938C540.607 272.442 538.047 270.125 536.181 267.793C533.239 264.117 531.192 261.237 526.914 259.762C520.689 257.617 516.29 254.902 513.611 250.745C512.98 249.766 512.476 248.68 512.054 247.738C511.603 246.732 511.249 245.9 510.844 245.141C510.001 243.564 509.488 243.373 509.097 243.353Z" fill="#1D1D25"/>
<path d="M512.101 334.557C512.976 333.398 514.625 333.168 515.784 334.042C516.942 334.917 517.173 336.566 516.298 337.725C513.931 340.86 511.39 343.441 507.926 343.977C504.498 344.506 501.034 342.897 497.192 340.275C495.993 339.456 495.685 337.82 496.504 336.622C497.322 335.423 498.958 335.115 500.157 335.933C503.882 338.476 505.847 338.977 507.122 338.78C508.361 338.589 509.799 337.606 512.101 334.557Z" fill="#1D1D25"/>
<path d="M482.634 336.603C483.509 335.444 485.158 335.213 486.317 336.088C487.476 336.963 487.706 338.612 486.831 339.771C484.464 342.906 481.923 345.487 478.459 346.023C475.031 346.552 471.567 344.943 467.725 342.321C466.526 341.502 466.219 339.866 467.037 338.667C467.856 337.469 469.491 337.161 470.69 337.979C474.415 340.522 476.38 341.023 477.655 340.826C478.894 340.635 480.332 339.652 482.634 336.603Z" fill="#1D1D25"/>
<path d="M499.441 349.516C500.316 348.357 501.965 348.126 503.124 349.001C504.282 349.876 504.513 351.525 503.638 352.684C501.271 355.819 498.73 358.4 495.266 358.936C491.838 359.465 488.374 357.856 484.532 355.234C483.333 354.415 483.025 352.779 483.844 351.581C484.662 350.382 486.298 350.074 487.497 350.892C491.222 353.435 493.186 353.936 494.462 353.739C495.701 353.548 497.139 352.565 499.441 349.516Z" fill="#1D1D25"/>
</g>
<g filter="url(#filter1_d_2215_9653)">
<path d="M140.771 21.0043C132.225 14.6021 118.147 7.54279 101.813 12.4746L101.034 12.7189L100.074 13.0369C79.9498 19.8703 61.6227 35.9531 52.1045 57.1606C41.9414 79.805 42.2117 107.463 58.8632 134.078C70.9675 153.425 87.7452 175.88 97.5298 190.544C103.015 198.764 107.069 205.525 109.635 211.038C112.408 216.998 112.192 218.915 112.24 218.192C111.992 221.952 110.853 228.91 108.924 239.245C107.127 248.869 104.764 260.842 102.73 272.592C100.687 284.392 98.8032 296.91 97.9455 308.292C97.1521 318.821 96.9204 331.653 100.23 342.363C102.268 348.958 104.587 355.356 106.684 361.059C108.859 366.978 110.717 371.948 112.25 376.618C113.786 381.296 114.656 384.683 115.031 387.148C115.193 388.209 115.22 388.843 115.223 389.131C114.699 391.084 114.34 393.039 114.117 394.975C110.104 398.722 106.398 402.805 103.112 406.69C94.7103 416.621 84.6733 430.862 80.0645 436.777C77.0841 440.603 72.0277 444.254 62.6982 449.693C54.8105 454.292 42.1289 461.028 32.0992 470.032C24.423 476.924 19.0972 485.995 17.982 496.711C16.926 506.857 19.9412 515.649 23.3767 522.098C29.924 534.389 41.0426 543.917 48.8177 549.592C57.9418 556.251 72.2423 563.008 83.1545 568.114C96.0099 574.13 105.111 578.294 109.239 580.97C115.946 585.318 125.096 588.071 132.003 589.862C139.915 591.912 148.994 593.684 157.866 595.028C166.732 596.37 175.875 597.358 183.926 597.719C190.678 598.02 200.57 598.143 208.477 595.581C208.133 595.692 209.649 595.261 214.574 595.08C218.999 594.917 224.383 594.992 230.805 595.137C242.741 595.406 258.837 595.989 272.224 594.494C288.134 592.718 302.044 586.781 312.42 575.468C322.323 564.672 326.698 551.454 328.89 539.544C331.353 526.165 330.515 514.717 326.289 503.832C322.751 494.721 316.648 486.349 313.45 481.465C305.016 468.58 282.635 435.319 266.651 418.174C264.19 415.535 261.577 413.102 258.882 410.866C261.007 404.826 263.154 398.149 265.255 391.368C271.214 372.136 276.783 352.305 282.026 336.5C284.984 331.206 288.898 323.922 292.293 316.991C294.217 313.063 296.146 308.9 297.657 305.11C298.408 303.226 299.187 301.107 299.818 298.956C300.061 298.126 300.409 296.878 300.713 295.349C301.192 295.002 301.756 294.602 302.434 294.131C306.365 291.404 310.475 288.182 313.926 283.656C315.631 281.419 316.793 279.367 317.589 277.853C317.959 277.148 318.296 276.468 318.52 276.016C318.775 275.502 318.947 275.152 319.142 274.77C325.384 262.544 320.56 251.609 317.59 246.901C316.104 244.547 314.341 242.489 312.912 240.977C313.309 239.863 313.723 238.737 314.178 237.5C314.655 236.198 315.2 234.713 315.693 233.289C316.172 231.903 316.742 230.18 317.215 228.402C317.592 226.986 318.383 223.856 318.449 220.18C318.628 210.075 313.412 203.054 311.099 200.275C309.117 197.892 306.968 195.922 305.094 194.392C308.514 183.959 306.086 174.467 302.382 167.619C299.292 161.907 294.823 157.121 292.014 154.176C291.921 154.046 291.552 153.541 290.907 152.501C289.932 150.927 288.78 148.871 287.538 146.489C285.204 142.014 282.99 137.231 281.613 134.074C275.613 117.689 267.82 98.9749 258.344 84.1524C253.556 76.661 247.527 68.8589 240.003 62.9037C232.313 56.8167 221.364 51.4134 208.056 52.7624C195.957 53.989 184.871 58.2914 175.23 64.8603C171.587 58.3068 167.614 51.7825 163.404 45.7305C157.298 36.9513 149.693 27.6881 140.771 21.0043Z" fill="#F6F6F9"/>
<path d="M247.428 432.17C235.999 419.91 218.858 413.22 211.716 411.407C194.543 407.553 157.205 400.144 145.241 401.34C130.287 402.836 110.972 433.127 98.5247 449.104C86.0776 465.08 62.7969 471.896 47.5649 485.571C32.3329 499.245 48.7926 516.779 62.3369 526.664C75.8813 536.549 109.644 549.496 121.628 557.265C133.613 565.034 187.222 573.152 199.744 569.095C212.266 565.037 245.749 569.481 268.381 566.955C291.012 564.428 299.885 551.357 303.421 532.151C306.956 512.944 300.272 505.352 291.619 492.134C282.967 478.916 261.716 447.495 247.428 432.17Z" fill="#CCDDC6"/>
<path d="M177.103 401.047C170.579 399.948 164.178 399.002 158.632 398.405C153.162 397.816 148.274 397.538 144.895 397.876C140.153 398.35 135.496 401.026 131.204 404.473C126.845 407.974 122.475 412.592 118.286 417.544C110.011 427.325 101.776 439.268 95.7791 446.965C90.0111 454.369 81.6234 459.779 72.3365 465.193C63.252 470.49 53.194 475.838 45.2389 482.98C40.8877 486.886 38.5699 491.306 38.0803 496.01C37.5991 500.634 38.9272 505.12 41.0876 509.176C45.3628 517.201 53.3724 524.431 60.2854 529.476C67.3879 534.66 79.5621 540.515 91.0927 545.911C102.896 551.435 114.004 556.472 119.735 560.186C123.252 562.466 129.349 564.541 136.255 566.331C143.303 568.158 151.641 569.796 159.963 571.056C168.285 572.317 176.66 573.211 183.785 573.529C190.728 573.84 197.016 573.639 200.818 572.407C203.46 571.551 207.49 571.075 212.697 570.883C217.834 570.694 223.805 570.787 230.193 570.931C242.842 571.216 257.161 571.711 268.768 570.415C280.729 569.08 289.452 564.893 295.627 558.161C301.736 551.5 305.017 542.708 306.844 532.781C308.71 522.648 307.916 515.281 305.336 508.637C302.853 502.242 298.7 496.593 294.532 490.227C285.91 477.055 264.501 445.377 249.975 429.796C237.924 416.87 220.077 409.938 212.572 408.033L212.479 408.011C203.847 406.073 190.155 403.244 177.103 401.047ZM157.888 405.328C163.244 405.904 169.496 406.826 175.948 407.913C188.821 410.08 202.355 412.875 210.899 414.791C217.702 416.527 234.094 422.974 244.882 434.545C258.931 449.614 280.023 480.775 288.706 494.04C293.191 500.891 296.707 505.649 298.845 511.156C300.887 516.414 301.667 522.448 299.997 531.52C298.289 540.799 295.365 548.146 290.496 553.454C285.693 558.69 278.665 562.304 267.995 563.495C256.97 564.726 243.232 564.261 230.351 563.97C223.974 563.826 217.811 563.727 212.441 563.925C207.141 564.12 202.29 564.61 198.671 565.783C196.212 566.58 191.102 566.886 184.097 566.573C177.274 566.268 169.15 565.405 161.006 564.172C152.863 562.939 144.768 561.345 138.002 559.591C131.096 557.801 125.998 555.948 123.523 554.344C117.269 550.289 105.503 544.968 94.0434 539.605C82.3108 534.114 70.8318 528.554 64.39 523.852C57.7587 519.012 50.7649 512.533 47.2322 505.901C45.4889 502.629 44.7118 499.55 45.005 496.731C45.29 493.992 46.6266 491.092 49.8913 488.161C57.1682 481.628 66.368 476.732 75.8434 471.208C85.1164 465.802 94.5921 459.816 101.271 451.244C107.721 442.964 115.368 431.772 123.601 422.04C127.666 417.235 131.706 413.001 135.564 409.902C139.488 406.751 142.853 405.078 145.588 404.805C148.191 404.544 152.457 404.743 157.888 405.328Z" fill="#1D1D25"/>
<path d="M169.921 101.532C187.652 85.9073 192.404 76.246 209.463 74.5166C228.935 72.5427 245.725 108.079 257.501 140.39C260.582 147.542 267.935 163.091 272.695 168.073C278.646 174.302 282.332 178.934 280.271 184.262C278.211 189.59 276.996 203.821 279.614 205.158C282.232 206.494 292.657 212.147 292.574 216.834C292.49 221.522 283.673 238.361 285.502 244.906C287.331 251.45 298.202 256.23 295.974 260.593C293.747 264.956 293.515 266.488 287.212 270.861C280.91 275.233 275.572 279.439 275.471 286.317C275.389 291.82 263.906 313.395 258.175 323.495C247.07 356.355 233.225 412.158 224.834 419.974C216.443 427.791 196.955 438.941 175.998 438.275C149.802 437.441 134.158 406.243 138.13 392.43C142.102 378.617 130.133 355.809 122.819 332.139C115.504 308.469 134.424 238.948 135.88 216.92C137.336 194.892 103.256 157.141 78.7834 118.026C54.311 78.9099 79.9009 42.3616 107.582 33.3923C129.726 26.2169 159.043 72.4201 169.921 101.532Z" fill="#DDC54C"/>
<path d="M166.797 348.473C166.125 352.909 169.176 357.049 173.612 357.721C178.048 358.393 182.188 355.341 182.86 350.906C183.532 346.47 180.48 342.329 176.045 341.658C171.609 340.986 167.468 344.037 166.797 348.473Z" fill="#1D1D25"/>
<path d="M170.374 346.55C170.172 347.881 171.088 349.123 172.418 349.324C173.749 349.526 174.991 348.61 175.193 347.28C175.394 345.949 174.479 344.707 173.148 344.505C171.817 344.304 170.575 345.219 170.374 346.55Z" fill="#F6F6F9"/>
<path d="M139.746 341.09C139.074 345.526 142.125 349.666 146.561 350.338C150.997 351.009 155.137 347.958 155.809 343.522C156.481 339.087 153.43 334.946 148.994 334.274C144.558 333.603 140.418 336.654 139.746 341.09Z" fill="#1D1D25"/>
<path d="M143.323 339.167C143.121 340.498 144.037 341.74 145.368 341.941C146.698 342.143 147.94 341.228 148.142 339.897C148.343 338.566 147.428 337.324 146.097 337.122C144.767 336.921 143.524 337.836 143.323 339.167Z" fill="#F6F6F9"/>
<path d="M149.848 363.594C155.846 368.142 161.073 369.407 168.962 369.262C170.93 369.225 172.315 371.092 171.319 372.789C168.923 376.871 163.888 382.576 155.172 380.28C146.562 378.012 145.442 370.25 145.687 365.187C145.789 363.095 148.179 362.328 149.848 363.594Z" fill="#1D1D25"/>
<path d="M154.588 379.487C149.904 378.12 147.722 374.946 146.707 372.221C145.965 370.232 148.008 369.027 149.693 370.319C151.308 371.558 152.78 372.677 154.149 373.083C155.667 373.533 160.144 374.122 164.344 374.686C166.507 374.976 167.267 377.371 165.343 378.398C162.788 379.762 159.099 380.804 154.588 379.487Z" fill="#F6A17B"/>
<path d="M169.921 101.531C159.043 72.4198 129.726 26.2172 107.582 33.3922C79.9015 42.3614 54.3114 78.9091 78.783 118.025L79.9371 119.858C104.312 158.317 137.312 195.235 135.88 216.919L135.799 217.987C133.84 241.109 115.618 308.84 122.819 332.139L123.518 334.355C130.866 357.225 141.979 379.048 138.131 392.429C134.19 406.134 149.559 436.953 175.386 438.249L175.998 438.274C196.3 438.92 215.223 428.476 224.014 420.716L224.834 419.974C233.225 412.157 247.07 356.355 258.175 323.495C263.906 313.395 275.39 291.819 275.471 286.317C275.567 279.868 280.263 275.769 286.042 271.679L287.211 270.861C292.726 267.035 293.595 265.384 295.217 262.108L295.975 260.593C298.202 256.23 287.332 251.449 285.503 244.905C283.674 238.36 292.489 221.523 292.573 216.835C292.646 212.733 284.673 207.891 280.926 205.85L279.614 205.158C277.078 203.863 278.139 190.467 280.081 184.787L280.271 184.261C282.331 178.933 278.646 174.301 272.696 168.073C267.935 163.09 260.583 147.541 257.501 140.39C245.725 108.079 228.935 72.5425 209.463 74.5165C192.404 76.2459 187.652 85.907 169.921 101.531ZM164.017 130.932C165.007 124.401 167.882 115.362 170.676 108.451C172.084 108.298 173.432 107.717 174.524 106.755C179.105 102.719 182.84 99.073 186.045 95.9436C189.307 92.7588 191.88 90.2506 194.385 88.1768C199.04 84.3222 203.227 82.1469 210.165 81.4435C212.662 81.1903 215.607 82.0437 219.206 84.8923C222.852 87.7779 226.657 92.332 230.502 98.3462C238.18 110.357 245.112 126.732 250.959 142.774C251.005 142.899 251.054 143.022 251.107 143.144C252.701 146.846 255.383 152.681 258.295 158.265C261.058 163.564 264.497 169.572 267.661 172.883C270.691 176.054 272.461 178.148 273.364 179.818C274.069 181.122 273.89 181.458 273.777 181.751C272.362 185.409 271.486 191.139 271.235 195.836C271.107 198.25 271.119 200.811 271.426 203.032C271.577 204.121 271.838 205.434 272.351 206.704C272.785 207.776 273.882 210.049 276.448 211.358C277.631 211.962 280.495 213.506 282.961 215.334C284.064 216.151 284.884 216.876 285.408 217.452C285.226 218.115 284.957 218.959 284.597 220.001C283.736 222.488 282.897 224.629 281.757 227.851C280.744 230.716 279.693 233.908 279.027 236.91C278.421 239.641 277.846 243.376 278.797 246.779C279.656 249.852 281.436 252.297 282.956 254.056C284.471 255.809 286.259 257.458 287.441 258.592C287.922 259.053 288.303 259.434 288.608 259.747C288.177 260.61 287.968 261 287.585 261.502C287.114 262.12 286.175 263.105 283.243 265.139C277.438 269.167 268.671 275.269 268.509 286.214C268.513 285.94 268.542 286.152 268.258 287.122C268.008 287.973 267.615 289.086 267.072 290.449C265.988 293.168 264.452 296.518 262.689 300.118C259.61 306.403 255.985 313.153 253.239 318.07L252.119 320.058L251.962 320.349C251.813 320.645 251.685 320.951 251.579 321.265C245.999 337.778 239.64 360.334 233.836 379.065C230.896 388.553 228.09 397.098 225.53 403.708C224.248 407.016 223.075 409.714 222.029 411.746C221.508 412.758 221.056 413.531 220.679 414.096C220.284 414.687 220.079 414.889 220.088 414.88C212.67 421.79 194.887 431.909 176.22 431.315C166.015 430.99 157.358 424.723 151.471 416.247C148.56 412.057 146.51 407.561 145.41 403.488C144.277 399.288 144.309 396.138 144.823 394.353C146.199 389.566 146.084 384.439 145.326 379.462C144.563 374.454 143.075 369.147 141.322 363.809C139.569 358.468 137.455 352.817 135.391 347.201C133.305 341.524 131.241 335.809 129.471 330.082C128.058 325.511 127.751 317.865 128.512 307.771C129.254 297.915 130.935 286.576 132.921 275.101C134.91 263.612 137.158 252.252 139.041 242.165C140.887 232.278 142.431 223.377 142.828 217.379C143.307 210.121 140.868 202.347 137.327 194.737C133.728 187.002 128.605 178.646 122.847 170.016C110.997 152.257 96.9588 133.95 84.6856 114.333C73.6897 96.7575 74.1248 80.2965 79.9781 67.2547C85.9702 53.9041 97.758 43.8937 109.727 40.0151C112.521 39.1098 116.306 39.6045 121.439 42.819C126.545 46.0158 132.059 51.3669 137.543 58.2087C148.486 71.8598 158.188 90.0239 163.398 103.968C163.624 104.573 163.933 105.132 164.304 105.641C161.312 113.005 158.228 122.66 157.133 129.89C155.638 139.765 155.498 150.249 155.345 158.918C155.267 163.302 155.188 167.181 154.946 170.396C154.698 173.713 154.3 175.884 153.792 177.072C153.586 177.556 153.491 178.081 153.516 178.607C153.79 184.354 156.13 189.384 158.893 193.701C161.598 197.929 165.036 201.925 167.503 205.133C176.576 216.932 184.897 226.571 189.266 231.408C185.865 237.037 181.175 245.198 176.722 253.765C171.665 263.493 166.787 273.985 164.534 281.921C161.781 291.621 159.192 305.613 157.687 319.471C156.189 333.26 155.72 347.306 157.395 356.977C157.723 358.871 159.524 360.141 161.419 359.813C163.313 359.485 164.583 357.683 164.255 355.789C162.753 347.117 163.126 333.871 164.608 320.223C166.083 306.643 168.612 293.051 171.232 283.823C173.278 276.617 177.868 266.659 182.901 256.977C187.901 247.357 193.213 238.245 196.564 232.817C197.389 231.48 197.217 229.756 196.144 228.609C192.806 225.043 183.428 214.422 173.023 200.89C170.216 197.24 167.251 193.843 164.758 189.947C162.459 186.355 160.858 182.747 160.521 178.962C161.296 176.723 161.667 173.88 161.889 170.918C162.148 167.467 162.23 163.381 162.307 159.041C162.462 150.264 162.604 140.264 164.017 130.932Z" fill="#1D1D25"/>
</g>
</g>
<defs>
<filter id="filter0_d_2215_9653" x="273.198" y="193.066" width="375.266" height="359.568" filterUnits="userSpaceOnUse" color-interpolation-filters="sRGB">
<feFlood flood-opacity="0" result="BackgroundImageFix"/>
<feColorMatrix in="SourceAlpha" type="matrix" values="0 0 0 0 0 0 0 0 0 0 0 0 0 0 0 0 0 0 127 0" result="hardAlpha"/>
<feOffset dy="3.86782"/>
<feGaussianBlur stdDeviation="2.90086"/>
<feComposite in2="hardAlpha" operator="out"/>
<feColorMatrix type="matrix" values="0 0 0 0 0 0 0 0 0 0 0 0 0 0 0 0 0 0 0.15 0"/>
<feBlend mode="normal" in2="BackgroundImageFix" result="effect1_dropShadow_2215_9653"/>
<feBlend mode="normal" in="SourceGraphic" in2="effect1_dropShadow_2215_9653" result="shape"/>
</filter>
<filter id="filter1_d_2215_9653" x="-36.0792" y="-0.693064" width="446.591" height="633.268" filterUnits="userSpaceOnUse" color-interpolation-filters="sRGB">
<feFlood flood-opacity="0" result="BackgroundImageFix"/>
<feColorMatrix in="SourceAlpha" type="matrix" values="0 0 0 0 0 0 0 0 0 0 0 0 0 0 0 0 0 0 127 0" result="hardAlpha"/>
<feOffset dy="5.38613"/>
<feGaussianBlur stdDeviation="4.0396"/>
<feComposite in2="hardAlpha" operator="out"/>
<feColorMatrix type="matrix" values="0 0 0 0 0 0 0 0 0 0 0 0 0 0 0 0 0 0 0.15 0"/>
<feBlend mode="normal" in2="BackgroundImageFix" result="effect1_dropShadow_2215_9653"/>
<feBlend mode="normal" in="SourceGraphic" in2="effect1_dropShadow_2215_9653" result="shape"/>
</filter>
<clipPath id="clip0_2215_9653">
<rect width="634" height="634" fill="white"/>
</clipPath>
</defs>
</svg>
