<svg width="720" height="560" viewBox="0 0 720 560" fill="none" xmlns="http://www.w3.org/2000/svg">
<g clip-path="url(#clip0_2195_6811)">
<rect width="720" height="560" rx="40" fill="#1D1D25"/>
<g filter="url(#filter0_d_2195_6811)">
<circle cx="359" cy="285" r="308" fill="#1D1D25"/>
</g>
<mask id="mask0_2195_6811" style="mask-type:alpha" maskUnits="userSpaceOnUse" x="52" y="-23" width="616" height="616">
<circle cx="359.876" cy="284.876" r="307.876" fill="#F6F6F9"/>
</mask>
<g mask="url(#mask0_2195_6811)">
<path d="M400.429 -26.9779C413.694 -22.0184 424.468 -16.7901 435.257 -10.8229L445.451 -15.9174L450.384 -6.05094L460.25 -10.9842L465.388 -0.703718C482.709 1.70528 496.554 4.66454 514.093 10.9059L508.105 27.7189C502.535 25.7369 497.385 24.1211 492.342 22.7509C567.231 72.742 615.747 139.136 637.293 212.662C662.603 299.033 650.462 394.405 601.475 483.266L585.838 474.646C632.796 389.467 643.987 298.986 620.162 217.683C601.077 152.557 559.369 92.789 494.622 46.0529C539.088 109.473 563.975 199.609 563.534 289.899C562.967 406.062 520.459 525.502 420.044 591.291L410.265 576.361C503.97 514.967 545.135 402.353 545.684 289.811C546.184 187.388 513.018 87.5276 457.993 29.1527C463.592 102.866 450.001 209.419 425.23 311.758C411.343 369.131 393.854 425.548 374.032 474.594C354.264 523.505 331.954 565.637 308.21 594.015L294.517 582.562C316.513 556.274 337.993 516.126 357.481 467.908C376.915 419.824 394.156 364.258 407.881 307.557C433.621 201.214 446.693 92.158 439.402 21.5132C416.348 39.1366 391.287 68.8561 366.415 106.668C337.483 150.651 309.415 204.619 285.592 260.713C261.77 316.805 242.291 374.798 230.437 426.795C218.52 479.071 214.553 524.271 220.859 555.273L203.366 558.829C196.284 524.008 200.963 475.772 213.032 422.83C225.164 369.609 245.012 310.598 269.162 253.732C293.311 196.869 321.863 141.92 351.502 96.8624C371.811 65.9878 392.928 39.2911 413.808 19.8528C301.845 42.2855 215.386 116.878 164.323 204.805C108.038 301.724 95.9531 412.526 137.325 485.719L121.785 494.505C76.1336 413.741 90.8192 295.836 148.887 195.845C198.35 110.671 280.159 36.8297 386.283 8.0035C231.725 2.57106 106.537 96.7624 64.3814 222.956L47.4551 217.299C93.0435 80.83 229.833 -19.4094 396.502 -9.37171C395.736 -9.66688 394.964 -9.96754 394.179 -10.2607L400.429 -26.9779Z" fill="#B3B5C6"/>
<path d="M651.67 282.603C651.67 121.172 520.804 -9.6942 359.372 -9.6942C197.941 -9.6942 67.0746 121.172 67.0746 282.603C67.0746 444.035 197.941 574.901 359.372 574.901V592.751C188.082 592.751 49.2244 453.893 49.2244 282.603C49.2244 111.313 188.082 -27.5444 359.372 -27.5444C530.662 -27.5444 669.52 111.313 669.52 282.603C669.52 453.893 530.662 592.751 359.372 592.751V574.901C520.804 574.901 651.67 444.035 651.67 282.603Z" fill="#B3B5C6"/>
<path d="M73.1584 380.945C137.818 441.221 221.324 485.227 305.821 509.998C390.395 534.791 475.216 540.1 542.468 523.83L546.669 541.183C475.582 558.382 387.478 552.535 300.801 527.124C214.048 501.692 127.976 456.445 60.9909 394.002L73.1584 380.945ZM66.2161 211.847C84.6 250.716 125.99 287.649 180.181 319.35C234.129 350.908 299.656 376.634 364.693 393.618C429.786 410.617 493.848 418.718 544.865 415.417C570.379 413.766 592.211 409.29 609.166 401.951C626.087 394.626 637.612 384.705 643.655 372.386L659.684 380.248C651.224 397.493 635.763 409.886 616.261 418.328C596.794 426.755 572.76 431.501 546.015 433.232C492.511 436.694 426.459 428.2 360.187 410.893C293.859 393.572 226.763 367.28 171.169 334.759C115.82 302.381 70.7467 263.17 50.0829 219.483L66.2161 211.847ZM158.126 59.9853C153.601 74.0141 156.516 88.9061 166.733 104.768C177.046 120.78 194.424 137.092 217.255 152.893C262.852 184.45 328.115 212.553 394.741 231.628C461.436 250.723 528.434 260.466 577.449 256.072C602.044 253.867 621.044 248.19 633.283 239.333C644.92 230.913 650.87 219.384 649.469 203.04L667.258 201.515C669.204 224.217 660.371 241.766 643.751 253.793C627.734 265.383 605.001 271.525 579.044 273.853C526.955 278.523 457.565 268.184 389.826 248.79C322.019 229.376 254.798 200.581 207.1 167.57C183.284 151.088 163.81 133.198 151.724 114.434C139.541 95.5194 134.507 75.0586 141.138 54.503L158.126 59.9853ZM293.911 -12.8014C290.138 -4.20688 290.763 4.47384 295.467 13.6819C300.328 23.1973 309.518 33.1061 322.482 42.8629C348.364 62.3412 386.992 79.5229 427.104 91.062C467.251 102.611 507.73 108.174 537.134 105.26C551.922 103.795 562.859 100.281 569.635 95.2805C575.825 90.7134 578.896 84.7281 578.077 75.9224L595.849 74.2664C597.261 89.4461 591.337 101.452 580.234 109.644C569.718 117.404 555.065 121.421 538.894 123.023C506.38 126.245 463.465 120.094 422.17 108.215C380.841 96.3257 339.979 78.3643 311.753 57.1221C297.663 46.5188 286.143 34.672 279.569 21.8052C272.838 8.63109 271.302 -5.69892 277.569 -19.9746L293.911 -12.8014Z" fill="#B3B5C6"/>
</g>
<circle cx="516" cy="301" r="16" fill="#F06334"/>
<circle cx="618" cy="205" r="16" fill="#F06334"/>
<circle cx="162" cy="373" r="16" fill="#F06334"/>
<circle cx="266" cy="269" r="16" fill="#F06334"/>
<circle cx="115.751" cy="116" r="16" fill="#F06334"/>
<circle cx="581.751" cy="483" r="16" fill="#F06334"/>
</g>
<defs>
<filter id="filter0_d_2195_6811" x="43.6086" y="-25.4638" width="630.783" height="630.783" filterUnits="userSpaceOnUse" color-interpolation-filters="sRGB">
<feFlood flood-opacity="0" result="BackgroundImageFix"/>
<feColorMatrix in="SourceAlpha" type="matrix" values="0 0 0 0 0 0 0 0 0 0 0 0 0 0 0 0 0 0 127 0" result="hardAlpha"/>
<feOffset dy="4.9276"/>
<feGaussianBlur stdDeviation="3.6957"/>
<feComposite in2="hardAlpha" operator="out"/>
<feColorMatrix type="matrix" values="0 0 0 0 0 0 0 0 0 0 0 0 0 0 0 0 0 0 0.15 0"/>
<feBlend mode="normal" in2="BackgroundImageFix" result="effect1_dropShadow_2195_6811"/>
<feBlend mode="normal" in="SourceGraphic" in2="effect1_dropShadow_2195_6811" result="shape"/>
</filter>
<clipPath id="clip0_2195_6811">
<rect width="720" height="560" rx="40" fill="white"/>
</clipPath>
</defs>
</svg>
