<svg width="436" height="436" viewBox="0 0 436 436" fill="none" xmlns="http://www.w3.org/2000/svg">
<g filter="url(#filter0_d_2194_9716)">
<path d="M168.114 9.0673C176.176 8.73107 183.852 9.70835 188.886 10.8067L190.616 11.1844L192.248 11.869C195.298 13.1488 197.836 13.9118 201.053 14.9351C203.555 15.7312 208.668 17.2848 213.199 20.3667C218.928 24.2642 222.889 29.8372 224.789 36.7766C226.397 42.6512 226.349 48.8946 225.897 54.6558C225.699 57.18 225.552 59.4561 225.448 61.5217C227.099 60.2178 228.646 59.2578 229.79 58.5906C232.778 56.8474 235.987 55.4416 238.786 54.3338C244.215 52.1847 250.743 50.1682 254.539 48.9032C262.752 46.1654 272.449 46.2246 279.05 46.7237C282.699 46.9997 286.301 47.483 289.483 48.1298C291.831 48.6069 296.157 49.5796 299.975 51.6954L300.343 51.9032L300.739 52.1392C304.782 54.6011 307.175 57.9365 308.031 59.1525C309.299 60.9544 310.357 62.8415 311.193 64.4679C312.89 67.7684 314.47 71.5653 315.79 75.1186C317.128 78.7223 318.36 82.5125 319.287 85.9326C320.021 88.6437 321.176 93.2412 321.176 97.4473C321.178 97.5001 321.182 97.6753 321.196 98.0167C321.215 98.4646 321.245 99.0528 321.286 99.79C321.369 101.266 321.488 103.15 321.632 105.375C321.918 109.767 322.296 115.38 322.629 121.048C322.96 126.701 323.26 132.624 323.384 137.709C323.489 142.027 323.557 147.902 322.8 152.12C322.8 152.125 322.786 152.202 322.762 152.369C322.736 152.54 322.705 152.767 322.667 153.057C322.592 153.64 322.505 154.387 322.407 155.296C322.211 157.117 321.993 159.408 321.761 162.044C321.298 167.308 320.802 173.694 320.346 179.958C320.183 182.202 320.03 184.38 319.885 186.448C319.919 186.436 319.952 186.423 319.986 186.412C326.19 184.254 331.811 184.256 336.117 184.604L336.96 184.678C343.089 185.253 352.063 188.155 359.017 191C362.826 192.558 366.929 194.463 370.635 196.635C373.637 198.394 378.591 201.566 382.172 206.375L382.515 206.845L382.837 207.31C386.103 212.115 387.39 217.216 387.949 221.063C388.543 225.154 388.5 229.159 388.275 232.536C387.834 239.145 386.471 245.947 385.756 249.786C384.133 258.513 379.055 266.343 375.675 271.142C372.305 275.927 367.367 281.973 365.868 283.952C363.992 286.429 357.659 296.226 350.815 306.959C346.19 314.211 341.137 322.204 338.261 326.608C338.018 328.179 337.771 330.374 337.535 333.096C337.146 337.584 336.871 342.432 336.622 346.783L336.379 350.936C335.748 361.248 330.409 370.444 326.443 376.254C322.045 382.696 316.914 388.391 313.07 392.236C309.345 395.961 304.801 398.645 301.279 400.474C297.483 402.446 293.4 404.166 289.641 405.604C282.123 408.48 274.624 410.703 270.96 411.792L270.959 411.791L270.933 411.8C267.251 412.894 262.122 413.588 257.978 414.075C253.273 414.627 247.778 415.128 242.359 415.549C231.709 416.376 220.316 416.973 214.961 416.973C213.45 416.973 210.366 417.15 205.472 417.464C200.932 417.755 195.347 418.123 189.762 418.369C184.224 418.613 178.269 418.759 172.942 418.551C168.601 418.381 161.405 417.936 155.491 415.323C150.008 412.9 145.854 410.404 142.946 408.517C142.557 408.264 142.059 407.932 141.582 407.614H141.579C139.905 407.226 137.65 406.689 135.218 406.042C132.819 405.405 130.046 404.607 127.366 403.674C124.94 402.83 121.514 401.515 118.405 399.601C110.332 394.633 106.374 386.337 104.432 381.961C102.309 377.177 100.016 370.538 98.3548 366.189C95.7874 359.464 93.8985 352.26 92.9865 345.518C92.2397 339.998 91.8172 332.525 93.8609 325.546C93.7611 325.308 93.647 325.039 93.5106 324.722C93.2893 324.208 92.9558 323.442 92.6513 322.722C89.9628 316.367 89.6861 309.154 89.6116 305.332C89.5458 301.955 89.7325 295.174 89.7325 294.724C89.7325 292.018 89.8914 285.955 89.9582 281.286C89.9946 278.735 90.0101 276.37 89.9855 274.467C89.9692 273.2 89.9362 272.48 89.9223 272.169C89.8098 271.779 89.4065 270.162 88.4681 266.81C87.4236 263.079 86.058 258.36 84.6409 253.487C81.9574 244.259 78.7721 233.433 77.9203 229.783C78.0523 230.349 77.5856 228.824 75.536 224.083C73.8244 220.125 71.5826 215.203 69.2253 210.159C64.4204 199.877 59.5858 190.051 58.1214 187.366C55.8491 183.201 52.6277 176.393 50.2469 168.478C47.9489 160.837 45.8821 150.38 47.687 139.715C51.3979 117.787 66.7997 109.103 73.4066 103.998C81.979 97.3738 93.5864 94.7417 101.977 93.8788C106.582 93.4052 111.421 93.3367 115.975 93.8561C118.279 94.1189 121.423 94.6237 124.743 95.7844C124.371 87.1262 124.044 78.7211 123.398 72.1072C121.922 56.9731 119.851 33.4815 140.246 17.9068L140.677 17.5839C149.743 10.8761 160.776 9.37338 168.114 9.0673Z" fill="#F6F6F9"/>
<path d="M206.618 53.1437C208.207 32.8796 200.856 36.4556 184.764 29.7009C177.48 28.1116 160.725 26.6017 151.984 33.2769C141.057 41.621 141.057 53.9386 142.647 70.2292C144.236 86.5198 144.037 112.546 146.223 119.3C148.408 126.055 151.984 149.1 151.984 155.855C151.984 161.259 149.997 164.729 149.004 165.788C145.693 158.305 138.673 142.187 137.084 137.578C135.097 131.816 126.555 119.3 120.595 115.128C114.634 110.956 93.9731 112.546 85.2317 119.3C76.4903 126.055 68.9409 130.028 66.7556 142.942C64.5703 155.855 71.5236 171.55 75.0996 178.106C78.6757 184.662 95.3638 219.429 96.7544 225.389C98.1451 231.349 108.476 265.321 109.072 269.294C109.668 273.267 109.072 289.558 109.072 294.724C109.072 299.889 108.277 310.021 110.463 315.186C112.648 320.352 114.833 324.325 112.648 330.285C110.463 336.245 112.251 348.364 116.423 359.29C120.595 370.217 123.376 379.952 128.541 383.131C133.707 386.309 147.613 389.091 149.004 389.488C150.395 389.885 154.765 393.859 163.308 397.633C171.851 401.408 205.823 397.633 214.962 397.633C224.1 397.633 258.072 395.448 265.423 393.263L265.449 393.255C272.821 391.063 292.847 385.11 299.395 378.561C305.951 372.005 316.481 359.489 317.077 349.754C317.673 340.02 318.467 321.146 320.653 318.166C322.838 315.186 345.486 278.83 350.453 272.274C355.42 265.718 365.154 254.791 366.744 246.249C368.333 237.706 371.114 224.197 366.744 218.038C362.373 211.879 341.513 204.528 335.155 203.932C328.798 203.336 324.03 204.131 317.077 211.085C311.394 216.767 305.845 231.604 301.837 238.898C301.09 236.315 299.713 230.316 300.19 226.978C300.786 222.806 299.395 205.72 299.395 203.932C299.395 202.144 302.375 156.451 303.766 148.703C305.157 140.955 301.837 102.811 301.837 97.4467C301.837 92.0827 294.429 70.8252 290.654 68.6399C286.879 66.4546 269.595 64.2692 260.655 67.2492C251.715 70.2292 238.603 74.0039 235.623 78.5733C232.643 83.1426 232.643 92.0827 231.848 97.4467C231.054 102.811 232.246 112.546 233.239 119.3C234.232 126.055 235.623 141.551 235.623 148.703C235.623 155.855 233.239 166.781 233.239 170.954C233.239 175.126 234.034 179.695 231.848 184.86C230.1 188.993 229.795 192.675 229.862 193.999C225.955 194.198 216.988 194.952 212.379 196.383V170.954C212.379 160.623 213.372 133.803 212.379 126.055C211.386 118.307 206.618 90.6919 206.618 86.5198C206.618 82.3478 205.028 73.4078 206.618 53.1437Z" fill="#FDAAFD"/>
<path d="M205.167 86.5196C205.167 82.6032 203.579 73.3349 205.172 53.0303C205.565 48.0165 205.387 44.6403 204.737 42.2645C204.109 39.9687 203.038 38.5978 201.506 37.5553C199.883 36.4516 197.71 35.6874 194.751 34.746C191.877 33.8317 188.376 32.7792 184.337 31.0926C180.787 30.3296 174.965 29.5889 168.981 29.8386C162.884 30.0929 156.877 31.3656 152.864 34.4297C142.648 42.2314 142.492 53.7108 144.09 70.088C144.89 78.2828 145.24 88.9222 145.66 98.2751C145.871 102.967 146.099 107.337 146.41 110.949C146.725 114.607 147.114 117.343 147.603 118.853C148.736 122.355 150.19 129.915 151.355 137.353C152.521 144.79 153.435 152.348 153.435 155.855C153.435 160.618 151.981 164.074 150.759 165.885C153.502 170.411 158.571 178.943 160.246 182.446C161.405 184.87 163.035 190.494 164.577 195.832C165.361 198.543 166.133 201.223 166.832 203.485C167.541 205.778 168.146 207.541 168.591 208.474C169.478 210.338 170.234 213.583 170.818 216.714C171.413 219.903 171.865 223.176 172.1 225.223L169.218 225.554C168.989 223.562 168.547 220.357 167.966 217.246C167.375 214.077 166.674 211.195 165.972 209.721C165.423 208.568 164.761 206.606 164.061 204.343C163.351 202.048 162.572 199.339 161.791 196.637C160.204 191.148 158.655 185.844 157.628 183.698C155.919 180.125 150.363 170.805 147.765 166.543L147.716 166.462L147.677 166.375C144.381 158.925 137.327 142.734 135.712 138.051C134.788 135.371 132.254 130.937 129.149 126.601C126.041 122.259 122.532 118.256 119.762 116.317C118.573 115.484 116.457 114.835 113.62 114.511C110.831 114.193 107.523 114.208 104.104 114.559C97.2052 115.269 90.1736 117.314 86.1181 120.448C77.2168 127.326 70.257 130.947 68.1861 143.184C67.1469 149.325 68.2727 156.229 70.1559 162.49C72.0329 168.73 74.6214 174.2 76.3731 177.411C78.1855 180.734 83.2687 191.103 88.0606 201.357C90.4599 206.491 92.7949 211.615 94.6187 215.833C96.4169 219.992 97.7836 223.414 98.1673 225.058C98.8509 227.988 101.762 237.908 104.604 247.681C106.019 252.548 107.412 257.36 108.488 261.205C109.549 264.992 110.34 267.972 110.506 269.078C110.827 271.213 110.819 276.429 110.745 281.583C110.67 286.839 110.522 292.15 110.522 294.723C110.522 297.466 110.323 301.069 110.398 304.927C110.472 308.751 110.825 312.321 111.798 314.621C113.924 319.645 116.428 324.189 114.01 330.784C113.041 333.425 112.902 337.657 113.589 342.73C114.268 347.751 115.728 353.404 117.777 358.773C119.895 364.32 121.592 369.375 123.435 373.527C125.291 377.711 127.131 380.559 129.302 381.895C131.674 383.355 136.235 384.8 140.56 385.95C142.687 386.516 144.701 386.997 146.274 387.361C147.799 387.715 149.008 387.98 149.403 388.093C149.751 388.193 150.095 388.371 150.388 388.538C150.698 388.716 151.048 388.939 151.423 389.187C152.211 389.706 153.088 390.314 154.264 391.077C156.555 392.564 159.714 394.459 163.894 396.307C165.746 397.125 169.211 397.599 173.754 397.777C178.223 397.951 183.51 397.835 188.848 397.599C194.182 397.364 199.536 397.012 204.144 396.716C208.726 396.423 212.619 396.183 214.962 396.183C219.473 396.183 230.204 395.64 240.751 394.821C246.017 394.412 251.218 393.936 255.553 393.426C259.931 392.912 263.31 392.377 265.009 391.872L265.036 391.865C268.723 390.768 275.524 388.746 282.212 386.188C285.557 384.908 288.85 383.503 291.697 382.024C294.564 380.535 296.889 379.016 298.369 377.536C301.605 374.3 305.812 369.602 309.273 364.532C312.766 359.415 315.356 354.125 315.629 349.666C315.925 344.826 316.275 337.634 316.824 331.302C317.098 328.136 317.425 325.148 317.825 322.751C318.025 321.554 318.248 320.476 318.501 319.585C318.741 318.734 319.048 317.901 319.483 317.308C320.538 315.869 326.698 306.114 333.287 295.781C339.821 285.534 346.768 274.737 349.297 271.399C351.854 268.023 355.435 263.778 358.679 259.171C361.923 254.565 364.585 249.92 365.318 245.983C366.118 241.679 367.19 236.263 367.531 231.153C367.701 228.603 367.684 226.18 367.375 224.051C367.065 221.913 366.472 220.162 365.56 218.877C364.656 217.603 362.762 216.117 360.125 214.571C357.533 213.052 354.384 211.566 351.146 210.242C344.62 207.572 337.977 205.654 335.02 205.377C331.933 205.087 329.39 205.152 326.816 206.047C324.235 206.945 321.485 208.727 318.102 212.11C315.458 214.754 312.744 219.664 310.132 225.023C307.586 230.247 305.13 235.917 303.109 239.597L303.108 239.596C302.21 241.229 301.3 242.664 300.394 243.525C298.772 245.065 297.155 246.447 295.668 247.715C294.167 248.994 292.816 250.143 291.665 251.262L289.643 249.182C290.876 247.983 292.306 246.768 293.786 245.507C295.278 244.235 296.839 242.901 298.397 241.422C298.884 240.959 299.513 240.056 300.279 238.711C299.912 237.364 299.459 235.451 299.124 233.463C298.742 231.202 298.482 228.678 298.755 226.772C298.884 225.864 298.914 224.129 298.867 221.899C298.821 219.706 298.704 217.142 298.568 214.64C298.299 209.713 297.945 204.878 297.945 203.933C297.945 202.97 298.697 191.022 299.613 178.447C300.528 165.879 301.626 152.416 302.338 148.446C302.655 146.68 302.718 142.996 302.602 138.215C302.487 133.491 302.203 127.848 301.875 122.266C301.224 111.173 300.387 100.185 300.387 97.447C300.387 96.3209 299.976 94.1559 299.221 91.3695C298.48 88.6361 297.45 85.4496 296.301 82.3562C295.151 79.2591 293.894 76.2871 292.704 73.9719C292.108 72.8125 291.543 71.8459 291.032 71.1201C290.493 70.3536 290.113 70.0032 289.927 69.8954C289.206 69.4777 287.624 68.9661 285.343 68.5025C283.119 68.0505 280.385 67.673 277.482 67.4534C271.624 67.0104 265.303 67.229 261.114 68.6253C256.594 70.1322 251.156 71.7963 246.438 73.664C244.085 74.5954 241.963 75.5574 240.265 76.5479C238.535 77.5574 237.395 78.5115 236.838 79.3657C235.542 81.3535 234.824 84.4388 234.353 87.9068C234.122 89.6115 233.957 91.3459 233.799 93.0145C233.641 94.6675 233.488 96.2733 233.283 97.6594C232.912 100.166 232.997 103.801 233.319 107.734C233.638 111.637 234.179 115.725 234.674 119.089C235.674 125.891 237.073 141.461 237.073 148.703C237.073 152.399 236.46 157.02 235.867 161.152C235.258 165.386 234.689 169.003 234.689 170.953C234.689 174.853 235.52 179.904 233.184 185.426C231.985 188.26 231.513 190.85 231.363 192.489C232.732 192.441 234.399 192.396 236.031 192.379C238.322 192.356 240.661 192.387 241.973 192.562C242.897 192.685 244.073 193.061 245.282 193.532C246.519 194.015 247.889 194.637 249.235 195.309C251.89 196.637 254.6 198.238 256.029 199.447C256.544 199.883 257.242 200.295 258.139 200.763C258.98 201.202 260.067 201.725 261.087 202.292C263.192 203.461 265.491 205.059 267.074 207.771C268.376 210.004 269.734 211.939 270.713 214.051C271.743 216.275 272.425 218.793 272.633 222.527C273.031 229.7 273.243 237.022 271.408 245.177C270.545 249.01 270.2 253.862 270.052 258.292C269.978 260.496 269.952 262.574 269.934 264.346C269.915 266.099 269.903 267.592 269.852 268.575C269.784 269.867 270.185 272.481 270.783 275.4C271.367 278.249 272.094 281.191 272.585 283.024L269.784 283.774C269.281 281.899 268.538 278.9 267.94 275.982C267.357 273.133 266.864 270.15 266.955 268.423C267.002 267.518 267.015 266.107 267.034 264.315C267.053 262.542 267.077 260.435 267.152 258.195C267.301 253.734 267.652 248.653 268.578 244.539C270.319 236.8 270.133 229.818 269.736 222.687C269.547 219.27 268.937 217.118 268.08 215.27C267.171 213.309 266.046 211.767 264.567 209.232C263.368 207.177 261.596 205.893 259.678 204.828C258.686 204.277 257.773 203.844 256.796 203.334C255.874 202.853 254.932 202.319 254.156 201.663C253.002 200.686 250.547 199.208 247.938 197.903C246.651 197.26 245.363 196.678 244.228 196.235C243.066 195.782 242.156 195.512 241.59 195.437C240.518 195.294 238.387 195.257 236.059 195.28C233.77 195.303 231.403 195.383 229.926 195.448L229.925 195.447C226.011 195.647 217.282 196.395 212.859 197.753C211.252 198.388 208.759 199.591 206.51 201.135C204.171 202.739 202.39 204.514 201.834 206.179C200.938 208.867 199.881 212.099 199.306 215.429C198.729 218.768 198.666 222.067 199.646 224.917C200.814 228.317 201.362 234.028 201.634 239.295C201.909 244.625 201.909 249.725 201.909 252.01C201.909 254.427 201.339 258.237 200.801 261.975C200.25 265.81 199.724 269.619 199.724 272.274H196.823C196.823 269.366 197.389 265.327 197.931 261.563C198.486 257.703 199.008 254.163 199.008 252.01C199.008 249.727 199.008 244.693 198.737 239.445C198.463 234.132 197.918 228.818 196.901 225.86C195.696 222.353 195.832 218.499 196.447 214.935C197.064 211.361 198.191 207.937 199.083 205.261C199.958 202.636 202.449 200.403 204.868 198.743C206.955 197.311 209.21 196.16 210.929 195.415V170.953C210.929 165.778 211.177 156.443 211.301 147.515C211.426 138.506 211.421 129.987 210.94 126.239C210.447 122.392 209.013 113.591 207.693 105.171C207.035 100.973 206.406 96.8778 205.942 93.5687C205.485 90.3133 205.167 87.6876 205.167 86.5196ZM133.05 292.538C133.05 291.055 132.852 289.292 132.588 287.263C132.327 285.264 132.005 283.022 131.791 280.702C131.362 276.062 131.339 270.885 133.141 266.009C134.687 261.826 138.596 258.927 142.525 257.005C146.448 255.086 150.679 253.999 153.449 253.572C158.35 252.056 164.208 251.256 169.36 251.23C171.959 251.218 174.417 251.401 176.509 251.805C178.562 252.202 180.428 252.843 181.696 253.857C183.753 255.503 186.098 257.747 188.036 259.94C189.006 261.037 189.891 262.141 190.593 263.167C191.277 264.168 191.855 265.192 192.119 266.114C192.478 267.372 193.766 270.395 195.289 273.616C196.802 276.816 198.456 280.017 199.492 281.618C201.112 284.121 202.949 285.407 203.492 285.678L202.194 288.273C201.148 287.75 198.932 286.094 197.055 283.194C195.906 281.417 194.182 278.062 192.666 274.856C191.16 271.669 189.764 268.435 189.329 266.911C189.195 266.443 188.83 265.728 188.198 264.805C187.583 263.906 186.78 262.899 185.863 261.861C184.026 259.783 181.801 257.656 179.884 256.123C179.166 255.548 177.854 255.02 175.958 254.653C174.102 254.295 171.842 254.119 169.374 254.131C164.433 254.155 158.817 254.932 154.204 256.374L154.098 256.408L153.987 256.424C151.457 256.804 147.461 257.82 143.8 259.611C140.095 261.424 137.017 263.888 135.862 267.015C134.286 271.279 134.264 275.936 134.679 280.434C134.887 282.683 135.198 284.838 135.465 286.887C135.728 288.906 135.951 290.843 135.951 292.538C135.951 295.494 136.984 299.766 138.191 304.47C139.369 309.061 140.699 314.009 141.11 318.018C141.303 319.902 141.556 321.401 141.793 322.733C142.027 324.049 142.258 325.268 142.377 326.495C142.624 329.047 142.383 331.585 141.046 335.7L138.287 334.803C139.533 330.971 139.689 328.84 139.489 326.774C139.385 325.691 139.181 324.613 138.937 323.241C138.696 321.885 138.428 320.304 138.224 318.314C137.841 314.575 136.586 309.888 135.381 305.191C134.204 300.608 133.05 295.94 133.05 292.538ZM208.068 86.5196C208.068 87.4376 208.346 89.8288 208.815 93.1665C209.275 96.4506 209.901 100.526 210.559 104.722C211.871 113.089 213.317 121.969 213.817 125.87C214.33 129.871 214.325 138.636 214.202 147.556C214.077 156.557 213.83 165.798 213.83 170.953V194.496C218.272 193.468 224.654 192.875 228.443 192.631C228.579 190.683 229.108 187.616 230.513 184.295C232.547 179.486 231.788 175.398 231.788 170.953C231.788 168.732 232.412 164.799 232.995 160.739C233.593 156.577 234.173 152.159 234.173 148.703C234.173 141.641 232.791 126.218 231.804 119.511C231.306 116.121 230.754 111.964 230.428 107.97C230.103 104.007 229.99 100.091 230.413 97.2345C230.605 95.9386 230.751 94.4143 230.91 92.7397C231.068 91.0806 231.238 89.2886 231.479 87.5168C231.952 84.0316 232.724 80.3626 234.408 77.7811C235.341 76.3507 236.958 75.1191 238.803 74.0427C240.681 72.9472 242.955 71.9222 245.37 70.9662C250.188 69.0592 255.777 67.3458 260.196 65.8727C264.947 64.2891 271.739 64.1102 277.701 64.5611C280.708 64.7885 283.563 65.181 285.921 65.6602C288.221 66.1279 290.215 66.7096 291.381 67.3845C292.138 67.8231 292.816 68.6148 293.404 69.4497C294.021 70.3255 294.654 71.4207 295.283 72.6451C296.544 75.0978 297.847 78.1851 299.021 81.3458C300.196 84.5104 301.254 87.7811 302.021 90.6103C302.773 93.3864 303.288 95.8911 303.288 97.447C303.288 100.074 304.11 110.839 304.771 122.096C305.099 127.688 305.385 133.37 305.501 138.144C305.616 142.861 305.572 146.851 305.194 148.959C304.516 152.737 303.428 165.995 302.505 178.658C301.583 191.314 300.846 203.107 300.846 203.933C300.846 204.778 301.187 209.378 301.465 214.482C301.602 216.996 301.721 219.597 301.768 221.837C301.814 224.04 301.794 226.005 301.626 227.183C301.422 228.615 301.61 230.76 301.985 232.979C302.087 233.585 302.201 234.185 302.32 234.761C303.883 231.542 305.621 227.658 307.525 223.752C310.11 218.448 313.012 213.097 316.051 210.058C319.621 206.488 322.732 204.397 325.863 203.308C329.001 202.216 332.021 202.181 335.291 202.488C338.691 202.807 345.658 204.863 352.244 207.557C355.562 208.914 358.844 210.458 361.591 212.068C364.293 213.651 366.646 215.393 367.927 217.198C369.2 218.993 369.898 221.24 370.246 223.634C370.595 226.037 370.604 228.68 370.426 231.346C370.072 236.665 368.958 242.275 368.169 246.514C367.312 251.119 364.313 256.209 361.05 260.841C357.788 265.473 354.019 269.97 351.609 273.15C349.171 276.368 342.311 287.026 335.733 297.341C329.21 307.57 322.953 317.482 321.823 319.024C321.711 319.176 321.515 319.584 321.292 320.374C321.08 321.123 320.878 322.086 320.687 323.229C320.305 325.513 319.986 328.412 319.714 331.553C319.17 337.836 318.824 344.948 318.524 349.843C318.201 355.118 315.228 360.954 311.669 366.168C308.077 371.429 303.742 376.266 300.421 379.587C298.628 381.38 295.993 383.061 293.034 384.598C290.054 386.146 286.651 387.595 283.249 388.897C276.445 391.5 269.546 393.55 265.862 394.646L265.837 394.653C263.861 395.241 260.236 395.797 255.891 396.307C251.504 396.823 246.263 397.303 240.975 397.714C230.414 398.534 219.59 399.084 214.962 399.084C212.735 399.084 208.954 399.315 204.329 399.612C199.73 399.906 194.344 400.261 188.975 400.497C183.609 400.734 178.229 400.854 173.641 400.675C169.126 400.498 165.141 400.029 162.722 398.96C158.36 397.032 155.061 395.053 152.684 393.51C151.526 392.759 150.516 392.063 149.826 391.608C149.462 391.368 149.175 391.187 148.947 391.056C148.709 390.92 148.611 390.884 148.606 390.883C148.305 390.797 147.254 390.566 145.619 390.187C144.032 389.819 141.985 389.331 139.815 388.754C135.549 387.62 130.574 386.084 127.781 384.366C124.787 382.523 122.652 378.914 120.784 374.704C118.902 370.463 117.121 365.188 115.067 359.808C112.945 354.25 111.426 348.38 110.714 343.119C110.01 337.912 110.069 333.105 111.286 329.786C113.239 324.461 111.372 321.057 109.127 315.751C107.914 312.885 107.572 308.807 107.498 304.983C107.424 301.192 107.622 297.146 107.622 294.723C107.622 292.132 107.771 286.715 107.845 281.541C107.921 276.264 107.913 271.348 107.638 269.509C107.506 268.629 106.782 265.872 105.694 261.987C104.622 258.158 103.234 253.359 101.818 248.491C98.9981 238.795 96.0492 228.749 95.342 225.718C95.0303 224.383 93.7892 221.224 91.9558 216.984C90.1476 212.802 87.8261 207.706 85.4326 202.584C80.639 192.326 75.5902 182.034 73.8263 178.8C72.002 175.456 69.3251 169.8 67.3778 163.325C65.4366 156.872 64.1797 149.472 65.3258 142.699C67.6256 129.11 75.7635 124.783 84.3448 118.152C89.0306 114.532 96.7005 112.405 103.808 111.674C107.392 111.305 110.913 111.283 113.948 111.629C116.934 111.97 119.636 112.687 121.426 113.94C124.616 116.173 128.359 120.513 131.508 124.913C134.662 129.318 137.393 134.023 138.455 137.104C139.86 141.179 145.641 154.543 149.213 162.666C149.888 161.122 150.534 158.828 150.534 155.855C150.534 152.607 149.659 145.265 148.49 137.802C147.32 130.34 145.895 122.999 144.843 119.746C144.239 117.879 143.833 114.829 143.521 111.199C143.204 107.522 142.974 103.1 142.762 98.4054C142.339 88.9845 141.993 78.4659 141.203 70.3704C139.622 54.1665 139.466 41.0101 151.103 32.1237C155.832 28.5127 162.573 27.2028 168.86 26.9405C174.796 26.6929 180.559 27.3719 184.343 28.1313L185.073 28.2833L185.203 28.3116L185.325 28.3636C189.275 30.0215 192.682 31.043 195.63 31.9812C198.526 32.9023 201.109 33.7771 203.138 35.1568C205.255 36.5976 206.729 38.5549 207.535 41.4987C208.319 44.3627 208.465 48.1388 208.064 53.257C206.478 73.4801 208.068 82.0919 208.068 86.5196Z" fill="#1D1D25"/>
<path d="M258.121 72.2142C263.026 70.8942 263.039 70.8259 266.448 70.3824C268.783 70.0786 272.823 70.637 276.748 71.1009C279.235 71.6581 281.064 72.1793 281.564 73.5421C281.673 73.8395 281.744 74.2178 281.636 74.5041C281.24 75.564 280.35 76.9425 275.676 79.5082C273.543 80.6789 270.388 82.2766 267.845 83.4527C265.301 84.6288 263.426 85.361 260.768 86.0881C258.111 86.8151 254.774 87.5157 252.196 87.8414C249.619 88.1671 247.825 88.2815 246.364 87.9231C242.166 86.8943 240.911 86.4538 240.317 85.4349C239.943 84.7928 239.678 83.9241 239.814 83.0671C239.915 82.4291 240.076 81.8308 241.383 80.7746C244.36 78.3686 247.402 75.8497 249.943 74.9542C252.269 74.1346 254.966 73.0631 258.121 72.2142Z" fill="#F034ED"/>
<path d="M266.261 68.9438C267.599 68.7699 269.33 68.8487 271.13 69.009C272.04 69.09 273.002 69.1954 273.979 69.3093L276.918 69.6606L276.992 69.6691L277.065 69.6861C278.294 69.9616 279.51 70.257 280.492 70.6946C281.482 71.1362 282.48 71.8307 282.925 73.043C283.064 73.4222 283.291 74.2214 282.995 75.0128C282.41 76.5745 281.13 78.1684 276.374 80.7796C274.211 81.9666 271.026 83.5794 268.453 84.7692C265.855 85.9706 263.902 86.734 261.151 87.4869C258.441 88.2283 255.036 88.9452 252.378 89.281C249.823 89.6039 247.775 89.7626 246.018 89.332C243.94 88.8226 242.474 88.4324 241.449 88.0214C240.377 87.5914 239.586 87.0607 239.064 86.1649C238.574 85.3243 238.178 84.1177 238.381 82.84C238.443 82.4511 238.546 81.9289 238.901 81.3339C239.238 80.7712 239.745 80.2326 240.471 79.6464C241.945 78.4553 243.488 77.1926 244.98 76.1205C246.46 75.0564 247.991 74.104 249.461 73.586C251.724 72.7887 254.519 71.6814 257.744 70.8135C262.648 69.4937 262.746 69.4012 266.261 68.9438ZM270.873 71.8985C269.088 71.7396 267.632 71.6914 266.635 71.8211C263.333 72.2507 263.403 72.2951 258.497 73.6153C255.414 74.4451 252.813 75.4808 250.424 76.3225C249.353 76.7001 248.093 77.4549 246.673 78.4755C245.264 79.4881 243.798 80.6884 242.294 81.9033C241.713 82.3732 241.486 82.6621 241.39 82.8221C241.314 82.9497 241.286 83.0461 241.246 83.2952C241.177 83.7313 241.311 84.2615 241.57 84.705C241.642 84.8281 241.775 85.0271 242.528 85.3292C243.329 85.6503 244.59 85.9949 246.709 86.5143C247.875 86.8002 249.415 86.7313 252.015 86.4028C254.511 86.0873 257.781 85.4016 260.386 84.689C262.948 83.9878 264.747 83.2872 267.236 82.1365C269.75 80.9742 272.875 79.3909 274.978 78.2366C279.249 75.8916 279.976 74.7203 280.225 74.1195C280.219 74.095 280.211 74.0685 280.202 74.0421C280.147 73.8916 279.981 73.6432 279.31 73.3442C278.643 73.0468 277.722 72.8074 276.499 72.5322C274.542 72.3003 272.615 72.0536 270.873 71.8985Z" fill="#1D1D25"/>
<path d="M227.767 201.386C232.149 201.155 231.989 201.386 236.815 201.386C238.713 201.386 241.536 201.748 243.437 202.359C245.338 202.971 247.814 203.905 249.539 204.642C253.449 206.671 255.708 208.154 256.098 209.71C256.35 210.714 256.635 211.981 255.772 213.229C254.915 214.467 253.848 215.625 250.095 216.616C247.748 217.237 246.179 217.586 242.757 217.451C239.701 217.33 234.122 217.076 229.719 216.593C225.317 216.11 222.185 215.42 220.386 214.963C218.586 214.506 218.09 214.345 217.388 213.791C214.153 211.239 212.349 209.453 212.474 207.873C212.525 207.232 212.729 206.654 213.177 206.205C213.623 205.758 214.867 204.637 217.063 203.73C218.931 202.959 222.581 201.659 227.767 201.386Z" fill="#F034ED"/>
<path d="M227.69 199.937C232.098 199.705 232.165 199.935 236.815 199.935C238.832 199.935 241.809 200.312 243.881 200.978C245.583 201.526 247.725 202.322 249.415 203.018L250.109 203.308L250.159 203.329L250.207 203.355C252.169 204.373 253.8 205.296 255.003 206.189C256.163 207.051 257.182 208.068 257.505 209.357C257.754 210.348 258.233 212.222 256.965 214.054C256.482 214.752 255.879 215.509 254.83 216.217C253.807 216.906 252.436 217.497 250.466 218.018C248.025 218.663 246.307 219.042 242.7 218.9C239.644 218.779 234.02 218.524 229.562 218.035C225.083 217.544 221.884 216.84 220.029 216.369C218.251 215.918 217.465 215.699 216.49 214.93C214.867 213.65 213.513 212.494 212.577 211.421C211.671 210.382 210.917 209.153 211.028 207.758C211.098 206.878 211.394 205.938 212.151 205.18C212.699 204.631 214.098 203.384 216.51 202.389C218.477 201.576 222.293 200.222 227.69 199.937ZM236.815 202.836C231.813 202.836 232.199 202.604 227.843 202.834C222.87 203.095 219.385 204.341 217.616 205.071C215.636 205.888 214.547 206.885 214.204 207.229C214.064 207.369 213.952 207.585 213.92 207.987C213.906 208.172 213.991 208.627 214.764 209.514C215.508 210.367 216.675 211.381 218.287 212.652C218.716 212.991 218.921 213.094 220.743 213.557C222.487 214 225.551 214.676 229.877 215.151C234.224 215.627 239.757 215.881 242.815 216.002C246.051 216.129 247.471 215.809 249.725 215.213C251.508 214.742 252.545 214.259 253.208 213.812C253.845 213.383 254.206 212.943 254.58 212.403C255.038 211.741 254.946 211.079 254.691 210.062C254.624 209.795 254.317 209.292 253.274 208.517C252.278 207.778 250.837 206.952 248.91 205.951C247.227 205.234 244.827 204.329 242.992 203.739C241.262 203.183 238.593 202.836 236.815 202.836Z" fill="#1D1D25"/>
<path d="M336.977 210.427C335.102 209.029 334.159 208.197 334.195 207.943C334.832 207.202 336.401 207.386 337.142 207.509C341.023 207.864 342.131 208.479 345.552 209.406C347.738 210.13 351.743 211.489 353.96 212.313C356.166 213.133 356.601 213.401 357.356 213.866L357.368 213.874C360.965 216.091 363.081 217.461 363.444 219.195C363.574 219.815 363.608 220.419 363.342 220.914C363.218 221.145 363.035 221.344 362.586 221.378C361.464 221.463 356.602 221.818 353.553 220.407C351.618 219.512 349.395 218.096 346.432 216.392C342.098 213.9 338.761 211.757 336.977 210.427Z" fill="#F034ED"/>
<path d="M335.55 205.954C336.243 205.915 336.915 206.004 337.324 206.07C340.83 206.395 342.286 206.955 344.782 207.683L345.931 208.006L345.969 208.017L346.007 208.029C348.196 208.754 352.222 210.12 354.466 210.954C356.741 211.799 357.265 212.107 358.117 212.632L358.13 212.639C359.906 213.734 361.424 214.684 362.537 215.593C363.64 216.494 364.579 217.537 364.864 218.898C365.008 219.586 365.141 220.631 364.62 221.601C364.5 221.825 364.292 222.144 363.923 222.405C363.549 222.669 363.124 222.792 362.695 222.824C362.12 222.868 360.555 222.984 358.729 222.903C356.937 222.823 354.73 222.55 352.944 221.723C350.932 220.793 348.583 219.302 345.71 217.65C341.357 215.147 337.962 212.971 336.11 211.59C335.164 210.884 334.419 210.297 333.905 209.839C333.653 209.615 333.417 209.387 333.236 209.169C333.146 209.062 333.034 208.914 332.942 208.737C332.869 208.599 332.691 208.225 332.759 207.742L332.817 207.32L333.096 206.996C333.82 206.154 334.9 205.99 335.55 205.954ZM337.845 209.264C339.56 210.544 342.84 212.653 347.155 215.135C350.209 216.891 352.305 218.231 354.162 219.091C355.426 219.675 357.174 219.93 358.857 220.005C360.202 220.064 361.398 220.004 362.09 219.958C362.085 219.838 362.064 219.685 362.024 219.493C361.946 219.12 361.645 218.611 360.701 217.839C359.767 217.076 358.428 216.231 356.608 215.109L356.594 215.101C355.937 214.696 355.592 214.466 353.456 213.672C351.271 212.86 347.307 211.515 345.118 210.79C341.764 209.878 340.792 209.342 337.496 209.001C337.608 209.085 337.724 209.174 337.845 209.264Z" fill="#1D1D25"/>
<path d="M166.366 256.765C167.767 256.741 168.673 256.762 168.944 256.805C169.482 256.872 172.049 257.374 175.947 258.93C178.165 259.815 179.893 259.969 180.886 261.208C181.325 261.756 181.611 262.475 181.474 263.227C181.364 263.831 181.17 264.442 180.709 264.99C180.219 265.573 179.503 266.268 176.918 267.592C174.841 268.656 171.294 270.462 169.14 271.385C166.352 272.58 163.971 273.2 160.084 273.377C157.889 273.478 155.245 273.552 152.956 273.219C148.737 272.606 146.037 272.043 144.944 271.406C143.747 270.707 142.211 269.768 142.35 268.466C142.419 267.819 142.599 267.187 142.957 266.665L142.963 266.656C143.308 266.154 143.81 265.422 146.725 263.985C149.217 262.757 153.639 260.569 157.052 259.389C162.587 257.475 165.253 256.784 166.366 256.765Z" fill="#F034ED"/>
<path d="M166.341 255.314C167.65 255.292 168.673 255.306 169.122 255.366L169.123 255.365C169.127 255.366 169.131 255.368 169.135 255.368C169.146 255.37 169.157 255.369 169.168 255.371L169.167 255.373C169.921 255.475 172.582 256.025 176.485 257.582C176.994 257.785 177.481 257.949 177.961 258.105C178.425 258.255 178.923 258.409 179.372 258.573C180.281 258.905 181.269 259.366 182.017 260.3C182.632 261.067 183.136 262.201 182.901 263.487C182.768 264.217 182.507 265.105 181.819 265.923C181.158 266.71 180.257 267.511 177.579 268.883C175.517 269.939 171.921 271.771 169.711 272.718C166.763 273.981 164.21 274.641 160.15 274.826C157.96 274.926 155.189 275.009 152.747 274.654C150.626 274.346 148.855 274.046 147.464 273.737C146.121 273.439 144.973 273.101 144.213 272.658C143.631 272.319 142.807 271.833 142.153 271.219C141.506 270.611 140.767 269.632 140.908 268.312C140.993 267.513 141.225 266.626 141.76 265.845L141.767 265.836C141.981 265.523 142.286 265.087 142.975 264.537C143.621 264.021 144.578 263.425 146.083 262.683C148.549 261.468 153.061 259.234 156.577 258.018C159.357 257.056 161.441 256.394 162.981 255.968C164.48 255.553 165.582 255.327 166.341 255.314ZM166.391 258.214C166.037 258.22 165.25 258.35 163.754 258.764C162.299 259.166 160.28 259.806 157.525 260.759C154.217 261.903 149.883 264.045 147.366 265.286C145.956 265.98 145.204 266.47 144.785 266.804C144.408 267.106 144.289 267.286 144.159 267.476V267.477L144.153 267.485C143.974 267.747 143.845 268.124 143.793 268.619C143.792 268.627 143.786 268.65 143.822 268.719C143.865 268.804 143.958 268.935 144.139 269.105C144.518 269.46 145.06 269.794 145.675 270.153C146.008 270.347 146.758 270.609 148.092 270.905C149.379 271.191 151.068 271.479 153.165 271.784C155.301 272.094 157.818 272.029 160.017 271.928C163.732 271.758 165.943 271.177 168.569 270.052C170.667 269.153 174.164 267.373 176.256 266.301C178.749 265.024 179.28 264.436 179.599 264.056C179.833 263.778 179.96 263.444 180.048 262.966C180.087 262.748 180.018 262.444 179.754 262.115C179.51 261.81 179.136 261.575 178.378 261.298C177.995 261.158 177.583 261.031 177.068 260.865C176.57 260.704 176.01 260.516 175.41 260.276C171.596 258.754 169.15 258.291 168.765 258.243L168.743 258.241L168.721 258.238C168.714 258.237 168.664 258.232 168.548 258.225C168.425 258.219 168.261 258.213 168.053 258.209C167.639 258.202 167.08 258.202 166.391 258.214Z" fill="#1D1D25"/>
<path d="M91.8618 120.482C92.9144 120.222 93.7038 119.804 95.9599 120.094C97.3513 120.274 99.1385 120.094 101.487 120.56C102.738 120.808 105.333 120.98 108.625 122.408C111.971 123.859 114.014 124.897 114.175 126.285C114.248 126.921 114.255 127.502 114.035 128.028C113.752 128.702 112.976 130.052 110.28 132.559C108.38 134.326 105.36 136.932 102.556 139.14C99.7519 141.349 97.2396 143.105 94.9778 144.358C92.716 145.611 90.788 146.523 88.7976 146.688C84.909 147.012 82.7209 147.006 82.2159 146.772C80.841 146.133 78.3963 145.256 77.8875 142.271C77.4532 139.723 77.4157 134.52 80.0748 131.365C81.5338 129.635 84.1414 126.549 85.9629 124.811C88.4929 122.398 90.1227 120.912 91.8618 120.482Z" fill="#F034ED"/>
<path d="M93.2237 118.651C93.9957 118.524 94.9011 118.495 96.1453 118.656C96.7555 118.734 97.421 118.732 98.4211 118.771C99.3706 118.808 100.489 118.884 101.77 119.137C102.851 119.352 105.72 119.568 109.201 121.077C110.861 121.797 112.317 122.463 113.382 123.153C114.394 123.807 115.454 124.734 115.615 126.119C115.695 126.809 115.743 127.704 115.372 128.589C114.977 129.53 114.039 131.045 111.267 133.622C109.337 135.417 106.287 138.048 103.453 140.28C100.619 142.512 98.0383 144.322 95.6808 145.628C93.4175 146.881 91.2477 147.94 88.9177 148.134C86.9559 148.297 85.3974 148.379 84.2511 148.39C83.6798 148.395 83.1876 148.383 82.7884 148.349C82.4516 148.321 81.9875 148.265 81.6052 148.087C80.3975 147.527 77.1153 146.372 76.4578 142.514C76.2188 141.111 76.0933 139.027 76.3832 136.854C76.6714 134.695 77.3901 132.299 78.9659 130.43C80.4064 128.721 83.0701 125.567 84.9612 123.763C86.2162 122.565 87.3108 121.536 88.3219 120.755C89.3391 119.969 90.3669 119.357 91.5136 119.074C91.8425 118.993 92.5565 118.761 93.2237 118.651ZM82.7544 145.424C82.7799 145.428 82.8636 145.443 83.032 145.458C83.3066 145.481 83.6998 145.493 84.2246 145.489C85.2706 145.479 86.7505 145.404 88.677 145.243C90.3276 145.106 92.0144 144.341 94.2747 143.089C96.4406 141.89 98.8844 140.186 101.658 138.002C104.432 135.817 107.421 133.237 109.292 131.497C111.913 129.06 112.526 127.875 112.697 127.467C112.767 127.301 112.801 127.034 112.734 126.453C112.733 126.449 112.692 126.162 111.805 125.588C110.973 125.049 109.734 124.47 108.047 123.739C104.945 122.394 102.626 122.265 101.205 121.984C100.136 121.772 99.1869 121.703 98.3078 121.669C97.4792 121.637 96.5554 121.634 95.7742 121.533C94.7625 121.403 94.1447 121.439 93.6949 121.513C93.1406 121.605 92.933 121.711 92.2095 121.89C91.6172 122.036 90.9602 122.382 90.0953 123.051C89.2243 123.723 88.2388 124.645 86.964 125.861C85.2124 127.532 82.6614 130.547 81.184 132.3C80.1006 133.585 79.5078 135.37 79.2586 137.238C79.0112 139.092 79.122 140.882 79.3171 142.027C79.6716 144.107 81.2346 144.722 82.7544 145.424Z" fill="#1D1D25"/>
<path d="M172.68 38.6053C167.445 36.5326 163.507 36.4558 163.503 34.6678C163.501 33.2771 166.86 33.5679 168.031 33.4293C169.539 33.3119 173.738 33.1621 178.905 33.5923C181.409 33.8008 183.178 33.7473 185.964 34.3055C192.758 35.6666 195.12 36.6614 195.48 37.8896C195.562 38.1705 195.589 38.4987 195.493 38.7629C195.311 39.2597 194.997 39.6902 194.532 39.9327C193.621 40.4069 191.373 41.4149 185.176 40.9623C182.967 40.801 180.189 40.4877 178.156 40.1424C176.123 39.7971 174.859 39.4677 172.68 38.6053Z" fill="#F034ED"/>
<path d="M167.919 31.9834C169.501 31.8602 173.777 31.7098 179.025 32.1467C181.384 32.3431 183.355 32.3036 186.248 32.8833C189.655 33.5659 192.048 34.1738 193.656 34.7936C194.46 35.1036 195.142 35.4441 195.673 35.8474C196.148 36.2076 196.554 36.6594 196.784 37.2299L196.872 37.481L196.918 37.6567C197.019 38.0884 197.068 38.6765 196.855 39.2601C196.585 39.9982 196.071 40.7667 195.201 41.2195C194.001 41.8441 191.472 42.8769 185.07 42.4093C182.826 42.2454 180.001 41.9273 177.913 41.5727C175.785 41.2113 174.423 40.8554 172.146 39.9541C169.598 38.9454 167.457 38.4525 165.705 37.9164C164.886 37.6655 164.054 37.3756 163.416 36.9645C162.728 36.5205 162.055 35.7875 162.053 34.6708C162.05 33.5797 162.771 32.9297 163.383 32.6161C163.951 32.3252 164.617 32.2037 165.154 32.1392C165.718 32.0713 166.307 32.0502 166.786 32.0363C167.314 32.0209 167.65 32.0138 167.86 31.989L167.889 31.9853L167.919 31.9834ZM178.785 35.0382C173.698 34.6147 169.577 34.7641 168.143 34.8757L168.142 34.8748C167.772 34.9136 167.281 34.9233 166.871 34.9352C166.584 34.9436 166.298 34.9543 166.025 34.9721C166.184 35.0258 166.359 35.0833 166.554 35.143C168.081 35.6104 170.527 36.1923 173.214 37.2563C175.294 38.0797 176.461 38.3832 178.398 38.7124C180.376 39.0483 183.107 39.3572 185.281 39.516C191.273 39.9536 193.24 38.9701 193.862 38.6463C193.918 38.6174 194.011 38.5377 194.097 38.3375C194.096 38.3311 194.094 38.3245 194.093 38.3177C194.074 38.2934 194.026 38.2395 193.919 38.1581C193.693 37.987 193.293 37.7631 192.613 37.5009C191.251 36.976 189.065 36.406 185.679 35.7275C183 35.1909 181.432 35.2586 178.785 35.0382Z" fill="#1D1D25"/>
<path d="M287.059 320.495C288.058 327.095 283.517 333.255 276.917 334.254C270.316 335.252 264.156 330.711 263.158 324.111C262.159 317.511 266.7 311.35 273.3 310.352C279.901 309.353 286.061 313.894 287.059 320.495Z" fill="#1D1D25"/>
<path d="M283.39 317.79C283.723 319.99 282.209 322.043 280.009 322.376C277.809 322.709 275.756 321.195 275.423 318.995C275.09 316.795 276.604 314.742 278.804 314.409C281.004 314.076 283.057 315.59 283.39 317.79Z" fill="#F6F6F9"/>
<path d="M227.435 323.417C227.883 321.602 229.717 320.494 231.531 320.941L247.003 324.758C248.217 325.057 249.167 326.003 249.474 327.215C249.78 328.427 249.393 329.71 248.467 330.55L236.696 341.238C235.312 342.494 233.171 342.39 231.915 341.006C230.659 339.622 230.762 337.482 232.146 336.225L239.214 329.808L229.911 327.513C228.096 327.066 226.988 325.231 227.435 323.417Z" fill="#1D1D25"/>
<path d="M271.944 342.653C273.326 342.667 274.249 342.933 275.103 343.231C276.294 343.646 277.166 344.225 277.764 344.694C278.321 345.132 278.844 345.61 279.222 346.219C279.623 346.867 279.739 347.487 279.797 347.75C280.065 348.976 279.748 350.022 279.584 350.496C279.364 351.134 278.899 351.718 278.621 352.056C278.586 352.099 278.548 352.142 278.511 352.186C278.781 352.276 279.017 352.363 279.214 352.443C280.131 352.819 280.921 353.494 281.373 353.876C281.999 354.406 282.614 355.289 283.059 355.921C283.703 356.835 283.874 357.822 284.007 358.63C284.273 360.237 284.086 361.604 283.874 362.406C283.614 363.39 282.941 364.349 282.425 365.05C281.645 366.107 280.659 366.769 280.022 367.188C278.979 367.876 277.786 368.208 276.779 368.446C275.217 368.815 273.819 368.799 272.833 368.696L272.647 368.677L272.467 368.629C271.371 368.34 270.287 367.863 269.464 367.412L269.457 367.407L269.449 367.404C269.432 367.394 269.417 367.385 269.402 367.376C268.527 367.049 267.885 366.229 267.834 365.237C267.766 363.903 268.791 362.767 270.124 362.698C270.812 362.663 271.318 362.921 271.449 362.987C271.563 363.044 271.729 363.139 271.797 363.177C272.3 363.453 272.935 363.73 273.525 363.904C274.095 363.948 274.85 363.934 275.667 363.741C276.604 363.52 277.078 363.339 277.362 363.152C277.976 362.747 278.309 362.485 278.533 362.181C278.786 361.838 278.965 361.574 279.086 361.37C279.158 361.248 279.191 361.177 279.203 361.151C279.267 360.897 279.373 360.238 279.238 359.419C279.17 359.011 279.127 358.816 279.093 358.703C279.089 358.689 279.085 358.679 279.083 358.672C278.836 358.322 278.639 358.048 278.474 357.836C278.287 357.597 278.222 357.543 278.25 357.567C278.005 357.36 277.816 357.206 277.647 357.085C277.567 357.027 277.503 356.985 277.455 356.957C277.431 356.943 277.414 356.933 277.401 356.927C277.39 356.921 277.384 356.919 277.383 356.918C277.036 356.776 276.281 356.519 275.199 356.383C274.756 356.327 274.379 356.323 273.965 356.352C273.448 356.388 273.122 356.428 272.796 356.528C272.78 356.533 272.765 356.538 272.749 356.542C272.378 356.703 272.051 356.828 271.78 356.927C271.344 357.085 271.042 357.145 270.866 357.18C270.833 357.186 270.665 357.22 270.456 357.227C270.406 357.229 270.037 357.248 269.604 357.103C269.384 357.03 268.851 356.819 268.431 356.256C267.92 355.572 267.872 354.781 268.035 354.179C268.168 353.685 268.422 353.365 268.528 353.239C268.657 353.089 268.778 352.985 268.846 352.93C268.982 352.819 269.101 352.747 269.15 352.718C269.259 352.654 269.354 352.61 269.392 352.593C269.546 352.521 269.73 352.452 269.873 352.401C270.145 352.303 270.533 352.173 271.026 352.017C271.428 351.834 271.883 351.599 272.371 351.285C272.966 350.901 273.413 350.587 273.741 350.246C274.262 349.704 274.638 349.287 274.884 348.987C274.963 348.892 275.019 348.818 275.058 348.764C275.06 348.754 275.062 348.746 275.063 348.738V348.737C275.004 348.683 274.914 348.604 274.779 348.498C274.471 348.256 274.064 347.99 273.511 347.796C272.94 347.598 272.566 347.494 271.896 347.488C271.258 347.481 270.286 347.511 269.509 347.586C269.069 347.628 268.743 347.664 268.482 347.707C268.213 347.75 268.126 347.784 268.135 347.78C267.643 347.983 267.349 348.149 267.193 348.251C267.12 348.298 267.084 348.327 267.075 348.335C266.218 349.287 264.757 349.409 263.754 348.59C262.72 347.745 262.566 346.222 263.41 345.188L263.521 345.06C264.095 344.42 265.012 343.838 266.296 343.309C267.173 342.949 268.269 342.849 269.042 342.774C270.023 342.679 271.171 342.645 271.944 342.653ZM270.146 367.527C270.219 367.531 270.294 367.531 270.372 367.527C270.296 367.531 270.221 367.53 270.146 367.527ZM269.951 367.509C269.959 367.511 269.967 367.51 269.975 367.511C269.967 367.51 269.959 367.51 269.951 367.509Z" fill="#1D1D25"/>
</g>
<defs>
<filter id="filter0_d_2194_9716" x="41.1983" y="7.06609" width="353.032" height="421.254" filterUnits="userSpaceOnUse" color-interpolation-filters="sRGB">
<feFlood flood-opacity="0" result="BackgroundImageFix"/>
<feColorMatrix in="SourceAlpha" type="matrix" values="0 0 0 0 0 0 0 0 0 0 0 0 0 0 0 0 0 0 127 0" result="hardAlpha"/>
<feOffset dy="3.86782"/>
<feGaussianBlur stdDeviation="2.90086"/>
<feComposite in2="hardAlpha" operator="out"/>
<feColorMatrix type="matrix" values="0 0 0 0 0 0 0 0 0 0 0 0 0 0 0 0 0 0 0.15 0"/>
<feBlend mode="normal" in2="BackgroundImageFix" result="effect1_dropShadow_2194_9716"/>
<feBlend mode="normal" in="SourceGraphic" in2="effect1_dropShadow_2194_9716" result="shape"/>
</filter>
</defs>
</svg>
