<svg width="3033" height="243" viewBox="0 0 3033 243" fill="none" xmlns="http://www.w3.org/2000/svg">
<path d="M427.834 241.027V123.985H450.839L460.698 148.643V241.027H427.834ZM508.352 241.027L440.487 155.712L450.839 123.985L518.704 209.301L508.352 241.027ZM508.352 241.027L500.136 215.055V123.985H533V241.027H508.352Z" fill="#46475E"/>
<path d="M327.816 241.027V123.985H360.68V241.027H327.816ZM354.436 241.027V213.74H417.207V241.027H354.436ZM354.436 194.671V168.041H411.127V194.671H354.436ZM354.436 151.273V123.985H416.221V151.273H354.436Z" fill="#46475E"/>
<path d="M259.478 243C250.386 243 241.951 241.521 234.173 238.562C226.504 235.493 219.767 231.219 213.961 225.74C208.265 220.26 203.828 213.849 200.651 206.507C197.474 199.164 195.886 191.164 195.886 182.506C195.886 173.739 197.529 165.684 200.815 158.342C204.211 150.999 208.867 144.643 214.783 139.273C220.808 133.794 227.764 129.574 235.652 126.615C243.539 123.547 251.974 122.013 260.957 122.013C271.803 122.013 281.498 123.876 290.042 127.602C298.697 131.328 305.708 136.369 311.075 142.725L288.892 164.917C284.839 160.205 280.621 156.698 276.239 154.397C271.857 152.095 266.599 150.944 260.464 150.944C254.658 150.944 249.4 152.26 244.689 154.89C239.979 157.41 236.199 161.027 233.351 165.739C230.612 170.451 229.243 175.986 229.243 182.342C229.243 188.698 230.503 194.287 233.023 199.109C235.652 203.822 239.267 207.493 243.868 210.123C248.469 212.753 253.837 214.068 259.971 214.068C265.887 214.068 270.871 212.918 274.925 210.616C278.978 208.315 282.045 205.027 284.127 200.753C286.318 196.479 287.413 191.438 287.413 185.63L309.925 199.931L255.535 198.287V171.986H320.442V176.917C320.442 190.945 317.867 202.89 312.719 212.753C307.679 222.616 300.559 230.123 291.357 235.274C282.264 240.425 271.638 243 259.478 243Z" fill="#46475E"/>
<path d="M103.709 241.027V123.985H136.573V241.027H103.709ZM130.329 241.027V213.74H193.1V241.027H130.329ZM130.329 194.671V168.041H187.02V194.671H130.329ZM130.329 151.273V123.985H192.114V151.273H130.329Z" fill="#46475E"/>
<path d="M26.6202 194.342V171.657H46.5031C50.9946 171.657 54.3906 170.561 56.6911 168.369C59.1011 166.177 60.3062 163.273 60.3062 159.657C60.3062 156.04 59.1011 153.136 56.6911 150.944C54.3906 148.753 50.9946 147.657 46.5031 147.657H26.6202V123.985H51.7614C59.868 123.985 66.9886 125.465 73.1233 128.424C79.258 131.383 84.0781 135.492 87.5836 140.753C91.0892 146.013 92.8419 152.15 92.8419 159.164C92.8419 166.177 91.0344 172.315 87.4193 177.575C83.9138 182.835 78.9841 186.945 72.6303 189.904C66.2765 192.863 58.7725 194.342 50.1182 194.342H26.6202ZM0 241.027V123.985H32.8644V241.027H0ZM63.0996 241.027L31.2212 191.054L60.7991 184.643L100.401 241.027H63.0996Z" fill="#46475E"/>
<path d="M417.629 36.3513C412.48 36.3513 408.207 34.5979 404.811 31.091C401.416 27.5841 399.718 23.3101 399.718 18.2689C399.718 13.1182 401.416 8.78942 404.811 5.28254C408.207 1.77566 412.48 0.0222168 417.629 0.0222168C422.777 0.0222168 426.995 1.77566 430.281 5.28254C433.677 8.78942 435.375 13.1182 435.375 18.2689C435.375 23.3101 433.677 27.5841 430.281 31.091C426.995 34.5979 422.777 36.3513 417.629 36.3513Z" fill="#46475E"/>
<path d="M303.745 117.042V0H336.61V117.042H303.745ZM330.365 75.4527V48.1648H387.878V75.4527H330.365ZM330.365 27.2879V0H390.343V27.2879H330.365Z" fill="#46475E"/>
<path d="M203.727 117.042V0H236.591V117.042H203.727ZM230.347 117.042V89.7542H293.118V117.042H230.347ZM230.347 70.6855V44.0552H287.038V70.6855H230.347ZM230.347 27.2879V0H292.132V27.2879H230.347Z" fill="#46475E"/>
<path d="M103.709 117.042V0H136.573V117.042H103.709ZM130.329 117.042V89.7542H193.1V117.042H130.329ZM130.329 70.6855V44.0552H187.02V70.6855H130.329ZM130.329 27.2879V0H192.114V27.2879H130.329Z" fill="#46475E"/>
<path d="M26.6202 70.3568V47.6716H46.5031C50.9946 47.6716 54.3906 46.5757 56.6911 44.3839C59.1011 42.1921 60.3062 39.288 60.3062 35.6715C60.3062 32.0551 59.1011 29.1509 56.6911 26.9591C54.3906 24.7673 50.9946 23.6714 46.5031 23.6714H26.6202V0H51.7614C59.868 0 66.9886 1.47946 73.1233 4.43839C79.258 7.39732 84.0781 11.5069 87.5836 16.7673C91.0892 22.0276 92.8419 28.1646 92.8419 35.1784C92.8419 42.1921 91.0344 48.3292 87.4193 53.5895C83.9138 58.8498 78.9841 62.9594 72.6303 65.9184C66.2765 68.8773 58.7725 70.3568 50.1182 70.3568H26.6202ZM0 117.042V0H32.8644V117.042H0ZM63.0996 117.042L31.2212 67.0691L60.7991 60.6581L100.401 117.042H63.0996Z" fill="#46475E"/>
<path d="M927.834 241.027V123.985H950.839L960.698 148.643V241.027H927.834ZM1008.35 241.027L940.487 155.712L950.839 123.985L1018.7 209.301L1008.35 241.027ZM1008.35 241.027L1000.14 215.055V123.985H1033V241.027H1008.35Z" fill="#46475E"/>
<path d="M827.816 241.027V123.985H860.68V241.027H827.816ZM854.436 241.027V213.74H917.207V241.027H854.436ZM854.436 194.671V168.041H911.127V194.671H854.436ZM854.436 151.273V123.985H916.221V151.273H854.436Z" fill="#46475E"/>
<path d="M759.478 243C750.386 243 741.951 241.521 734.173 238.562C726.504 235.493 719.767 231.219 713.961 225.74C708.265 220.26 703.828 213.849 700.651 206.507C697.474 199.164 695.886 191.164 695.886 182.506C695.886 173.739 697.529 165.684 700.815 158.342C704.211 150.999 708.867 144.643 714.783 139.273C720.808 133.794 727.764 129.574 735.652 126.615C743.539 123.547 751.974 122.013 760.957 122.013C771.803 122.013 781.498 123.876 790.042 127.602C798.697 131.328 805.708 136.369 811.075 142.725L788.892 164.917C784.839 160.205 780.621 156.698 776.239 154.397C771.857 152.095 766.599 150.944 760.464 150.944C754.658 150.944 749.4 152.26 744.689 154.89C739.979 157.41 736.199 161.027 733.351 165.739C730.612 170.451 729.243 175.986 729.243 182.342C729.243 188.698 730.503 194.287 733.023 199.109C735.652 203.822 739.267 207.493 743.868 210.123C748.469 212.753 753.837 214.068 759.971 214.068C765.887 214.068 770.871 212.918 774.925 210.616C778.978 208.315 782.045 205.027 784.127 200.753C786.318 196.479 787.413 191.438 787.413 185.63L809.925 199.931L755.535 198.287V171.986H820.442V176.917C820.442 190.945 817.867 202.89 812.719 212.753C807.679 222.616 800.559 230.123 791.357 235.274C782.264 240.425 771.638 243 759.478 243Z" fill="#46475E"/>
<path d="M603.709 241.027V123.985H636.573V241.027H603.709ZM630.329 241.027V213.74H693.1V241.027H630.329ZM630.329 194.671V168.041H687.02V194.671H630.329ZM630.329 151.273V123.985H692.114V151.273H630.329Z" fill="#46475E"/>
<path d="M526.62 194.342V171.657H546.503C550.995 171.657 554.391 170.561 556.691 168.369C559.101 166.177 560.306 163.273 560.306 159.657C560.306 156.04 559.101 153.136 556.691 150.944C554.391 148.753 550.995 147.657 546.503 147.657H526.62V123.985H551.761C559.868 123.985 566.989 125.465 573.123 128.424C579.258 131.383 584.078 135.492 587.584 140.753C591.089 146.013 592.842 152.15 592.842 159.164C592.842 166.177 591.034 172.315 587.419 177.575C583.914 182.835 578.984 186.945 572.63 189.904C566.277 192.863 558.773 194.342 550.118 194.342H526.62ZM500 241.027V123.985H532.864V241.027H500ZM563.1 241.027L531.221 191.054L560.799 184.643L600.401 241.027H563.1Z" fill="#46475E"/>
<path d="M917.629 36.3513C912.48 36.3513 908.207 34.5979 904.811 31.091C901.416 27.5841 899.718 23.3101 899.718 18.2689C899.718 13.1182 901.416 8.78942 904.811 5.28254C908.207 1.77566 912.48 0.0222168 917.629 0.0222168C922.777 0.0222168 926.995 1.77566 930.281 5.28254C933.677 8.78942 935.375 13.1182 935.375 18.2689C935.375 23.3101 933.677 27.5841 930.281 31.091C926.995 34.5979 922.777 36.3513 917.629 36.3513Z" fill="#46475E"/>
<path d="M803.745 117.042V0H836.61V117.042H803.745ZM830.365 75.4527V48.1648H887.878V75.4527H830.365ZM830.365 27.2879V0H890.343V27.2879H830.365Z" fill="#46475E"/>
<path d="M703.727 117.042V0H736.591V117.042H703.727ZM730.347 117.042V89.7542H793.118V117.042H730.347ZM730.347 70.6855V44.0552H787.038V70.6855H730.347ZM730.347 27.2879V0H792.132V27.2879H730.347Z" fill="#46475E"/>
<path d="M603.709 117.042V0H636.573V117.042H603.709ZM630.329 117.042V89.7542H693.1V117.042H630.329ZM630.329 70.6855V44.0552H687.02V70.6855H630.329ZM630.329 27.2879V0H692.114V27.2879H630.329Z" fill="#46475E"/>
<path d="M526.62 70.3568V47.6716H546.503C550.995 47.6716 554.391 46.5757 556.691 44.3839C559.101 42.1921 560.306 39.288 560.306 35.6715C560.306 32.0551 559.101 29.1509 556.691 26.9591C554.391 24.7673 550.995 23.6714 546.503 23.6714H526.62V0H551.761C559.868 0 566.989 1.47946 573.123 4.43839C579.258 7.39732 584.078 11.5069 587.584 16.7673C591.089 22.0276 592.842 28.1646 592.842 35.1784C592.842 42.1921 591.034 48.3292 587.419 53.5895C583.914 58.8498 578.984 62.9594 572.63 65.9184C566.277 68.8773 558.773 70.3568 550.118 70.3568H526.62ZM500 117.042V0H532.864V117.042H500ZM563.1 117.042L531.221 67.0691L560.799 60.6581L600.401 117.042H563.1Z" fill="#46475E"/>
<path d="M1105.17 1.97254V119.015H1082.16L1072.3 94.3569V1.97254H1105.17ZM1024.65 1.97254L1092.51 87.2884L1082.16 119.015L1014.3 33.6988L1024.65 1.97254ZM1024.65 1.97254L1032.86 27.9454V119.015H1000V1.97254H1024.65Z" fill="#46475E"/>
<path d="M1205.18 1.97254V119.015H1172.32V1.97254H1205.18ZM1178.56 1.97254V29.2604H1115.79V1.97254H1178.56ZM1178.56 48.3291V74.9595H1121.87V48.3291H1178.56ZM1178.56 91.7267V119.015H1116.78V91.7267H1178.56Z" fill="#46475E"/>
<path d="M1273.52 -5.56876e-05C1282.61 -5.56876e-05 1291.05 1.47942 1298.83 4.43835C1306.5 7.50687 1313.23 11.7809 1319.04 17.2604C1324.74 22.7399 1329.17 29.1509 1332.35 36.4934C1335.53 43.8359 1337.11 51.836 1337.11 60.4936C1337.11 69.2608 1335.47 77.3157 1332.18 84.6582C1328.79 92.0008 1324.13 98.357 1318.22 103.727C1312.19 109.206 1305.24 113.426 1297.35 116.385C1289.46 119.453 1281.03 120.987 1272.04 120.987C1261.2 120.987 1251.5 119.124 1242.96 115.398C1234.3 111.672 1227.29 106.631 1221.92 100.275L1244.11 78.0828C1248.16 82.7952 1252.38 86.3021 1256.76 88.6035C1261.14 90.9049 1266.4 92.0555 1272.54 92.0555C1278.34 92.0555 1283.6 90.7405 1288.31 88.1103C1293.02 85.5897 1296.8 81.9733 1299.65 77.2609C1302.39 72.5485 1303.76 67.0142 1303.76 60.658C1303.76 54.3018 1302.5 48.7127 1299.98 43.8907C1297.35 39.1784 1293.73 35.5071 1289.13 32.877C1284.53 30.2468 1279.16 28.9317 1273.03 28.9317C1267.11 28.9317 1262.13 30.0824 1258.08 32.3838C1254.02 34.6852 1250.95 37.9729 1248.87 42.2469C1246.68 46.5209 1245.59 51.562 1245.59 57.3703L1223.07 43.0688L1277.47 44.7127V71.0143H1212.56V66.0827C1212.56 52.0552 1215.13 40.1099 1220.28 30.2468C1225.32 20.3837 1232.44 12.8768 1241.64 7.72605C1250.74 2.57532 1261.36 -5.56876e-05 1273.52 -5.56876e-05Z" fill="#46475E"/>
<path d="M1429.29 1.97254V119.015H1396.43V1.97254H1429.29ZM1402.67 1.97254V29.2604H1339.9V1.97254H1402.67ZM1402.67 48.3291V74.9595H1345.98V48.3291H1402.67ZM1402.67 91.7267V119.015H1340.89V91.7267H1402.67Z" fill="#46475E"/>
<path d="M1506.38 48.6579V71.343H1486.5C1482.01 71.343 1478.61 72.4389 1476.31 74.6307C1473.9 76.8225 1472.69 79.7266 1472.69 83.3431C1472.69 86.9596 1473.9 89.8637 1476.31 92.0555C1478.61 94.2473 1482.01 95.3432 1486.5 95.3432H1506.38V119.015H1481.24C1473.13 119.015 1466.01 117.535 1459.88 114.576C1453.74 111.617 1448.92 107.508 1445.42 102.247C1441.91 96.9871 1440.16 90.85 1440.16 83.8363C1440.16 76.8225 1441.97 70.6855 1445.58 65.4252C1449.09 60.1648 1454.02 56.0552 1460.37 53.0963C1466.72 50.1373 1474.23 48.6579 1482.88 48.6579H1506.38ZM1533 1.97254V119.015H1500.14V1.97254H1533ZM1469.9 1.97254L1501.78 51.9456L1472.2 58.3566L1432.6 1.97254H1469.9Z" fill="#46475E"/>
<path d="M1115.37 206.649C1120.52 206.649 1124.79 208.402 1128.19 211.909C1131.58 215.416 1133.28 219.69 1133.28 224.731C1133.28 229.882 1131.58 234.211 1128.19 237.717C1124.79 241.224 1120.52 242.978 1115.37 242.978C1110.22 242.978 1106.01 241.224 1102.72 237.717C1099.32 234.211 1097.62 229.882 1097.62 224.731C1097.62 219.69 1099.32 215.416 1102.72 211.909C1106.01 208.402 1110.22 206.649 1115.37 206.649Z" fill="#46475E"/>
<path d="M1229.25 125.958V243H1196.39V125.958H1229.25ZM1202.63 167.547V194.835H1145.12V167.547H1202.63ZM1202.63 215.712V243H1142.66V215.712H1202.63Z" fill="#46475E"/>
<path d="M1329.27 125.958V243H1296.41V125.958H1329.27ZM1302.65 125.958V153.246H1239.88V125.958H1302.65ZM1302.65 172.314V198.945H1245.96V172.314H1302.65ZM1302.65 215.712V243H1240.87V215.712H1302.65Z" fill="#46475E"/>
<path d="M1429.29 125.958V243H1396.43V125.958H1429.29ZM1402.67 125.958V153.246H1339.9V125.958H1402.67ZM1402.67 172.314V198.945H1345.98V172.314H1402.67ZM1402.67 215.712V243H1340.89V215.712H1402.67Z" fill="#46475E"/>
<path d="M1506.38 172.643V195.328H1486.5C1482.01 195.328 1478.61 196.424 1476.31 198.616C1473.9 200.808 1472.69 203.712 1472.69 207.328C1472.69 210.945 1473.9 213.849 1476.31 216.041C1478.61 218.233 1482.01 219.329 1486.5 219.329H1506.38V243H1481.24C1473.13 243 1466.01 241.521 1459.88 238.562C1453.74 235.603 1448.92 231.493 1445.42 226.233C1441.91 220.972 1440.16 214.835 1440.16 207.822C1440.16 200.808 1441.97 194.671 1445.58 189.41C1449.09 184.15 1454.02 180.041 1460.37 177.082C1466.72 174.123 1474.23 172.643 1482.88 172.643H1506.38ZM1533 125.958V243H1500.14V125.958H1533ZM1469.9 125.958L1501.78 175.931L1472.2 182.342L1432.6 125.958H1469.9Z" fill="#46475E"/>
<path d="M1927.83 241.027V123.985H1950.84L1960.7 148.643V241.027H1927.83ZM2008.35 241.027L1940.49 155.712L1950.84 123.985L2018.7 209.301L2008.35 241.027ZM2008.35 241.027L2000.14 215.055V123.985H2033V241.027H2008.35Z" fill="#46475E"/>
<path d="M1827.82 241.027V123.985H1860.68V241.027H1827.82ZM1854.44 241.027V213.74H1917.21V241.027H1854.44ZM1854.44 194.671V168.041H1911.13V194.671H1854.44ZM1854.44 151.273V123.985H1916.22V151.273H1854.44Z" fill="#46475E"/>
<path d="M1759.48 243C1750.39 243 1741.95 241.521 1734.17 238.562C1726.5 235.493 1719.77 231.219 1713.96 225.74C1708.26 220.26 1703.83 213.849 1700.65 206.507C1697.47 199.164 1695.89 191.164 1695.89 182.506C1695.89 173.739 1697.53 165.684 1700.82 158.342C1704.21 150.999 1708.87 144.643 1714.78 139.273C1720.81 133.794 1727.76 129.574 1735.65 126.615C1743.54 123.547 1751.97 122.013 1760.96 122.013C1771.8 122.013 1781.5 123.876 1790.04 127.602C1798.7 131.328 1805.71 136.369 1811.08 142.725L1788.89 164.917C1784.84 160.205 1780.62 156.698 1776.24 154.397C1771.86 152.095 1766.6 150.944 1760.46 150.944C1754.66 150.944 1749.4 152.26 1744.69 154.89C1739.98 157.41 1736.2 161.027 1733.35 165.739C1730.61 170.451 1729.24 175.986 1729.24 182.342C1729.24 188.698 1730.5 194.287 1733.02 199.109C1735.65 203.822 1739.27 207.493 1743.87 210.123C1748.47 212.753 1753.84 214.068 1759.97 214.068C1765.89 214.068 1770.87 212.918 1774.92 210.616C1778.98 208.315 1782.05 205.027 1784.13 200.753C1786.32 196.479 1787.41 191.438 1787.41 185.63L1809.93 199.931L1755.53 198.287V171.986H1820.44V176.917C1820.44 190.945 1817.87 202.89 1812.72 212.753C1807.68 222.616 1800.56 230.123 1791.36 235.274C1782.26 240.425 1771.64 243 1759.48 243Z" fill="#46475E"/>
<path d="M1603.71 241.027V123.985H1636.57V241.027H1603.71ZM1630.33 241.027V213.74H1693.1V241.027H1630.33ZM1630.33 194.671V168.041H1687.02V194.671H1630.33ZM1630.33 151.273V123.985H1692.11V151.273H1630.33Z" fill="#46475E"/>
<path d="M1526.62 194.342V171.657H1546.5C1550.99 171.657 1554.39 170.561 1556.69 168.369C1559.1 166.177 1560.31 163.273 1560.31 159.657C1560.31 156.04 1559.1 153.136 1556.69 150.944C1554.39 148.753 1550.99 147.657 1546.5 147.657H1526.62V123.985H1551.76C1559.87 123.985 1566.99 125.465 1573.12 128.424C1579.26 131.383 1584.08 135.492 1587.58 140.753C1591.09 146.013 1592.84 152.15 1592.84 159.164C1592.84 166.177 1591.03 172.315 1587.42 177.575C1583.91 182.835 1578.98 186.945 1572.63 189.904C1566.28 192.863 1558.77 194.342 1550.12 194.342H1526.62ZM1500 241.027V123.985H1532.86V241.027H1500ZM1563.1 241.027L1531.22 191.054L1560.8 184.643L1600.4 241.027H1563.1Z" fill="#46475E"/>
<path d="M1917.63 36.3513C1912.48 36.3513 1908.21 34.5979 1904.81 31.091C1901.42 27.5841 1899.72 23.3101 1899.72 18.2689C1899.72 13.1182 1901.42 8.78942 1904.81 5.28254C1908.21 1.77566 1912.48 0.0222168 1917.63 0.0222168C1922.78 0.0222168 1927 1.77566 1930.28 5.28254C1933.68 8.78942 1935.38 13.1182 1935.38 18.2689C1935.38 23.3101 1933.68 27.5841 1930.28 31.091C1927 34.5979 1922.78 36.3513 1917.63 36.3513Z" fill="#46475E"/>
<path d="M1803.75 117.042V0H1836.61V117.042H1803.75ZM1830.37 75.4527V48.1648H1887.88V75.4527H1830.37ZM1830.37 27.2879V0H1890.34V27.2879H1830.37Z" fill="#46475E"/>
<path d="M1703.73 117.042V0H1736.59V117.042H1703.73ZM1730.35 117.042V89.7542H1793.12V117.042H1730.35ZM1730.35 70.6855V44.0552H1787.04V70.6855H1730.35ZM1730.35 27.2879V0H1792.13V27.2879H1730.35Z" fill="#46475E"/>
<path d="M1603.71 117.042V0H1636.57V117.042H1603.71ZM1630.33 117.042V89.7542H1693.1V117.042H1630.33ZM1630.33 70.6855V44.0552H1687.02V70.6855H1630.33ZM1630.33 27.2879V0H1692.11V27.2879H1630.33Z" fill="#46475E"/>
<path d="M1526.62 70.3568V47.6716H1546.5C1550.99 47.6716 1554.39 46.5757 1556.69 44.3839C1559.1 42.1921 1560.31 39.288 1560.31 35.6715C1560.31 32.0551 1559.1 29.1509 1556.69 26.9591C1554.39 24.7673 1550.99 23.6714 1546.5 23.6714H1526.62V0H1551.76C1559.87 0 1566.99 1.47946 1573.12 4.43839C1579.26 7.39732 1584.08 11.5069 1587.58 16.7673C1591.09 22.0276 1592.84 28.1646 1592.84 35.1784C1592.84 42.1921 1591.03 48.3292 1587.42 53.5895C1583.91 58.8498 1578.98 62.9594 1572.63 65.9184C1566.28 68.8773 1558.77 70.3568 1550.12 70.3568H1526.62ZM1500 117.042V0H1532.86V117.042H1500ZM1563.1 117.042L1531.22 67.0691L1560.8 60.6581L1600.4 117.042H1563.1Z" fill="#46475E"/>
<path d="M2427.83 241.027V123.985H2450.84L2460.7 148.643V241.027H2427.83ZM2508.35 241.027L2440.49 155.712L2450.84 123.985L2518.7 209.301L2508.35 241.027ZM2508.35 241.027L2500.14 215.055V123.985H2533V241.027H2508.35Z" fill="#46475E"/>
<path d="M2327.82 241.027V123.985H2360.68V241.027H2327.82ZM2354.44 241.027V213.74H2417.21V241.027H2354.44ZM2354.44 194.671V168.041H2411.13V194.671H2354.44ZM2354.44 151.273V123.985H2416.22V151.273H2354.44Z" fill="#46475E"/>
<path d="M2259.48 243C2250.39 243 2241.95 241.521 2234.17 238.562C2226.5 235.493 2219.77 231.219 2213.96 225.74C2208.26 220.26 2203.83 213.849 2200.65 206.507C2197.47 199.164 2195.89 191.164 2195.89 182.506C2195.89 173.739 2197.53 165.684 2200.82 158.342C2204.21 150.999 2208.87 144.643 2214.78 139.273C2220.81 133.794 2227.76 129.574 2235.65 126.615C2243.54 123.547 2251.97 122.013 2260.96 122.013C2271.8 122.013 2281.5 123.876 2290.04 127.602C2298.7 131.328 2305.71 136.369 2311.08 142.725L2288.89 164.917C2284.84 160.205 2280.62 156.698 2276.24 154.397C2271.86 152.095 2266.6 150.944 2260.46 150.944C2254.66 150.944 2249.4 152.26 2244.69 154.89C2239.98 157.41 2236.2 161.027 2233.35 165.739C2230.61 170.451 2229.24 175.986 2229.24 182.342C2229.24 188.698 2230.5 194.287 2233.02 199.109C2235.65 203.822 2239.27 207.493 2243.87 210.123C2248.47 212.753 2253.84 214.068 2259.97 214.068C2265.89 214.068 2270.87 212.918 2274.92 210.616C2278.98 208.315 2282.05 205.027 2284.13 200.753C2286.32 196.479 2287.41 191.438 2287.41 185.63L2309.93 199.931L2255.53 198.287V171.986H2320.44V176.917C2320.44 190.945 2317.87 202.89 2312.72 212.753C2307.68 222.616 2300.56 230.123 2291.36 235.274C2282.26 240.425 2271.64 243 2259.48 243Z" fill="#46475E"/>
<path d="M2103.71 241.027V123.985H2136.57V241.027H2103.71ZM2130.33 241.027V213.74H2193.1V241.027H2130.33ZM2130.33 194.671V168.041H2187.02V194.671H2130.33ZM2130.33 151.273V123.985H2192.11V151.273H2130.33Z" fill="#46475E"/>
<path d="M2026.62 194.342V171.657H2046.5C2050.99 171.657 2054.39 170.561 2056.69 168.369C2059.1 166.177 2060.31 163.273 2060.31 159.657C2060.31 156.04 2059.1 153.136 2056.69 150.944C2054.39 148.753 2050.99 147.657 2046.5 147.657H2026.62V123.985H2051.76C2059.87 123.985 2066.99 125.465 2073.12 128.424C2079.26 131.383 2084.08 135.492 2087.58 140.753C2091.09 146.013 2092.84 152.15 2092.84 159.164C2092.84 166.177 2091.03 172.315 2087.42 177.575C2083.91 182.835 2078.98 186.945 2072.63 189.904C2066.28 192.863 2058.77 194.342 2050.12 194.342H2026.62ZM2000 241.027V123.985H2032.86V241.027H2000ZM2063.1 241.027L2031.22 191.054L2060.8 184.643L2100.4 241.027H2063.1Z" fill="#46475E"/>
<path d="M2417.63 36.3513C2412.48 36.3513 2408.21 34.5979 2404.81 31.091C2401.42 27.5841 2399.72 23.3101 2399.72 18.2689C2399.72 13.1182 2401.42 8.78942 2404.81 5.28254C2408.21 1.77566 2412.48 0.0222168 2417.63 0.0222168C2422.78 0.0222168 2427 1.77566 2430.28 5.28254C2433.68 8.78942 2435.38 13.1182 2435.38 18.2689C2435.38 23.3101 2433.68 27.5841 2430.28 31.091C2427 34.5979 2422.78 36.3513 2417.63 36.3513Z" fill="#46475E"/>
<path d="M2303.75 117.042V0H2336.61V117.042H2303.75ZM2330.37 75.4527V48.1648H2387.88V75.4527H2330.37ZM2330.37 27.2879V0H2390.34V27.2879H2330.37Z" fill="#46475E"/>
<path d="M2203.73 117.042V0H2236.59V117.042H2203.73ZM2230.35 117.042V89.7542H2293.12V117.042H2230.35ZM2230.35 70.6855V44.0552H2287.04V70.6855H2230.35ZM2230.35 27.2879V0H2292.13V27.2879H2230.35Z" fill="#46475E"/>
<path d="M2103.71 117.042V0H2136.57V117.042H2103.71ZM2130.33 117.042V89.7542H2193.1V117.042H2130.33ZM2130.33 70.6855V44.0552H2187.02V70.6855H2130.33ZM2130.33 27.2879V0H2192.11V27.2879H2130.33Z" fill="#46475E"/>
<path d="M2026.62 70.3568V47.6716H2046.5C2050.99 47.6716 2054.39 46.5757 2056.69 44.3839C2059.1 42.1921 2060.31 39.288 2060.31 35.6715C2060.31 32.0551 2059.1 29.1509 2056.69 26.9591C2054.39 24.7673 2050.99 23.6714 2046.5 23.6714H2026.62V0H2051.76C2059.87 0 2066.99 1.47946 2073.12 4.43839C2079.26 7.39732 2084.08 11.5069 2087.58 16.7673C2091.09 22.0276 2092.84 28.1646 2092.84 35.1784C2092.84 42.1921 2091.03 48.3292 2087.42 53.5895C2083.91 58.8498 2078.98 62.9594 2072.63 65.9184C2066.28 68.8773 2058.77 70.3568 2050.12 70.3568H2026.62ZM2000 117.042V0H2032.86V117.042H2000ZM2063.1 117.042L2031.22 67.0691L2060.8 60.6581L2100.4 117.042H2063.1Z" fill="#46475E"/>
<path d="M2927.83 241.027V123.985H2950.84L2960.7 148.643V241.027H2927.83ZM3008.35 241.027L2940.49 155.712L2950.84 123.985L3018.7 209.301L3008.35 241.027ZM3008.35 241.027L3000.14 215.055V123.985H3033V241.027H3008.35Z" fill="#46475E"/>
<path d="M2827.82 241.027V123.985H2860.68V241.027H2827.82ZM2854.44 241.027V213.74H2917.21V241.027H2854.44ZM2854.44 194.671V168.041H2911.13V194.671H2854.44ZM2854.44 151.273V123.985H2916.22V151.273H2854.44Z" fill="#46475E"/>
<path d="M2759.48 243C2750.39 243 2741.95 241.521 2734.17 238.562C2726.5 235.493 2719.77 231.219 2713.96 225.74C2708.26 220.26 2703.83 213.849 2700.65 206.507C2697.47 199.164 2695.89 191.164 2695.89 182.506C2695.89 173.739 2697.53 165.684 2700.82 158.342C2704.21 150.999 2708.87 144.643 2714.78 139.273C2720.81 133.794 2727.76 129.574 2735.65 126.615C2743.54 123.547 2751.97 122.013 2760.96 122.013C2771.8 122.013 2781.5 123.876 2790.04 127.602C2798.7 131.328 2805.71 136.369 2811.08 142.725L2788.89 164.917C2784.84 160.205 2780.62 156.698 2776.24 154.397C2771.86 152.095 2766.6 150.944 2760.46 150.944C2754.66 150.944 2749.4 152.26 2744.69 154.89C2739.98 157.41 2736.2 161.027 2733.35 165.739C2730.61 170.451 2729.24 175.986 2729.24 182.342C2729.24 188.698 2730.5 194.287 2733.02 199.109C2735.65 203.822 2739.27 207.493 2743.87 210.123C2748.47 212.753 2753.84 214.068 2759.97 214.068C2765.89 214.068 2770.87 212.918 2774.92 210.616C2778.98 208.315 2782.05 205.027 2784.13 200.753C2786.32 196.479 2787.41 191.438 2787.41 185.63L2809.93 199.931L2755.53 198.287V171.986H2820.44V176.917C2820.44 190.945 2817.87 202.89 2812.72 212.753C2807.68 222.616 2800.56 230.123 2791.36 235.274C2782.26 240.425 2771.64 243 2759.48 243Z" fill="#46475E"/>
<path d="M2603.71 241.027V123.985H2636.57V241.027H2603.71ZM2630.33 241.027V213.74H2693.1V241.027H2630.33ZM2630.33 194.671V168.041H2687.02V194.671H2630.33ZM2630.33 151.273V123.985H2692.11V151.273H2630.33Z" fill="#46475E"/>
<path d="M2526.62 194.342V171.657H2546.5C2550.99 171.657 2554.39 170.561 2556.69 168.369C2559.1 166.177 2560.31 163.273 2560.31 159.657C2560.31 156.04 2559.1 153.136 2556.69 150.944C2554.39 148.753 2550.99 147.657 2546.5 147.657H2526.62V123.985H2551.76C2559.87 123.985 2566.99 125.465 2573.12 128.424C2579.26 131.383 2584.08 135.492 2587.58 140.753C2591.09 146.013 2592.84 152.15 2592.84 159.164C2592.84 166.177 2591.03 172.315 2587.42 177.575C2583.91 182.835 2578.98 186.945 2572.63 189.904C2566.28 192.863 2558.77 194.342 2550.12 194.342H2526.62ZM2500 241.027V123.985H2532.86V241.027H2500ZM2563.1 241.027L2531.22 191.054L2560.8 184.643L2600.4 241.027H2563.1Z" fill="#46475E"/>
<path d="M2917.63 36.3513C2912.48 36.3513 2908.21 34.5979 2904.81 31.091C2901.42 27.5841 2899.72 23.3101 2899.72 18.2689C2899.72 13.1182 2901.42 8.78942 2904.81 5.28254C2908.21 1.77566 2912.48 0.0222168 2917.63 0.0222168C2922.78 0.0222168 2926.99 1.77566 2930.28 5.28254C2933.68 8.78942 2935.38 13.1182 2935.38 18.2689C2935.38 23.3101 2933.68 27.5841 2930.28 31.091C2926.99 34.5979 2922.78 36.3513 2917.63 36.3513Z" fill="#46475E"/>
<path d="M2803.75 117.042V0H2836.61V117.042H2803.75ZM2830.37 75.4527V48.1648H2887.88V75.4527H2830.37ZM2830.37 27.2879V0H2890.34V27.2879H2830.37Z" fill="#46475E"/>
<path d="M2703.73 117.042V0H2736.59V117.042H2703.73ZM2730.35 117.042V89.7542H2793.12V117.042H2730.35ZM2730.35 70.6855V44.0552H2787.04V70.6855H2730.35ZM2730.35 27.2879V0H2792.13V27.2879H2730.35Z" fill="#46475E"/>
<path d="M2603.71 117.042V0H2636.57V117.042H2603.71ZM2630.33 117.042V89.7542H2693.1V117.042H2630.33ZM2630.33 70.6855V44.0552H2687.02V70.6855H2630.33ZM2630.33 27.2879V0H2692.11V27.2879H2630.33Z" fill="#46475E"/>
<path d="M2526.62 70.3568V47.6716H2546.5C2550.99 47.6716 2554.39 46.5757 2556.69 44.3839C2559.1 42.1921 2560.31 39.288 2560.31 35.6715C2560.31 32.0551 2559.1 29.1509 2556.69 26.9591C2554.39 24.7673 2550.99 23.6714 2546.5 23.6714H2526.62V0H2551.76C2559.87 0 2566.99 1.47946 2573.12 4.43839C2579.26 7.39732 2584.08 11.5069 2587.58 16.7673C2591.09 22.0276 2592.84 28.1646 2592.84 35.1784C2592.84 42.1921 2591.03 48.3292 2587.42 53.5895C2583.91 58.8498 2578.98 62.9594 2572.63 65.9184C2566.28 68.8773 2558.77 70.3568 2550.12 70.3568H2526.62ZM2500 117.042V0H2532.86V117.042H2500ZM2563.1 117.042L2531.22 67.0691L2560.8 60.6581L2600.4 117.042H2563.1Z" fill="#46475E"/>
</svg>
