<svg width="209" height="236" viewBox="0 0 209 236" fill="none" xmlns="http://www.w3.org/2000/svg">
<path d="M77.4732 0.228532C71.7454 -0.731493 66.9295 1.53524 63.7337 3.95391C60.4871 6.41116 57.9439 9.6888 56.0367 12.8878C52.2576 19.2267 49.6087 27.5834 49.6086 35.3848C49.6086 38.7127 50.2662 43.0876 51.0522 47.3281C51.4909 49.6945 47.686 51.4448 45.991 49.7341C45.5507 49.2897 45.098 48.8486 44.6323 48.4116C38.5704 42.7233 30.203 37.9224 21.0588 39.0069C10.7025 40.2352 4.26942 48.2176 1.48413 57.8514C-0.350098 64.1958 0.710037 70.6953 2.16415 75.7688C3.67578 81.0429 6.0309 86.1745 8.2242 90.4276C8.97964 91.8925 8.5005 93.6791 7.22899 94.7292C5.23236 96.3781 3.35754 98.4997 2.08821 101.191C-0.0057373 105.63 -0.712067 110.914 0.837997 116.795C2.3013 122.346 5.631 127.91 10.6189 133.672C14.3432 137.974 17.9721 141.01 20.972 143.197C22.0351 143.972 22.6376 145.223 22.6464 146.537C22.6493 146.973 22.6616 147.409 22.6835 147.843C22.9257 152.644 24.4132 158.976 29.2699 164.343C31.5646 166.879 34.1164 168.631 35.7856 169.764C37.7127 171.072 38.6234 171.669 39.4737 172.444C40.3028 173.199 41.823 174.607 42.181 180.279C42.4738 184.919 41.3892 190.752 39.6221 196.812C37.8184 202.997 35.893 207.652 34.5202 211.658L32.6742 217.045C32.1014 218.717 32.7792 220.56 34.2988 221.465L39.1962 224.379C42.4885 226.338 48.6005 228.544 55.865 230.457C63.5028 232.469 73.3967 234.411 84.8022 235.478C107.985 237.646 143.309 232.544 155.32 230.021L160.901 228.849C162.633 228.485 163.872 226.959 163.872 225.192V219.497C163.872 219.958 163.89 218.612 166.505 214.931C168.809 211.69 172.128 207.999 175.963 204.11C179.787 200.232 183.722 196.553 187.326 193.098C190.538 190.02 194.229 186.445 196.296 183.547C198.581 180.341 203.272 174.233 205.88 168.1C207.231 164.922 208.5 160.72 208.116 156.106C207.693 151.027 205.328 146.332 200.98 142.814C199.316 141.469 197.592 140.44 195.86 139.668C194.555 139.087 193.811 137.626 194.301 136.286C195.939 131.8 199.106 124.303 201.06 117.141C203.04 109.882 204.518 100.648 201.624 91.6942C199.155 84.0524 193.814 79.8257 188.29 78.0006C186.709 77.4784 185.48 76.153 185.265 74.5044C184.643 69.7406 183.381 64.0705 180.618 58.8153C176.606 51.1865 170.814 45.9501 163.991 43.5339C159.954 42.1044 155.844 41.7718 151.994 42.3233C150.108 42.5936 148.213 41.5611 147.568 39.77C145.285 33.4303 142.271 25.6685 137.952 19.8088C135.725 16.7891 132.704 13.6388 128.62 11.5873C124.407 9.47132 119.67 8.83839 114.789 9.92735L114.316 10.0382L113.786 10.1759C102.78 13.1978 100.388 24.0819 99.9555 29.4983C99.8933 30.2783 99.8574 31.0658 99.8454 31.8556C99.83 32.8698 99.3206 33.8157 98.4967 34.4086C97.9485 34.8032 97.395 35.2281 96.9655 35.5569C96.7922 35.6896 96.5397 35.6229 96.4538 35.4223C96.1981 34.825 95.9477 34.2401 95.7036 33.6712C95.3293 32.7986 95.0632 31.4932 95.0055 29.2205C94.9767 28.0873 94.9995 26.9282 95.0277 25.4981C95.0538 24.1695 95.087 22.5257 95.0253 20.8934C94.909 17.8168 94.4424 13.0048 91.4762 8.62215C88.1983 3.77897 83.1883 1.28197 77.7466 0.276959L77.4732 0.228532Z" fill="#F6F6F9"/>
<path d="M85.8061 224.77C107.383 226.788 141.46 221.942 153.104 219.497C153.104 207.026 182.13 184.875 187.524 177.309C192.918 169.743 202.422 157.82 194.202 151.171C187.627 145.852 179.047 149.566 178.02 151.171C178.79 148.496 181.102 141.037 184.185 132.6C188.038 122.053 195.23 106.92 191.377 94.9976C188.294 85.4595 177.81 87.2785 175.327 89.0363C174.985 84.9857 175.811 72.8033 171.085 63.8155C165.177 52.5807 155.673 51.2051 149.508 54.1857C144.576 56.5702 144.713 78.413 145.398 89.0363C144.285 78.1073 141.134 53.6813 137.436 43.4095C132.812 30.5699 127.161 17.9594 116.887 20.4815C108.667 22.4992 110.037 37.1425 112.52 43.4095C107.259 40.3389 106.488 41.9438 101.988 45.2438C97.2121 48.7467 96.9369 59.0006 96.8512 63.8155C94.7107 58.7713 89.505 46.5277 85.8061 37.9068C81.1826 27.1306 89.6591 13.4134 75.7885 10.8518C68.3395 9.47607 60.3767 24.15 60.3767 35.3847C60.3767 44.3725 68.0826 73.6746 71.9355 87.2021C69.7094 84.5272 64.281 78.8104 60.3767 77.343C56.4724 75.8756 53.4503 76.5652 52.0331 78.3994C47.6665 71.2017 45.2732 63.7696 37.259 56.2492C27.2414 46.8487 15.9394 46.6194 11.8296 60.8348C7.78448 74.8266 27.3796 99.7023 25.058 99.607C25.0147 99.5989 24.9719 99.5909 24.9296 99.5832C21.8473 98.6661 13.8845 101.417 11.8296 105.774C9.77473 110.13 10.0316 116.55 18.7649 126.638C27.4983 136.727 35.461 138.332 34.4336 140.395C33.4061 142.459 31.8649 151.171 37.259 157.133C42.6532 163.094 51.9002 163.323 52.9277 179.602C53.7496 192.625 46.9343 208.644 44.7081 215.14C48.5611 217.433 64.2297 222.753 85.8061 224.77Z" fill="#F06334"/>
<path d="M61.8723 35.3846C61.8723 30.0706 63.7713 23.8546 66.5741 19.1534C67.973 16.807 69.5486 14.9201 71.1409 13.715C72.7331 12.51 74.2074 12.079 75.516 12.3206C78.7095 12.9103 80.3727 14.0866 81.3161 15.4806C82.3028 16.9384 82.6766 18.88 82.7702 21.3548C82.8165 22.5791 82.7939 23.8751 82.7667 25.2564C82.7398 26.6237 82.7085 28.0708 82.7457 29.5314C82.8199 32.4517 83.1667 35.5481 84.4311 38.495C88.065 46.9646 93.1546 58.9335 95.3606 64.131C95.466 71.7244 96.3659 90.0079 99.2678 99.999C100.739 105.065 104.357 113.675 107.801 121.427C111.259 129.21 114.591 136.241 115.539 138.203C115.898 138.946 116.792 139.257 117.536 138.899C118.28 138.54 118.592 137.647 118.233 136.904C117.297 134.968 113.978 127.966 110.535 120.215C107.077 112.432 103.546 104.006 102.14 99.167C99.3295 89.4893 98.434 71.2511 98.3471 63.8153C98.3901 61.4058 98.482 57.7662 99.1305 54.3126C99.7985 50.7551 100.982 47.8349 102.874 46.4476C103.45 46.0247 103.966 45.6296 104.427 45.2766C104.893 44.9195 105.295 44.6126 105.667 44.3448C106.422 43.8013 106.941 43.5072 107.404 43.3663C108.144 43.1411 109.11 43.1938 111.454 44.521C113.426 47.6939 117.52 55.8709 119.269 65.2355C120.429 71.4498 122.745 82.5314 124.866 92.0547C125.927 96.8167 126.941 101.202 127.741 104.401C128.139 105.998 128.489 107.318 128.767 108.247C128.904 108.705 129.034 109.103 129.152 109.401C129.208 109.542 129.283 109.718 129.378 109.879C129.423 109.955 129.51 110.094 129.646 110.233C129.734 110.324 130.119 110.707 130.757 110.707C131.583 110.707 132.252 110.038 132.252 109.213C132.252 108.861 132.131 108.537 131.926 108.282C131.857 108.105 131.759 107.812 131.633 107.391C131.375 106.529 131.039 105.263 130.643 103.678C129.853 100.515 128.845 96.1589 127.786 91.4059C125.669 81.8989 123.361 70.8544 122.21 64.6876C120.344 54.6977 115.953 46.0306 113.863 42.7362C112.726 39.794 111.83 34.8721 112.181 30.4707C112.546 25.8863 114.154 22.6901 117.243 21.9318C119.468 21.3859 121.382 21.6611 123.11 22.5287C124.873 23.4148 126.52 24.9602 128.075 27.0704C131.205 31.3158 133.712 37.4838 136.028 43.9148C137.824 48.9017 139.519 57.4464 140.909 66.2099C142.293 74.9347 143.356 83.746 143.91 89.1876C143.993 89.9973 144.709 90.5921 145.522 90.5249C146.334 90.4575 146.943 89.7526 146.89 88.9402C146.551 83.6698 146.348 75.624 146.838 68.6254C147.084 65.1187 147.5 61.9395 148.135 59.5223C148.453 58.3123 148.812 57.351 149.197 56.6528C149.592 55.937 149.938 55.6368 150.16 55.5297C152.896 54.2069 156.399 53.8402 159.893 55.0775C163.37 56.3086 166.953 59.1718 169.76 64.5097C171.989 68.7486 172.94 73.8137 173.36 78.4129C173.569 80.7011 173.645 82.8457 173.689 84.6862C173.722 86.0669 173.739 87.3309 173.785 88.3287C170.677 90.7277 166.122 94.9124 160.709 101.125C154.82 107.884 149.902 119.331 148.176 123.337L148.134 123.435C147.808 124.193 148.158 125.072 148.917 125.398C149.675 125.724 150.555 125.374 150.882 124.616L150.924 124.518C152.697 120.403 157.442 109.425 162.966 103.086C168.657 96.554 173.311 92.3892 176.2 90.2495C176.585 89.98 177.473 89.5966 178.735 89.3509C179.97 89.1104 181.434 89.0281 182.896 89.2564C185.751 89.7021 188.614 91.3104 189.953 95.4562C191.745 101.002 191 107.422 189.227 113.922C187.451 120.434 184.746 126.705 182.779 132.087C179.968 139.783 177.796 146.671 176.837 149.898C174.983 150.326 172.398 151.098 169.723 152.232C166.598 153.557 163.228 155.427 160.772 157.919C156.064 162.695 151.077 171.835 149.189 175.743C148.83 176.486 149.141 177.379 149.885 177.737C150.629 178.096 151.524 177.784 151.883 177.041C153.761 173.154 158.57 164.41 162.903 160.015C164.967 157.921 167.933 156.237 170.892 154.982C173.835 153.734 176.651 152.961 178.308 152.637C178.708 152.558 179.06 152.319 179.28 151.976C179.255 152.014 179.319 151.914 179.605 151.711C179.864 151.528 180.228 151.315 180.69 151.099C181.614 150.668 182.85 150.262 184.253 150.052C187.056 149.631 190.385 150.006 193.261 152.332C194.997 153.736 195.747 155.353 195.894 157.12C196.047 158.952 195.556 161.045 194.591 163.312C192.65 167.879 189.06 172.579 186.306 176.442C185.057 178.194 182.351 180.89 178.834 184.261C175.372 187.58 171.21 191.475 167.225 195.516C163.242 199.555 159.379 203.796 156.504 207.843C153.99 211.38 152.084 214.971 151.686 218.261C139.167 220.754 106.654 225.22 85.9454 223.283C75.243 222.282 66.0127 220.463 58.9922 218.614C53.0643 217.053 48.7971 215.491 46.5484 214.419C47.7335 211.125 49.7277 205.96 51.3968 200.236C53.2917 193.738 54.8475 186.279 54.4201 179.508C53.8848 171.026 51.1703 166.521 47.7385 163.395C46.0831 161.887 44.2805 160.721 42.6786 159.634C41.041 158.522 39.5854 157.476 38.3683 156.131C35.9712 153.482 35.0812 150.183 34.9319 147.227C34.7802 144.221 35.4046 141.799 35.7726 141.06C36.1352 140.332 36.0745 139.575 35.7393 138.934C35.4574 138.394 34.9997 137.967 34.589 137.634C33.7696 136.97 32.4713 136.181 31.075 135.274C28.1797 133.392 24.1341 130.557 19.8961 125.661C15.6157 120.717 13.5186 116.789 12.698 113.676C11.8894 110.608 12.303 108.274 13.1823 106.41C13.9764 104.727 16.0702 103.141 18.5793 102.076C19.7965 101.559 21.0295 101.201 22.1114 101.025C23.2282 100.843 24.0451 100.878 24.5026 101.014C24.5911 101.041 24.6986 101.066 24.8204 101.083C26.8106 101.465 29.9331 102.422 32.8802 104.069C35.8638 105.737 38.4934 108.013 39.7348 110.942C41.2086 114.419 43.8798 119.395 46.3089 123.774C48.7777 128.224 50.9642 132.003 51.5861 133.261C51.7167 133.525 51.9232 133.744 52.1785 133.892C54.9065 135.469 59.2486 138.213 63.3667 141.294C67.5354 144.412 71.2843 147.739 73.0138 150.469C73.4553 151.166 74.3792 151.374 75.0773 150.934C75.7753 150.493 75.9832 149.57 75.5417 148.873C73.4909 145.635 69.3355 142.027 65.1597 138.903C61.12 135.881 56.8826 133.183 54.0591 131.53C53.2069 129.907 51.1145 126.273 48.925 122.326C46.4866 117.931 43.8923 113.086 42.4893 109.777C40.8828 105.987 37.6102 103.29 34.3413 101.462C31.5976 99.9286 28.7329 98.9386 26.5456 98.4039C26.4863 98.238 26.4209 98.0818 26.3604 97.9435C26.0175 97.1603 25.4171 96.0734 24.7006 94.8174C23.237 92.2515 21.159 88.7601 19.1267 84.8192C17.095 80.8795 15.1471 76.5605 13.954 72.398C12.753 68.2075 12.3694 64.3513 13.2664 61.2487C15.2199 54.4921 18.7145 51.6185 22.5052 51.1689C26.4642 50.6994 31.3722 52.7749 36.2347 57.3378C44.052 64.6735 46.2041 71.674 50.7536 79.1731C50.7804 79.2173 50.8094 79.2603 50.8406 79.3015C54.113 83.6147 60.2975 93.7246 65.9536 103.604C68.7727 108.528 71.4445 113.367 73.5367 117.357C75.6529 121.394 77.1149 124.448 77.583 125.868C77.8412 126.652 78.6866 127.078 79.4712 126.821C80.2557 126.563 80.6822 125.718 80.424 124.935C79.8646 123.237 78.2765 119.958 76.1867 115.972C74.0729 111.94 71.3823 107.068 68.5505 102.122C63.3299 93.0027 57.5721 83.5322 54.0415 78.6077C55.174 77.9495 57.0995 77.7071 59.8498 78.7408C61.5118 79.3654 63.6643 80.986 65.7737 82.9201C67.828 84.8037 69.6853 86.8376 70.7646 88.1321L89.8322 113.525C90.3277 114.185 91.2652 114.318 91.926 113.823C92.5867 113.329 92.7207 112.392 92.2251 111.732L73.2995 86.5282C71.3781 79.7675 68.5369 69.2285 66.1663 59.2463C64.9652 54.1889 63.8878 49.2871 63.1115 45.0986C62.3293 40.8788 61.8723 37.4814 61.8723 35.3846ZM131.253 107.805C131.256 107.806 131.259 107.807 131.262 107.808C131.259 107.807 131.256 107.806 131.253 107.805ZM131.145 107.771C131.155 107.774 131.164 107.776 131.174 107.779C131.164 107.776 131.155 107.774 131.145 107.771ZM130.933 107.73C130.971 107.734 131.008 107.74 131.043 107.747C131.007 107.74 130.97 107.734 130.933 107.73ZM130.757 107.719C130.804 107.719 130.85 107.722 130.894 107.726C130.849 107.722 130.803 107.719 130.757 107.719ZM58.8812 35.3846C58.8812 37.7817 59.3868 41.4175 60.1699 45.6424C60.9588 49.8985 62.0487 54.8529 63.2557 59.9354C65.0531 67.5036 67.1183 75.3837 68.8525 81.7141C68.5083 81.3811 68.1555 81.0482 67.7968 80.7193C65.6594 78.7595 63.1454 76.7876 60.9031 75.9448C57.618 74.7102 54.547 74.7725 52.411 76.0855C48.7111 69.5709 45.889 62.2978 38.283 55.1603C33.1279 50.3229 27.3761 47.5831 22.1523 48.2026C16.7602 48.8421 12.549 52.9617 10.3927 60.4202C9.26711 64.3135 9.81577 68.8142 11.0786 73.2201C12.3493 77.6538 14.3968 82.1713 16.4679 86.1874C18.5385 90.2025 20.671 93.787 22.1021 96.2958C22.4566 96.9173 22.7608 97.461 23.0111 97.926C22.5558 97.9489 22.0914 98.0017 21.6306 98.0766C20.2885 98.2948 18.8245 98.7254 17.4091 99.3263C14.6524 100.497 11.737 102.464 10.4762 105.137C9.30066 107.629 8.81552 110.683 9.80496 114.437C10.7824 118.145 13.1805 122.471 17.6334 127.615C22.1286 132.808 26.4308 135.82 29.4433 137.778C31.0009 138.79 32.0468 139.421 32.7043 139.954C32.7924 140.025 32.8616 140.085 32.9153 140.135C32.3226 141.602 31.7905 144.329 31.9443 147.377C32.1162 150.783 33.1525 154.821 36.1494 158.134C37.6294 159.769 39.3525 160.987 40.9978 162.104C42.679 163.245 44.2639 164.272 45.7229 165.601C48.52 168.149 50.9427 171.899 51.4348 179.696C51.8293 185.947 50.3886 193.01 48.5248 199.401C46.656 205.81 44.4418 211.303 43.2926 214.657C43.0637 215.325 43.3349 216.062 43.9423 216.423C46.0584 217.683 51.1099 219.628 58.2292 221.503C65.4003 223.391 74.7928 225.24 85.6667 226.257C107.466 228.295 141.717 223.415 153.412 220.959C154.104 220.813 154.6 220.203 154.6 219.496C154.6 216.876 156.164 213.483 158.943 209.572C161.679 205.721 165.409 201.614 169.356 197.611C173.302 193.61 177.409 189.769 180.906 186.417C184.348 183.117 187.293 180.207 188.742 178.175C191.382 174.472 195.241 169.428 197.345 164.48C198.403 161.99 199.084 159.383 198.875 156.873C198.661 154.298 197.517 151.931 195.144 150.011C191.444 147.018 187.195 146.589 183.808 147.097C182.623 147.275 181.526 147.57 180.57 147.919C181.702 144.301 183.46 138.941 185.589 133.111C187.476 127.947 190.294 121.378 192.113 114.707C193.937 108.022 194.86 100.915 192.8 94.5385C191.057 89.1465 187.136 86.8952 183.358 86.3053C181.504 86.0158 179.687 86.1217 178.163 86.4185C177.665 86.5155 177.182 86.636 176.728 86.7761C176.713 86.1395 176.699 85.4183 176.679 84.6144C176.635 82.7507 176.557 80.5286 176.339 78.1416C175.905 73.3899 174.905 67.8698 172.408 63.121C169.307 57.2243 165.185 53.7819 160.892 52.2617C156.617 50.7477 152.285 51.1833 148.856 52.8411C147.845 53.3301 147.116 54.2345 146.577 55.2111C146.029 56.2053 145.594 57.4248 145.242 58.7638C144.658 60.9889 144.261 63.7043 144 66.6101C143.955 66.3209 143.91 66.0316 143.864 65.7425C142.476 56.9928 140.746 48.1884 138.843 42.9036C136.535 36.495 133.904 29.9381 130.484 25.299C128.765 22.967 126.783 21.0303 124.453 19.86C122.087 18.6713 119.442 18.3159 116.53 19.0309C111.399 20.2903 109.582 25.4249 109.199 30.2333C108.919 33.7453 109.346 37.5243 110.094 40.6153C108.835 40.2144 107.692 40.1556 106.532 40.5086C105.583 40.7976 104.737 41.3316 103.918 41.9211C103.503 42.2198 103.065 42.5558 102.607 42.906C102.144 43.2604 101.651 43.6375 101.103 44.0396C98.2182 46.1553 96.8759 50.1135 96.1907 53.7624C95.9706 54.9348 95.8108 56.121 95.6936 57.2713C93.185 51.3725 89.8045 43.4341 87.1804 37.3182C86.1332 34.8772 85.8059 32.2179 85.7357 29.4555C85.7006 28.0747 85.73 26.698 85.7573 25.3153C85.7842 23.9468 85.8091 22.566 85.759 21.2422C85.6599 18.6206 85.2638 15.979 83.7943 13.8078C82.2815 11.5725 79.8018 10.0739 76.0599 9.38284C73.6443 8.93682 71.3301 9.82364 69.3345 11.3339C67.3387 12.8443 65.527 15.0705 64.0041 17.6248C60.9632 22.7254 58.8812 29.4639 58.8812 35.3846ZM131.064 107.751C131.092 107.757 131.119 107.764 131.145 107.771C131.118 107.764 131.091 107.757 131.064 107.751Z" fill="#1D1D25"/>
<ellipse cx="10.4691" cy="10.4556" rx="10.4691" ry="10.4556" transform="matrix(-1 0 0 1 129.219 177.453)" fill="#F6F6F9"/>
<ellipse cx="10.4691" cy="10.4556" rx="10.4691" ry="10.4556" transform="matrix(-1 0 0 1 89.1372 175.063)" fill="#F6F6F9"/>
<ellipse cx="5.68322" cy="5.97461" rx="5.68322" ry="5.97461" transform="matrix(-1 0 0 1 84.3511 179.843)" fill="#1D1D25"/>
<ellipse cx="5.98234" cy="5.67587" rx="5.98234" ry="5.67587" transform="matrix(-1 0 0 1 124.433 182.233)" fill="#1D1D25"/>
<ellipse cx="1.55873" cy="1.55672" rx="1.55873" ry="1.55672" transform="matrix(-1 0 0 1 77.8755 183.07)" fill="#F6F6F9"/>
<ellipse cx="1.55873" cy="1.55672" rx="1.55873" ry="1.55672" transform="matrix(-1 0 0 1 118.402 184.938)" fill="#F6F6F9"/>
<path d="M87.8031 197.675C87.0918 197.256 86.1746 197.492 85.7548 198.203C85.3351 198.913 85.5717 199.829 86.2829 200.248C89.4359 203.139 92.8742 204.982 96.3156 205.23C99.7948 205.482 103.494 203.438 107.254 200.84C107.963 200.416 108.193 199.499 107.769 198.791C107.344 198.084 106.425 197.854 105.717 198.278C102.175 200.398 99.2632 201.101 96.5359 200.904C93.7707 200.704 91.0155 199.569 87.8031 197.675Z" fill="#1D1D25"/>
</svg>
