<svg width="20" height="20" viewBox="0 0 20 20" fill="none" xmlns="http://www.w3.org/2000/svg">
<path d="M10 0C11.1025 0 11.9961 1.07252 11.9961 2.39551C11.9961 3.32363 11.7777 3.834 11.1768 5.23535C11.134 5.3351 11.0887 5.43958 11.042 5.54883C10.5798 6.56163 10.2204 8.76861 10.0723 9.67773C10.0563 9.77591 10.0422 9.85907 10.0312 9.92383C10.0693 9.87035 10.1187 9.80235 10.1768 9.72168C10.7147 8.97422 12.0207 7.15927 12.4102 6.11621C12.4544 6.00581 12.4968 5.89971 12.5371 5.79883C13.1031 4.38301 13.3095 3.86723 13.9658 3.21094C14.9013 2.27566 16.2918 2.1492 17.0713 2.92871C17.8508 3.70822 17.7243 5.09869 16.7891 6.03418C16.1328 6.69047 15.617 6.89688 14.2012 7.46289C14.1003 7.50322 13.9942 7.54557 13.8838 7.58984C12.8407 7.97934 11.0258 9.28527 10.2783 9.82324C10.1976 9.88137 10.1287 9.92972 10.0752 9.96777C10.1401 9.95682 10.2237 9.9438 10.3223 9.92773C11.2314 9.77957 13.4384 9.42016 14.4512 8.95801C14.5604 8.91131 14.6649 8.86601 14.7646 8.82324C16.166 8.22235 16.6764 8.00391 17.6045 8.00391C18.9275 8.00391 20 8.89751 20 10C20 11.1025 18.9275 11.9961 17.6045 11.9961C16.6764 11.9961 16.166 11.7777 14.7646 11.1768C14.6649 11.134 14.5604 11.0887 14.4512 11.042C13.4384 10.5798 11.2314 10.2204 10.3223 10.0723C10.2236 10.0562 10.1401 10.0422 10.0752 10.0312C10.1288 10.0693 10.1973 10.1185 10.2783 10.1768C11.0258 10.7147 12.8407 12.0207 13.8838 12.4102C13.9942 12.4544 14.1003 12.4968 14.2012 12.5371C15.617 13.1031 16.1328 13.3095 16.7891 13.9658C17.7243 14.9013 17.8508 16.2918 17.0713 17.0713C16.2918 17.8508 14.9013 17.7243 13.9658 16.7891C13.3095 16.1328 13.1031 15.617 12.5371 14.2012C12.4968 14.1003 12.4544 13.9942 12.4102 13.8838C12.0207 12.8407 10.7147 11.0258 10.1768 10.2783C10.1185 10.1973 10.0693 10.1288 10.0312 10.0752C10.0422 10.1401 10.0562 10.2236 10.0723 10.3223C10.2204 11.2314 10.5798 13.4384 11.042 14.4512C11.0887 14.5604 11.134 14.6649 11.1768 14.7646C11.7777 16.166 11.9961 16.6764 11.9961 17.6045C11.9961 18.9275 11.1025 20 10 20C8.89751 20 8.00391 18.9275 8.00391 17.6045C8.00391 16.6764 8.22235 16.166 8.82324 14.7646C8.86601 14.6649 8.91131 14.5604 8.95801 14.4512C9.42016 13.4384 9.77957 11.2314 9.92773 10.3223C9.9438 10.2237 9.95682 10.1401 9.96777 10.0752C9.92972 10.1287 9.88137 10.1976 9.82324 10.2783C9.28527 11.0258 7.97934 12.8407 7.58984 13.8838C7.54557 13.9942 7.50322 14.1003 7.46289 14.2012C6.89687 15.617 6.69047 16.1328 6.03418 16.7891C5.09869 17.7243 3.70822 17.8508 2.92871 17.0713C2.1492 16.2918 2.27566 14.9013 3.21094 13.9658C3.86723 13.3095 4.38301 13.1031 5.79883 12.5371C5.89971 12.4968 6.00581 12.4544 6.11621 12.4102C7.15927 12.0207 8.97422 10.7147 9.72168 10.1768C9.80291 10.1183 9.87117 10.0684 9.9248 10.0303C9.85988 10.0412 9.77647 10.0562 9.67773 10.0723C8.76861 10.2204 6.56163 10.5798 5.54883 11.042C5.43958 11.0887 5.3351 11.134 5.23535 11.1768C3.834 11.7777 3.32363 11.9961 2.39551 11.9961C1.07252 11.9961 -1.44574e-07 11.1025 0 10C3.2819e-07 8.89751 1.07252 8.00391 2.39551 8.00391C3.32363 8.00391 3.834 8.22235 5.23535 8.82324C5.3351 8.86601 5.43958 8.91131 5.54883 8.95801C6.56163 9.42016 8.76861 9.77957 9.67773 9.92773C9.77583 9.94372 9.85909 9.95685 9.92383 9.96777C9.87042 9.92979 9.80212 9.88113 9.72168 9.82324C8.97422 9.28527 7.15927 7.97934 6.11621 7.58984C6.00581 7.54557 5.89971 7.50322 5.79883 7.46289C4.38301 6.89687 3.86723 6.69047 3.21094 6.03418C2.27566 5.09869 2.1492 3.70822 2.92871 2.92871C3.70822 2.1492 5.09869 2.27566 6.03418 3.21094C6.69047 3.86723 6.89688 4.38301 7.46289 5.79883C7.50322 5.89971 7.54557 6.00581 7.58984 6.11621C7.97934 7.15927 9.28527 8.97422 9.82324 9.72168C9.88113 9.80212 9.92979 9.87042 9.96777 9.92383C9.95685 9.85909 9.94372 9.77583 9.92773 9.67773C9.77957 8.76861 9.42016 6.56163 8.95801 5.54883C8.91131 5.43958 8.86601 5.3351 8.82324 5.23535C8.22235 3.834 8.00391 3.32363 8.00391 2.39551C8.00391 1.07252 8.89751 3.38844e-07 10 0Z" fill="#B3B5C6"/>
</svg>
