<svg width="219" height="247" viewBox="0 0 219 247" fill="none" xmlns="http://www.w3.org/2000/svg">
<g filter="url(#filter0_d_2037_5227)">
<path d="M82.6734 1.42555C76.9456 0.465529 72.1297 2.73226 68.9339 5.15093C65.6872 7.60818 63.1441 10.8858 61.2369 14.0848C57.4578 20.4237 54.8089 28.7804 54.8088 36.5818C54.8088 39.9097 55.4664 44.2846 56.2524 48.5252C56.6911 50.8916 52.8862 52.6418 51.1912 50.9311C50.7509 50.4867 50.2982 50.0456 49.8325 49.6086C43.7706 43.9203 35.4032 39.1194 26.2589 40.2039C15.9027 41.4322 9.46962 49.4146 6.68432 59.0484C4.8501 65.3928 5.91023 71.8923 7.36435 76.9658C8.87598 82.2399 11.2311 87.3715 13.4244 91.6246C14.1798 93.0895 13.7007 94.8761 12.4292 95.9262C10.4326 97.5752 8.55774 99.6967 7.28841 102.388C5.19446 106.827 4.48813 112.111 6.03819 117.992C7.5015 123.543 10.8312 129.107 15.8191 134.869C19.5434 139.171 23.1723 142.207 26.1721 144.394C27.2353 145.169 27.8378 146.42 27.8466 147.734C27.8495 148.17 27.8618 148.606 27.8837 149.04C28.1259 153.841 29.6134 160.173 34.4701 165.54C36.7647 168.076 39.3166 169.828 40.9858 170.961C42.9129 172.269 43.8236 172.866 44.6739 173.641C45.503 174.396 47.0232 175.804 47.3812 181.476C47.674 186.116 46.5894 191.949 44.8223 198.009C43.0186 204.194 41.0932 208.849 39.7204 212.855L37.8744 218.242C37.3016 219.914 37.9794 221.757 39.499 222.662L44.3964 225.576C47.6887 227.535 53.8007 229.741 61.0652 231.654C68.703 233.666 78.5969 235.608 90.0024 236.675C113.185 238.843 148.509 233.741 160.52 231.218L166.102 230.046C167.833 229.682 169.073 228.156 169.073 226.389V220.694C169.073 221.155 169.091 219.809 171.706 216.128C174.009 212.887 177.328 209.196 181.164 205.307C184.987 201.43 188.922 197.75 192.526 194.295C195.738 191.217 199.429 187.642 201.496 184.744C203.781 181.538 208.472 175.43 211.08 169.297C212.431 166.119 213.7 161.917 213.316 157.303C212.894 152.224 210.529 147.529 206.18 144.011C204.516 142.666 202.792 141.637 201.06 140.865C199.756 140.284 199.011 138.823 199.501 137.483C201.139 132.997 204.307 125.5 206.26 118.338C208.24 111.079 209.718 101.845 206.824 92.8913C204.355 85.2495 199.015 81.0228 193.49 79.1976C191.91 78.6755 190.681 77.35 190.465 75.7014C189.844 70.9377 188.581 65.2675 185.818 60.0123C181.806 52.3835 176.015 47.1471 169.191 44.7309C165.154 43.3014 161.044 42.9688 157.195 43.5204C155.308 43.7906 153.413 42.7581 152.768 40.9671C150.486 34.6273 147.472 26.8655 143.152 21.0058C140.926 17.9861 137.904 14.8358 133.82 12.7843C129.608 10.6683 124.87 10.0354 119.989 11.1244L119.516 11.2352L118.986 11.3729C107.98 14.3948 105.588 25.2789 105.156 30.6953C105.093 31.4753 105.058 32.2628 105.046 33.0527C105.03 34.0668 104.521 35.0127 103.697 35.6057C103.149 36.0002 102.595 36.4251 102.166 36.7539C101.992 36.8866 101.74 36.8199 101.654 36.6193C101.398 36.022 101.148 35.4371 100.904 34.8682C100.529 33.9957 100.263 32.6903 100.206 30.4176C100.177 29.2843 100.2 28.1252 100.228 26.6951C100.254 25.3665 100.287 23.7227 100.226 22.0905C100.109 19.0138 99.6426 14.2018 96.6764 9.81917C93.3985 4.976 88.3885 2.47899 82.9468 1.47398L82.6734 1.42555Z" fill="#F6F6F9"/>
<path d="M91.0063 225.967C112.583 227.985 146.66 223.139 158.304 220.694C158.304 208.223 187.33 186.073 192.724 178.506C198.118 170.94 207.622 159.017 199.402 152.368C192.827 147.049 184.248 150.763 183.22 152.368C183.991 149.693 186.302 142.234 189.385 133.797C193.238 123.25 200.43 108.117 196.577 96.1946C193.495 86.6566 183.01 88.4755 180.527 90.2333C180.185 86.1827 181.011 74.0003 176.285 65.0125C170.377 53.7778 160.873 52.4021 154.708 55.3827C149.777 57.7672 149.914 79.61 150.599 90.2333C149.485 79.3043 146.335 54.8783 142.636 44.6066C138.012 31.7669 132.361 19.1564 122.087 21.6785C113.867 23.6962 115.237 38.3396 117.72 44.6066C112.459 41.5359 111.688 43.1409 107.189 46.4408C102.412 49.9438 102.137 60.1976 102.051 65.0125C99.9109 59.9683 94.7052 47.7248 91.0063 39.1038C86.3828 28.3277 94.8593 14.6104 80.9887 12.0488C73.5397 10.6731 65.5769 25.347 65.5769 36.5818C65.5769 45.5696 73.2828 74.8716 77.1357 88.3991C74.9096 85.7242 69.4812 80.0075 65.5769 78.5401C61.6726 77.0727 58.6505 77.7622 57.2333 79.5964C52.8667 72.3987 50.4734 64.9666 42.4592 57.4462C32.4416 48.0457 21.1396 47.8165 17.0298 62.0318C12.9847 76.0236 32.5798 100.899 30.2581 100.804C30.2149 100.796 30.1721 100.788 30.1298 100.78C27.0475 99.8631 19.0847 102.614 17.0298 106.971C14.9749 111.327 15.2318 117.747 23.9651 127.835C32.6985 137.924 40.6612 139.529 39.6338 141.592C38.6063 143.656 37.0651 152.368 42.4592 158.33C47.8534 164.291 57.1004 164.52 58.1279 180.799C58.9498 193.822 52.1345 209.841 49.9083 216.338C53.7613 218.63 69.4299 223.95 91.0063 225.967Z" fill="#F06334"/>
<path d="M67.0725 36.5816C67.0725 31.2676 68.9715 25.0516 71.7743 20.3504C73.1732 18.004 74.7488 16.1171 76.3411 14.912C77.9333 13.707 79.4076 13.276 80.7162 13.5176C83.9097 14.1073 85.5729 15.2836 86.5163 16.6776C87.503 18.1355 87.8768 20.077 87.9704 22.5518C88.0167 23.7761 87.9941 25.0721 87.9669 26.4534C87.94 27.8207 87.9087 29.2678 87.9459 30.7284C88.0201 33.6488 88.3669 36.7451 89.6313 39.6921C93.2652 48.1617 98.3548 60.1306 100.561 65.328C100.666 72.9214 101.566 91.2049 104.468 101.196C105.939 106.262 109.558 114.872 113.001 122.624C116.459 130.407 119.792 137.438 120.739 139.4C121.098 140.143 121.992 140.454 122.736 140.096C123.48 139.737 123.792 138.844 123.433 138.102C122.497 136.165 119.178 129.163 115.735 121.412C112.277 113.629 108.746 105.203 107.341 100.364C104.53 90.6863 103.634 72.4481 103.547 65.0124C103.59 62.6028 103.682 58.9633 104.331 55.5096C104.999 51.9522 106.182 49.0319 108.074 47.6446C108.65 47.2218 109.166 46.8266 109.627 46.4736C110.094 46.1165 110.495 45.8096 110.867 45.5418C111.622 44.9983 112.141 44.7042 112.604 44.5633C113.344 44.3381 114.31 44.3908 116.655 45.718C118.627 48.8909 122.721 57.0679 124.469 66.4325C125.629 72.6468 127.945 83.7284 130.066 93.2517C131.127 98.0137 132.142 102.399 132.941 105.598C133.34 107.195 133.689 108.515 133.967 109.444C134.104 109.902 134.234 110.301 134.352 110.598C134.408 110.739 134.483 110.915 134.578 111.076C134.623 111.152 134.71 111.291 134.846 111.43C134.934 111.521 135.319 111.904 135.957 111.904C136.783 111.904 137.453 111.235 137.453 110.41C137.453 110.058 137.331 109.734 137.127 109.479C137.058 109.302 136.959 109.009 136.833 108.588C136.576 107.727 136.239 106.46 135.843 104.875C135.053 101.712 134.045 97.3559 132.986 92.6029C130.869 83.096 128.561 72.0515 127.41 65.8846C125.545 55.8947 121.154 47.2276 119.063 43.9332C117.927 40.991 117.03 36.0691 117.381 31.6678C117.746 27.0833 119.355 23.8871 122.444 23.1289C124.668 22.5829 126.583 22.8581 128.31 23.7257C130.074 24.6118 131.72 26.1572 133.276 28.2674C136.405 32.5128 138.913 38.6808 141.228 45.1118C143.024 50.0987 144.719 58.6434 146.109 67.4069C147.494 76.1318 148.556 84.943 149.111 90.3846C149.193 91.1943 149.91 91.7891 150.722 91.7219C151.534 91.6545 152.143 90.9497 152.091 90.1372C151.751 84.8668 151.548 76.8211 152.039 69.8224C152.284 66.3157 152.7 63.1365 153.336 60.7193C153.654 59.5093 154.012 58.548 154.397 57.8498C154.792 57.134 155.138 56.8338 155.36 56.7267C158.096 55.4039 161.599 55.0372 165.093 56.2745C168.57 57.5057 172.153 60.3688 174.96 65.7067C177.189 69.9456 178.14 75.0108 178.56 79.6099C178.769 81.8981 178.845 84.0427 178.889 85.8832C178.922 87.2639 178.939 88.5279 178.985 89.5257C175.877 91.9247 171.323 96.1094 165.91 102.322C160.02 109.081 155.102 120.528 153.377 124.534L153.334 124.632C153.008 125.39 153.358 126.269 154.117 126.595C154.875 126.921 155.756 126.571 156.082 125.813L156.125 125.715C157.897 121.6 162.642 110.622 168.166 104.283C173.857 97.751 178.511 93.5863 181.4 91.4465C181.785 91.177 182.673 90.7936 183.935 90.548C185.171 90.3074 186.634 90.2252 188.096 90.4534C190.951 90.8992 193.814 92.5074 195.154 96.6533C196.946 102.199 196.2 108.619 194.427 115.119C192.651 121.631 189.946 127.902 187.979 133.284C185.168 140.98 182.996 147.868 182.037 151.095C180.184 151.523 177.598 152.295 174.923 153.43C171.799 154.754 168.429 156.624 165.972 159.116C161.264 163.892 156.278 173.032 154.389 176.94C154.03 177.683 154.342 178.576 155.085 178.934C155.829 179.293 156.724 178.981 157.083 178.238C158.961 174.351 163.77 165.607 168.103 161.212C170.168 159.118 173.133 157.434 176.092 156.179C179.035 154.931 181.851 154.158 183.508 153.834C183.909 153.755 184.26 153.516 184.48 153.173C184.455 153.211 184.519 153.111 184.805 152.908C185.064 152.725 185.428 152.512 185.89 152.296C186.814 151.865 188.05 151.459 189.453 151.249C192.256 150.828 195.585 151.203 198.461 153.529C200.197 154.933 200.947 156.55 201.094 158.317C201.247 160.149 200.756 162.242 199.792 164.509C197.85 169.076 194.26 173.776 191.506 177.64C190.257 179.391 187.551 182.087 184.034 185.458C180.572 188.777 176.41 192.672 172.425 196.713C168.442 200.752 164.579 204.993 161.704 209.04C159.191 212.577 157.284 216.168 156.886 219.458C144.367 221.951 111.854 226.417 91.1456 224.48C80.4432 223.479 71.2129 221.66 64.1924 219.811C58.2644 218.25 53.9973 216.688 51.7486 215.616C52.9337 212.322 54.9279 207.157 56.597 201.433C58.4919 194.935 60.0477 187.476 59.6203 180.705C59.085 172.223 56.3705 167.718 52.9387 164.592C51.2832 163.084 49.4807 161.918 47.8788 160.831C46.2412 159.719 44.7856 158.673 43.5685 157.328C41.1714 154.679 40.2814 151.38 40.1321 148.424C39.9804 145.418 40.6048 142.996 40.9728 142.257C41.3354 141.529 41.2747 140.772 40.9395 140.131C40.6576 139.591 40.1999 139.164 39.7892 138.831C38.9698 138.167 37.6715 137.378 36.2752 136.471C33.3799 134.589 29.3343 131.754 25.0963 126.858C20.8159 121.914 18.7188 117.986 17.8982 114.873C17.0896 111.805 17.5032 109.471 18.3825 107.607C19.1766 105.924 21.2704 104.338 23.7795 103.273C24.9967 102.756 26.2297 102.398 27.3116 102.222C28.4284 102.04 29.2453 102.075 29.7028 102.211C29.7913 102.238 29.8988 102.263 30.0206 102.28C32.0108 102.662 35.1333 103.619 38.0804 105.266C41.0639 106.934 43.6936 109.21 44.935 112.139C46.4088 115.616 49.08 120.592 51.5091 124.971C53.9779 129.421 56.1644 133.2 56.7863 134.458C56.9169 134.722 57.1234 134.942 57.3787 135.089C60.1067 136.666 64.4488 139.41 68.5669 142.491C72.7356 145.609 76.4845 148.936 78.214 151.666C78.6555 152.363 79.5794 152.571 80.2775 152.131C80.9755 151.69 81.1834 150.767 80.7419 150.07C78.6911 146.832 74.5357 143.224 70.3599 140.1C66.3202 137.078 62.0828 134.38 59.2593 132.727C58.4071 131.104 56.3147 127.47 54.1252 123.523C51.6868 119.128 49.0925 114.283 47.6895 110.974C46.083 107.184 42.8104 104.487 39.5415 102.659C36.7978 101.126 33.9331 100.136 31.7458 99.6009C31.6865 99.4351 31.6211 99.2788 31.5606 99.1405C31.2177 98.3574 30.6173 97.2704 29.9008 96.0144C28.4372 93.4486 26.3592 89.9571 24.3269 86.0163C22.2952 82.0766 20.3473 77.7576 19.1542 73.595C17.9532 69.4045 17.5696 65.5483 18.4666 62.4457C20.4201 55.6891 23.9147 52.8155 27.7054 52.3659C31.6644 51.8964 36.5724 53.9719 41.4349 58.5348C49.2522 65.8706 51.4043 72.871 55.9538 80.3701C55.9806 80.4143 56.0096 80.4573 56.0408 80.4985C59.3132 84.8118 65.4977 94.9216 71.1538 104.801C73.9729 109.725 76.6447 114.564 78.7369 118.555C80.853 122.591 82.3151 125.645 82.7832 127.065C83.0414 127.849 83.8868 128.275 84.6713 128.018C85.4559 127.76 85.8824 126.915 85.6242 126.132C85.0648 124.434 83.4767 121.155 81.3869 117.169C79.2731 113.137 76.5825 108.265 73.7507 103.319C68.5301 94.1998 62.7723 84.7292 59.2417 79.8048C60.3742 79.1465 62.2997 78.9041 65.05 79.9378C66.712 80.5625 68.8645 82.183 70.9739 84.1171C73.0282 86.0007 74.8854 88.0346 75.9648 89.3291L95.0324 114.722C95.5279 115.382 96.4654 115.515 97.1262 115.021C97.7869 114.526 97.9208 113.589 97.4253 112.929L78.4997 87.7252C76.5783 80.9645 73.7371 70.4255 71.3665 60.4433C70.1654 55.3859 69.088 50.4841 68.3116 46.2956C67.5295 42.0759 67.0725 38.6785 67.0725 36.5816ZM136.453 109.002C136.456 109.003 136.459 109.004 136.462 109.005C136.459 109.004 136.456 109.003 136.453 109.002ZM136.345 108.968C136.355 108.971 136.365 108.973 136.374 108.976C136.365 108.973 136.355 108.971 136.345 108.968ZM136.133 108.927C136.171 108.931 136.208 108.937 136.243 108.944C136.207 108.937 136.17 108.931 136.133 108.927ZM135.957 108.916C136.004 108.916 136.05 108.919 136.094 108.923C136.049 108.919 136.003 108.916 135.957 108.916ZM64.0814 36.5816C64.0814 38.9787 64.587 42.6146 65.3701 46.8394C66.159 51.0955 67.2489 56.0499 68.4559 61.1324C70.2533 68.7006 72.3185 76.5807 74.0527 82.9111C73.7085 82.5782 73.3557 82.2452 72.997 81.9163C70.8596 79.9565 68.3456 77.9846 66.1033 77.1419C62.8182 75.9072 59.7472 75.9695 57.6112 77.2825C53.9113 70.7679 51.0892 63.4948 43.4832 56.3574C38.3281 51.5199 32.5763 48.7801 27.3525 49.3996C21.9604 50.0391 17.7492 54.1588 15.5929 61.6172C14.4673 65.5105 15.016 70.0112 16.2787 74.4171C17.5495 78.8508 19.597 83.3683 21.6681 87.3845C23.7387 91.3995 25.8712 94.9841 27.3023 97.4929C27.6568 98.1144 27.961 98.658 28.2113 99.123C27.756 99.146 27.2915 99.1987 26.8308 99.2736C25.4887 99.4918 24.0247 99.9224 22.6093 100.523C19.8526 101.694 16.9372 103.661 15.6764 106.334C14.5009 108.826 14.0157 111.88 15.0052 115.634C15.9826 119.342 18.3807 123.668 22.8336 128.812C27.3287 134.005 31.631 137.017 34.6435 138.975C36.2011 139.987 37.247 140.618 37.9045 141.151C37.9925 141.222 38.0618 141.282 38.1154 141.332C37.5228 142.799 36.9907 145.526 37.1445 148.574C37.3164 151.98 38.3527 156.018 41.3496 159.331C42.8296 160.966 44.5527 162.184 46.198 163.301C47.8792 164.442 49.4641 165.469 50.9231 166.798C53.7202 169.346 56.1429 173.096 56.635 180.893C57.0295 187.144 55.5888 194.207 53.725 200.598C51.8562 207.007 49.642 212.5 48.4928 215.854C48.2639 216.522 48.5351 217.259 49.1425 217.62C51.2586 218.88 56.3101 220.825 63.4294 222.7C70.6005 224.588 79.993 226.437 90.8669 227.454C112.666 229.492 146.917 224.612 158.612 222.156C159.304 222.01 159.8 221.4 159.8 220.693C159.8 218.073 161.365 214.68 164.144 210.769C166.879 206.919 170.609 202.811 174.557 198.809C178.502 194.807 182.609 190.966 186.106 187.614C189.548 184.314 192.494 181.404 193.942 179.372C196.582 175.669 200.441 170.625 202.545 165.677C203.604 163.187 204.284 160.58 204.076 158.07C203.861 155.495 202.717 153.128 200.344 151.208C196.644 148.215 192.395 147.786 189.008 148.295C187.823 148.472 186.726 148.767 185.77 149.116C186.902 145.498 188.66 140.138 190.79 134.308C192.676 129.144 195.494 122.575 197.313 115.904C199.137 109.219 200.061 102.112 198 95.7355C196.257 90.3435 192.337 88.0922 188.558 87.5023C186.704 87.2128 184.888 87.3187 183.363 87.6155C182.865 87.7125 182.382 87.833 181.928 87.9732C181.913 87.3365 181.899 86.6153 181.88 85.8115C181.835 83.9477 181.757 81.7256 181.539 79.3386C181.105 74.5869 180.106 69.0668 177.608 64.3181C174.508 58.4213 170.386 54.9789 166.092 53.4587C161.817 51.9447 157.485 52.3804 154.057 54.0381C153.045 54.5271 152.316 55.4316 151.778 56.4081C151.229 57.4024 150.795 58.6218 150.443 59.9608C149.858 62.1859 149.461 64.9013 149.2 67.8071C149.155 67.5179 149.11 67.2287 149.064 66.9395C147.676 58.1898 145.946 49.3854 144.043 44.1007C141.735 37.692 139.104 31.1351 135.684 26.496C133.965 24.164 131.983 22.2273 129.653 21.057C127.287 19.8684 124.643 19.5129 121.73 20.2279C116.599 21.4873 114.783 26.6219 114.399 31.4303C114.119 34.9423 114.547 38.7213 115.294 41.8123C114.035 41.4114 112.893 41.3527 111.733 41.7056C110.783 41.9946 109.937 42.5286 109.118 43.1181C108.703 43.4168 108.265 43.7528 107.807 44.103C107.344 44.4574 106.851 44.8345 106.303 45.2367C103.418 47.3523 102.076 51.3106 101.391 54.9594C101.171 56.1318 101.011 57.318 100.894 58.4683C98.3852 52.5695 95.0047 44.6311 92.3806 38.5152C91.3334 36.0743 91.0061 33.4149 90.9359 30.6526C90.9008 29.2718 90.9302 27.895 90.9575 26.5123C90.9844 25.1439 91.0093 23.7631 90.9592 22.4392C90.8601 19.8177 90.464 17.176 88.9945 15.0048C87.4817 12.7696 85.002 11.2709 81.2601 10.5799C78.8445 10.1338 76.5303 11.0207 74.5347 12.5309C72.5389 14.0414 70.7272 16.2675 69.2043 18.8218C66.1634 23.9224 64.0814 30.6609 64.0814 36.5816ZM136.264 108.948C136.292 108.954 136.319 108.961 136.345 108.968C136.318 108.961 136.292 108.954 136.264 108.948Z" fill="#1D1D25"/>
<ellipse cx="10.4691" cy="10.4556" rx="10.4691" ry="10.4556" transform="matrix(-1 0 0 1 134.419 178.65)" fill="#F6F6F9"/>
<ellipse cx="10.4691" cy="10.4556" rx="10.4691" ry="10.4556" transform="matrix(-1 0 0 1 94.3374 176.26)" fill="#F6F6F9"/>
<ellipse cx="5.68322" cy="5.97461" rx="5.68322" ry="5.97461" transform="matrix(-1 0 0 1 89.5513 181.04)" fill="#1D1D25"/>
<ellipse cx="5.98234" cy="5.67587" rx="5.98234" ry="5.67587" transform="matrix(-1 0 0 1 129.633 183.43)" fill="#1D1D25"/>
<path d="M93.0033 198.872C92.292 198.453 91.3748 198.689 90.955 199.4C90.5353 200.11 90.7719 201.026 91.4831 201.445C94.6361 204.336 98.0744 206.179 101.516 206.427C104.995 206.679 108.695 204.635 112.455 202.037C113.163 201.613 113.393 200.696 112.969 199.988C112.544 199.281 111.625 199.051 110.917 199.475C107.375 201.595 104.463 202.298 101.736 202.101C98.9709 201.901 96.2156 200.766 93.0033 198.872Z" fill="#1D1D25"/>
</g>
<defs>
<filter id="filter0_d_2037_5227" x="0.000195503" y="-0.00297832" width="218.586" height="246.402" filterUnits="userSpaceOnUse" color-interpolation-filters="sRGB">
<feFlood flood-opacity="0" result="BackgroundImageFix"/>
<feColorMatrix in="SourceAlpha" type="matrix" values="0 0 0 0 0 0 0 0 0 0 0 0 0 0 0 0 0 0 127 0" result="hardAlpha"/>
<feOffset dy="4"/>
<feGaussianBlur stdDeviation="2.6"/>
<feComposite in2="hardAlpha" operator="out"/>
<feColorMatrix type="matrix" values="0 0 0 0 0 0 0 0 0 0 0 0 0 0 0 0 0 0 0.25 0"/>
<feBlend mode="normal" in2="BackgroundImageFix" result="effect1_dropShadow_2037_5227"/>
<feBlend mode="normal" in="SourceGraphic" in2="effect1_dropShadow_2037_5227" result="shape"/>
</filter>
</defs>
</svg>
