<svg width="20" height="20" viewBox="0 0 20 20" fill="none" xmlns="http://www.w3.org/2000/svg">
<g clip-path="url(#clip0_2271_18063)">
<path d="M10 0C15.5228 0 20 4.47715 20 10C20 15.5228 15.5228 20 10 20C4.47715 20 0 15.5228 0 10C0 4.47715 4.47715 0 10 0ZM8.00879 7.25391C6.59275 7.25391 5.71427 7.94235 5.37402 9.31836C5.25401 9.82345 5.16171 10.2561 5.09668 10.6162C5.07168 10.7762 5.05861 10.9114 5.05859 11.0215C5.05859 11.5469 5.24679 11.9521 5.62207 12.2373C6.00226 12.5174 6.48973 12.6581 7.08496 12.6582C7.80539 12.6582 8.38123 12.4904 8.81152 12.1553C9.24184 11.815 9.5446 11.3017 9.71973 10.6162C9.82476 10.1961 9.9152 9.7635 9.99023 9.31836C10.0153 9.15824 10.0273 9.025 10.0273 8.91992C10.0273 8.56975 9.93974 8.26967 9.76465 8.01953C9.58952 7.76436 9.34916 7.57431 9.04395 7.44922C8.73885 7.31922 8.39387 7.25394 8.00879 7.25391ZM11.4834 7.3291C11.4334 7.3291 11.3849 7.34681 11.3398 7.38184C11.2951 7.41681 11.2678 7.46175 11.2578 7.5166L10.2217 12.3955C10.2118 12.4453 10.2193 12.4904 10.2441 12.5303C10.2742 12.5653 10.317 12.583 10.3721 12.583H11.3926C11.4425 12.583 11.4902 12.5652 11.5352 12.5303C11.5801 12.4953 11.6081 12.4504 11.6182 12.3955L11.9629 10.752H12.9766C13.6319 10.7519 14.1472 10.614 14.5225 10.3389C14.9027 10.0637 15.1552 9.63792 15.2803 9.0625C15.3102 8.92759 15.3261 8.79778 15.3262 8.67285C15.3262 8.23753 15.1557 7.904 14.8154 7.67383C14.4802 7.44374 14.0348 7.32912 13.4795 7.3291H11.4834ZM7.91113 8.33496C8.38631 8.33502 8.62398 8.56239 8.62402 9.01758C8.62402 9.12766 8.61376 9.23574 8.59375 9.34082C8.53371 9.69099 8.44609 10.1011 8.33105 10.5713C8.246 10.9115 8.10342 11.164 7.90332 11.3291C7.70818 11.4942 7.47063 11.5771 7.19043 11.5771C6.71013 11.5771 6.46978 11.347 6.46973 10.8867C6.46973 10.7766 6.47999 10.6714 6.5 10.5713C6.59004 10.0861 6.68047 9.676 6.77051 9.34082C6.85557 9.00057 6.99529 8.74715 7.19043 8.58203C7.39054 8.41701 7.63101 8.33496 7.91113 8.33496ZM13.3516 8.37207C13.5567 8.37207 13.702 8.41217 13.7871 8.49219C13.8721 8.56719 13.915 8.6773 13.915 8.82227C13.915 8.88731 13.9076 8.96279 13.8926 9.04785C13.8426 9.26291 13.7372 9.4279 13.5771 9.54297C13.4221 9.65801 13.2393 9.71578 13.0293 9.71582H12.166L12.4512 8.37207H13.3516Z" fill="#B3B5C6"/>
</g>
<defs>
<clipPath id="clip0_2271_18063">
<rect width="20" height="20" fill="white"/>
</clipPath>
</defs>
</svg>
