<svg width="113" height="129" viewBox="0 0 113 129" fill="none" xmlns="http://www.w3.org/2000/svg">
<path d="M72.2014 0.073058C74.4307 -0.263295 76.3839 0.610422 77.8174 1.69678C79.2973 2.81827 80.5293 4.3763 81.5016 6.00922C83.4349 9.25628 84.7758 13.5411 84.7759 17.4325C84.7759 19.0547 84.4461 21.3298 83.9998 23.7409C83.5402 26.2234 82.9096 29.0913 82.2178 32.0081C81.7485 33.9871 81.2471 36.002 80.747 37.9526C82.0052 37.558 83.3628 37.3862 84.6555 37.5487C86.3236 34.3779 88.3433 30.4567 92.194 26.8385C95.3766 23.848 99.3693 21.7188 103.421 22.2C107.855 22.7266 110.863 26.1383 112.263 30.987C113.098 33.8806 112.645 36.9957 111.874 39.6897C111.085 42.4472 109.835 45.1901 108.623 47.5434C107.903 48.942 107.165 50.2595 106.52 51.3881C106.619 51.4278 106.718 51.4683 106.817 51.5101C108.597 52.2667 110.956 53.714 112.072 56.0822C112.993 58.0386 113.33 60.3933 112.613 63.1179C111.923 65.7383 110.302 68.5443 107.622 71.645C104.845 74.8569 102.178 76.7238 100.364 77.9046C100.198 78.0124 100.049 78.1074 99.9146 78.1938C100.08 79.1658 100.153 80.2571 100.098 81.3621C99.9806 83.6871 99.2672 86.6198 97.0502 89.0732C95.9839 90.2531 94.7753 91.0944 93.8327 91.735C92.8085 92.4311 92.0921 92.8976 91.4295 93.502C90.38 94.4595 89.2502 95.9503 89.0071 99.8061C88.8107 102.923 89.5322 106.608 90.566 110.157C91.6114 113.747 92.7916 116.645 93.5069 118.736L94.4011 121.348L92.0288 122.762C90.5011 123.672 87.335 124.852 83.2446 125.931C79.0362 127.04 73.5546 128.12 67.2217 128.713C54.4382 129.91 34.6558 127.068 27.9149 125.65L25.2116 125.082V122.32C25.2116 121.676 24.7475 120.308 23.2113 118.143C21.774 116.117 19.7648 113.892 17.5498 111.643C15.3385 109.398 13.0494 107.254 11.0301 105.316C9.13518 103.497 7.25419 101.656 6.26007 100.26C4.85576 98.2874 2.43089 95.1204 1.09515 91.9747C0.412432 90.3668 -0.136778 88.4415 0.0301907 86.4317C0.209454 84.2745 1.19645 82.2843 3.09045 80.7502C5.09937 79.123 7.30997 78.5117 9.29307 78.4288C8.83214 77.0606 8.30764 75.5517 7.73486 73.9817C6.72979 71.2269 5.03045 67.2285 3.95831 63.2927C2.87781 59.3263 2.19966 54.6911 3.60133 50.3481C4.93647 46.2112 8.07061 44.3786 11.0082 43.9193C11.5871 43.8288 12.1567 43.7907 12.7047 43.792C12.7361 43.0956 12.7823 42.3439 12.8539 41.559C13.1127 38.7217 13.7228 35.1877 15.3724 32.0467C17.3873 28.21 20.1922 25.7544 23.3313 24.6414C26.431 23.5423 29.6025 23.8491 32.1445 25.0798C32.4584 25.2318 32.7402 25.4109 32.9931 25.606C33.4093 23.7994 33.8548 22.1662 34.3273 20.8524C35.6334 17.2204 37.2354 13.1528 39.429 10.1734C40.5467 8.65532 41.9605 7.21732 43.769 6.3077C45.661 5.3561 47.7888 5.08514 50.0337 5.63694C54.695 6.78269 55.9062 11.3648 56.1396 14.2954C56.2365 15.5109 56.2055 16.7684 56.0815 17.9842C56.9318 18.2822 57.6132 18.7403 58.0921 19.0855C58.3649 19.282 58.6459 19.4981 58.8984 19.6917C59.1633 19.8948 59.4242 20.0943 59.7121 20.3057C60.5249 20.9025 61.1672 21.6402 61.6792 22.4373C62.4086 20.7259 63.1321 19.0311 63.7758 17.5289C64.1864 16.5706 64.3559 15.4287 64.3924 13.9899C64.4106 13.2716 64.3955 12.5473 64.3798 11.7466C64.3647 10.978 64.3481 10.1188 64.3798 9.27961C64.4409 7.66067 64.6859 5.5576 65.934 3.71107C67.2806 1.71877 69.3879 0.589847 71.9847 0.109621L72.2014 0.073058Z" fill="#F6F6F9"/>
<path d="M66.9042 125.324C54.6284 126.473 35.2403 123.713 28.6153 122.32C28.6153 115.215 12.1015 102.596 9.0325 98.2858C5.96355 93.9754 0.556321 87.1832 5.23282 83.3953C8.97402 80.3649 13.8551 82.481 14.4397 83.3953C14.0013 81.8714 12.686 77.6219 10.9323 72.8152C8.74022 66.8067 4.64829 58.1858 6.8404 51.3937C8.59409 45.9599 14.559 46.9962 15.9717 47.9976C16.1665 45.69 15.6965 38.7498 18.3855 33.6295C21.7467 27.2292 27.1539 26.4455 30.6613 28.1435C33.4672 29.502 33.3893 41.9456 32.9996 47.9976C33.6328 41.7714 35.4255 27.8561 37.5299 22.0044C40.1604 14.6898 43.3755 7.50574 49.2212 8.94254C53.8977 10.092 53.1182 18.4342 51.7056 22.0044C54.6989 20.2551 55.1373 21.1694 57.6973 23.0494C60.4148 25.045 60.5714 30.8865 60.6201 33.6295C61.838 30.7559 64.7997 23.7808 66.9042 18.8696C69.5347 12.7305 64.7121 4.91589 72.6036 3.45656C76.8417 2.67285 81.3721 11.0325 81.3721 17.4328C81.3721 22.553 76.9879 39.2461 74.7958 46.9526C76.0623 45.4288 79.1507 42.172 81.3721 41.336C83.5934 40.5001 85.3128 40.8929 86.1191 41.9378C88.6035 37.8374 89.9651 33.6034 94.5247 29.3191C100.224 23.9637 106.654 23.8331 108.993 31.9315C111.294 39.9024 100.146 54.0739 101.466 54.0196C101.491 54.015 101.515 54.0104 101.539 54.006C103.293 53.4836 107.824 55.051 108.993 57.5327C110.162 60.0145 110.016 63.6718 105.047 69.4191C100.078 75.1663 95.5477 76.0806 96.1323 77.2562C96.7168 78.4318 97.5937 83.3953 94.5247 86.7914C91.4558 90.1875 86.1947 90.3181 85.6102 99.592C85.1425 107.011 89.0201 116.137 90.2866 119.838C88.0945 121.144 79.18 124.174 66.9042 125.324Z" fill="#F06334"/>
<path d="M80.5211 17.4325C80.5211 14.4052 79.4407 10.8639 77.8461 8.18572C77.0502 6.84898 76.1537 5.77402 75.2478 5.08751C74.342 4.40102 73.5032 4.15547 72.7586 4.2931C70.9417 4.62908 69.9955 5.29921 69.4587 6.09333C68.8973 6.92387 68.6846 8.02997 68.6314 9.43983C68.6051 10.1373 68.6179 10.8756 68.6334 11.6625C68.6487 12.4415 68.6665 13.2658 68.6454 14.098C68.6031 15.7616 68.4058 17.5256 67.6864 19.2045C65.6189 24.0295 62.7232 30.8481 61.4682 33.809C61.4082 38.1349 60.8962 48.5508 59.2452 54.2427C58.4081 57.1288 56.3495 62.034 54.3904 66.4498C52.4231 70.8841 50.5269 74.8897 49.9876 76.007C49.7834 76.4302 49.2747 76.6077 48.8515 76.4035C48.4283 76.1993 48.2508 75.6906 48.455 75.2674C48.9875 74.1641 50.8759 70.1751 52.8348 65.7597C54.802 61.3256 56.8112 56.5254 57.6109 53.7687C59.2101 48.2554 59.7196 37.8653 59.769 33.6292C59.7445 32.2565 59.6923 30.1831 59.3233 28.2156C58.9433 26.1889 58.27 24.5253 57.1937 23.7349C56.8657 23.4941 56.5722 23.2689 56.3099 23.0678C56.0446 22.8644 55.8163 22.6896 55.6046 22.537C55.1749 22.2274 54.8794 22.0598 54.6161 21.9796C54.195 21.8513 53.6455 21.8813 52.3117 22.6374C51.1897 24.445 48.8605 29.1033 47.8657 34.4382C47.2055 37.9785 45.8878 44.2916 44.6811 49.7169C44.0777 52.4298 43.5005 54.9279 43.0458 56.7506C42.8189 57.66 42.6199 58.412 42.4618 58.9414C42.3838 59.2026 42.3099 59.4294 42.2427 59.5992C42.2111 59.6793 42.1683 59.7794 42.1141 59.8714C42.0888 59.9143 42.0391 59.9937 41.9619 60.0729C41.9115 60.1245 41.6927 60.3427 41.3297 60.3428C40.8598 60.3428 40.4788 59.9617 40.4788 59.4918C40.4788 59.2913 40.5482 59.1068 40.6643 58.9613C40.7035 58.8603 40.7595 58.6938 40.8311 58.4541C40.9778 57.9631 41.1693 57.2416 41.3945 56.3388C41.844 54.5369 42.4176 52.055 43.0199 49.3473C44.2245 43.9313 45.5374 37.6393 46.1925 34.1261C47.2537 28.4349 49.752 23.4974 50.9412 21.6206C51.588 19.9445 52.0982 17.1405 51.8985 14.6331C51.6905 12.0214 50.7755 10.2005 49.0181 9.76857C47.7526 9.45754 46.6633 9.61434 45.6806 10.1086C44.677 10.6134 43.7404 11.4938 42.8553 12.6959C41.0746 15.1145 39.6481 18.6284 38.3306 22.292C37.3089 25.1331 36.3445 30.0009 35.5535 34.9933C34.766 39.9638 34.1614 44.9835 33.8461 48.0835C33.799 48.5448 33.3914 48.8837 32.9293 48.8454C32.4671 48.807 32.1208 48.4054 32.1506 47.9426C32.3439 44.9401 32.4592 40.3565 32.1801 36.3694C32.0403 34.3717 31.8037 32.5605 31.4423 31.1835C31.2613 30.4941 31.0575 29.9465 30.8383 29.5488C30.6136 29.141 30.4166 28.9699 30.2905 28.9089C28.7339 28.1554 26.741 27.9465 24.753 28.6513C22.7749 29.3527 20.7361 30.9838 19.139 34.0248C17.8708 36.4397 17.3299 39.3252 17.0909 41.9453C16.972 43.2489 16.929 44.4706 16.9038 45.5191C16.8849 46.3057 16.8753 47.0258 16.8489 47.5943C18.6174 48.9609 21.2087 51.3449 24.2883 54.8839C27.6391 58.7344 30.437 65.2558 31.419 67.538L31.4429 67.5942C31.6286 68.0258 31.4295 68.5266 30.9979 68.7123C30.5662 68.8981 30.0655 68.6986 29.8797 68.2669L29.8554 68.2108C28.8469 65.8668 26.1476 59.6128 23.0047 56.0011C19.7667 52.2801 17.119 49.9075 15.4752 48.6885C15.256 48.535 14.7508 48.3166 14.033 48.1766C13.3299 48.0396 12.4974 47.9927 11.6654 48.1228C10.041 48.3767 8.41245 49.2929 7.65019 51.6547C6.63057 54.814 7.05476 58.4718 8.06334 62.1742C9.07403 65.8844 10.6131 69.4566 11.7319 72.5232C13.3313 76.9072 14.5671 80.8314 15.1129 82.6694C16.1672 82.9134 17.6381 83.3533 19.1603 83.9996C20.9378 84.7543 22.8552 85.8196 24.2528 87.2391C26.9315 89.9598 29.7684 95.1669 30.843 97.3933C31.0472 97.8165 30.8699 98.3251 30.4468 98.5294C30.0235 98.7337 29.5146 98.5561 29.3103 98.1329C28.2415 95.9182 25.5056 90.9371 23.0402 88.4331C21.8658 87.2403 20.1787 86.2809 18.4952 85.5662C16.8205 84.8552 15.2183 84.4149 14.2759 84.23C14.0479 84.1852 13.848 84.0492 13.7228 83.8534C13.7369 83.8754 13.7007 83.818 13.5377 83.7025C13.3906 83.5982 13.1834 83.477 12.9205 83.3541C12.3949 83.1085 11.6916 82.877 10.8936 82.7572C9.29849 82.5176 7.40466 82.731 5.76856 84.0561C4.78067 84.8563 4.3538 85.7774 4.27017 86.7841C4.1835 87.8276 4.46281 89.0198 5.01139 90.3117C6.11601 92.9132 8.15859 95.591 9.72559 97.7918C10.4361 98.7898 11.9755 100.326 13.9765 102.246C15.9463 104.137 18.3141 106.356 20.5813 108.658C22.8475 110.959 25.0454 113.375 26.6812 115.68C28.1111 117.696 29.1959 119.741 29.422 121.616C36.5446 123.035 55.0427 125.58 66.8249 124.476C72.9139 123.906 78.1655 122.87 82.1598 121.817C85.5324 120.927 87.9602 120.038 89.2396 119.426C88.5653 117.55 87.4307 114.608 86.4811 111.347C85.403 107.645 84.5179 103.396 84.761 99.5382C85.0656 94.706 86.6099 92.1397 88.5625 90.3586C89.5043 89.4994 90.5299 88.8354 91.4413 88.216C92.373 87.5828 93.2011 86.9869 93.8936 86.2207C95.2574 84.7115 95.7638 82.8322 95.8487 81.1481C95.935 79.4353 95.5798 78.0558 95.3704 77.6347C95.1641 77.2198 95.1986 76.7888 95.3893 76.4235C95.5497 76.1162 95.8101 75.8724 96.0438 75.6829C96.51 75.3047 97.2487 74.8555 98.0431 74.3384C99.6903 73.2662 101.992 71.6512 104.403 68.8622C106.839 66.0454 108.032 63.8079 108.499 62.0343C108.959 60.2868 108.723 58.957 108.223 57.895C107.771 56.936 106.58 56.0325 105.152 55.4257C104.46 55.1313 103.758 54.9273 103.143 54.8271C102.507 54.7236 102.043 54.7435 101.782 54.8211C101.732 54.8361 101.671 54.8506 101.602 54.86C100.469 55.0778 98.6927 55.623 97.016 56.5615C95.3185 57.5116 93.8224 58.8084 93.1161 60.4767C92.2776 62.4574 90.7579 65.2926 89.3758 67.787C87.9712 70.3221 86.7272 72.4749 86.3734 73.1916C86.2991 73.3421 86.1816 73.4672 86.0364 73.5513C84.4843 74.4497 82.0139 76.0129 79.6709 77.768C77.2991 79.5446 75.1662 81.4395 74.1822 82.9952C73.931 83.3923 73.4054 83.5108 73.0082 83.2597C72.6111 83.0085 72.4928 82.4829 72.744 82.0857C73.9108 80.2409 76.275 78.1855 78.6508 76.4058C80.9491 74.6842 83.36 73.1471 84.9664 72.2054C85.4512 71.2808 86.6417 69.2106 87.8874 66.9623C89.2747 64.4584 90.7507 61.6985 91.549 59.8129C92.463 57.6539 94.3249 56.1174 96.1847 55.0764C97.7457 54.2026 99.3756 53.6386 100.62 53.334C100.654 53.2395 100.691 53.1505 100.725 53.0717C100.92 52.6255 101.262 52.0063 101.67 51.2908C102.502 49.829 103.685 47.84 104.841 45.5949C105.997 43.3505 107.105 40.89 107.784 38.5187C108.467 36.1314 108.685 33.9345 108.175 32.167C107.064 28.3178 105.076 26.6808 102.919 26.4246C100.666 26.1572 97.874 27.3395 95.1075 29.939C90.6599 34.1181 89.4354 38.1062 86.8471 42.3784C86.8318 42.4035 86.8153 42.4281 86.7975 42.4515C84.9357 44.9087 81.4171 50.6682 78.1991 56.2966C76.5952 59.1018 75.0751 61.8583 73.8847 64.1317C72.6808 66.431 71.8489 68.171 71.5826 68.9802C71.4357 69.4266 70.9548 69.6696 70.5084 69.5227C70.062 69.3758 69.8194 68.8948 69.9663 68.4484C70.2845 67.4812 71.188 65.6129 72.377 63.3422C73.5797 61.0454 75.1105 58.2699 76.7216 55.452C79.6918 50.257 82.9677 44.8617 84.9764 42.0563C84.3321 41.6813 83.2366 41.5432 81.6718 42.1321C80.7262 42.488 79.5016 43.4111 78.3015 44.513C77.1327 45.5861 76.076 46.7448 75.4619 47.4822L64.6135 61.9482C64.3316 62.3241 63.7982 62.4003 63.4223 62.1184C63.0463 61.8364 62.9701 61.3031 63.2521 60.9271L74.0197 46.5685C75.1129 42.717 76.7293 36.713 78.0781 31.0263C78.7614 28.1451 79.3744 25.3526 79.8161 22.9665C80.2611 20.5625 80.5211 18.627 80.5211 17.4325ZM41.0475 58.6894C41.0458 58.6901 41.0442 58.6908 41.0425 58.6914C41.0442 58.6908 41.0458 58.69 41.0475 58.6894ZM41.109 58.6705C41.1034 58.672 41.0978 58.6732 41.0924 58.6748C41.0979 58.6732 41.1034 58.672 41.109 58.6705ZM41.2296 58.6469C41.208 58.6495 41.1871 58.6525 41.1668 58.6565C41.1875 58.6525 41.2085 58.6494 41.2296 58.6469ZM41.3297 58.6409C41.3029 58.6409 41.277 58.6423 41.2519 58.6446C41.2775 58.6423 41.3035 58.6409 41.3297 58.6409ZM82.2229 17.4325C82.2229 18.7981 81.9352 20.8694 81.4897 23.2762C81.0408 25.7009 80.4207 28.5234 79.734 31.4188C78.7114 35.7304 77.5365 40.2196 76.5498 43.8259C76.7456 43.6363 76.9463 43.4466 77.1504 43.2592C78.3665 42.1427 79.7968 41.0194 81.0725 40.5393C82.9416 39.8359 84.6888 39.8714 85.9041 40.6194C88.0091 36.9081 89.6147 32.7646 93.9421 28.6985C96.8751 25.9427 100.148 24.3818 103.12 24.7348C106.187 25.0991 108.583 27.446 109.81 31.695C110.451 33.913 110.138 36.477 109.42 38.987C108.697 41.5129 107.532 44.0864 106.354 46.3744C105.176 48.6617 103.962 50.7038 103.148 52.133C102.946 52.4871 102.773 52.7968 102.631 53.0617C102.89 53.0748 103.154 53.1048 103.416 53.1475C104.18 53.2718 105.013 53.5171 105.818 53.8595C107.387 54.5262 109.045 55.6471 109.763 57.1698C110.431 58.5895 110.707 60.3294 110.145 62.4677C109.588 64.5801 108.224 67.045 105.691 69.9754C103.133 72.9336 100.685 74.6494 98.9714 75.765C98.0852 76.3418 97.4902 76.701 97.1161 77.0045C97.066 77.0451 97.0266 77.0794 96.9961 77.1079C97.3333 77.9435 97.636 79.4968 97.5485 81.2335C97.4507 83.174 96.8611 85.4745 95.156 87.3614C94.314 88.2932 93.3336 88.9871 92.3975 89.6233C91.441 90.2734 90.5393 90.8585 89.7092 91.6157C88.1178 93.0674 86.7395 95.2035 86.4595 99.6453C86.235 103.207 87.0547 107.23 88.1151 110.871C89.1784 114.522 90.4381 117.652 91.0919 119.562C91.2222 119.943 91.0679 120.363 90.7223 120.569C89.5183 121.286 86.6443 122.394 82.5939 123.462C78.5139 124.538 73.1701 125.591 66.9834 126.171C54.5807 127.332 35.0942 124.552 28.4402 123.152C28.0464 123.069 27.7644 122.722 27.7644 122.319C27.7644 120.826 26.8742 118.894 25.2931 116.665C23.7367 114.472 21.6145 112.132 19.3687 109.852C17.1239 107.572 14.7874 105.384 12.7978 103.474C10.8393 101.594 9.16352 99.9363 8.33955 98.779C6.83762 96.6695 4.64194 93.796 3.44486 90.9768C2.84263 89.5585 2.45523 88.0731 2.57401 86.6431C2.69588 85.1762 3.34699 83.8277 4.69728 82.7339C6.80233 81.0288 9.21969 80.7849 11.1465 81.0743C11.8209 81.1756 12.445 81.3432 12.9889 81.5423C12.3447 79.481 11.3447 76.4276 10.1331 73.1065C9.05979 70.1647 7.45663 66.422 6.42136 62.6216C5.384 58.8135 4.85835 54.7647 6.03081 51.1319C7.02224 48.0601 9.25287 46.7776 11.4025 46.4415C12.4575 46.2766 13.4909 46.3369 14.3584 46.506C14.6418 46.5613 14.9165 46.6299 15.1747 46.7098C15.1832 46.3471 15.1913 45.9362 15.2023 45.4783C15.2278 44.4165 15.272 43.1506 15.3961 41.7907C15.643 39.0837 16.2116 35.939 17.6323 33.2337C19.3965 29.8743 21.7417 27.9133 24.1843 27.0472C26.617 26.1847 29.0813 26.4329 31.0321 27.3773C31.6075 27.6559 32.0222 28.1711 32.3287 28.7274C32.6408 29.2939 32.888 29.9886 33.0882 30.7514C33.421 32.019 33.6464 33.5659 33.7952 35.2214C33.8209 35.0566 33.8465 34.8918 33.8726 34.7271C34.6624 29.7425 35.6464 24.7267 36.7292 21.716C38.0421 18.065 39.5391 14.3297 41.4849 11.6868C42.4631 10.3583 43.5906 9.25494 44.9161 8.58825C46.2625 7.91109 47.767 7.70861 49.4242 8.11592C52.3433 8.83339 53.3768 11.7585 53.595 14.4978C53.7544 16.4986 53.511 18.6514 53.0858 20.4124C53.8022 20.1839 54.4521 20.1505 55.112 20.3515C55.6524 20.5162 56.1337 20.8204 56.5998 21.1563C56.8359 21.3264 57.0851 21.5178 57.3453 21.7173C57.6086 21.9192 57.8892 22.1341 58.2012 22.3632C59.8424 23.5684 60.6061 25.8234 60.9959 27.9021C61.1211 28.57 61.212 29.2458 61.2787 29.9011C62.706 26.5406 64.6293 22.0182 66.1222 18.534C66.7181 17.1434 66.9043 15.6284 66.9442 14.0547C66.9642 13.2681 66.9474 12.4838 66.9319 11.6961C66.9166 10.9165 66.9024 10.1299 66.9309 9.37568C66.9873 7.8822 67.2127 6.37729 68.0487 5.14036C68.9094 3.86696 70.3203 3.01319 72.4492 2.61951C73.8235 2.36542 75.1402 2.87063 76.2756 3.73103C77.411 4.5915 78.4418 5.8597 79.3082 7.31486C81.0383 10.2206 82.2229 14.0595 82.2229 17.4325ZM41.1549 58.6589C41.1391 58.6622 41.1239 58.6664 41.109 58.6705C41.1242 58.6664 41.1393 58.6621 41.1549 58.6589Z" fill="#1D1D25"/>
<path d="M54.1175 104.324C54.1175 107.614 51.4507 110.281 48.1612 110.281C44.8716 110.281 42.2048 107.614 42.2048 104.324C42.2048 101.034 44.8716 98.3677 48.1612 98.3677C51.4507 98.3677 54.1175 101.034 54.1175 104.324Z" fill="#F6F6F9"/>
<path d="M76.9217 102.963C76.9217 106.252 74.2549 108.919 70.9654 108.919C67.6758 108.919 65.009 106.252 65.009 102.963C65.009 99.6731 67.6758 97.0063 70.9654 97.0063C74.2549 97.0063 76.9217 99.6731 76.9217 102.963Z" fill="#F6F6F9"/>
<path d="M74.1988 103.133C74.1988 105.012 72.7511 106.536 70.9654 106.536C69.1796 106.536 67.7319 105.012 67.7319 103.133C67.7319 101.253 69.1796 99.729 70.9654 99.729C72.7511 99.729 74.1988 101.253 74.1988 103.133Z" fill="#1D1D25"/>
<path d="M51.735 104.324C51.735 106.11 50.2111 107.558 48.3313 107.558C46.4516 107.558 44.9277 106.11 44.9277 104.324C44.9277 102.539 46.4516 101.091 48.3313 101.091C50.2111 101.091 51.735 102.539 51.735 104.324Z" fill="#1D1D25"/>
<path d="M65.6642 110.193C66.0885 109.991 66.5962 110.171 66.7983 110.595C67.0003 111.02 66.8203 111.527 66.3961 111.73C64.0158 112.863 62.3278 113.514 60.5844 113.514C58.841 113.514 57.153 112.863 54.7727 111.73C54.3485 111.527 54.1684 111.02 54.3705 110.595C54.5726 110.171 55.0803 109.991 55.5046 110.193C57.8892 111.329 59.2646 111.812 60.5844 111.812C61.9042 111.812 63.2796 111.329 65.6642 110.193Z" fill="#1D1D25"/>
</svg>
