<svg width="114" height="129" viewBox="0 0 114 129" fill="none" xmlns="http://www.w3.org/2000/svg">
<path d="M71.355 0.124903C74.4818 -0.399856 77.1108 0.839161 78.8553 2.16123C80.6277 3.50439 82.016 5.29598 83.0571 7.04459C85.1201 10.5095 86.5661 15.0774 86.5661 19.3417C86.5661 21.1608 86.2072 23.5521 85.7781 25.87C85.5386 27.1635 87.6157 28.1202 88.541 27.1852C88.7813 26.9422 89.0285 26.7011 89.2827 26.4623C92.5918 23.353 97.1595 20.7287 102.151 21.3215C107.805 21.993 111.317 26.3562 112.837 31.6221C113.838 35.09 113.26 38.6428 112.466 41.416C111.641 44.2988 110.355 47.1039 109.158 49.4286C108.745 50.2293 109.007 51.2059 109.701 51.7799C110.791 52.6813 111.814 53.8409 112.507 55.3118C113.65 57.7383 114.036 60.6269 113.19 63.8411C112.391 66.8754 110.573 69.9168 107.85 73.0663C105.817 75.4179 103.836 77.0777 102.199 78.273C101.618 78.6966 101.289 79.3801 101.285 80.0986C101.283 80.3372 101.276 80.5755 101.264 80.8126C101.132 83.4369 100.32 86.8977 97.6689 89.8315C96.4163 91.2177 95.0233 92.1753 94.1121 92.7946C93.0601 93.5096 92.5629 93.836 92.0987 94.2594C91.6461 94.6723 90.8163 95.4422 90.6209 98.5422C90.461 101.079 91.0531 104.267 92.0177 107.579C93.0024 110.96 94.0534 113.505 94.8028 115.695L95.8105 118.639C96.1232 119.553 95.7532 120.561 94.9237 121.055L92.2502 122.648C90.453 123.719 87.1165 124.925 83.1508 125.97C78.9814 127.07 73.5804 128.132 67.3542 128.715C54.699 129.9 35.4157 127.111 28.8589 125.732L25.8121 125.091C24.8669 124.892 24.1902 124.058 24.1902 123.092V119.979C24.1902 120.231 24.1805 119.495 22.7529 117.483C21.4957 115.712 19.6836 113.695 17.5899 111.569C15.5025 109.449 13.3548 107.438 11.387 105.549C9.63376 103.867 7.61863 101.913 6.49061 100.329C5.24311 98.5764 2.68229 95.2375 1.25876 91.885C0.521295 90.1483 -0.171547 87.851 0.0379443 85.3292C0.268619 82.5527 1.55972 79.9866 3.93353 78.0638C4.8418 77.3281 5.7829 76.7657 6.72833 76.344C7.44059 76.0262 7.84703 75.2278 7.57972 74.4951C6.6852 72.0432 4.95628 67.9454 3.88984 64.0305C2.80895 60.0627 2.00226 55.015 3.58176 50.121C4.92993 45.9439 7.84516 43.6335 10.861 42.6359C11.7237 42.3505 12.3946 41.626 12.512 40.7248C12.8516 38.1209 13.5405 35.0216 15.0491 32.149C17.239 27.9791 20.4006 25.1168 24.1255 23.7961C26.3293 23.0147 28.573 22.8329 30.6744 23.1344C31.7043 23.2821 32.7385 22.7177 33.0906 21.7387C34.3368 18.2733 35.9821 14.0306 38.3403 10.8277C39.5556 9.17709 41.2049 7.45508 43.4344 6.33371C45.7339 5.17711 48.3199 4.83114 50.9845 5.42637L51.2428 5.48697L51.5324 5.56224C57.5401 7.21405 58.8463 13.1634 59.0821 16.124C59.1161 16.5504 59.1357 16.9808 59.1422 17.4126C59.1506 17.9669 59.4287 18.484 59.8784 18.8081C60.1777 19.0237 60.4799 19.256 60.7143 19.4357C60.809 19.5083 60.9468 19.4718 60.9936 19.3622C61.1333 19.0357 61.2699 18.716 61.4032 18.405C61.6075 17.9281 61.7528 17.2145 61.7843 15.9722C61.8 15.3528 61.7876 14.7192 61.7722 13.9375C61.7579 13.2113 61.7398 12.3128 61.7735 11.4205C61.8369 9.73883 62.0917 7.10854 63.7109 4.71294C65.5003 2.06561 68.2352 0.700721 71.2058 0.151374L71.355 0.124903Z" fill="#F6F6F9"/>
<path d="M66.8063 122.862C55.0279 123.965 36.4254 121.316 30.0687 119.979C30.0687 113.162 14.2239 101.055 11.2793 96.919C8.33469 92.7832 3.14653 86.2662 7.63356 82.6317C11.2232 79.7242 15.9066 81.7544 16.4674 82.6317C16.0468 81.1696 14.7848 77.0923 13.1022 72.4803C10.9989 66.7152 7.07272 58.4436 9.17602 51.9266C10.8587 46.713 16.5819 47.7073 17.9373 48.6681C18.1243 46.454 17.6733 39.795 20.2534 34.8822C23.4784 28.7411 28.6666 27.9892 32.0318 29.6184C34.7241 30.9218 34.6493 42.8613 34.2754 48.6681C34.883 42.6942 36.603 29.3427 38.6222 23.7281C41.1461 16.7098 44.231 9.81678 49.8398 11.1954C54.3268 12.2983 53.579 20.3025 52.2235 23.7281C55.0956 22.0496 55.5162 22.9269 57.9725 24.7307C60.5799 26.6454 60.7302 32.2503 60.7769 34.8822C61.9454 32.125 64.7872 25.4325 66.8063 20.7202C69.3303 14.8299 64.7031 7.33186 72.2749 5.93166C76.3413 5.1797 80.6881 13.2006 80.6881 19.3416C80.6881 24.2545 76.4815 40.2712 74.3782 47.6655C75.5935 46.2034 78.5568 43.0786 80.6881 42.2765C82.8195 41.4744 84.4692 41.8513 85.2428 42.8539C87.6265 38.9195 88.933 34.8571 93.3079 30.7464C98.7765 25.608 104.946 25.4826 107.19 33.2529C109.398 40.9009 98.701 54.4983 99.9684 54.4462C99.992 54.4417 100.015 54.4374 100.038 54.4332C101.721 53.9319 106.068 55.4358 107.19 57.817C108.311 60.1982 108.171 63.7074 103.404 69.2217C98.6362 74.7361 94.2894 75.6134 94.8503 76.7414C95.4112 77.8693 96.2525 82.6317 93.3079 85.8902C90.3633 89.1487 85.3154 89.274 84.7545 98.1723C84.3058 105.291 88.0263 114.047 89.2415 117.598C87.1382 118.851 78.5848 121.759 66.8063 122.862Z" fill="#F06334"/>
<path d="M79.8712 19.3417C79.8712 16.437 78.8345 13.0392 77.3046 10.4695C76.5409 9.18692 75.6808 8.15552 74.8116 7.49682C73.9424 6.83814 73.1376 6.60254 72.4232 6.73459C70.6799 7.05697 69.772 7.69994 69.257 8.46188C68.7183 9.25878 68.5143 10.3201 68.4632 11.6728C68.4379 12.342 68.4502 13.0504 68.4651 13.8055C68.4798 14.5528 68.4969 15.3438 68.4766 16.1422C68.436 17.7385 68.2467 19.431 67.5565 21.0418C65.5728 25.6714 62.7944 32.2137 61.5902 35.0547C61.5326 39.2053 61.0414 49.1993 59.4573 54.6605C58.654 57.4297 56.6788 62.1362 54.7991 66.373C52.9115 70.6278 51.0921 74.471 50.5748 75.543C50.3788 75.9491 49.8907 76.1194 49.4847 75.9235C49.0786 75.7275 48.9083 75.2395 49.1042 74.8334C49.6152 73.7748 51.4271 69.9475 53.3066 65.7109C55.1941 61.4565 57.1219 56.8508 57.8891 54.2058C59.4236 48.9158 59.9124 38.9466 59.9599 34.8822C59.9364 33.5651 59.8862 31.5757 59.5322 29.6879C59.1676 27.7433 58.5215 26.1471 57.4889 25.3888C57.1742 25.1576 56.8926 24.9417 56.6409 24.7487C56.3863 24.5535 56.1673 24.3857 55.9641 24.2394C55.5519 23.9423 55.2683 23.7815 55.0157 23.7045C54.6117 23.5814 54.0844 23.6102 52.8046 24.3357C51.7281 26.07 49.4933 30.5397 48.5388 35.6584C47.9054 39.0552 46.641 45.1125 45.4832 50.3181C44.9043 52.921 44.3504 55.3179 43.9142 57.0668C43.6965 57.9394 43.5055 58.6609 43.3538 59.1689C43.2789 59.4195 43.2081 59.6371 43.1436 59.8C43.1132 59.8769 43.0722 59.9729 43.0202 60.0612C42.996 60.1024 42.9483 60.1785 42.8742 60.2545C42.8258 60.304 42.6159 60.5134 42.2676 60.5134C41.8167 60.5134 41.4512 60.1479 41.4511 59.697C41.4511 59.5045 41.5177 59.3276 41.6291 59.188C41.6667 59.0911 41.7205 58.9313 41.7892 58.7013C41.9299 58.2302 42.1137 57.5379 42.3298 56.6717C42.7611 54.9428 43.3114 52.5615 43.8893 49.9634C45.0451 44.7668 46.3048 38.7298 46.9333 35.359C47.9516 29.8983 50.3487 25.1608 51.4897 23.3601C52.1103 21.7519 52.5998 19.0615 52.4082 16.6557C52.2086 14.1497 51.3307 12.4027 49.6445 11.9882C48.4303 11.6898 47.3851 11.8402 46.4422 12.3145C45.4793 12.7988 44.5807 13.6435 43.7314 14.797C42.0228 17.1176 40.6541 20.4891 39.39 24.0043C38.4097 26.7302 37.4844 31.4009 36.7254 36.191C35.9698 40.9601 35.3897 45.7765 35.0871 48.7509C35.042 49.1935 34.6509 49.5186 34.2076 49.4819C33.7641 49.445 33.4317 49.0598 33.4603 48.6157C33.6458 45.7348 33.7564 41.3369 33.4887 37.5114C33.3546 35.5946 33.1275 33.8568 32.7807 32.5355C32.6071 31.8741 32.4115 31.3487 32.2013 30.9671C31.9856 30.5758 31.7966 30.4117 31.6757 30.3531C30.1821 29.6301 28.2699 29.4297 26.3625 30.106C24.4645 30.7789 22.5083 32.344 20.976 35.2617C19.7591 37.5788 19.2401 40.3474 19.0108 42.8613C18.8967 44.1121 18.8554 45.2843 18.8313 46.2904C18.8131 47.0451 18.804 47.736 18.7786 48.2814C20.4754 49.5927 22.9617 51.8801 25.9167 55.2758C29.1316 58.9703 31.8162 65.2275 32.7584 67.4172L32.7814 67.4711C32.9596 67.8852 32.7684 68.3657 32.3543 68.5439C31.9401 68.7222 31.4597 68.5308 31.2815 68.1166L31.2582 68.0627C30.2905 65.8136 27.7006 59.813 24.685 56.3477C21.5782 52.7774 19.0378 50.501 17.4605 49.3313C17.2502 49.184 16.7656 48.9745 16.0768 48.8402C15.4022 48.7087 14.6034 48.6637 13.8051 48.7885C12.2465 49.0322 10.684 49.9113 9.95257 52.1774C8.97427 55.2087 9.38127 58.7183 10.349 62.2707C11.3187 65.8306 12.7954 69.2581 13.8689 72.2004C15.4035 76.4068 16.5893 80.172 17.1129 81.9356C18.1245 82.1697 19.5358 82.5918 20.9964 83.2119C22.7019 83.936 24.5416 84.9581 25.8825 86.3201C28.4528 88.9306 31.1747 93.9267 32.2057 96.0629C32.4017 96.469 32.2316 96.957 31.8256 97.153C31.4195 97.349 30.9312 97.1786 30.7352 96.7725C29.7096 94.6476 27.0846 89.8682 24.7191 87.4657C23.5923 86.3212 21.9735 85.4008 20.3582 84.715C18.7514 84.0327 17.2141 83.6103 16.3099 83.4329C16.0911 83.39 15.8993 83.2594 15.7792 83.0716C15.7927 83.0927 15.758 83.0376 15.6016 82.9268C15.4605 82.8267 15.2616 82.7104 15.0093 82.5925C14.5051 82.3569 13.8302 82.1348 13.0646 82.0198C11.5341 81.7899 9.71699 81.9946 8.14718 83.2661C7.19932 84.0339 6.78974 84.9176 6.7095 85.8835C6.62634 86.8847 6.89433 88.0287 7.42068 89.2682C8.48055 91.7643 10.4404 94.3336 11.9439 96.4453C12.6256 97.4028 14.1027 98.8765 16.0225 100.719C17.9126 102.533 20.1844 104.662 22.3598 106.871C24.5342 109.079 26.643 111.397 28.2125 113.609C29.5845 115.543 30.6254 117.505 30.8423 119.304C37.6764 120.666 55.425 123.107 66.7299 122.049C72.5722 121.502 77.611 120.507 81.4435 119.497C84.6795 118.644 87.0089 117.79 88.2364 117.203C87.5895 115.403 86.5009 112.58 85.5897 109.451C84.5553 105.899 83.706 101.822 83.9393 98.1209C84.2316 93.4845 85.7133 91.0222 87.5868 89.3132C88.4905 88.4889 89.4745 87.8517 90.3489 87.2574C91.2429 86.6499 92.0375 86.0781 92.7019 85.3429C94.0104 83.8949 94.4963 82.0918 94.5778 80.4758C94.6606 78.8325 94.3198 77.5089 94.1189 77.1048C93.9209 76.7067 93.9541 76.2932 94.137 75.9427C94.2909 75.6478 94.5408 75.414 94.765 75.2321C95.2123 74.8692 95.9211 74.4382 96.6833 73.942C98.2638 72.9133 100.472 71.3637 102.786 68.6878C105.122 65.9851 106.267 63.8382 106.715 62.1364C107.157 60.4597 106.931 59.1838 106.451 58.1649C106.017 57.2447 104.874 56.3778 103.505 55.7956C102.84 55.5131 102.167 55.3174 101.576 55.2212C100.967 55.122 100.521 55.1411 100.271 55.2155C100.223 55.2299 100.164 55.2438 100.098 55.2528C99.0112 55.4618 97.3066 55.9849 95.6978 56.8854C94.0691 57.797 92.6336 59.0413 91.956 60.642C91.1514 62.5425 89.6932 65.2627 88.3672 67.6561C87.0195 70.0885 85.8259 72.154 85.4864 72.8418C85.4151 72.9862 85.3024 73.1062 85.163 73.1868C83.6738 74.0488 81.3035 75.5487 79.0554 77.2327C76.7797 78.9374 74.7333 80.7555 73.7891 82.2481C73.5481 82.6291 73.0437 82.7429 72.6627 82.502C72.2816 82.2609 72.1682 81.7566 72.4092 81.3755C73.5287 79.6055 75.7971 77.6333 78.0766 75.9258C80.2819 74.2739 82.5951 72.799 84.1364 71.8955C84.6016 71.0083 85.7438 69.022 86.9391 66.8648C88.2701 64.4624 89.6864 61.8143 90.4523 60.0051C91.3293 57.9335 93.1157 56.4592 94.9002 55.4604C96.398 54.6221 97.9618 54.0809 99.1558 53.7886C99.1882 53.698 99.2239 53.6125 99.2569 53.537C99.4441 53.1089 99.7719 52.5148 100.163 51.8282C100.962 50.4257 102.096 48.5172 103.206 46.3631C104.315 44.2096 105.378 41.8488 106.029 39.5735C106.685 37.283 106.895 35.1751 106.405 33.4792C105.338 29.786 103.431 28.2152 101.361 27.9695C99.2003 27.7129 96.521 28.8473 93.8666 31.3415C89.5992 35.3513 88.4244 39.1778 85.9408 43.2769C85.9262 43.301 85.9104 43.3246 85.8933 43.347C84.1069 45.7047 80.7309 51.2309 77.6432 56.6312C76.1043 59.3228 74.6458 61.9676 73.5037 64.1489C72.3485 66.355 71.5504 68.0246 71.2949 68.801C71.1539 69.2293 70.6924 69.4624 70.2641 69.3215C69.8359 69.1805 69.603 68.719 69.744 68.2907C70.0493 67.3627 70.9163 65.5701 72.0571 63.3914C73.211 61.1877 74.6798 58.5246 76.2256 55.8208C79.0755 50.8363 82.2187 45.6596 84.146 42.9678C83.5278 42.6081 82.4766 42.4756 80.9753 43.0406C80.068 43.382 78.893 44.2678 77.7415 45.325C76.6201 46.3546 75.6062 47.4664 75.017 48.174L64.6081 62.0538C64.3376 62.4146 63.8258 62.4877 63.4651 62.2171C63.1044 61.9466 63.0313 61.4348 63.3018 61.0741L73.6332 47.2972C74.6821 43.6018 76.233 37.841 77.5272 32.3847C78.1828 29.6203 78.771 26.9409 79.1948 24.6514C79.6217 22.3448 79.8712 20.4878 79.8712 19.3417ZM41.9968 58.9271C41.9952 58.9277 41.9936 58.9284 41.992 58.929C41.9936 58.9284 41.9952 58.9277 41.9968 58.9271ZM42.0558 58.9089C42.0505 58.9104 42.0451 58.9115 42.0399 58.9131C42.0451 58.9116 42.0505 58.9104 42.0558 58.9089ZM42.1716 58.8863C42.1509 58.8887 42.1307 58.8917 42.1113 58.8955C42.1312 58.8917 42.1513 58.8887 42.1716 58.8863ZM42.2676 58.8806C42.2419 58.8806 42.217 58.8819 42.193 58.8841C42.2175 58.8818 42.2424 58.8806 42.2676 58.8806ZM81.5041 19.3417C81.5041 20.6519 81.228 22.6393 80.8005 24.9487C80.3699 27.2751 79.7749 29.9832 79.116 32.7613C78.1348 36.8982 77.0075 41.2056 76.0608 44.6658C76.2486 44.4838 76.4412 44.3018 76.6371 44.122C77.8038 43.0508 79.1762 41.9729 80.4003 41.5123C82.1936 40.8374 83.87 40.8715 85.0361 41.5891C87.0559 38.0282 88.5964 34.0526 92.7485 30.1513C95.5626 27.507 98.7025 26.0094 101.554 26.3481C104.498 26.6976 106.796 28.9495 107.974 33.0264C108.588 35.1545 108.289 37.6146 107.599 40.0229C106.905 42.4464 105.788 44.9157 104.657 47.111C103.527 49.3057 102.363 51.265 101.582 52.6363C101.388 52.9761 101.222 53.2732 101.085 53.5274C101.334 53.5399 101.587 53.5688 101.839 53.6097C102.572 53.729 103.371 53.9644 104.143 54.2928C105.648 54.9325 107.24 56.008 107.928 57.469C108.57 58.8312 108.835 60.5006 108.294 62.5523C107.761 64.5791 106.452 66.9442 104.021 69.7559C101.567 72.5941 99.2185 74.2404 97.574 75.3109C96.7237 75.8643 96.1528 76.209 95.7938 76.5001C95.7458 76.5391 95.708 76.572 95.6787 76.5993C96.0022 77.4011 96.2927 78.8915 96.2087 80.5578C96.1149 82.4197 95.5492 84.627 93.9132 86.4375C93.1053 87.3315 92.1646 87.9973 91.2665 88.6078C90.3487 89.2315 89.4835 89.7928 88.687 90.5194C87.1602 91.9122 85.8376 93.9619 85.569 98.2236C85.3536 101.641 86.1401 105.501 87.1575 108.995C88.1777 112.498 89.3864 115.501 90.0137 117.334C90.1387 117.699 89.9907 118.102 89.6591 118.299C88.5039 118.988 85.7463 120.051 81.86 121.076C77.9453 122.108 72.818 123.119 66.882 123.674C54.9817 124.789 36.2847 122.121 29.9003 120.778C29.5224 120.699 29.2519 120.365 29.2519 119.979C29.2519 118.547 28.3978 116.692 26.8807 114.554C25.3874 112.45 23.3511 110.204 21.1963 108.017C19.0424 105.829 16.8007 103.73 14.8917 101.897C13.0125 100.094 11.4046 98.5029 10.614 97.3925C9.17292 95.3685 7.06621 92.6114 5.91762 89.9064C5.33979 88.5456 4.96809 87.1203 5.08206 85.7483C5.19899 84.3408 5.82371 83.0469 7.11931 81.9974C9.13907 80.3614 11.4585 80.1273 13.3073 80.405C13.9543 80.5022 14.5531 80.6631 15.075 80.8541C14.4569 78.8763 13.4974 75.9466 12.3349 72.7601C11.3051 69.9374 9.76686 66.3464 8.77353 62.7C7.7782 59.0462 7.27385 55.1614 8.3988 51.6757C9.35006 48.7284 11.4903 47.4979 13.5528 47.1754C14.5651 47.0172 15.5567 47.075 16.389 47.2373C16.661 47.2903 16.9245 47.3562 17.1722 47.4328C17.1804 47.0848 17.1882 46.6906 17.1987 46.2512C17.2232 45.2324 17.2656 44.0178 17.3846 42.713C17.6216 40.1157 18.1671 37.0984 19.5303 34.5027C21.223 31.2794 23.4732 29.3978 25.8168 28.5668C28.151 27.7393 30.5155 27.9774 32.3872 28.8835C32.9393 29.1508 33.3371 29.6452 33.6313 30.179C33.9307 30.7225 34.1679 31.389 34.36 32.1209C34.6793 33.3372 34.8956 34.8215 35.0383 36.4098C35.063 36.2517 35.0876 36.0936 35.1127 35.9356C35.8704 31.1529 36.8146 26.3403 37.8534 23.4516C39.1132 19.9486 40.5495 16.3645 42.4165 13.8287C43.355 12.5541 44.4369 11.4954 45.7087 10.8557C47.0005 10.206 48.4441 10.0117 50.0342 10.4025C52.8349 11.0909 53.8266 13.8976 54.036 16.5259C54.1889 18.4456 53.9554 20.5112 53.5474 22.2008C54.2348 21.9816 54.8584 21.9495 55.4915 22.1424C56.01 22.3004 56.4718 22.5923 56.919 22.9146C57.1455 23.0778 57.3847 23.2615 57.6343 23.4529C57.887 23.6466 58.1562 23.8528 58.4555 24.0726C60.0302 25.229 60.763 27.3926 61.137 29.3871C61.2572 30.028 61.3444 30.6764 61.4084 31.3051C62.7778 28.0808 64.6232 23.7416 66.0557 20.3986C66.6274 19.0643 66.806 17.6107 66.8444 16.1007C66.8635 15.346 66.8474 14.5934 66.8326 13.8377C66.8178 13.0896 66.8043 12.3349 66.8316 11.6113C66.8857 10.1783 67.102 8.73434 67.9041 7.54753C68.73 6.32572 70.0836 5.50654 72.1263 5.12881C73.445 4.88501 74.7083 5.36975 75.7977 6.19529C76.8871 7.02091 77.8761 8.23772 78.7075 9.63393C80.3675 12.422 81.5041 16.1053 81.5041 19.3417ZM42.0998 58.8978C42.0847 58.901 42.0701 58.905 42.0558 58.9089C42.0704 58.905 42.0849 58.9009 42.0998 58.8978Z" fill="#1D1D25"/>
<ellipse cx="48.8224" cy="102.713" rx="5.71501" ry="5.71511" fill="#F6F6F9"/>
<ellipse cx="70.7028" cy="101.407" rx="5.71501" ry="5.71511" fill="#F6F6F9"/>
<ellipse cx="70.703" cy="101.57" rx="3.10243" ry="3.26578" fill="#1D1D25"/>
<ellipse cx="48.9859" cy="102.713" rx="3.26572" ry="3.10249" fill="#1D1D25"/>
<ellipse cx="71.9866" cy="100.919" rx="0.850903" ry="0.850922" fill="#F6F6F9"/>
<ellipse cx="49.8631" cy="101.94" rx="0.850903" ry="0.850922" fill="#F6F6F9"/>
<path d="M65.7159 108.051C66.1042 107.822 66.6049 107.951 66.8341 108.34C67.0632 108.728 66.934 109.229 66.5458 109.458C64.8246 111.038 62.9476 112.045 61.069 112.181C59.1697 112.318 57.1501 111.201 55.0976 109.781C54.7108 109.55 54.5851 109.048 54.8169 108.661C55.0487 108.275 55.5502 108.149 55.937 108.381C57.8703 109.539 59.4599 109.924 60.9487 109.816C62.4582 109.707 63.9623 109.086 65.7159 108.051Z" fill="#1D1D25"/>
</svg>
