<svg width="334" height="379" viewBox="0 0 334 379" fill="none" xmlns="http://www.w3.org/2000/svg">
<path d="M209.645 0.366698C218.832 -1.17504 226.556 2.46519 231.681 6.34943C236.888 10.2956 240.967 15.5593 244.026 20.6967C250.087 30.8766 254.336 44.297 254.336 56.8255C254.336 62.17 253.281 69.1957 252.021 76.0059C251.317 79.8062 257.42 82.6169 260.138 79.8697C260.844 79.156 261.57 78.4476 262.317 77.7459C272.04 68.6107 285.46 60.9007 300.126 62.6424C316.736 64.615 327.054 77.4343 331.521 92.9055C334.463 103.094 332.763 113.532 330.43 121.68C328.006 130.15 324.229 138.391 320.711 145.221C319.499 147.574 320.268 150.443 322.307 152.129C325.509 154.777 328.516 158.184 330.552 162.506C333.911 169.635 335.043 178.121 332.557 187.565C330.21 196.48 324.87 205.415 316.87 214.668C310.897 221.577 305.077 226.454 300.265 229.966C298.56 231.21 297.594 233.219 297.58 235.329C297.575 236.03 297.555 236.73 297.52 237.427C297.132 245.137 294.746 255.305 286.957 263.925C283.276 267.997 279.183 270.811 276.506 272.63C273.415 274.731 271.955 275.69 270.591 276.934C269.261 278.147 266.823 280.409 266.249 289.517C265.779 296.969 267.519 306.336 270.353 316.068C273.246 326.001 276.334 333.477 278.536 339.91L281.496 348.561C282.415 351.246 281.328 354.206 278.891 355.659L271.036 360.339C265.756 363.485 255.953 367.028 244.302 370.1C232.051 373.331 216.183 376.451 197.89 378.163C160.708 381.645 104.053 373.451 84.7889 369.4L75.8373 367.517C73.0603 366.933 71.0722 364.483 71.0722 361.645V352.499C71.0722 353.239 71.0436 351.077 66.8492 345.166C63.1554 339.96 57.8314 334.034 51.6801 327.788C45.5471 321.561 39.237 315.653 33.4555 310.104C28.3045 305.16 22.3839 299.42 19.0698 294.765C15.4045 289.617 7.8807 279.807 3.69831 269.958C1.53159 264.855 -0.504013 258.106 0.111482 250.697C0.789216 242.539 4.58254 235 11.5569 229.351C14.2255 227.19 16.9905 225.537 19.7682 224.298C21.8608 223.365 23.055 221.019 22.2696 218.866C19.6415 211.663 14.5618 199.623 11.4285 188.121C8.25283 176.464 5.88276 161.634 10.5234 147.255C14.4844 134.983 23.0495 128.195 31.9101 125.264C34.445 124.425 36.4158 122.297 36.7611 119.649C37.7586 111.999 39.7828 102.893 44.215 94.4535C50.6492 82.2022 59.9382 73.7928 70.882 69.9126C77.3569 67.6169 83.9491 67.0827 90.1231 67.9684C93.1488 68.4025 96.1875 66.7443 97.2219 63.868C100.883 53.6867 105.717 41.2217 112.646 31.8114C116.216 26.962 121.062 21.9028 127.613 18.6082C134.369 15.2101 141.966 14.1936 149.795 15.9424L150.554 16.1204L151.405 16.3416C169.056 21.1946 172.893 38.6738 173.586 47.3721C173.686 48.6248 173.744 49.8894 173.763 51.1579C173.788 52.7866 174.605 54.3056 175.926 55.2579C176.805 55.8915 177.693 56.5738 178.382 57.1019C178.66 57.3151 179.065 57.2079 179.203 56.8858C179.613 55.9265 180.014 54.9873 180.406 54.0735C181.006 52.6723 181.433 50.576 181.526 46.9261C181.572 45.1062 181.535 43.2448 181.49 40.9481C181.448 38.8144 181.395 36.1746 181.494 33.5533C181.68 28.6124 182.429 20.8846 187.186 13.8464C192.443 6.0685 200.479 2.05845 209.206 0.444469L209.645 0.366698Z" fill="#F6F6F9"/>
<path d="M196.28 360.968C161.674 364.208 107.019 356.426 88.3432 352.499C88.3432 332.471 41.7903 296.899 33.1388 284.748C24.4874 272.597 9.24432 253.45 22.4275 242.772C32.974 234.23 46.734 240.195 48.3818 242.772C47.1459 238.476 43.4382 226.497 38.4945 212.947C32.3149 196.009 20.7797 171.707 26.9593 152.56C31.9029 137.243 48.718 140.164 52.7004 142.987C53.2497 136.482 51.9248 116.918 59.5051 102.484C68.9805 84.4416 84.2235 82.2323 94.1109 87.019C102.021 90.8484 101.801 125.927 100.702 142.987C102.488 125.436 107.541 86.209 113.474 69.7132C120.889 49.0934 129.953 28.8418 146.431 32.8921C159.615 36.1324 157.417 59.6487 153.435 69.7132C161.873 64.7819 163.109 67.3593 170.326 72.6588C177.987 78.2844 178.428 94.7515 178.565 102.484C181.999 94.3832 190.348 74.7208 196.28 60.8761C203.696 43.5702 190.101 21.5411 212.347 17.4273C224.294 15.218 237.066 38.7835 237.066 56.8258C237.066 71.2597 224.706 118.317 218.527 140.041C222.097 135.746 230.804 126.565 237.066 124.208C243.328 121.852 248.175 122.959 250.448 125.905C257.451 114.346 261.29 102.41 274.143 90.3329C290.21 75.2363 308.337 74.8681 314.929 97.6971C321.416 120.167 289.989 160.116 293.712 159.963C293.781 159.95 293.85 159.937 293.918 159.925C298.862 158.452 311.633 162.87 314.929 169.866C318.224 176.862 317.812 187.172 303.805 203.374C289.798 219.575 277.027 222.152 278.675 225.466C280.323 228.78 282.795 242.772 274.143 252.346C265.492 261.919 250.661 262.287 249.013 288.43C247.694 309.344 258.625 335.07 262.196 345.503C256.016 349.185 230.886 357.727 196.28 360.968Z" fill="#F06334"/>
<path d="M234.666 56.8256C234.666 48.2917 231.621 38.309 227.125 30.7593C224.882 26.991 222.355 23.9608 219.801 22.0255C217.247 20.0903 214.883 19.3981 212.784 19.7861C207.662 20.7332 204.994 22.6223 203.481 24.8609C201.899 27.2022 201.299 30.3202 201.149 34.2946C201.075 36.2607 201.111 38.342 201.155 40.5603C201.198 42.756 201.248 45.08 201.188 47.4257C201.069 52.1156 200.513 57.0881 198.485 61.8208C192.657 75.4224 184.494 94.6438 180.956 102.991C180.787 115.185 179.343 144.547 174.689 160.593C172.329 168.728 166.526 182.556 161.003 195.004C155.457 207.504 150.112 218.796 148.592 221.945C148.016 223.138 146.582 223.639 145.389 223.063C144.196 222.487 143.696 221.054 144.271 219.86C145.773 216.75 151.096 205.505 156.618 193.059C162.164 180.559 167.828 167.027 170.082 159.256C174.59 143.714 176.026 114.425 176.166 102.484C176.097 98.614 175.949 92.7692 174.909 87.2228C173.838 81.5098 171.94 76.82 168.906 74.592C167.981 73.913 167.154 73.2784 166.415 72.7115C165.667 72.138 165.023 71.6451 164.426 71.2151C163.215 70.3423 162.382 69.87 161.64 69.6438C160.453 69.2821 158.903 69.3667 155.143 71.4981C151.981 76.5936 145.414 89.7254 142.61 104.764C140.749 114.744 137.034 132.54 133.633 147.834C131.932 155.482 130.305 162.524 129.023 167.662C128.383 170.226 127.822 172.346 127.376 173.838C127.156 174.574 126.948 175.214 126.759 175.692C126.67 175.918 126.549 176.2 126.396 176.46C126.325 176.581 126.185 176.804 125.967 177.027C125.825 177.173 125.208 177.788 124.185 177.788C122.86 177.788 121.786 176.714 121.786 175.39C121.786 174.824 121.982 174.304 122.309 173.894C122.42 173.609 122.578 173.14 122.779 172.464C123.193 171.08 123.733 169.046 124.368 166.501C125.635 161.422 127.252 154.426 128.95 146.792C132.345 131.525 136.046 113.788 137.893 103.884C140.885 87.8412 147.928 73.9224 151.28 68.6318C153.103 63.9068 154.542 56.0025 153.979 48.9342C153.392 41.5718 150.813 36.439 145.859 35.2213C142.291 34.3445 139.22 34.7865 136.45 36.1798C133.621 37.6028 130.981 40.0846 128.486 43.4734C123.466 50.2913 119.445 60.1968 115.73 70.5245C112.85 78.5333 110.132 92.2556 107.902 106.329C105.682 120.341 103.977 134.491 103.088 143.23C102.956 144.53 101.807 145.486 100.504 145.378C99.2012 145.269 98.2248 144.137 98.3088 142.833C98.8538 134.369 99.1788 121.448 98.3922 110.208C97.9981 104.577 97.331 99.4711 96.3121 95.5892C95.802 93.646 95.2273 92.1023 94.6095 90.9811C93.976 89.8314 93.4207 89.3494 93.0654 89.1773C88.6773 87.0531 83.0592 86.4642 77.455 88.4512C71.8785 90.4283 66.1311 95.0264 61.6291 103.599C58.0539 110.406 56.5291 118.54 55.8553 125.926C55.5201 129.601 55.3988 133.045 55.3278 136.001C55.2745 138.218 55.2476 140.248 55.1732 141.851C60.1585 145.703 67.4634 152.424 76.1451 162.4C85.5909 173.255 93.4783 191.638 96.2465 198.072L96.3139 198.23C96.8375 199.447 96.276 200.858 95.0593 201.382C93.8424 201.906 92.4309 201.343 91.9072 200.126L91.8388 199.968C88.9957 193.36 81.3863 175.731 72.5264 165.549C63.3983 155.06 55.9345 148.372 51.3006 144.935C50.6826 144.502 49.2586 143.887 47.2349 143.492C45.2529 143.106 42.9061 142.974 40.5607 143.341C35.9815 144.056 31.3906 146.639 29.2417 153.297C26.3674 162.203 27.5632 172.514 30.4064 182.951C33.2556 193.41 37.5942 203.48 40.7481 212.125C45.257 224.483 48.7407 235.545 50.2792 240.726C53.2514 241.414 57.3978 242.654 61.689 244.476C66.6999 246.604 72.1049 249.607 76.0448 253.608C83.5963 261.278 91.5935 275.956 94.6227 282.233C95.1984 283.426 94.6987 284.859 93.5058 285.435C92.3127 286.011 90.878 285.511 90.3022 284.317C87.289 278.074 79.5765 264.033 72.6266 256.974C69.316 253.612 64.5598 250.907 59.8141 248.892C55.093 246.888 50.5765 245.647 47.9199 245.126C47.277 245 46.7136 244.616 46.3607 244.064C46.4004 244.126 46.2983 243.964 45.8388 243.639C45.4242 243.345 44.8399 243.003 44.0988 242.657C42.6173 241.964 40.6345 241.312 38.385 240.974C33.8883 240.299 28.5496 240.9 23.9374 244.636C21.1525 246.891 19.9492 249.488 19.7134 252.326C19.4691 255.267 20.2565 258.628 21.8029 262.27C24.9169 269.603 30.675 277.152 35.0924 283.356C37.0953 286.169 41.435 290.499 47.0756 295.913C52.6287 301.243 59.3034 307.497 65.6947 313.987C72.0833 320.473 78.2792 327.285 82.8905 333.783C86.9215 339.464 89.9796 345.231 90.617 350.515C110.696 354.517 162.842 361.689 196.056 358.579C213.222 356.972 228.026 354.05 239.286 351.081C248.793 348.574 255.637 346.066 259.244 344.343C257.343 339.054 254.145 330.76 251.468 321.568C248.428 311.132 245.933 299.154 246.619 288.279C247.477 274.657 251.831 267.423 257.335 262.402C259.99 259.98 262.881 258.108 265.45 256.362C268.077 254.577 270.412 252.897 272.364 250.737C276.208 246.483 277.636 241.185 277.875 236.438C278.118 231.61 277.117 227.721 276.527 226.534C275.945 225.364 276.043 224.149 276.58 223.119C277.032 222.253 277.766 221.566 278.425 221.032C279.739 219.966 281.822 218.699 284.061 217.242C288.705 214.219 295.193 209.666 301.991 201.805C308.856 193.864 312.219 187.556 313.535 182.557C314.832 177.631 314.169 173.882 312.759 170.888C311.485 168.185 308.127 165.638 304.103 163.927C302.15 163.097 300.173 162.522 298.438 162.24C296.646 161.948 295.336 162.004 294.602 162.223C294.46 162.265 294.288 162.306 294.093 162.333C290.901 162.947 285.893 164.483 281.166 167.129C276.381 169.807 272.163 173.463 270.172 178.166C267.808 183.75 263.524 191.742 259.628 198.773C255.668 205.92 252.161 211.988 251.164 214.009C250.955 214.433 250.623 214.786 250.214 215.023C245.839 217.555 238.874 221.962 232.27 226.909C225.583 231.918 219.571 237.259 216.797 241.645C216.089 242.764 214.607 243.098 213.487 242.391C212.368 241.682 212.034 240.201 212.742 239.081C216.032 233.881 222.696 228.087 229.394 223.07C235.873 218.216 242.669 213.883 247.198 211.229C248.564 208.622 251.921 202.787 255.432 196.449C259.343 189.39 263.504 181.61 265.754 176.295C268.331 170.209 273.58 165.877 278.822 162.943C283.223 160.479 287.817 158.889 291.326 158.031C291.421 157.764 291.526 157.513 291.623 157.291C292.173 156.034 293.136 154.288 294.285 152.271C296.632 148.151 299.965 142.543 303.225 136.215C306.483 129.888 309.607 122.952 311.521 116.267C313.447 109.537 314.062 103.344 312.624 98.3618C309.491 87.5111 303.886 82.8962 297.806 82.1742C291.456 81.4203 283.584 84.7533 275.786 92.0811C263.248 103.862 259.796 115.104 252.499 127.147C252.456 127.218 252.41 127.287 252.36 127.353C247.111 134.28 237.192 150.516 228.121 166.382C223.599 174.29 219.314 182.061 215.958 188.469C212.564 194.951 210.219 199.856 209.469 202.137C209.055 203.396 207.699 204.08 206.44 203.666C205.182 203.252 204.498 201.896 204.912 200.638C205.809 197.911 208.356 192.645 211.708 186.244C215.098 179.769 219.414 171.945 223.956 164.001C232.329 149.357 241.563 134.148 247.226 126.239C245.41 125.182 242.321 124.793 237.91 126.453C235.245 127.456 231.792 130.059 228.409 133.165C225.114 136.19 222.136 139.456 220.404 141.535L189.823 182.314C189.028 183.374 187.524 183.589 186.464 182.794C185.405 181.999 185.19 180.495 185.985 179.436L216.339 138.959C219.42 128.102 223.977 111.177 227.779 95.146C229.706 87.0242 231.434 79.1522 232.679 72.4257C233.933 65.649 234.666 60.193 234.666 56.8256ZM123.389 173.128C123.385 173.129 123.38 173.132 123.375 173.133C123.38 173.132 123.385 173.129 123.389 173.128ZM123.563 173.074C123.547 173.079 123.531 173.082 123.516 173.086C123.531 173.082 123.547 173.078 123.563 173.074ZM123.903 173.008C123.842 173.015 123.783 173.024 123.726 173.035C123.784 173.024 123.843 173.015 123.903 173.008ZM124.185 172.991C124.109 172.991 124.036 172.995 123.966 173.001C124.038 172.995 124.111 172.991 124.185 172.991ZM239.464 56.8256C239.464 60.6752 238.653 66.5141 237.397 73.299C236.132 80.134 234.383 88.0905 232.448 96.2526C229.565 108.407 226.253 121.062 223.471 131.228C224.023 130.693 224.589 130.159 225.164 129.63C228.592 126.483 232.625 123.316 236.221 121.963C241.49 119.98 246.415 120.08 249.841 122.189C255.775 111.727 260.301 100.046 272.5 88.5842C280.769 80.8156 289.994 76.4156 298.372 77.4105C307.02 78.4375 313.774 85.0534 317.233 97.0313C319.038 103.284 318.158 110.512 316.133 117.587C314.095 124.707 310.811 131.962 307.489 138.412C304.168 144.86 300.748 150.616 298.453 154.645C297.884 155.643 297.396 156.517 296.995 157.263C297.725 157.3 298.47 157.385 299.209 157.505C301.361 157.856 303.709 158.547 305.979 159.512C310.401 161.392 315.077 164.551 317.099 168.844C318.984 172.846 319.762 177.751 318.175 183.779C316.608 189.733 312.762 196.682 305.62 204.943C298.41 213.281 291.51 218.118 286.678 221.263C284.18 222.889 282.502 223.902 281.448 224.757C281.307 224.872 281.196 224.968 281.11 225.049C282.06 227.404 282.914 231.783 282.667 236.679C282.391 242.149 280.729 248.634 275.922 253.953C273.549 256.58 270.785 258.536 268.146 260.329C265.45 262.162 262.908 263.811 260.568 265.946C256.082 270.038 252.196 276.06 251.407 288.581C250.774 298.621 253.085 309.962 256.074 320.226C259.071 330.518 262.623 339.34 264.466 344.726C264.833 345.799 264.398 346.982 263.424 347.563C260.03 349.585 251.928 352.71 240.509 355.72C229.008 358.753 213.944 361.722 196.503 363.355C161.54 366.629 106.607 358.791 87.8491 354.846C86.739 354.613 85.9442 353.633 85.9442 352.498C85.944 348.29 83.4347 342.841 78.9776 336.56C74.59 330.376 68.6073 323.78 62.2765 317.352C55.9482 310.927 49.3618 304.757 43.753 299.374C38.232 294.075 33.5079 289.401 31.1851 286.139C26.9511 280.192 20.7614 272.092 17.3868 264.145C15.6892 260.147 14.5971 255.959 14.9319 251.928C15.2755 247.793 17.1109 243.992 20.9175 240.908C26.8516 236.102 33.6662 235.414 39.098 236.23C40.9991 236.515 42.7584 236.988 44.2918 237.549C42.4758 231.738 39.6567 223.131 36.2411 213.769C33.2154 205.476 28.6961 194.926 25.7777 184.212C22.8533 173.477 21.3715 162.064 24.6767 151.823C27.4715 143.164 33.7598 139.549 39.8195 138.601C42.7936 138.136 45.7069 138.306 48.1522 138.783C48.9514 138.939 49.7255 139.132 50.4535 139.357C50.4774 138.335 50.5003 137.177 50.5313 135.886C50.6032 132.893 50.7278 129.324 51.0775 125.491C51.7737 117.86 53.3766 108.995 57.3817 101.369C62.355 91.8988 68.9661 86.3706 75.8518 83.9292C82.7096 81.4978 89.6566 82.1974 95.1558 84.8597C96.778 85.645 97.9468 87.0974 98.811 88.6657C99.6909 90.2624 100.388 92.2208 100.952 94.3711C101.89 97.9446 102.526 102.305 102.945 106.972C103.018 106.507 103.09 106.043 103.163 105.579C105.39 91.5271 108.164 77.3877 111.216 68.9007C114.917 58.6088 119.137 48.0789 124.623 40.6287C127.38 36.8837 130.559 33.7734 134.295 31.894C138.091 29.9851 142.332 29.4143 147.004 30.5625C155.232 32.585 158.146 40.8309 158.761 48.5529C159.21 54.193 158.524 60.2618 157.326 65.2258C159.345 64.5819 161.177 64.4876 163.038 65.0543C164.561 65.5185 165.918 66.3761 167.232 67.3228C167.897 67.8025 168.6 68.3421 169.333 68.9045C170.076 69.4736 170.867 70.0792 171.746 70.7251C176.373 74.1227 178.525 80.4794 179.624 86.3392C179.977 88.222 180.234 90.127 180.422 91.9743C184.445 82.5012 189.867 69.7526 194.076 59.9308C195.755 56.0108 196.28 51.74 196.393 47.3039C196.449 45.0864 196.402 42.8753 196.358 40.6549C196.315 38.4572 196.275 36.2398 196.355 34.1137C196.514 29.9037 197.15 25.6613 199.506 22.1745C201.933 18.5848 205.91 16.1781 211.911 15.0683C215.786 14.352 219.497 15.7762 222.698 18.2016C225.899 20.6273 228.805 24.2023 231.247 28.3043C236.124 36.4956 239.464 47.3173 239.464 56.8256ZM123.692 173.041C123.648 173.051 123.605 173.063 123.563 173.074C123.606 173.063 123.648 173.051 123.692 173.041Z" fill="#1D1D25"/>
<circle cx="143.443" cy="301.77" r="16.791" fill="#F6F6F9"/>
<circle cx="207.729" cy="297.932" r="16.791" fill="#F6F6F9"/>
<ellipse cx="207.729" cy="298.412" rx="9.11512" ry="9.59486" fill="#1D1D25"/>
<ellipse cx="143.923" cy="301.77" rx="9.59486" ry="9.11512" fill="#1D1D25"/>
<path d="M193.077 317.455C194.218 316.782 195.689 317.161 196.362 318.302C197.035 319.443 196.656 320.914 195.515 321.587C190.458 326.23 184.943 329.189 179.424 329.588C173.844 329.991 167.91 326.709 161.879 322.538C160.743 321.857 160.374 320.383 161.055 319.247C161.736 318.111 163.209 317.742 164.346 318.423C170.026 321.827 174.696 322.956 179.071 322.64C183.505 322.319 187.925 320.496 193.077 317.455Z" fill="#1D1D25"/>
</svg>
