<svg width="25" height="20" viewBox="0 0 25 20" fill="none" xmlns="http://www.w3.org/2000/svg">
<path d="M11.159 0.705075C12.0522 1.47079 12.2993 2.53532 12.0712 3.67456C11.6531 5.7476 8.06118 6.25185 7.20596 7.85798C6.5788 9.0159 7.20596 10.6407 8.70734 10.5473C10.3608 10.4353 11.5771 8.90384 12.0712 7.46579C12.5653 6.02773 12.4513 4.77644 13.7626 4.30954C16.0812 3.45045 17.5256 6.68139 15.188 7.80195C12.8504 8.92251 12.7744 8.10077 12.2042 9.05325C11.6341 10.0057 12.0332 10.3419 12.5653 10.7341C13.5726 11.4811 14.4848 10.2672 15.169 9.72558C16.5183 8.66105 18.3808 10.2672 17.3735 11.7613C16.9744 12.3589 16.2713 12.471 15.6061 12.527C13.3445 12.7324 9.79062 12.2468 7.96615 13.7036C6.14169 15.1603 5.97065 16.5423 5.97065 16.5423C5.97065 16.5423 5.93264 16.8785 6.08468 17.0652C6.46477 17.5135 7.79511 17.7189 8.36526 17.7563C10.2087 17.8683 12.3943 17.252 14.0667 16.4863C15.169 15.982 15.8722 15.3471 16.5373 14.3572C16.8794 13.8343 17.0125 13.3114 17.7536 13.1806C18.5518 13.0499 19.16 14.1144 18.4758 14.6934C17.7917 15.2724 17.4876 14.8428 17.1455 15.235C16.8034 15.6272 16.7654 16.0194 17.0315 16.3556C17.2975 16.6917 17.9057 16.7478 18.3238 16.4116C19.3501 15.5898 20.1102 13.1993 20.2243 11.9294C20.4333 9.93102 20.1483 8.75443 19.084 7.07359C18.0197 5.39275 17.5636 5.3554 17.5826 4.27219C17.6016 2.29254 19.6921 1.04124 21.4596 2.0871C23.227 3.13296 22.7709 5.00055 22.0487 6.49463C21.3266 7.98871 20.8704 8.39959 20.9465 9.07192C21.0225 9.74426 21.5736 9.89367 22.1248 9.72558C22.6759 9.5575 22.5809 8.94119 22.8659 8.49297C23.265 7.83931 24.2533 7.6899 24.7474 8.32488C25.2415 8.95987 24.9375 9.6322 24.4624 10.1365C23.4931 11.1263 21.2885 11.1823 21.0415 12.7884C20.9845 13.162 21.0985 13.7222 21.5356 13.7596C22.1818 13.8156 22.7139 12.9379 23.4931 13.1806C24.2723 13.4234 24.2153 14.2265 23.7022 14.6C23.189 14.9735 23.113 14.7681 22.8279 14.7494C22.5429 14.7308 22.1438 14.4693 21.7257 14.6934C21.3075 14.9175 20.8134 15.9073 20.4903 16.2809C17.4496 19.8106 10.9689 20.9872 6.76885 19.1196C2.56878 17.252 0.687303 13.0873 0.687303 13.0873C0.687303 13.0873 -0.0538861 11.7799 0.00312837 11.1823C0.0981525 9.89367 2.07466 9.5575 2.43575 10.9022C2.79684 12.2468 1.96063 13.797 2.77783 14.7308C3.59504 15.6646 5.79958 13.9464 5.30548 13.1246C4.81137 12.3029 4.26021 12.8445 3.72808 12.7884C2.68281 12.6764 2.94888 10.9769 4.01315 11.201C5.07742 11.4251 4.41227 11.7426 4.96339 12.0041C5.51451 12.2655 6.23671 11.7426 6.21771 11.0329C6.1987 9.76294 4.6023 9.68823 3.67106 9.40809C2.73982 9.12795 0.687303 7.46579 1.01038 6.3639C1.33347 5.26202 1.99864 5.28069 2.6258 5.3554C3.25296 5.4301 3.70907 5.7476 3.93713 6.17714C4.26021 6.81213 4.10817 8.19415 5.07742 8.28753C5.51453 8.32488 6.04667 8.10077 6.1987 7.6899C6.44577 7.03624 6.16069 6.3639 6.08468 5.69157C5.93264 4.19749 5.91363 2.1618 6.93989 0.966539C7.96615 -0.228725 9.98067 -0.322105 11.235 0.723751L11.159 0.705075Z" fill="#B3B5C6"/>
<path d="M8.28916 15.3283C8.4602 15.5151 8.49821 15.7765 8.4602 16.0193C8.38418 16.5236 7.90906 16.1501 7.83304 15.7952C7.75703 15.4404 7.94707 14.9735 8.28916 15.3283Z" fill="#B3B5C6"/>
</svg>
