<svg width="512" height="384" viewBox="0 0 512 384" fill="none" xmlns="http://www.w3.org/2000/svg">
  <rect width="512" height="384" rx="24" fill="#3C3D50"/>
  <rect x="64" y="40" width="176" height="240" rx="16" stroke="#EDEDF1" stroke-width="8" fill="none"/>
  <rect x="224" y="72" width="224" height="272" rx="16" stroke="#EDEDF1" stroke-width="8" fill="none"/>
  <circle cx="297" cy="190" r="68" fill="#D6D6E1"/>
  <path d="M260 216c18-40 34-56 50-56 18 0 26 20 26 36 0 10-4 24-8 36-4 12-18 24-36 24-22 0-34-12-32-40z" fill="#B3B5C6"/>
  <rect x="256" y="104" width="64" height="10" rx="5" fill="#EDEDF1"/>
  <rect x="96" y="68" width="96" height="10" rx="5" fill="#EDEDF1"/>
  <rect x="96" y="88" width="64" height="10" rx="5" fill="#EDEDF1"/>
</svg>
